<svg width="341" height="103" viewBox="0 0 341 103" fill="none" xmlns="http://www.w3.org/2000/svg">
<path d="M50.3015 0.538707C50.0348 0.672041 43.5015 1.07204 35.9015 1.20537C17.7681 1.47204 14.4348 3.60537 12.4348 15.7387C12.1681 17.6054 11.6348 21.072 11.2348 23.3387C10.8348 25.7387 10.9681 27.7387 11.6348 27.7387C12.4348 27.7387 13.3681 28.8054 13.9015 30.0054C14.5681 32.0054 14.4348 32.1387 13.1015 30.672C10.5681 28.272 9.2348 28.672 9.2348 31.7387C9.2348 33.6054 9.90147 34.1387 11.6348 33.472C13.2348 32.9387 13.2348 33.3387 11.1015 34.8054C9.10147 36.4054 8.0348 39.072 7.36814 44.672C6.8348 48.8054 5.6348 56.5387 4.56814 61.6054C3.50147 66.8054 2.30147 74.0054 1.76814 77.7387C1.36814 81.3387 0.70147 84.8054 0.434803 85.3387C0.168136 85.7387 0.70147 86.5387 1.50147 86.8054C2.8348 87.3387 2.8348 87.6054 1.6348 87.6054C-0.631864 87.7387 -0.49853 93.072 1.76814 96.0054C4.56814 99.872 9.2348 100.672 25.2348 100.272C33.6348 100.139 42.8348 99.872 45.5015 99.872C49.7681 99.872 50.4348 99.472 49.6348 97.472C48.9681 95.472 49.1015 95.472 50.9681 97.7387C52.7015 99.872 53.2348 100.005 55.1015 98.5387C56.3015 97.6054 57.2348 94.9387 57.2348 92.8054V88.8054L34.3015 89.2054L11.2348 89.7387L11.5015 82.4054C11.6348 78.4054 12.8348 71.072 14.0348 66.1387C16.0348 57.6054 16.4348 57.072 20.4348 56.5387C22.7015 56.1387 26.0348 56.0054 27.9015 56.272C29.7681 56.4054 32.0348 55.7387 32.9681 54.5387C34.4348 52.672 34.4348 52.672 33.7681 54.8054C33.1015 56.8054 33.5015 57.072 36.1681 56.4054C37.9015 56.0054 40.3015 55.472 41.3681 55.3387C44.8348 54.8054 46.5681 52.9387 46.5681 49.872C46.5681 45.872 43.7681 45.072 30.3015 45.072C21.2348 45.072 19.7681 44.8054 18.4348 42.272C17.3681 40.272 17.3681 39.7387 18.4348 40.272C19.2348 40.8054 19.9015 40.272 20.0348 38.8054C20.0348 37.472 20.3015 35.472 20.5681 34.4054C20.7015 33.3387 21.3681 30.0054 21.7681 27.072C22.3015 24.1387 22.9681 19.872 23.5015 17.7387C23.9015 15.472 24.3015 12.672 24.4348 11.3387C24.4348 10.1387 24.9681 9.07204 25.6348 9.07204C26.1681 9.07204 26.3015 8.40537 25.7681 7.47204C25.2348 6.53871 25.3681 6.40537 26.3015 6.93871C27.1015 7.47204 27.3681 8.80537 26.9681 10.0054C26.1681 11.872 28.0348 12.0054 44.7015 11.072C54.8348 10.4054 64.1681 10.0054 65.3681 10.1387C66.4348 10.1387 68.1681 8.93871 69.1015 7.47204C70.5681 5.20537 70.4348 4.40537 68.7015 2.67204C66.9681 0.938707 66.1681 0.805374 63.5015 2.27204C61.6348 3.20537 59.1015 3.73871 57.7681 3.33871C56.0348 2.93871 56.3015 2.67204 58.9681 2.53871C65.1015 2.27204 62.9681 -0.127959 56.5681 0.005374C53.3681 0.005374 50.4348 0.272041 50.3015 0.538707ZM30.8348 5.33871C29.9015 6.27204 29.2348 6.40537 29.2348 5.60537C29.2348 3.73871 30.8348 2.13871 31.7681 3.07204C32.0348 3.47204 31.6348 4.53871 30.8348 5.33871ZM41.2348 3.73871C41.2348 4.40537 40.5681 5.07204 39.7681 5.07204C39.1015 5.07204 38.8348 4.40537 39.2348 3.73871C39.6348 2.93871 40.3015 2.40537 40.7015 2.40537C40.9681 2.40537 41.2348 2.93871 41.2348 3.73871ZM54.5681 2.93871C54.5681 3.20537 53.6348 3.73871 52.5681 4.27204C51.5015 4.67204 50.5681 4.40537 50.5681 3.73871C50.5681 2.93871 51.5015 2.40537 52.5681 2.40537C53.6348 2.40537 54.5681 2.67204 54.5681 2.93871ZM65.7681 4.40537C65.1015 5.87204 65.6348 6.27204 67.3681 5.60537C69.5015 4.93871 69.5015 5.07204 67.9015 6.27204C65.6348 7.87204 63.1015 6.13871 64.4348 3.87204C65.7681 1.73871 66.5681 2.13871 65.7681 4.40537ZM48.5681 8.80537C48.1681 9.20537 47.1015 8.80537 46.1681 7.87204C44.9681 6.53871 45.1015 6.40537 46.9681 7.20537C48.3015 7.60537 48.9681 8.40537 48.5681 8.80537ZM58.1681 8.53871C57.7681 8.93871 56.5681 9.07204 55.6348 8.67204C54.5681 8.27204 54.9681 7.87204 56.4348 7.87204C57.9015 7.73871 58.7015 8.13871 58.1681 8.53871ZM20.4348 16.9387C20.8348 17.6054 19.6348 18.0054 17.9015 18.0054C16.0348 18.0054 14.5681 17.6054 14.5681 16.9387C14.5681 16.272 15.7681 15.7387 17.1015 15.7387C18.5681 15.7387 20.0348 16.272 20.4348 16.9387ZM18.1681 35.6054C18.0348 37.072 17.3681 37.872 16.3015 37.472C14.9681 36.9387 14.8348 36.272 16.0348 34.9387C18.0348 32.4054 18.4348 32.5387 18.1681 35.6054ZM11.9015 37.072C11.9015 37.7387 11.2348 38.4054 10.4348 38.4054C9.76814 38.4054 9.50147 37.7387 9.90147 37.072C10.3015 36.272 10.9681 35.7387 11.3681 35.7387C11.6348 35.7387 11.9015 36.272 11.9015 37.072ZM18.5681 50.4054C18.5681 51.072 18.3015 51.7387 18.0348 51.7387C17.6348 51.7387 16.9681 51.072 16.5681 50.4054C16.1681 49.6054 16.4348 49.072 17.1015 49.072C17.9015 49.072 18.5681 49.6054 18.5681 50.4054ZM26.5681 50.272C26.5681 51.072 26.0348 51.872 25.5015 52.272C24.8348 52.672 24.3015 52.1387 24.3015 51.072C24.3015 50.0054 24.8348 49.072 25.5015 49.072C26.0348 49.072 26.5681 49.6054 26.5681 50.272ZM30.5681 50.5387C30.5681 51.6054 31.3681 51.472 32.9681 50.272C34.9681 48.5387 35.1015 48.672 33.3681 50.8054C32.0348 52.5387 31.1015 52.8054 29.7681 51.6054C27.5015 49.7387 27.3681 49.072 29.2348 49.072C30.0348 49.072 30.5681 49.7387 30.5681 50.5387ZM43.3681 52.0054C42.0348 52.672 40.3015 52.672 38.9681 51.872C36.9681 50.8054 37.5015 50.5387 40.9681 50.672C44.4348 50.8054 44.9681 51.072 43.3681 52.0054ZM9.2348 54.4054C9.2348 55.072 8.56814 55.7387 7.76814 55.7387C7.10147 55.7387 6.8348 55.072 7.2348 54.4054C7.6348 53.6054 8.30147 53.072 8.70147 53.072C8.96814 53.072 9.2348 53.6054 9.2348 54.4054ZM12.5681 61.072C12.9681 61.7387 12.7015 62.4054 12.0348 62.4054C11.2348 62.4054 10.5681 61.7387 10.5681 61.072C10.5681 60.272 10.8348 59.7387 11.1015 59.7387C11.5015 59.7387 12.1681 60.272 12.5681 61.072ZM9.2348 62.4054C9.2348 63.072 8.56814 63.7387 7.76814 63.7387C7.10147 63.7387 6.8348 63.072 7.2348 62.4054C7.6348 61.6054 8.30147 61.072 8.70147 61.072C8.96814 61.072 9.2348 61.6054 9.2348 62.4054ZM10.7015 67.3387C12.4348 69.472 12.3015 69.6054 10.3015 67.872C8.96814 66.9387 7.90147 65.872 7.90147 65.6054C7.90147 64.5387 8.96814 65.2054 10.7015 67.3387ZM10.3015 73.7387C10.4348 76.1387 9.90147 77.072 8.16814 77.072C6.4348 77.072 6.30147 76.8054 7.6348 75.872C8.56814 75.3387 9.2348 74.272 9.10147 73.6054C8.8348 72.1387 9.10147 70.4054 9.6348 70.4054C9.76814 70.4054 10.1681 71.872 10.3015 73.7387ZM32.5681 92.8054C32.1681 93.2054 31.1015 92.8054 30.1681 91.872C28.9681 90.5387 29.1015 90.4054 30.9681 91.2054C32.3015 91.6054 32.9681 92.4054 32.5681 92.8054ZM54.3015 92.272C53.3681 93.3387 52.3015 93.872 52.0348 93.7387C51.3681 92.9387 53.3681 90.4054 54.7015 90.4054C55.3681 90.4054 55.2348 91.2054 54.3015 92.272ZM21.7681 93.3387C21.3681 93.872 20.3015 94.0054 19.2348 93.472C16.4348 92.5387 16.7015 91.872 19.7681 92.1387C21.2348 92.1387 22.1681 92.8054 21.7681 93.3387ZM11.9015 96.4054C11.9015 98.0054 9.36814 98.0054 8.8348 96.4054C8.30147 95.2054 8.70147 94.8054 10.0348 95.3387C10.9681 95.7387 11.9015 96.272 11.9015 96.4054ZM36.8348 97.872C36.4348 98.272 35.2348 98.4054 34.3015 98.0054C33.2348 97.6054 33.6348 97.2054 35.1015 97.2054C36.5681 97.072 37.3681 97.472 36.8348 97.872Z" fill="black"/>
<path d="M314.435 16.1387C311.368 18.1387 309.768 20.4053 309.501 22.9387C309.101 26.272 309.368 26.5387 312.701 26.1387C314.701 25.872 316.568 24.9387 316.701 24.0053C316.835 23.072 316.701 22.9387 316.301 23.7387C315.368 25.6053 310.568 25.3387 310.568 23.3387C310.568 20.672 312.568 18.4053 316.568 16.272C321.368 13.872 322.435 13.872 319.101 16.5387C317.235 18.0053 317.101 18.4053 318.701 18.0053C319.901 17.6053 321.635 17.872 322.701 18.4053C323.901 19.2053 323.235 19.6053 320.568 19.472C314.035 19.3387 313.235 19.6053 313.235 21.872C313.235 23.472 313.768 23.7387 314.968 22.8053C316.435 21.6053 324.301 21.6053 329.501 22.672C332.835 23.472 334.168 25.072 330.835 24.4053C328.835 24.1387 328.035 24.8053 327.501 27.6053C327.101 29.472 325.235 32.8053 323.368 34.8053C321.501 36.8053 320.035 39.2053 320.301 40.0053C320.435 40.672 319.635 41.6053 318.301 41.7387C317.101 42.0053 312.435 44.672 308.035 47.872C301.368 52.5387 300.035 54.1387 300.701 56.272C301.901 60.1387 301.101 59.872 313.901 60.672C323.501 61.2053 325.368 61.072 324.568 59.6053C323.768 58.1387 323.901 58.0053 325.368 59.3387C327.235 61.2053 334.168 61.6053 337.768 60.272C340.568 59.2053 338.035 55.7387 334.435 55.7387C332.968 55.7387 331.901 55.072 331.901 54.4053C331.901 53.6053 333.768 53.872 336.568 54.9387C340.968 56.8053 341.235 56.8053 340.035 54.5387C339.101 52.8053 336.835 52.1387 331.235 51.872C325.235 51.6053 323.901 52.0053 324.701 53.3387C325.501 54.672 325.235 54.672 323.501 53.3387C322.301 52.272 320.835 51.872 320.168 52.1387C319.635 52.5387 318.301 52.4053 317.235 51.6053C315.901 50.8053 315.768 50.4053 316.835 50.4053C320.035 50.4053 329.768 41.2053 332.701 35.3387C334.701 31.6053 334.168 31.072 329.635 31.6053C328.701 31.7387 327.901 31.3387 327.901 30.5387C327.901 29.872 329.768 29.472 331.901 29.7387C335.101 30.1387 335.901 29.7387 335.901 27.872C335.901 23.472 333.235 17.7387 330.435 16.0053C328.168 14.5387 327.768 14.5387 328.568 16.0053C328.968 16.9387 328.568 16.672 327.501 15.3387C324.835 12.272 319.901 12.5387 314.435 16.1387ZM329.901 18.9387C330.835 18.5387 331.901 18.8053 332.301 19.3387C332.701 20.0053 331.501 20.5387 329.635 20.4053C327.635 20.4053 325.901 19.472 325.501 18.4053C325.101 16.8053 325.235 16.8053 326.568 18.0053C327.501 18.8053 328.968 19.2053 329.901 18.9387ZM333.635 27.3387C332.701 27.6053 331.101 27.6053 330.301 27.3387C329.368 26.9387 330.035 26.672 331.901 26.672C333.768 26.672 334.435 26.9387 333.635 27.3387ZM326.435 41.872C325.635 42.9387 324.435 43.3387 323.635 42.9387C322.968 42.4053 322.968 41.472 323.768 40.5387C324.568 39.6053 324.701 38.272 324.168 37.6053C323.635 37.072 324.301 37.3387 325.635 38.272C327.368 39.6053 327.635 40.5387 326.435 41.872ZM319.901 45.7387C319.901 46.8053 318.968 47.7387 317.768 47.7387C315.901 47.7387 315.901 47.3387 317.235 45.7387C318.168 44.672 319.101 43.7387 319.368 43.7387C319.635 43.7387 319.901 44.672 319.901 45.7387ZM312.568 47.7387C312.168 48.4053 312.435 49.072 313.368 49.072C314.435 49.072 314.435 49.6053 313.235 51.072C311.901 52.672 311.101 52.8053 309.768 51.6053C308.168 50.272 308.301 49.7387 310.168 48.272C313.101 46.1387 313.635 46.0053 312.568 47.7387ZM307.235 51.7387C307.768 52.5387 307.368 52.9387 306.301 52.8053C305.368 52.5387 304.701 53.072 304.835 53.872C304.968 54.672 304.168 55.3387 303.101 55.3387C301.635 55.3387 301.635 54.8053 303.501 52.8053C306.035 50.0053 306.168 50.0053 307.235 51.7387ZM329.235 54.4053C329.235 55.072 328.568 55.7387 327.768 55.7387C327.101 55.7387 326.835 55.072 327.235 54.4053C327.635 53.6053 328.301 53.072 328.701 53.072C328.968 53.072 329.235 53.6053 329.235 54.4053ZM312.035 56.672C313.768 58.8053 313.635 58.9387 311.635 57.2053C310.301 56.272 309.235 55.2053 309.235 54.9387C309.235 53.872 310.301 54.5387 312.035 56.672ZM322.568 54.9387C322.568 55.3387 322.035 56.0053 321.235 56.4053C320.568 56.8053 319.901 56.5387 319.901 55.872C319.901 55.072 320.568 54.4053 321.235 54.4053C322.035 54.4053 322.568 54.672 322.568 54.9387ZM307.901 57.072C307.901 57.7387 307.235 58.4053 306.435 58.4053C305.768 58.4053 305.501 57.7387 305.901 57.072C306.301 56.272 306.968 55.7387 307.368 55.7387C307.635 55.7387 307.901 56.272 307.901 57.072Z" fill="black"/>
<path d="M154.168 41.8722C153.635 42.4055 153.235 43.3388 153.235 44.0055C153.235 45.3388 156.301 44.8055 157.368 43.2055C157.901 42.6722 158.701 42.8055 159.101 43.6055C159.635 44.4055 159.368 45.2055 158.701 45.2055C157.901 45.3388 156.701 45.6055 155.901 45.7388C155.235 45.8722 154.035 46.1388 153.368 46.2722C152.835 46.2722 151.501 52.0055 150.568 58.6722C149.501 65.4722 148.701 71.3388 148.568 71.7388C148.435 72.1388 147.635 74.8055 146.835 77.7388C142.701 92.0055 142.568 93.0722 145.368 95.8722C148.301 98.8055 154.035 98.5388 153.768 95.2055C153.635 94.0055 154.035 93.3388 154.568 93.7388C155.101 94.0055 156.835 89.8722 158.568 84.2722C160.168 78.8055 163.235 70.9388 165.235 66.8055C167.368 62.6722 168.701 58.6722 168.301 58.0055C167.901 57.2055 168.168 57.0722 168.968 57.6055C169.768 58.0055 170.835 57.6055 171.501 56.6722C172.035 55.6055 174.568 53.7388 176.968 52.5388C180.435 50.8055 181.901 50.5388 183.235 51.7388C184.301 52.6722 185.901 52.8055 186.701 52.2722C187.768 51.6055 187.901 51.8722 187.101 53.2055C186.568 54.2722 186.168 56.6722 186.435 58.6722C186.568 60.8055 186.168 62.4055 185.368 62.4055C184.568 62.4055 184.435 61.4722 184.835 60.1388C185.368 58.6722 185.235 58.2722 184.168 58.9388C183.235 59.4722 182.568 59.2055 182.568 58.5388C182.568 57.7388 183.101 57.0722 183.901 57.0722C184.568 57.0722 184.835 56.1388 184.301 54.9388C183.635 53.2055 183.235 53.2055 182.301 54.6722C181.368 56.0055 181.235 55.8722 181.768 54.0055C182.168 52.8055 181.901 51.7388 181.368 51.7388C180.701 51.7388 179.901 56.6722 179.501 62.6722C179.101 68.8055 178.568 75.3388 178.168 77.3388C177.501 81.3388 178.035 81.7388 181.235 79.7388C182.568 78.8055 182.701 78.4055 181.501 78.4055C180.301 78.4055 180.435 77.4722 182.035 75.0722C183.368 73.0722 183.635 71.7388 182.701 71.7388C181.901 71.7388 181.235 71.0722 181.235 70.2722C181.235 69.2055 181.901 69.2055 183.235 70.4055C184.301 71.3388 184.835 72.5388 184.435 73.2055C184.035 73.8722 184.568 74.4055 185.501 74.4055C186.701 74.5388 186.435 75.0722 184.968 76.2722C183.635 77.2055 182.968 78.4055 183.368 78.8055C183.768 79.2055 182.568 80.5388 180.701 81.7388C174.568 85.8722 176.701 100.005 183.101 97.6055C184.301 97.2055 185.635 95.2055 186.035 93.2055C186.568 91.3388 187.501 88.9388 188.301 88.0055C189.101 86.9388 189.101 86.4055 188.168 86.4055C187.501 86.4055 186.435 87.3388 186.035 88.5388C185.101 91.0722 179.368 90.5388 179.101 87.7388C178.968 86.5388 179.235 86.4055 179.501 87.4722C179.901 88.4055 181.101 88.9388 182.301 88.8055C186.035 88.1388 189.901 83.3388 194.435 74.0055C199.768 62.6722 208.968 52.6722 213.501 53.3388C216.568 53.7388 216.835 54.0055 217.101 61.0722C217.235 65.8722 218.435 66.0055 223.101 61.7388C226.835 58.2722 227.368 55.0722 225.101 50.0055C222.301 44.0055 215.235 42.2722 206.968 45.7388C203.235 47.3388 202.568 48.1388 203.768 49.6055C204.568 50.5388 204.968 52.4055 204.435 53.4722C203.768 55.4722 203.501 55.4722 201.501 53.4722C199.501 51.6055 199.101 51.7388 195.635 55.7388C193.635 58.1388 192.435 60.8055 192.835 61.4722C193.235 62.2722 192.968 62.4055 192.168 61.8722C191.235 61.3388 190.568 61.6055 190.568 62.2722C190.568 63.0722 190.035 63.7388 189.235 63.7388C188.568 63.7388 188.168 61.2055 188.301 58.0055C188.835 51.8722 187.101 45.0722 184.968 45.0722C184.168 45.0722 184.035 46.0055 184.435 47.2055C184.835 48.4055 184.701 48.8055 183.901 48.4055C183.101 47.8722 182.701 46.5388 182.835 45.3388C183.101 43.6055 182.035 42.9388 178.968 42.6722C175.368 42.2722 173.501 43.3388 168.035 48.4055L161.368 54.6722L160.968 48.1388C160.701 42.9388 160.035 41.6055 157.901 41.3388C156.301 41.0722 154.701 41.3388 154.168 41.8722ZM178.568 45.2055C178.568 45.8722 177.901 46.1388 176.968 45.6055C176.035 45.0722 175.901 45.2055 176.435 46.2722C177.235 47.4722 177.901 47.4722 179.368 46.2722C180.835 45.0722 181.235 45.2055 181.235 47.0722C181.235 48.8055 180.435 49.2055 178.035 48.5388C175.635 48.0055 174.568 48.4055 174.035 50.0055C173.635 51.4722 173.501 50.9388 173.635 49.0722C173.901 45.8722 175.368 43.7388 177.635 43.7388C178.168 43.7388 178.568 44.4055 178.568 45.2055ZM217.501 46.0055C216.701 46.2722 216.301 47.3388 216.835 48.1388C217.501 49.2055 217.101 49.2055 215.635 48.1388C214.568 47.2055 213.101 46.9388 212.568 47.4722C211.901 48.0055 211.901 47.6055 212.435 46.6722C212.968 45.8722 214.701 45.0722 216.301 45.2055C217.901 45.2055 218.435 45.6055 217.501 46.0055ZM157.635 50.5388C157.101 52.5388 156.435 52.8055 155.368 51.7388C154.301 50.6722 154.435 50.0055 155.901 49.0722C156.968 48.4055 158.035 47.7388 158.168 47.7388C158.168 47.7388 158.035 48.9388 157.635 50.5388ZM171.101 48.8055C170.301 49.3388 169.768 51.0722 169.901 52.6722C170.035 54.5388 169.368 55.7388 168.301 55.7388C166.835 55.7388 166.835 55.0722 167.901 53.0722C168.701 51.6055 168.968 50.4055 168.568 50.4055C168.035 50.4055 168.168 49.7388 168.568 49.0722C168.968 48.2722 170.168 47.7388 170.968 47.7388C172.035 47.7388 172.168 48.0055 171.101 48.8055ZM207.901 49.6055C207.768 50.2722 208.435 51.3388 209.501 51.8722C210.835 52.8055 210.701 53.0722 208.968 53.0722C207.635 53.0722 206.568 52.8055 206.568 52.5388C206.568 52.2722 206.168 50.9388 205.635 49.6055C205.101 48.1388 205.368 47.6055 206.435 47.8722C207.368 48.2722 208.035 48.9388 207.901 49.6055ZM221.235 55.0722C220.301 56.1388 219.901 57.8722 220.301 59.0722C220.835 60.1388 220.701 61.2055 220.168 61.6055C218.568 62.5388 218.568 56.6722 220.168 54.8055C220.968 53.8722 221.901 53.0722 222.168 53.0722C222.568 53.0722 222.168 54.0055 221.235 55.0722ZM155.501 55.2055C155.101 55.6055 153.901 55.7388 152.968 55.3388C151.901 54.9388 152.301 54.5388 153.768 54.5388C155.235 54.4055 156.035 54.8055 155.501 55.2055ZM225.235 56.1388C225.235 57.2055 224.301 58.0055 223.235 58.0055C221.768 58.0055 221.635 57.4722 222.701 56.1388C223.501 55.2055 224.435 54.4055 224.701 54.4055C224.968 54.4055 225.235 55.2055 225.235 56.1388ZM199.901 61.0722C199.101 62.5388 198.301 63.7388 198.168 63.7388C197.901 63.7388 197.768 62.5388 197.768 61.0722C197.768 59.6055 198.568 58.4055 199.501 58.4055C200.968 58.4055 200.968 59.0722 199.901 61.0722ZM186.168 65.7388C186.168 66.5388 185.368 67.3388 184.435 67.3388C183.501 67.3388 183.101 66.4055 183.635 65.3388C184.035 64.0055 183.768 63.6055 182.835 64.2722C181.901 64.8055 181.235 64.4055 181.235 63.2055C181.235 61.4722 181.635 61.3388 183.635 62.5388C184.968 63.4722 186.168 64.8055 186.168 65.7388ZM162.701 66.8055C162.568 68.4055 160.701 68.0055 160.168 66.2722C159.768 65.4722 160.301 64.9388 161.235 65.2055C162.035 65.6055 162.701 66.2722 162.701 66.8055ZM194.968 66.8055C194.568 67.4722 193.501 67.6055 192.435 67.2055C191.501 66.8055 190.035 67.6055 189.368 68.8055C188.168 70.8055 188.035 70.8055 187.901 68.9388C187.901 67.7388 188.301 66.5388 188.701 66.1388C189.768 64.9388 195.768 65.6055 194.968 66.8055ZM157.235 69.6055C157.235 69.8722 155.768 70.4055 153.901 70.6722C152.035 71.0722 150.568 70.8055 150.568 70.2722C150.568 69.6055 152.035 69.0722 153.901 69.0722C155.768 69.0722 157.235 69.3388 157.235 69.6055ZM193.635 71.0722C193.235 72.2722 192.568 72.9388 192.301 72.5388C191.901 72.1388 192.035 71.3388 192.568 70.5388C193.768 68.4055 194.568 68.8055 193.635 71.0722ZM151.901 74.4055C151.901 75.0722 151.235 75.7388 150.435 75.7388C149.768 75.7388 149.501 75.0722 149.901 74.4055C150.301 73.6055 150.968 73.0722 151.368 73.0722C151.635 73.0722 151.901 73.6055 151.901 74.4055ZM190.568 75.7388C189.768 76.1388 189.501 77.4722 189.901 78.6722C190.301 79.7388 189.635 81.4722 188.435 82.5388C186.835 83.7388 186.435 83.8722 187.101 82.6722C187.635 81.8722 187.368 81.0722 186.701 81.0722C185.901 81.0722 185.235 80.4055 185.235 79.6055C185.235 78.8055 186.035 78.4055 187.101 78.8055C188.301 79.3388 188.701 78.5388 188.435 76.4055C188.301 74.1388 188.701 73.4722 190.168 74.0055C191.501 74.5388 191.635 75.0722 190.568 75.7388ZM157.368 81.4722C157.235 82.0055 157.235 83.3388 157.235 84.5388C157.235 86.2722 156.835 86.4055 155.368 85.0722C153.235 83.4722 154.035 79.3388 156.168 80.0055C156.835 80.2722 157.368 80.9388 157.368 81.4722ZM153.235 90.2722C154.835 92.0055 154.835 92.1388 152.701 91.3388C151.501 90.8055 149.235 91.0722 147.768 91.7388C145.101 93.3388 144.835 93.0722 146.035 90.0055C146.968 87.4722 150.835 87.6055 153.235 90.2722ZM184.568 94.4055C184.168 95.0722 182.701 95.7388 181.501 95.6055C179.635 95.6055 179.768 95.3388 181.901 94.4055C185.501 92.9388 185.501 92.9388 184.568 94.4055Z" fill="black"/>
<path d="M264.035 44.6719C253.501 49.8719 243.101 64.0053 242.435 73.8719C241.901 82.0053 245.901 94.4053 249.235 94.4053C250.301 94.4053 252.168 95.0719 253.235 95.8719C254.701 96.9386 254.435 97.0719 252.035 96.2719C248.835 95.4719 248.835 95.4719 252.568 98.9386C255.901 102.005 257.235 102.405 262.435 101.872C265.901 101.472 270.568 100.539 272.968 99.8719C277.901 98.4053 284.168 93.8719 282.968 92.5386C282.568 92.1386 282.701 91.7386 283.501 91.7386C285.368 91.7386 286.701 88.2719 285.768 85.7386C285.235 84.6719 283.901 83.7386 282.701 83.7386C281.501 83.7386 281.101 84.1386 281.901 84.8053C284.568 86.6719 283.768 90.4053 280.701 90.2719C279.235 90.2719 278.568 89.8719 279.501 89.6053C280.435 89.2053 280.701 88.0053 280.301 87.0719C279.768 85.4719 278.835 85.7386 275.501 88.2719C273.101 90.0053 269.101 91.7386 266.301 92.2719C262.035 93.0719 260.968 92.5386 256.701 88.6719C252.435 84.6719 251.901 83.3386 251.901 77.6053C251.901 73.0719 252.968 69.2053 255.235 65.2053C257.101 62.1386 258.568 59.2053 258.568 58.9386C258.568 58.6719 257.101 58.4053 255.235 58.4053C250.835 58.4053 250.968 55.3386 255.368 51.8719C258.035 49.7386 259.501 49.4719 261.368 50.5386C263.901 51.8719 263.901 51.8719 261.235 54.6719C257.901 58.2719 258.968 59.6053 262.568 56.4053C265.768 53.6053 266.035 50.6719 263.235 49.6053C262.168 49.0719 261.635 48.2719 262.035 47.4719C262.435 46.8053 263.635 47.4719 264.701 48.9386C266.168 50.9386 267.635 51.4719 271.101 50.8053C274.435 50.2719 276.568 50.8053 279.635 53.0719C286.035 57.8719 289.901 54.4053 285.901 47.6053C282.568 42.1386 272.035 40.8053 264.035 44.6719ZM276.301 46.8053C276.835 46.4053 277.235 46.6719 277.235 47.4719C277.235 48.4053 276.301 49.0719 275.235 49.0719C274.168 49.0719 273.235 48.8053 273.235 48.5386C273.235 48.2719 272.835 46.8053 272.435 45.4719C271.768 43.2053 271.768 43.2053 273.635 45.3386C274.701 46.6719 275.901 47.3386 276.301 46.8053ZM285.235 49.2053C285.235 50.0053 284.701 50.1386 283.901 49.7386C283.235 49.3386 282.568 48.2719 282.568 47.6053C282.568 46.8053 283.235 46.6719 283.901 47.0719C284.701 47.4719 285.235 48.5386 285.235 49.2053ZM251.901 61.2053C251.901 62.2719 252.701 62.1386 254.301 60.9386C256.301 59.2053 256.435 59.3386 254.701 61.3386C253.768 62.6719 253.368 63.7386 253.901 63.7386C254.568 63.7386 254.701 64.1386 254.301 64.5386C253.768 64.9386 252.168 64.0053 250.701 62.5386C248.568 60.4053 248.435 59.7386 249.901 59.7386C250.968 59.7386 251.901 60.4053 251.901 61.2053ZM250.035 69.7386C249.101 71.8719 248.301 72.2719 247.101 71.2053C245.901 70.1386 245.901 69.6053 247.368 69.3386C248.435 69.0719 249.235 68.2719 249.235 67.6053C249.235 66.8053 248.701 66.6719 247.901 67.0719C247.235 67.4719 246.968 67.0719 247.368 65.8719C247.901 64.4053 248.568 64.2719 249.768 65.3386C250.968 66.5386 250.968 67.7386 250.035 69.7386ZM250.568 75.3386C250.568 75.7386 249.368 75.7386 247.768 75.3386C245.768 74.8053 245.235 75.0719 245.768 76.4053C246.168 77.4719 245.901 78.6719 245.368 78.9386C244.568 79.4719 244.301 74.5386 245.101 73.4719C245.501 73.0719 250.568 74.8053 250.568 75.3386ZM249.235 83.8719C248.435 85.2053 247.368 86.4053 246.968 86.4053C246.568 86.4053 246.568 86.0053 246.968 85.4719C247.501 85.0719 247.368 84.0053 246.568 83.2053C245.768 82.1386 246.168 81.6053 248.035 81.4719C250.168 81.2053 250.301 81.6053 249.235 83.8719ZM276.701 91.0719C276.035 92.8053 277.368 93.7386 280.301 93.2053C282.301 92.9386 281.101 94.4053 278.301 95.8719C276.568 96.6719 275.635 96.9386 276.168 96.4053C276.701 95.7386 276.568 94.5386 275.768 93.6053C274.968 92.6719 274.701 91.2053 275.235 90.4053C276.435 88.4053 277.635 88.8053 276.701 91.0719ZM258.568 92.2719C258.568 92.5386 257.635 93.2053 256.435 93.6053C255.368 94.0053 254.835 93.8719 255.235 93.0719C256.035 91.7386 258.568 91.2053 258.568 92.2719ZM271.901 94.4053C271.901 95.0719 271.368 95.7386 270.568 95.7386C269.901 95.7386 269.235 95.0719 269.235 94.4053C269.235 93.6053 269.901 93.0719 270.568 93.0719C271.368 93.0719 271.901 93.6053 271.901 94.4053ZM266.168 95.6053C264.835 96.1386 263.768 96.9386 263.768 97.4719C264.035 100.005 263.635 100.539 261.235 100.672C259.768 100.805 258.301 100.405 257.901 99.6053C257.101 98.4053 258.835 97.8719 262.568 98.2719C264.168 98.4053 264.035 98.1386 262.301 96.6719C260.168 94.9386 260.301 94.8053 264.301 94.8053C267.235 94.6719 267.768 94.9386 266.168 95.6053ZM271.901 97.6053C271.901 98.0053 271.368 98.6719 270.568 99.0719C269.901 99.4719 269.235 99.2053 269.235 98.5386C269.235 97.7386 269.901 97.0719 270.568 97.0719C271.368 97.0719 271.901 97.3386 271.901 97.6053Z" fill="black"/>
<path d="M82.3014 46.5389C79.6348 48.0056 79.3681 50.1389 81.1014 52.9389C82.5681 55.2056 114.301 55.3389 118.568 53.0722C121.635 51.4722 122.168 47.0722 119.501 46.0056C116.035 44.6722 84.5681 45.0722 82.3014 46.5389ZM118.035 47.6056C117.501 48.2722 118.035 49.0722 118.835 49.4722C119.768 49.7389 120.168 50.5389 119.635 51.0722C119.101 51.6056 117.768 51.2056 116.701 50.0056C114.701 48.1389 115.101 46.4056 117.501 46.4056C118.168 46.4056 118.435 46.9389 118.035 47.6056ZM105.235 51.7389C105.235 52.4056 104.701 53.0722 104.035 53.0722C103.235 53.0722 102.301 52.4056 101.901 51.7389C101.501 50.9389 102.035 50.4056 103.101 50.4056C104.301 50.4056 105.235 50.9389 105.235 51.7389Z" fill="black"/>
<path d="M199.901 50.139C199.901 50.8057 200.835 51.8724 202.035 52.2724C203.368 52.8057 203.901 52.4057 203.635 51.4724C202.968 49.4723 199.901 48.4057 199.901 50.139Z" fill="black"/>
<path d="M255.635 53.2056C252.435 54.9389 252.568 57.0723 255.901 57.0723C257.235 57.0723 259.101 55.8723 259.901 54.4056C261.501 51.3389 259.635 50.8056 255.635 53.2056Z" fill="black"/>
<path d="M82.8348 62.2719C80.4348 63.7386 81.3681 68.4053 83.9015 68.4053C84.9681 68.4053 86.7015 69.0719 87.7681 69.7386C89.1015 70.4053 89.9015 70.2719 90.3015 69.3386C90.5681 68.4053 91.3681 67.7386 92.0348 67.7386C92.8348 67.7386 93.1015 68.2719 92.7015 68.8053C92.3015 69.4719 97.3681 70.0053 103.901 70.0053C117.501 70.1386 121.235 68.6719 118.701 64.0053C117.101 61.0719 113.235 60.0053 113.235 62.4053C113.235 63.3386 112.435 63.3386 110.701 62.4053C107.501 60.8053 85.3681 60.6719 82.8348 62.2719ZM85.2348 63.7386C85.2348 64.4053 84.5681 65.0719 83.7681 65.0719C83.1015 65.0719 82.8348 64.4053 83.2348 63.7386C83.6348 62.9386 84.3015 62.4053 84.7015 62.4053C84.9681 62.4053 85.2348 62.9386 85.2348 63.7386ZM117.768 66.6719C116.835 68.1386 113.235 68.0053 113.235 66.4053C113.235 65.7386 114.168 65.4719 115.235 65.8719C116.701 66.5386 117.101 66.0053 116.435 64.2719C115.768 62.2719 115.901 62.1386 116.968 63.7386C117.768 64.8053 118.035 66.1386 117.768 66.6719ZM91.9015 65.0719C91.9015 65.7386 90.8348 66.4053 89.6348 66.4053C87.6348 66.4053 87.5015 66.1386 89.2348 65.0719C91.7681 63.4719 91.9015 63.4719 91.9015 65.0719ZM108.835 64.5386C108.435 64.9386 107.235 65.0719 106.301 64.6719C105.235 64.2719 105.635 63.8719 107.101 63.8719C108.568 63.7386 109.368 64.1386 108.835 64.5386ZM102.568 67.0719C101.635 68.2719 100.568 68.8053 100.035 68.4053C99.6348 68.0053 100.168 67.0719 101.235 66.4053C104.035 64.5386 104.435 64.8053 102.568 67.0719ZM98.1681 67.2053C97.7681 67.6053 96.5681 67.7386 95.6348 67.3386C94.5681 66.9386 94.9681 66.5386 96.4348 66.5386C97.9015 66.4053 98.7015 66.8053 98.1681 67.2053Z" fill="black"/>
<path d="M225.101 62.6723C224.968 63.6056 224.968 64.8056 225.101 65.3389C225.101 65.8723 224.168 66.2723 222.835 66.1389C217.768 65.7389 216.168 66.5389 215.501 70.0056C215.101 72.1389 215.501 74.1389 216.301 74.6723C217.368 75.3389 217.101 75.7389 215.635 75.7389C214.035 75.7389 213.501 76.8056 213.501 79.6056C213.635 81.6056 213.235 84.0056 212.701 84.8056C212.301 85.6056 212.435 86.5389 213.235 87.0723C213.901 87.4723 214.568 87.0723 214.568 86.1389C214.568 84.9389 214.968 84.9389 215.901 86.4056C216.835 87.8723 216.568 88.6723 214.968 89.2056C213.101 89.8723 213.101 90.0056 215.501 90.6723C217.768 91.3389 218.301 90.9389 217.901 88.2723C217.768 86.6723 218.301 84.9389 219.235 84.5389C221.101 83.8723 220.301 90.1389 218.168 92.6723C217.368 93.8723 217.368 94.4056 218.435 94.4056C219.368 94.4056 219.635 94.9389 219.235 95.7389C218.835 96.4056 219.235 97.0723 220.435 97.0723C221.635 97.0723 222.835 94.8056 223.635 90.8056C224.968 84.5389 224.568 83.4723 220.835 82.1389C220.301 81.8723 219.635 79.8723 219.501 77.7389C219.235 74.2723 219.768 73.6056 223.635 72.4056C226.035 71.7389 227.768 70.5389 227.501 69.7389C226.835 68.2723 222.301 68.6723 221.235 70.4056C220.835 71.0723 219.768 71.0723 218.835 70.5389C217.501 69.7389 217.501 69.2056 219.101 67.8723C220.168 66.9389 221.635 66.5389 222.435 66.9389C224.301 68.1389 227.901 66.4056 227.901 64.4056C227.901 62.0056 225.235 60.4056 225.101 62.6723ZM217.235 78.4056C217.235 79.0723 216.701 79.7389 215.901 79.7389C215.235 79.7389 214.568 79.0723 214.568 78.4056C214.568 77.6056 215.235 77.0723 215.901 77.0723C216.701 77.0723 217.235 77.6056 217.235 78.4056ZM218.568 82.1389C218.568 82.8056 217.635 83.3389 216.568 83.3389C215.501 83.3389 214.968 82.8056 215.368 82.1389C215.768 81.6056 216.568 81.0723 217.368 81.0723C218.035 81.0723 218.568 81.6056 218.568 82.1389Z" fill="black"/>
<path d="M221.368 74.2721C219.768 75.3387 219.635 76.1387 220.968 79.0721C223.101 83.6054 225.768 82.6721 226.301 77.3387C226.701 72.9387 225.101 71.8721 221.368 74.2721ZM224.835 77.3387C224.435 78.4054 224.035 78.0054 224.035 76.5387C223.901 75.0721 224.301 74.2721 224.701 74.8054C225.101 75.2054 225.235 76.4054 224.835 77.3387Z" fill="black"/>
<path d="M212.568 93.0719C213.101 93.8719 214.035 94.1386 214.701 93.7386C216.568 92.5386 216.168 91.7386 213.768 91.7386C212.701 91.7386 212.168 92.4053 212.568 93.0719Z" fill="black"/>
<path d="M213.501 98.0055C214.035 100.939 218.301 101.872 220.435 99.6055C221.501 98.4055 221.501 98.2722 220.435 98.8055C219.501 99.3389 218.568 98.8055 218.035 97.7389C216.968 94.9389 212.968 95.2055 213.501 98.0055Z" fill="black"/>
</svg>
