<svg width="74" height="152" viewBox="0 0 74 152" fill="none" xmlns="http://www.w3.org/2000/svg">
<path d="M43.7001 1.05452C36.1001 4.52118 33.8334 5.98785 33.3001 7.58784C32.9001 8.65451 33.3001 9.05452 34.2334 8.52118C35.1667 7.85452 35.4334 8.38785 34.7667 9.72119C34.2334 11.1879 33.7001 11.4545 33.0334 10.5212C31.7001 8.25452 28.2334 12.9212 26.6334 19.0545C25.8334 21.9879 24.9001 27.9879 24.3667 32.3879C23.9667 36.7879 23.1667 42.6545 22.7667 45.5879C22.2334 49.7212 22.5001 50.5212 23.8334 49.7212C25.3001 48.9212 25.4334 49.0545 24.1001 50.5212C23.1667 51.4545 22.3667 53.5879 22.3667 55.3212C22.3667 58.1212 21.7001 58.3879 16.1001 58.5212C12.5001 58.6545 8.6334 58.6545 7.43339 58.5212C5.96673 58.2545 5.03339 59.1879 5.03339 60.3879C5.03339 61.5879 5.56673 62.2545 6.23339 61.7212C6.90006 61.3212 7.96673 61.7212 8.50006 62.5212C9.03339 63.5879 8.90006 63.7212 7.96673 63.1879C7.03339 62.6545 6.36673 63.0545 6.36673 63.9879C6.23339 64.9212 5.43339 64.2545 4.50006 62.5212C2.76673 59.3212 2.63339 59.3212 1.30006 61.9879C-0.433272 65.0545 -0.0332722 68.5212 2.10006 70.6545C4.50006 73.0545 21.1667 71.9879 23.4334 69.3212C24.9001 67.3212 25.0334 67.4545 23.8334 69.9879C22.1001 73.3212 21.8334 146.121 23.4334 148.655C23.9667 149.588 26.3667 150.655 28.6334 151.188C33.5667 152.121 33.8334 151.455 35.1667 137.321C35.7001 130.655 35.5667 127.721 34.5001 127.721C33.7001 127.721 33.0334 127.055 33.0334 126.255C33.0334 125.588 33.7001 125.321 34.3667 125.721C35.1667 126.121 35.7001 125.321 35.7001 123.855C35.7001 121.988 35.0334 121.321 33.7001 121.855C32.6334 122.388 31.7001 121.988 31.7001 121.188C31.7001 120.388 32.5001 119.855 33.4334 120.121C34.6334 120.255 35.0334 114.788 35.0334 95.7212V71.0545L39.5667 71.5879C42.5001 71.8545 43.7001 71.5879 43.1667 70.6545C42.7667 69.8545 42.9001 68.7879 43.7001 68.3879C44.5001 67.8545 44.9001 68.2545 44.7667 69.3212C44.5001 70.6545 47.0334 71.0545 55.4334 71.3212C64.5001 71.4545 66.3667 71.1879 65.8334 69.5879C65.4334 68.6545 65.8334 67.8545 66.7667 68.1212C68.6334 68.5212 69.7001 62.5212 67.9667 60.7879C66.3667 59.1879 57.0334 57.9879 57.0334 59.4545C57.0334 60.1212 56.1001 60.6545 55.0334 60.6545C53.9667 60.6545 53.4334 60.1212 53.7001 59.5879C54.1001 59.0545 50.3667 58.7879 45.3001 58.7879L36.3667 59.0545V47.7212C36.3667 41.4545 35.8334 35.5879 35.1667 34.5212C34.3667 33.1879 34.5001 32.9212 35.4334 33.5879C36.5001 34.2545 37.0334 33.3212 37.0334 30.7879C37.1667 25.0545 41.3001 17.9879 45.7001 15.7212C48.2334 14.5212 53.4334 13.7212 59.7001 13.7212C70.9001 13.7212 73.0334 12.9212 73.0334 8.52118C73.0334 2.65451 67.9667 0.254517 56.2334 0.121185C50.3667 0.121185 44.7667 0.521179 43.7001 1.05452ZM56.6334 1.85452C56.2334 2.25452 55.0334 2.38785 54.1001 1.98785C53.0334 1.58784 53.4334 1.18785 54.9001 1.18785C56.3667 1.05452 57.1667 1.45451 56.6334 1.85452ZM64.2334 5.85452C64.6334 6.92119 64.5001 7.45451 63.7001 7.05452C62.9001 6.65451 62.3667 5.72119 62.3667 4.92119C62.3667 3.05452 63.3001 3.45451 64.2334 5.85452ZM68.3667 6.12119C67.9667 6.52118 66.9001 6.12119 65.9667 5.18785C64.7667 3.85452 64.9001 3.72118 66.7667 4.52118C68.1001 4.92119 68.7667 5.72119 68.3667 6.12119ZM42.3667 5.72119C42.3667 5.98785 41.0334 6.92119 39.4334 7.72119C36.5001 9.18785 36.5001 9.05452 38.9001 7.18785C41.7001 4.92119 42.3667 4.65451 42.3667 5.72119ZM50.2334 5.45451C49.9667 5.58784 48.5001 6.65451 47.0334 7.72119C44.5001 9.58784 44.5001 9.58784 46.2334 7.32118C47.1667 6.12119 48.6334 5.05452 49.4334 5.05452C50.2334 5.05452 50.5001 5.18785 50.2334 5.45451ZM63.3001 9.72119C64.5001 12.9212 63.1667 13.3212 61.3001 10.3878C60.2334 8.65451 60.2334 7.72119 61.0334 7.72119C61.8334 7.72119 62.7667 8.65451 63.3001 9.72119ZM70.3667 10.9212C69.4334 11.8545 68.6334 11.8545 67.7001 10.9212C66.9001 10.1212 67.3001 9.58784 69.0334 9.58784C70.7667 9.58784 71.1667 10.1212 70.3667 10.9212ZM38.7667 13.1879C38.2334 15.1879 37.7001 15.4545 36.9001 14.2545C36.1001 12.7879 37.4334 10.5212 39.3001 10.3878C39.3001 10.3878 39.1667 11.5878 38.7667 13.1879ZM29.7001 19.7212C30.1001 20.3879 29.8334 21.0545 29.1667 21.0545C28.3667 21.0545 27.7001 20.3879 27.7001 19.7212C27.7001 18.9212 27.9667 18.3879 28.2334 18.3879C28.6334 18.3879 29.3001 18.9212 29.7001 19.7212ZM35.7001 42.3879C35.7001 43.0545 35.4334 43.7212 35.1667 43.7212C34.7667 43.7212 34.1001 43.0545 33.7001 42.3879C33.3001 41.5879 33.5667 41.0545 34.2334 41.0545C35.0334 41.0545 35.7001 41.5879 35.7001 42.3879ZM34.3667 58.3879C34.3667 59.0545 33.7001 59.7212 32.9001 59.7212C32.2334 59.7212 31.9667 59.0545 32.3667 58.3879C32.7667 57.5879 33.4334 57.0545 33.8334 57.0545C34.1001 57.0545 34.3667 57.5879 34.3667 58.3879ZM14.9001 61.7212C14.3667 62.7879 13.1667 63.7212 11.9667 63.7212C10.2334 63.7212 10.3667 63.3212 12.5001 61.7212C15.7001 59.3212 15.8334 59.3212 14.9001 61.7212ZM28.6334 60.5212C28.2334 60.9212 27.0334 61.0545 26.1001 60.6545C25.0334 60.2545 25.4334 59.8545 26.9001 59.8545C28.3667 59.7212 29.1667 60.1212 28.6334 60.5212ZM62.3667 61.7212C63.5667 61.0545 63.8334 61.1879 63.1667 62.1212C61.7001 64.5212 58.3667 63.9879 58.3667 61.3212C58.3667 59.5879 58.6334 59.4545 59.5667 60.9212C60.2334 61.9879 61.4334 62.2545 62.3667 61.7212ZM47.7001 62.3879C46.6334 63.0545 45.1667 63.7212 44.3667 63.7212C43.7001 63.7212 43.9667 63.0545 45.0334 62.3879C46.1001 61.7212 47.7001 61.0545 48.3667 61.0545C49.1667 61.0545 48.7667 61.7212 47.7001 62.3879ZM21.0334 63.7212C21.0334 64.3879 20.5001 65.0545 19.7001 65.0545C19.0334 65.0545 18.3667 64.3879 18.3667 63.7212C18.3667 62.9212 19.0334 62.3879 19.7001 62.3879C20.5001 62.3879 21.0334 62.9212 21.0334 63.7212ZM27.0334 63.7212C27.4334 64.3879 27.1667 65.0545 26.5001 65.0545C25.7001 65.0545 25.0334 64.3879 25.0334 63.7212C25.0334 62.9212 25.3001 62.3879 25.5667 62.3879C25.9667 62.3879 26.6334 62.9212 27.0334 63.7212ZM6.36673 68.3879C5.43339 69.4545 4.10006 70.3879 3.43339 70.3879C2.63339 70.3879 2.76673 69.4545 3.70006 68.3879C4.63339 67.3212 5.96673 66.3879 6.63339 66.3879C7.43339 66.3879 7.30006 67.3212 6.36673 68.3879ZM54.3667 67.8545C54.3667 68.5212 55.0334 68.7879 55.9667 68.2545C56.9001 67.7212 57.0334 67.8545 56.5001 68.7879C55.9667 69.5879 54.7667 69.9879 53.7001 69.4545C51.4334 68.6545 51.0334 66.3879 53.0334 66.3879C53.8334 66.3879 54.3667 67.0545 54.3667 67.8545ZM61.9667 68.5212C61.5667 68.9212 60.3667 69.0545 59.4334 68.6545C58.3667 68.2545 58.7667 67.8545 60.2334 67.8545C61.7001 67.7212 62.5001 68.1212 61.9667 68.5212ZM15.3001 69.8545C14.9001 70.2545 13.7001 70.3879 12.7667 69.9879C11.7001 69.5879 12.1001 69.1879 13.5667 69.1879C15.0334 69.0545 15.8334 69.4545 15.3001 69.8545ZM33.9667 94.6545C33.5667 95.7212 33.1667 95.3212 33.1667 93.8545C33.0334 92.3879 33.4334 91.5879 33.8334 92.1212C34.2334 92.5212 34.3667 93.7212 33.9667 94.6545ZM32.6334 117.321C32.2334 118.388 31.8334 117.988 31.8334 116.521C31.7001 115.055 32.1001 114.255 32.5001 114.788C32.9001 115.188 33.0334 116.388 32.6334 117.321ZM26.3667 121.721C27.3001 122.921 27.4334 123.721 26.6334 123.721C25.9667 123.721 25.0334 122.788 24.5001 121.721C24.1001 120.655 23.9667 119.721 24.2334 119.721C24.5001 119.721 25.4334 120.655 26.3667 121.721ZM29.5667 131.188C29.9667 132.255 29.8334 132.788 29.0334 132.388C28.2334 131.988 27.7001 131.055 27.7001 130.255C27.7001 128.388 28.6334 128.788 29.5667 131.188ZM32.2334 149.188C31.3001 150.921 27.9667 150.655 26.9001 148.921C26.3667 147.855 27.0334 147.721 29.1667 148.388L32.3667 149.455L29.7001 146.255L27.0334 143.055L29.9667 145.588C31.7001 146.921 32.6334 148.655 32.2334 149.188Z" fill="black"/>
</svg>
