<svg width="134" height="247" viewBox="0 0 134 247" fill="none" xmlns="http://www.w3.org/2000/svg">
<path d="M52.1755 1.8691C51.2422 3.0691 50.7088 4.13577 51.2422 4.13577C56.1755 5.20243 59.1088 4.00243 55.2422 2.53577C52.9755 1.60243 52.9755 1.4691 55.7755 1.4691C57.3755 1.33577 58.7088 2.13577 58.7088 2.93577C58.7088 4.13577 59.1088 4.00243 60.0422 2.6691C60.7088 1.60243 61.6422 1.20243 62.1755 1.73577C63.3755 2.80243 58.5755 6.6691 57.1088 5.8691C56.5755 5.60243 55.7755 6.00243 55.3755 6.6691C54.7088 7.73577 53.5088 7.33577 51.7755 5.73577C49.2422 3.4691 49.1088 3.4691 46.5755 6.6691C44.1755 9.8691 44.1755 10.1358 46.4422 12.0024C49.5088 14.5358 48.7088 17.3358 45.2422 17.3358C43.7755 17.3358 42.9755 16.6691 43.3755 16.0024C43.9088 15.2024 44.8422 14.9358 45.5088 15.3358C46.1755 15.7358 46.3088 15.2024 45.9088 14.1358C44.5755 10.8024 43.2422 11.6024 41.6422 16.8024C40.5755 20.5358 40.5755 21.6024 42.1755 22.2691C44.8422 23.2024 44.4422 25.2024 41.7755 24.8024C40.4422 24.5358 39.2422 23.7358 39.2422 22.9358C39.1088 22.0024 38.8422 20.9358 38.7088 20.2691C38.5755 19.7358 38.4422 18.8024 38.5755 18.2691C38.7088 17.7358 36.5755 16.2691 33.7755 15.2024C24.0422 11.0691 13.3755 15.4691 8.84216 25.4691C6.70882 30.2691 5.90882 38.0024 7.77549 36.9358C8.30882 36.5358 8.70882 38.6691 8.70882 41.4691C8.84216 45.4691 9.77549 47.7358 13.3755 51.3358C15.9088 53.8691 18.9755 56.2691 20.3088 56.8024C23.9088 57.8691 23.2422 59.3358 18.0422 61.2024C11.7755 63.4691 5.10882 69.2024 5.90882 71.6024C6.30882 72.6691 6.04216 73.0691 5.37549 72.6691C3.64216 71.6024 1.37549 77.6024 1.37549 83.4691C1.37549 87.3358 1.77549 88.0024 4.57549 88.0024C6.44216 88.0024 8.17549 88.5358 8.57549 89.2024C8.97549 89.7358 7.77549 90.0024 6.04216 89.6024C1.77549 88.8024 1.77549 90.9358 6.17549 95.6024L9.64216 99.3358L7.37549 95.3358C6.04216 93.0691 5.77549 92.0024 6.70882 92.9358C7.64216 93.7358 9.37549 94.1358 10.5755 93.7358C12.4422 93.2024 12.4422 93.3358 10.7088 94.6691C8.97549 96.0024 9.24216 96.1358 11.7755 95.6024C13.6422 95.2024 14.4422 95.4691 13.7755 96.4024C13.2422 97.3358 13.7755 97.4691 15.2422 96.9358C16.9755 96.2691 17.5088 96.6691 17.2422 98.4024C16.8422 102.802 17.3755 103.602 21.1088 103.336C23.1088 103.202 26.1755 102.936 27.7755 102.936C29.6422 102.802 31.2422 101.602 31.6422 100.136C32.0422 98.5358 33.1088 97.8691 34.1755 98.2691C35.5088 98.8024 35.7755 98.2691 35.1088 96.5358C34.3088 94.2691 34.4422 94.2691 36.4422 95.8691C38.9755 97.8691 40.8422 97.0691 39.3755 94.8024C38.9755 94.0024 37.3755 93.3358 35.9088 93.3358C34.4422 93.3358 33.6422 92.8024 34.0422 92.0024C34.5755 91.2024 36.3088 91.4691 38.7088 92.6691C41.1088 93.8691 42.8422 94.1358 43.3755 93.3358C43.7755 92.5358 43.2422 92.0024 42.1755 92.0024C40.9755 92.0024 40.0422 91.3358 40.0422 90.5358C40.0422 89.8691 39.5088 89.6024 38.7088 90.0024C38.0422 90.4024 37.3755 90.1358 37.3755 89.4691C37.3755 87.6024 39.6422 87.6024 40.7088 89.3358C41.2422 90.1358 42.1755 90.2691 42.9755 89.8691C43.7755 89.3358 43.6422 88.5358 42.5755 87.7358C41.1088 86.6691 41.2422 86.5358 43.1088 87.2024C44.3088 87.6024 45.3755 87.3358 45.3755 86.8024C45.3755 86.1358 44.7088 85.3358 43.7755 85.0691C42.5755 84.6691 42.5755 84.2691 43.7755 83.4691C44.7088 82.9358 45.3755 83.2024 45.3755 83.8691C45.3755 84.6691 46.9755 85.4691 49.1088 85.4691C51.7755 85.6024 52.0422 85.8691 50.1755 86.2691C48.7088 86.6691 46.8422 87.6024 46.0422 88.5358C44.0422 90.5358 45.1088 98.6691 47.3755 98.6691C48.3088 98.6691 49.3755 99.4691 49.7755 100.269C50.0422 101.202 50.3088 99.4691 50.1755 96.2691C49.7755 89.3358 51.6422 88.8024 52.4422 95.6024C52.8422 99.6024 52.9755 99.0691 53.1088 93.3358C53.5088 83.6024 54.5755 82.0024 61.2422 82.4024C64.0422 82.6691 66.8422 82.1358 67.3755 81.3358C68.7088 79.0691 70.7088 79.8691 72.1755 83.2024C74.0422 87.2024 78.3088 88.6691 79.1088 85.4691C79.5088 84.1358 79.7755 84.4024 79.9088 86.5358C80.0422 88.6691 79.5088 89.4691 78.0422 88.9358C76.5755 88.2691 76.1755 89.4691 76.1755 95.0691C76.3088 103.736 74.5755 108.136 69.9088 111.869C63.3755 116.936 57.7755 114.802 54.7088 105.736C53.5088 102.536 52.5755 101.736 50.4422 102.402C48.9755 102.802 47.2422 102.269 46.5755 101.202C45.6422 100.002 45.5088 101.202 46.0422 104.669C47.3755 112.936 47.5088 113.202 52.8422 113.602C55.6422 113.869 58.0422 114.669 58.3088 115.469C58.9755 117.736 54.5755 119.069 52.8422 117.202C51.7755 116.002 51.9088 115.869 53.7755 116.402C54.9755 116.936 56.0422 116.669 56.0422 116.002C56.0422 115.336 54.5755 114.802 52.7088 114.936C50.8422 115.069 49.3755 115.602 49.3755 116.002C49.3755 117.602 52.7088 120.002 54.8422 120.002C58.7088 120.002 60.8422 123.336 61.2422 130.136C61.5088 136.536 63.1088 140.002 65.7755 140.002C66.5755 140.002 66.0422 139.202 64.5755 138.136C63.1088 137.069 62.5755 135.736 63.2422 135.069C63.9088 134.536 64.7088 134.802 64.9755 135.602C65.3755 136.536 66.3088 137.336 67.2422 137.336C68.3088 137.336 68.7088 135.336 68.4422 130.936C68.1755 126.936 68.7088 122.936 70.0422 120.536C71.1088 118.402 72.0422 115.869 72.0422 114.802C72.0422 113.469 72.4422 113.336 73.7755 114.536C75.1088 115.602 76.0422 115.469 77.3755 114.269C78.9755 112.936 78.9755 113.069 77.5088 114.936C76.5755 116.269 75.2422 117.069 74.7088 116.669C73.3755 115.869 71.5088 118.536 72.5755 119.602C72.9755 120.136 75.2422 118.802 77.3755 116.669C80.4422 113.736 80.9755 112.536 79.7755 111.069C78.5755 109.602 78.0422 109.469 77.1088 110.936C76.4422 112.002 76.1755 111.202 76.5755 108.802C77.3755 104.269 78.1755 103.336 79.3755 105.202C79.7755 106.002 79.5088 106.669 78.7088 106.669C77.7755 106.669 77.9088 107.336 78.9755 108.536C79.9088 109.602 81.1088 110.002 81.6422 109.602C83.1088 108.136 85.1088 93.3358 83.9088 93.3358C83.2422 93.3358 83.1088 92.4024 83.5088 91.3358C84.0422 90.2691 83.6422 89.3358 82.8422 89.3358C82.0422 89.3358 81.6422 88.0024 81.7755 86.4024C82.0422 84.8024 81.5088 81.8691 80.4422 80.0024C79.2422 77.4691 78.9755 74.8024 79.7755 71.2024C80.5755 66.9358 81.5088 66.0024 85.2422 64.9358C87.7755 64.4024 91.2422 62.9358 93.2422 61.7358C95.9088 60.2691 96.1755 60.1358 94.4422 61.6024C91.6422 64.0024 92.5755 65.3358 96.9755 65.3358C99.1088 65.3358 99.9088 64.8024 99.2422 63.7358C98.7088 62.8024 98.8422 62.6691 99.9088 63.2024C100.709 63.7358 101.109 64.8024 100.709 65.4691C100.175 66.1358 101.375 67.2024 103.242 68.0024C105.375 68.8024 107.509 71.2024 108.842 74.5358C110.175 78.1358 111.909 80.0024 113.775 80.2691C115.375 80.5358 116.709 81.7358 116.842 83.0691C116.975 84.6691 116.975 84.8024 116.442 83.3358C115.509 80.2691 111.375 80.9358 109.375 84.6691C107.242 88.5358 100.842 90.9358 95.3755 89.7358C93.2422 89.3358 90.3088 88.9358 88.9755 88.8024C87.7755 88.8024 86.3088 87.7358 85.9088 86.4024C85.5088 85.0691 84.5755 84.0024 83.7755 84.0024C82.9755 84.0024 82.9755 84.8024 84.0422 86.0024C84.9755 87.0691 85.2422 88.0024 84.7088 88.0024C84.1755 88.0024 84.4422 88.8024 85.2422 89.7358C86.0422 90.8024 86.3088 92.0024 85.7755 92.4024C85.3755 92.9358 86.1755 93.3358 87.7755 93.3358C89.2422 93.3358 90.8422 92.8024 91.3755 92.0024C91.7755 91.3358 93.1088 91.2024 94.1755 91.6024C95.6422 92.1358 95.7755 92.8024 94.8422 93.7358C93.9088 94.6691 94.5755 95.6024 96.9755 96.9358C102.309 99.7358 103.509 98.9358 99.9088 94.9358C98.1755 92.9358 97.6422 92.1358 98.7088 92.9358C101.375 95.3358 102.842 95.0691 101.775 92.4024C101.109 90.6691 101.509 90.4024 103.242 91.0691C104.575 91.6024 106.175 92.0024 106.842 92.0024C107.509 92.0024 108.042 92.9358 108.042 94.0024C108.042 96.6691 106.709 96.5358 104.575 93.6024C102.975 91.4691 102.842 91.4691 103.242 93.8691C103.775 97.4691 105.775 97.8691 110.575 95.3358C122.575 89.2024 120.709 67.7358 107.509 60.6691C104.842 59.2024 102.709 57.6024 102.709 56.9358C102.709 56.4024 102.042 56.2691 101.109 56.8024C100.175 57.3358 100.042 57.2024 100.575 56.1358C101.109 55.3358 102.042 54.9358 102.575 55.2024C103.909 56.1358 109.375 52.2691 109.375 50.4024C109.375 49.6024 108.575 49.6024 107.375 50.6691C105.642 52.0024 104.842 52.0024 102.709 50.0024C100.309 47.7358 99.9088 47.7358 97.7755 49.7358C95.5088 51.7358 83.5088 57.3358 81.6422 57.3358C81.1088 57.3358 80.0422 56.0024 79.3755 54.2691C78.4422 52.2691 76.9755 51.4691 74.7088 51.6024C72.8422 51.7358 72.3088 51.6024 73.7755 51.2024C76.3088 50.4024 76.7088 49.2024 74.5755 47.0691C73.6422 46.1358 74.0422 44.2691 76.0422 40.8024C77.7755 38.0024 78.3088 36.0024 77.3755 36.0024C76.5755 36.0024 76.1755 35.4691 76.7088 34.6691C77.1088 34.0024 78.4422 33.8691 79.6422 34.2691C81.2422 34.9358 81.6422 34.5358 80.9755 32.9358C80.4422 31.4691 80.7088 31.0691 81.9088 31.4691C82.8422 31.8691 84.3088 31.2024 85.2422 30.2691C86.4422 28.6691 86.3088 28.1358 84.7088 27.4691C83.5088 27.0691 82.8422 27.2024 83.2422 27.7358C83.6422 28.4024 83.1088 28.9358 82.0422 28.9358C80.8422 28.9358 80.5755 28.0024 81.2422 26.1358C82.5755 22.4024 79.6422 8.53577 77.6422 8.93577C76.7088 9.20243 76.1755 8.6691 76.4422 7.8691C77.6422 2.40243 56.1755 -2.9309 52.1755 1.8691ZM51.1088 10.1358C50.0422 12.8024 48.1755 12.4024 48.4422 9.4691C48.4422 8.13577 49.3755 7.20243 50.1755 7.60243C51.1088 8.00243 51.5088 9.0691 51.1088 10.1358ZM69.9088 10.8024C70.8422 12.1358 71.9088 13.0691 72.1755 12.8024C72.5755 12.4024 72.7088 16.2691 72.7088 21.3358C72.7088 26.2691 72.4422 30.1358 72.1755 29.8691C71.1088 28.8024 65.5088 41.7358 66.3088 43.2024C66.8422 44.0024 66.1755 44.1358 64.5755 43.4691C61.5088 42.2691 61.7755 42.2691 56.7088 42.5358C53.6422 42.6691 53.1088 42.9358 54.7088 44.0024C56.4422 45.0691 56.4422 45.3358 54.5755 45.3358C53.3755 45.3358 51.5088 44.2691 50.5755 43.0691C49.2422 41.6024 49.2422 41.2024 50.4422 41.8691C52.3088 43.0691 52.5755 41.4691 50.7088 38.6691C49.9088 37.3358 49.3755 37.2024 49.3755 38.2691C49.3755 39.2024 48.0422 39.8691 46.4422 39.8691C44.1755 39.7358 44.0422 39.4691 45.6422 39.0691C47.1088 38.6691 47.6422 37.7358 47.1088 36.4024C46.5755 35.2024 46.8422 34.5358 47.5088 35.0691C48.3088 35.4691 48.8422 32.6691 48.8422 27.4691C48.8422 18.4024 51.9088 11.0691 57.1088 8.53577C60.9755 6.53577 67.7755 7.73577 69.9088 10.8024ZM74.7088 7.20243C74.7088 7.4691 73.7755 8.13577 72.5755 8.53577C71.5088 8.93577 70.9755 8.80243 71.3755 8.00243C72.1755 6.6691 74.7088 6.13577 74.7088 7.20243ZM77.5088 12.9358C79.2422 15.0691 79.1088 15.2024 77.1088 13.4691C75.7755 12.5358 74.7088 11.4691 74.7088 11.2024C74.7088 10.1358 75.7755 10.8024 77.5088 12.9358ZM27.2422 16.9358C25.9088 17.8691 25.3755 18.6691 26.1755 18.6691C26.8422 18.6691 26.3088 19.3358 24.9755 20.1358C23.1088 21.2024 22.0422 21.2024 20.9755 20.0024C19.7755 18.9358 20.0422 18.8024 22.0422 19.4691C23.5088 20.0024 24.3088 20.0024 23.7755 19.4691C22.5755 18.1358 25.3755 15.0691 27.7755 15.0691C29.2422 15.0691 29.1088 15.6024 27.2422 16.9358ZM18.1755 19.8691C18.0422 24.1358 16.0422 27.3358 16.0422 23.3358C16.0422 21.3358 15.7755 21.2024 13.7755 22.8024C11.7755 24.4024 11.6422 24.4024 12.7088 22.6691C13.6422 21.0691 17.5088 16.4024 18.1755 16.1358C18.3088 16.0024 18.3088 17.7358 18.1755 19.8691ZM34.3088 18.6691C34.7088 20.1358 35.6422 21.3358 36.5755 21.4691C37.3755 21.6024 36.5755 22.0024 34.7088 22.6691L31.3755 23.6024L34.9755 24.5358C37.7755 25.3358 38.7088 26.6691 39.3755 30.8024C40.1755 35.4691 40.7088 36.0024 43.1088 35.2024C46.0422 34.4024 46.0422 34.4024 43.3755 36.4024C41.2422 38.0024 41.1088 38.8024 42.4422 40.4024C43.3755 41.4691 44.4422 43.7358 44.7088 45.4691C45.1088 47.0691 46.0422 48.9358 46.9755 49.6024C48.5755 50.5358 47.5088 51.2024 45.1088 50.8024C42.7088 50.4024 44.3088 54.4024 46.7088 55.0691C49.5088 55.7358 50.4422 58.6691 47.9088 58.6691C47.2422 58.6691 46.8422 58.1358 47.2422 57.4691C47.6422 56.8024 46.7088 56.0024 45.1088 55.6024C41.9088 54.6691 39.6422 56.0024 42.4422 56.9358C43.2422 57.3358 43.7755 58.1358 43.2422 58.8024C42.4422 60.2691 40.0422 60.4024 40.1755 58.9358C40.7088 56.1358 39.7755 54.6691 37.5088 54.6691C34.1755 54.6691 23.2422 50.0024 22.0422 48.1358C21.6422 47.3358 20.5755 47.0691 19.7755 47.4691C18.9755 48.0024 18.7088 47.8691 19.1088 47.0691C20.0422 45.6024 16.4422 40.0024 14.5755 40.0024C13.7755 40.0024 14.1755 40.9358 15.2422 42.1358C17.7755 44.5358 17.9088 46.1358 15.7755 47.4691C14.8422 48.0024 14.7088 47.8691 15.2422 46.9358C15.7755 46.1358 14.7088 44.0024 13.1088 42.4024L10.0422 39.3358L12.8422 38.9358C15.1088 38.6691 15.6422 37.8691 15.1088 35.6024C14.7088 34.0024 13.3755 31.8691 12.1755 30.8024C10.1755 29.0691 10.1755 29.0691 12.3088 29.7358C13.9088 30.2691 15.1088 29.6024 16.0422 28.0024C18.0422 24.2691 24.9755 21.0691 28.4422 22.1358C31.1088 22.9358 31.2422 22.9358 29.3755 20.5358C27.5088 18.1358 27.5088 18.1358 29.7755 19.8691C30.9755 20.9358 32.5755 21.2024 33.1088 20.6691C33.6422 20.1358 33.2422 19.3358 32.4422 19.0691C30.3088 18.2691 30.1755 16.0024 32.1755 16.0024C32.9755 16.0024 33.9088 17.2024 34.3088 18.6691ZM79.3755 18.6691C78.9755 19.3358 77.7755 19.6024 76.7088 19.0691C73.9088 18.1358 74.1755 17.3358 77.5088 17.3358C78.9755 17.3358 79.9088 17.8691 79.3755 18.6691ZM76.0422 23.3358C76.0422 24.4024 75.5088 25.3358 74.7088 25.3358C74.0422 25.3358 73.7755 24.4024 74.1755 23.3358C74.7088 22.2691 75.2422 21.3358 75.5088 21.3358C75.7755 21.3358 76.0422 22.2691 76.0422 23.3358ZM78.7088 28.5358C78.7088 30.0024 76.1755 30.5358 75.3755 29.3358C74.9755 28.6691 75.5088 28.0024 76.5755 28.0024C77.7755 28.0024 78.7088 28.2691 78.7088 28.5358ZM44.5755 31.7358C44.9755 32.4024 44.4422 32.9358 43.3755 32.9358C42.3088 32.9358 41.3755 32.4024 41.3755 31.7358C41.3755 31.2024 41.9088 30.6691 42.5755 30.6691C43.3755 30.6691 44.1755 31.2024 44.5755 31.7358ZM74.0422 34.5358C74.4422 35.3358 73.6422 36.5358 72.1755 37.2024C70.0422 38.4024 69.7755 38.2691 70.3088 36.0024C71.1088 33.2024 72.7088 32.5358 74.0422 34.5358ZM13.3755 36.0024C13.3755 36.6691 13.1088 37.3358 12.8422 37.3358C12.4422 37.3358 11.7755 36.6691 11.3755 36.0024C10.9755 35.2024 11.2422 34.6691 11.9088 34.6691C12.7088 34.6691 13.3755 35.2024 13.3755 36.0024ZM74.0422 41.3358C73.6422 42.0024 72.3088 42.1358 71.1088 41.7358C69.7755 41.2024 69.2422 41.4691 69.9088 42.4024C70.3088 43.2024 70.3088 44.1358 69.6422 44.5358C69.1088 44.8024 68.5755 44.0024 68.4422 42.6691C68.3088 41.3358 69.2422 39.8691 70.4422 39.6024C73.2422 39.0691 74.9755 39.8691 74.0422 41.3358ZM48.4422 43.0691C48.8422 44.1358 48.7088 45.7358 48.0422 46.5358C47.3755 47.7358 47.1088 47.0691 47.1088 44.8024C47.1088 40.9358 47.3755 40.5358 48.4422 43.0691ZM72.7088 49.0691C72.3088 49.4691 71.2422 49.0691 70.3088 48.1358C69.1088 46.8024 69.2422 46.6691 71.1088 47.4691C72.4422 47.8691 73.1088 48.6691 72.7088 49.0691ZM67.3755 50.8024C66.8422 51.6024 67.6422 53.0691 69.2422 54.1358C70.7088 55.2024 72.3088 58.1358 72.8422 60.6691C73.2422 63.2024 74.1755 65.3358 74.9755 65.3358C75.6422 65.3358 75.9088 64.8024 75.5088 64.1358C74.9755 63.4691 75.9088 63.2024 77.2422 63.6024C80.0422 64.2691 79.6422 67.2024 76.5755 70.2691C75.3755 71.6024 74.8422 71.4691 74.1755 69.8691C73.7755 68.8024 73.9088 68.2691 74.5755 68.6691C75.2422 69.0691 76.1755 68.8024 76.7088 68.0024C78.7088 64.8024 72.1755 67.0691 68.5755 70.8024C65.6422 73.8691 63.7755 74.6691 60.4422 74.4024C58.0422 74.2691 55.7755 74.5358 55.2422 75.0691C54.7088 75.6024 54.9755 76.0024 55.7755 76.0024C56.7088 76.0024 57.3755 76.6691 57.3755 77.4691C57.3755 78.2691 56.7088 78.4024 55.7755 77.7358C54.8422 77.2024 53.6422 76.6691 53.1088 76.5358C52.4422 76.4024 51.6422 76.2691 51.1088 76.1358C50.4422 76.0024 51.1088 75.3358 52.4422 74.5358C54.7088 73.2024 54.7088 72.9358 52.7088 70.6691C50.7088 68.5358 50.1755 63.4691 50.9755 55.0691C51.1088 53.4691 52.1755 52.1358 53.3755 52.1358C55.1088 52.1358 66.5755 50.0024 67.7755 49.4691C68.0422 49.4691 67.7755 50.0024 67.3755 50.8024ZM102.042 52.0024C102.442 52.8024 101.909 52.9358 100.842 52.5358C99.6422 52.1358 98.7088 52.4024 98.7088 53.2024C98.7088 54.0024 98.0422 54.6691 97.2422 54.6691C96.1755 54.6691 96.1755 54.0024 97.3755 52.6691C99.2422 50.4024 100.842 50.1358 102.042 52.0024ZM21.3755 53.3358C21.3755 54.0024 21.1088 54.6691 20.8422 54.6691C20.4422 54.6691 19.7755 54.0024 19.3755 53.3358C18.9755 52.5358 19.2422 52.0024 19.9088 52.0024C20.7088 52.0024 21.3755 52.5358 21.3755 53.3358ZM30.7088 54.6691C32.4422 55.8691 32.4422 56.0024 30.7088 56.0024C29.6422 56.0024 27.7755 55.3358 26.7088 54.6691C24.9755 53.4691 24.9755 53.3358 26.7088 53.3358C27.7755 53.3358 29.6422 54.0024 30.7088 54.6691ZM77.9088 55.4691C78.3088 56.5358 78.1755 57.0691 77.3755 56.6691C76.5755 56.2691 76.0422 55.3358 76.0422 54.5358C76.0422 52.6691 76.9755 53.0691 77.9088 55.4691ZM38.3088 59.7358C38.1755 60.9358 37.5088 62.8024 36.8422 63.8691C36.0422 65.2024 36.3088 65.4691 38.4422 64.8024C40.5755 64.1358 41.3755 64.8024 42.4422 68.0024C43.2422 70.1358 44.4422 72.0024 44.9755 72.0024C45.6422 72.0024 46.3088 73.6024 46.4422 75.6024C46.9755 82.2691 30.3088 94.5358 20.7088 94.6691C15.2422 94.6691 9.37549 89.2024 9.37549 84.0024C9.37549 81.7358 8.70882 80.0024 7.77549 79.8691C6.57549 79.8691 6.57549 79.6024 7.90882 79.0691C8.97549 78.6691 11.5088 76.2691 13.7755 73.8691C15.9088 71.3358 19.1088 68.9358 20.8422 68.5358C22.5755 68.1358 23.7755 67.3358 23.5088 66.8024C23.2422 66.4024 25.3755 65.8691 28.3088 65.7358C31.3755 65.4691 34.5755 64.6691 35.7755 63.7358C37.3755 62.2691 37.2422 61.8691 34.0422 60.5358C31.1088 59.3358 30.8422 58.9358 32.5755 58.2691C33.7755 57.7358 34.7088 58.0024 34.7088 58.6691C34.7088 59.4691 35.3755 60.0024 36.1755 60.0024C36.9755 60.0024 37.2422 59.0691 36.8422 57.8691C36.4422 56.8024 36.5755 56.2691 37.3755 56.6691C38.0422 57.0691 38.5755 58.5358 38.3088 59.7358ZM28.4422 59.0691C28.9755 58.6691 29.3755 58.9358 29.3755 59.7358C29.3755 61.6024 29.1088 61.6024 26.1755 60.5358C24.9755 60.1358 24.0422 59.0691 24.0422 58.4024C24.0422 57.4691 24.7088 57.6024 25.7755 58.5358C26.8422 59.3358 28.0422 59.6024 28.4422 59.0691ZM84.5755 63.0691C82.4422 64.2691 80.0422 63.2024 80.0422 61.0691C80.0422 60.1358 80.8422 60.2691 82.0422 61.3358C83.7755 62.6691 84.0422 62.5358 84.1755 59.8691C84.1755 56.9358 84.3088 56.8024 85.2422 59.3358C86.0422 61.0691 85.7755 62.4024 84.5755 63.0691ZM103.242 59.8691C103.642 60.5358 102.442 60.9358 100.709 60.9358C98.8422 60.9358 97.3755 60.5358 97.3755 59.8691C97.3755 59.2024 98.5755 58.6691 99.9088 58.6691C101.375 58.6691 102.842 59.2024 103.242 59.8691ZM44.0422 62.6691C44.0422 63.3358 43.5088 64.0024 42.8422 64.0024C42.0422 64.0024 41.1088 63.3358 40.7088 62.6691C40.3088 61.8691 40.8422 61.3358 41.9088 61.3358C43.1088 61.3358 44.0422 61.8691 44.0422 62.6691ZM110.042 65.0691C111.642 66.1358 111.909 69.3358 110.442 69.3358C109.775 69.3358 108.842 69.3358 108.175 69.3358C107.375 69.3358 106.975 68.1358 107.109 66.6691C107.242 63.8691 107.909 63.4691 110.042 65.0691ZM17.3755 67.6024C17.3755 68.9358 16.5755 69.3358 15.2422 68.8024C14.0422 68.4024 12.5755 68.0024 11.9088 68.0024C9.37549 68.0024 11.9088 65.8691 14.5755 65.7358C16.3088 65.6024 17.3755 66.2691 17.3755 67.6024ZM46.7088 67.4691C46.7088 68.5358 46.1755 69.0691 45.3755 68.6691C44.7088 68.2691 44.0422 67.3358 44.0422 66.5358C44.0422 65.8691 44.7088 65.3358 45.3755 65.3358C46.1755 65.3358 46.7088 66.2691 46.7088 67.4691ZM114.442 72.2691C114.175 74.2691 114.709 75.2024 115.775 74.9358C116.842 74.8024 117.242 75.2024 116.709 76.0024C116.175 76.9358 115.109 76.9358 113.375 76.0024C110.175 74.2691 108.575 71.7358 111.375 72.8024C112.575 73.3358 113.375 73.2024 113.242 72.5358C112.975 70.6691 113.242 69.3358 114.175 69.3358C114.575 69.3358 114.709 70.6691 114.442 72.2691ZM10.5755 74.4024C9.77549 75.7358 7.77549 76.9358 6.17549 76.9358C3.50882 77.2024 3.50882 77.0691 6.70882 74.6691C10.8422 71.3358 12.4422 71.3358 10.5755 74.4024ZM67.1088 76.1358C66.3088 76.9358 65.9088 78.4024 66.1755 79.3358C66.9755 81.3358 60.4422 81.6024 59.1088 79.6024C58.7088 78.8024 58.9755 78.6691 59.7755 79.2024C60.5755 79.7358 62.4422 78.9358 64.0422 77.3358C65.5088 75.8691 67.1088 74.6691 67.6422 74.6691C68.1755 74.6691 67.9088 75.3358 67.1088 76.1358ZM50.7088 78.6691C50.7088 79.3358 50.4422 80.0024 50.1755 80.0024C49.7755 80.0024 49.1088 79.3358 48.7088 78.6691C48.3088 77.8691 48.5755 77.3358 49.2422 77.3358C50.0422 77.3358 50.7088 77.8691 50.7088 78.6691ZM76.0422 79.3358C75.1088 80.4024 73.7755 80.9358 72.9755 80.4024C72.1755 79.8691 72.5755 79.2024 74.1755 78.5358C77.7755 77.0691 77.9088 77.0691 76.0422 79.3358ZM55.6422 80.8024C55.2422 81.2024 54.0422 81.3358 53.1088 80.9358C52.0422 80.5358 52.4422 80.1358 53.9088 80.1358C55.3755 80.0024 56.1755 80.4024 55.6422 80.8024ZM7.90882 85.0691C7.77549 86.9358 7.64216 86.9358 7.10882 84.8024C6.57549 82.8024 6.17549 82.6691 5.37549 84.1358C4.70882 85.0691 3.77549 85.4691 3.10882 84.9358C1.90882 83.7358 5.37549 81.2024 6.97549 82.1358C7.50882 82.5358 7.90882 83.8691 7.90882 85.0691ZM113.375 86.6691C113.375 87.3358 113.109 88.0024 112.842 88.0024C112.442 88.0024 111.775 87.3358 111.375 86.6691C110.975 85.8691 111.242 85.3358 111.909 85.3358C112.709 85.3358 113.375 85.8691 113.375 86.6691ZM114.042 90.5358C112.842 91.6024 109.242 91.8691 110.042 90.8024C110.309 90.2691 111.509 89.7358 112.709 89.7358C113.775 89.7358 114.442 90.1358 114.042 90.5358ZM80.0422 93.6024C80.0422 96.1358 79.7755 96.2691 78.7088 94.6691C76.9755 92.1358 76.9755 90.6691 78.7088 90.6691C79.5088 90.6691 80.0422 92.0024 80.0422 93.6024ZM32.0422 94.6691C32.0422 95.3358 31.3755 96.0024 30.5755 96.0024C29.9088 96.0024 29.6422 95.3358 30.0422 94.6691C30.4422 93.8691 31.1088 93.3358 31.5088 93.3358C31.7755 93.3358 32.0422 93.8691 32.0422 94.6691ZM48.3088 96.2691C47.3755 97.2024 46.7088 97.3358 46.7088 96.5358C46.7088 94.6691 48.3088 93.0691 49.2422 94.0024C49.5088 94.4024 49.1088 95.4691 48.3088 96.2691ZM82.3088 97.6024C81.9088 98.6691 81.5088 98.2691 81.5088 96.8024C81.3755 95.3358 81.7755 94.5358 82.1755 95.0691C82.5755 95.4691 82.7088 96.6691 82.3088 97.6024ZM29.3755 100.136C29.3755 100.802 28.4422 101.336 27.3755 101.336C26.1755 101.336 25.7755 100.536 26.1755 99.3358C26.9755 97.3358 29.3755 97.8691 29.3755 100.136ZM80.0422 98.6691C80.0422 99.3358 79.7755 100.002 79.5088 100.002C79.1088 100.002 78.4422 99.3358 78.0422 98.6691C77.6422 97.8691 77.9088 97.3358 78.5755 97.3358C79.3755 97.3358 80.0422 97.8691 80.0422 98.6691ZM22.7088 101.869C21.7755 102.802 20.8422 102.669 19.9088 101.736C18.7088 100.536 18.9755 100.136 21.1088 100.402C22.9755 100.536 23.5088 101.069 22.7088 101.869ZM80.9755 102.136C80.5755 102.536 79.3755 102.669 78.4422 102.269C77.3755 101.869 77.7755 101.469 79.2422 101.469C80.7088 101.336 81.5088 101.736 80.9755 102.136ZM50.7088 109.202C50.7088 110.002 50.1755 110.936 49.3755 111.336C48.7088 111.736 48.0422 111.202 48.0422 110.136C48.0422 108.936 48.7088 108.002 49.3755 108.002C50.1755 108.002 50.7088 108.536 50.7088 109.202ZM64.9755 118.002C64.9755 119.602 64.5755 119.602 62.8422 118.402C61.6422 117.469 60.4422 116.536 60.1755 116.402C59.9088 116.136 60.8422 116.002 62.3088 116.002C63.7755 116.002 64.9755 116.936 64.9755 118.002ZM64.4422 124.002C65.5088 128.269 63.5088 127.069 61.7755 122.536C60.4422 119.202 60.5755 118.669 62.0422 120.002C62.9755 120.802 64.0422 122.669 64.4422 124.002ZM66.7088 129.336C66.7088 130.002 65.7755 130.669 64.7088 130.669C63.6422 130.669 62.7088 130.002 62.7088 129.336C62.7088 128.536 63.6422 128.002 64.7088 128.002C65.7755 128.002 66.7088 128.536 66.7088 129.336ZM66.3088 132.802C65.9088 133.202 64.7088 133.336 63.7755 132.936C62.7088 132.536 63.1088 132.136 64.5755 132.136C66.0422 132.002 66.8422 132.402 66.3088 132.802Z" fill="black"/>
<path d="M94.709 18.8024C92.1757 19.4691 88.4423 20.2691 86.309 20.8024L82.709 21.6024L85.909 24.6691C87.7757 26.4024 88.8423 28.1358 88.309 28.5358C87.909 29.0691 88.4423 29.0691 89.7757 28.5358C90.9757 28.1358 92.0423 27.2024 92.0423 26.6691C92.0423 24.9358 104.309 27.8691 106.842 30.1358C108.176 31.3358 110.176 32.0024 111.242 31.6024C112.442 31.0691 113.642 31.3358 114.042 32.0024C114.576 32.8024 113.642 33.3358 112.176 33.3358C110.709 33.3358 109.242 34.5358 108.709 35.8691C108.309 37.3358 106.442 40.5358 104.709 43.2024C102.042 47.2024 101.909 48.1358 103.509 49.4691C104.842 50.5358 105.909 50.6691 107.109 49.4691C108.176 48.6691 109.376 48.4024 109.776 48.8024C110.176 49.3358 111.776 47.6024 113.242 45.2024C116.576 39.7358 116.976 29.8691 113.909 25.6024C110.176 20.1358 101.909 17.3358 94.709 18.8024ZM106.976 22.2691C107.909 23.4691 107.909 24.0024 106.842 24.0024C106.042 24.0024 105.376 23.2024 105.376 22.2691C105.376 21.2024 104.976 21.3358 104.176 22.6691C103.376 23.7358 103.109 24.9358 103.509 25.4691C103.776 26.0024 102.842 26.1358 101.242 25.7358C99.7757 25.3358 98.1757 24.1358 97.7757 23.2024C97.3757 22.1358 96.4423 21.3358 95.7757 21.3358C94.9757 21.3358 94.709 22.2691 95.2423 23.3358C95.909 25.0691 95.509 25.2024 92.9757 23.8691C90.1757 22.2691 90.1757 22.2691 92.709 21.2024C96.709 19.6024 105.242 20.2691 106.976 22.2691ZM112.709 27.0691C113.509 27.7358 112.576 27.7358 110.842 27.3358C108.442 26.5358 107.909 26.8024 108.842 28.1358C109.642 29.6024 109.376 29.6024 107.509 28.0024C105.242 26.2691 105.242 26.1358 107.642 25.2024C108.976 24.8024 110.309 24.6691 110.709 25.2024C111.109 25.6024 112.042 26.4024 112.709 27.0691ZM114.442 36.2691C114.176 37.0691 113.109 38.0024 112.309 38.1358C111.109 38.4024 111.109 38.2691 112.176 37.7358C113.242 37.2024 113.109 36.6691 111.909 35.8691C110.442 34.9358 110.576 34.6691 112.442 34.6691C113.776 34.6691 114.709 35.3358 114.442 36.2691ZM112.442 42.2691C112.042 43.2024 110.576 44.0024 109.109 44.0024C106.976 44.0024 106.709 43.6024 107.909 42.2691C108.709 41.2024 110.176 40.4024 111.242 40.4024C112.309 40.4024 112.842 41.2024 112.442 42.2691Z" fill="black"/>
<path d="M99.5088 22.936C99.9088 23.6027 100.842 23.736 101.509 23.336C103.242 22.136 102.975 21.736 100.709 21.736C99.6421 21.736 99.1088 22.2694 99.5088 22.936Z" fill="black"/>
<path d="M91.5088 94.2689C90.7088 96.4023 92.7088 98.6689 95.3755 98.6689C96.1755 98.5356 95.6421 98.0023 94.4421 97.2023C93.1088 96.5356 92.4421 95.0689 92.8421 94.0023C93.3755 92.9356 93.3755 92.0023 92.9755 92.0023C92.5755 92.0023 91.9088 93.0689 91.5088 94.2689Z" fill="black"/>
<path d="M11.3755 98.6691C10.9755 99.3358 11.7755 100.402 13.1089 101.202C14.9755 102.136 15.6422 102.002 15.6422 100.669C15.6422 98.4024 12.4422 96.9358 11.3755 98.6691Z" fill="black"/>
<path d="M120.709 130.669C118.576 131.203 117.642 131.736 118.709 131.869C120.442 132.003 120.442 132.136 118.709 133.336C116.976 134.536 116.976 134.803 118.709 136.003C121.509 137.736 119.242 137.736 115.776 135.869C113.509 134.669 113.376 134.136 114.842 133.203C115.909 132.536 116.176 132.003 115.376 132.003C114.709 132.003 113.109 132.669 112.042 133.336C110.576 134.269 110.576 134.669 111.776 134.669C113.109 134.669 113.109 135.336 112.042 137.336C110.976 139.203 110.976 140.003 112.042 140.003C112.842 140.003 113.109 140.669 112.576 141.469C112.176 142.269 113.509 142.003 115.509 140.936C117.642 139.869 120.842 138.536 122.576 138.003C125.642 137.069 125.776 137.203 124.976 141.603C124.309 146.003 124.442 146.269 127.776 145.736C129.776 145.469 130.576 145.736 129.642 146.136C128.842 146.536 128.309 147.469 128.842 148.136C129.242 148.803 128.576 149.736 127.376 150.269C126.042 150.669 124.709 150.269 124.042 149.469C123.376 148.403 122.309 149.603 120.976 152.936C119.909 155.736 116.176 161.203 112.709 165.069C109.376 168.803 106.842 172.536 107.376 173.336C107.776 174.136 108.709 174.403 109.242 174.136C109.642 173.736 110.176 174.669 110.176 176.136C110.176 177.469 109.642 178.669 109.109 178.669C108.576 178.669 108.042 177.869 108.042 176.803C108.042 175.736 107.242 174.669 106.309 174.269C104.309 173.469 103.909 178.803 105.909 180.136C106.442 180.669 105.376 180.936 103.376 180.936C100.842 180.936 100.309 180.669 101.509 179.869C102.576 179.203 102.842 178.669 102.042 178.669C101.376 178.669 101.642 178.003 102.709 177.336C103.776 176.669 104.042 176.003 103.242 176.003C102.442 176.003 100.976 176.936 99.909 178.136C98.9756 179.203 96.0423 181.336 93.509 182.803C86.709 186.536 79.3756 192.003 79.3756 193.336C79.3756 194.003 78.9756 194.936 78.4423 195.469C77.7756 196.003 77.3756 195.736 77.3756 194.803C77.3756 193.869 76.709 193.603 75.909 194.003C75.109 194.536 74.8423 195.869 75.3756 196.936C75.909 198.669 75.7756 198.803 74.1756 197.469C73.109 196.536 71.509 196.136 70.709 196.669C68.8423 197.736 70.1756 192.269 73.6423 184.269C76.4423 177.603 76.709 175.469 74.4423 176.803C73.509 177.336 73.3756 177.203 73.909 176.136C74.4423 175.336 75.3756 174.936 75.909 175.336C76.5756 175.603 78.5756 173.069 80.4423 169.603C82.309 166.136 85.6423 161.603 87.909 159.469C90.309 157.203 91.509 154.936 91.109 153.603C90.5756 152.536 91.3756 150.803 92.8423 149.603C94.9756 148.003 94.9756 147.736 93.109 148.403C89.509 149.736 90.309 147.603 94.0423 145.869C96.709 144.536 97.6423 144.669 98.9756 146.403C100.442 148.136 100.309 148.269 97.3756 147.336C95.509 146.803 94.4423 146.803 94.9756 147.336C95.509 147.869 95.3756 149.469 94.5756 150.936C93.2423 153.336 93.3756 153.336 96.1756 152.003C105.909 146.803 110.042 143.203 109.909 140.269C109.509 135.069 109.376 134.803 107.109 135.603C102.309 137.469 88.709 147.736 89.109 149.336C89.2423 150.136 88.8423 150.403 88.0423 150.003C87.2423 149.469 85.3756 150.136 83.909 151.469C81.909 153.203 81.7756 154.003 82.9756 154.936C84.1756 155.603 83.7756 156.003 81.909 156.003C80.309 156.003 78.5756 156.936 78.1756 158.136C77.2423 160.536 78.1756 162.669 80.1756 162.669C80.9756 162.669 81.109 162.003 80.5756 161.069C80.0423 160.269 80.1756 160.003 81.109 160.403C82.5756 161.469 81.7756 166.669 80.0423 166.669C79.3756 166.669 78.0423 167.069 76.8423 167.469C75.6423 167.869 74.709 167.603 74.709 166.669C74.709 165.869 75.2423 165.469 75.909 165.869C76.5756 166.269 77.3756 165.736 77.909 164.669C78.309 163.603 78.0423 162.403 77.3756 162.003C75.7756 160.936 71.6423 169.069 72.8423 171.069C73.3756 172.003 73.3756 172.269 72.709 171.736C72.1756 171.203 70.5756 172.136 69.109 173.736L66.5756 176.669L68.0423 173.603C69.109 171.336 69.109 170.669 67.7756 170.669C66.4423 170.669 66.4423 170.403 67.7756 169.603C68.9756 168.803 69.3756 164.136 69.2423 153.336C69.2423 145.069 68.709 138.803 68.309 139.603C67.7756 140.269 66.4423 141.336 65.3756 141.736C63.7756 142.269 63.909 142.536 65.7756 142.536C66.9756 142.669 68.0423 143.203 68.0423 144.003C68.0423 146.803 63.6423 144.669 62.309 141.336C61.7756 140.003 61.509 140.269 61.509 142.269C61.3756 144.136 62.1756 145.336 63.3756 145.336C64.4423 145.336 65.3756 146.003 65.3756 146.803C65.3756 147.603 64.5756 148.003 63.6423 147.603C62.4423 147.203 61.909 149.203 61.6423 155.603C61.3756 161.469 61.6423 164.003 62.5756 163.336C63.3756 162.936 65.109 163.203 66.309 164.003C68.1756 165.069 68.1756 165.336 66.709 165.203C61.909 164.803 61.3756 165.469 61.3756 171.336C61.3756 175.869 61.7756 177.069 63.2423 176.536C64.4423 176.003 65.109 176.536 64.8423 177.869C64.4423 180.536 62.709 182.269 62.709 180.136C62.709 178.936 61.6423 178.669 59.509 179.203C57.509 179.736 55.7756 179.336 55.2423 178.403C54.5756 177.336 54.9756 177.203 56.4423 177.736C57.909 178.269 58.709 177.869 58.709 176.669C58.709 175.469 57.3756 174.669 55.3756 174.669C53.509 174.669 52.0423 174.136 52.0423 173.336C52.0423 172.669 53.109 172.536 54.309 172.936C57.509 174.136 52.1756 166.669 43.6423 157.736C36.709 150.669 32.4423 149.469 34.709 155.469C35.509 157.469 35.509 158.669 34.709 158.669C33.909 158.669 33.3756 157.469 33.3756 156.136C33.3756 153.069 31.2423 151.203 30.4423 153.469C29.909 155.203 24.1756 152.536 22.309 149.736C21.7756 148.803 20.309 148.536 19.109 148.936C17.7756 149.469 17.2423 149.203 17.909 148.269C18.309 147.469 19.909 146.936 21.3756 147.069C22.709 147.203 23.6423 147.603 23.3756 148.003C23.2423 148.403 24.4423 149.736 26.309 151.203C29.6423 153.603 29.6423 153.603 28.709 150.803C28.1756 149.069 28.4423 148.003 29.3756 148.003C30.1756 148.003 30.4423 148.536 30.0423 149.336C29.6423 150.003 30.309 150.669 31.6423 150.669C33.7756 150.536 33.6423 150.269 30.8423 148.003C29.109 146.536 27.109 145.336 26.1756 145.203C25.3756 145.203 23.2423 144.803 21.3756 144.403C10.9756 142.403 4.44231 142.536 2.30898 144.669C-1.02435 147.869 -0.624355 152.003 2.70898 151.069C4.17564 150.669 5.37564 149.736 5.37564 149.069C5.37564 148.403 5.90898 148.136 6.70898 148.669C8.44231 149.736 6.84231 153.336 4.97564 152.536C4.04231 152.269 2.57565 152.536 1.64231 153.069C-2.22435 155.603 9.10898 176.536 17.3756 182.269C18.8423 183.336 20.0423 183.603 20.0423 182.936C20.0423 182.269 18.709 181.069 17.109 180.403C14.0423 179.069 14.0423 179.069 17.3756 179.069C20.1756 179.069 20.8423 179.736 21.109 182.536C21.2423 184.669 23.2423 187.736 26.309 190.403C34.0423 197.203 34.5756 197.603 36.309 196.536C37.109 196.003 37.3756 196.136 36.9756 196.936C36.0423 198.269 44.9756 203.469 47.109 202.936C47.6423 202.803 48.0423 203.203 48.0423 203.869C48.0423 205.736 55.2423 207.869 57.509 206.669C58.5756 206.136 60.5756 206.136 62.0423 206.803C64.4423 207.869 64.309 207.869 61.509 207.603C58.5756 207.336 58.1756 207.869 57.909 212.269C57.509 217.203 58.1756 217.869 62.709 217.469C64.309 217.336 64.309 217.469 62.5756 218.669C60.9756 219.603 60.4423 221.603 60.709 225.336C60.9756 229.069 60.4423 230.669 59.2423 230.669C56.9756 230.669 56.8423 229.069 58.9756 226.936C60.0423 225.869 60.0423 225.336 59.109 225.336C58.309 225.336 58.0423 223.869 58.4423 222.003C58.709 220.003 58.4423 218.669 57.509 218.669C56.709 218.669 56.0423 220.936 56.0423 224.136C56.0423 227.069 55.509 230.536 54.9756 231.736C54.4423 232.936 54.309 236.669 54.8423 240.003C55.2423 243.336 55.7756 244.936 55.7756 243.736C55.909 242.136 56.709 241.736 58.1756 242.269C59.7756 242.803 59.909 243.203 58.5756 244.136C57.509 244.669 57.2423 245.603 57.6423 246.003C60.309 248.669 61.909 242.403 63.3756 224.936C63.509 222.936 64.0423 220.936 64.5756 220.403C64.9756 220.003 65.3756 217.603 65.3756 215.069C65.3756 212.403 66.4423 209.603 68.0423 208.003C69.509 206.536 70.709 204.803 70.709 204.136C70.709 203.469 71.6423 202.536 72.8423 202.136C76.309 200.803 76.709 201.203 73.909 203.336C72.5756 204.403 71.909 205.336 72.5756 205.336C74.309 205.336 94.709 192.936 94.709 191.736C94.709 191.203 95.509 190.669 96.5756 190.669C97.6423 190.669 98.8423 190.136 99.2423 189.469C99.7756 188.803 99.2423 188.403 98.4423 188.536C93.7756 189.336 90.8423 191.069 90.4423 193.069C90.0423 194.936 89.6423 194.803 88.1756 192.269C86.709 189.469 86.8423 189.203 88.9756 189.603C90.709 189.869 91.2423 189.336 90.9756 187.469C90.5756 185.203 90.709 185.069 92.709 186.669C94.4423 188.136 95.3756 188.003 98.5756 185.603C101.509 183.469 102.709 183.203 104.042 184.403C105.376 185.603 105.509 185.603 104.842 184.269C104.309 183.336 104.709 182.669 105.776 182.669C109.242 182.669 128.042 161.069 128.042 157.203C128.042 155.869 123.376 156.403 122.442 157.869C120.976 160.003 121.109 157.069 122.576 154.803C123.376 153.603 124.042 153.469 124.576 154.536C125.776 156.403 130.442 151.736 131.509 147.469C132.042 145.069 131.642 144.136 129.776 143.603C127.776 143.069 127.909 142.936 130.442 142.803C132.976 142.669 133.376 141.869 133.376 137.603C133.376 129.736 130.576 128.136 120.709 130.669ZM127.642 131.469C127.242 131.869 126.042 132.003 125.109 131.603C124.042 131.203 124.442 130.803 125.909 130.803C127.376 130.669 128.176 131.069 127.642 131.469ZM131.242 134.136C131.642 135.203 131.509 135.736 130.709 135.336C129.909 134.936 129.376 134.003 129.376 133.203C129.376 131.336 130.309 131.736 131.242 134.136ZM127.109 135.603C126.176 135.869 124.576 135.869 123.776 135.603C122.842 135.203 123.509 134.936 125.376 134.936C127.242 134.936 127.909 135.203 127.109 135.603ZM131.109 139.069C132.042 138.669 132.176 138.803 131.642 139.336C129.776 141.469 126.842 141.203 127.776 138.936C128.309 137.603 128.709 137.336 129.109 138.403C129.376 139.336 130.309 139.603 131.109 139.069ZM108.042 139.203C108.042 139.469 107.109 140.003 106.042 140.536C104.976 140.936 104.042 140.669 104.042 140.003C104.042 139.203 104.976 138.669 106.042 138.669C107.109 138.669 108.042 138.936 108.042 139.203ZM101.376 143.603C101.376 145.603 101.642 145.736 102.709 144.003C103.776 142.269 104.042 142.403 104.042 144.269C104.042 147.469 101.776 147.336 100.042 144.003C99.109 142.136 99.109 141.336 100.042 141.336C100.709 141.336 101.376 142.403 101.376 143.603ZM5.10898 146.536C4.17564 148.003 2.97565 148.803 2.17565 148.403C1.50898 148.003 2.04231 146.803 3.37564 145.736C6.70898 143.336 6.97564 143.469 5.10898 146.536ZM12.0423 144.536C12.0423 144.803 11.109 145.469 9.90898 145.869C8.84231 146.269 8.30898 146.136 8.70898 145.336C9.50898 144.003 12.0423 143.469 12.0423 144.536ZM28.0423 147.203C28.0423 147.603 27.509 148.269 26.709 148.669C26.0423 149.069 25.3756 148.803 25.3756 148.136C25.3756 147.336 26.0423 146.669 26.709 146.669C27.509 146.669 28.0423 146.936 28.0423 147.203ZM22.709 153.069C24.5756 153.869 28.0423 156.003 30.5756 157.869C33.109 159.736 35.6423 160.936 36.309 160.536C36.9756 160.136 37.2423 160.269 37.109 160.936C36.4423 162.936 49.6423 178.536 51.3756 177.869C52.309 177.469 53.3756 178.136 53.909 179.469C54.5756 181.336 54.4423 181.469 52.709 180.003C50.0423 177.736 50.0423 178.136 54.709 187.336C56.8423 191.736 58.709 196.403 58.709 197.603C58.709 200.403 56.0423 200.803 53.6423 198.403C52.4423 197.203 51.6423 197.336 49.909 199.469C47.909 201.869 47.909 201.869 49.3756 199.069C50.5756 196.536 50.309 195.869 47.909 194.536C44.309 192.669 38.709 192.003 38.709 193.469C38.709 195.869 34.309 194.536 28.5756 190.536C25.2423 188.269 22.9756 186.003 23.509 185.603C24.0423 185.069 24.709 185.336 24.9756 186.269C25.2423 187.203 26.4423 187.469 27.6423 187.069C28.9756 186.536 29.509 186.803 28.9756 187.469C28.5756 188.269 30.309 189.736 32.8423 190.936C35.3756 192.136 37.7756 192.536 38.1756 191.869C38.5756 191.203 39.6423 191.069 40.4423 191.603C41.3756 192.136 41.2423 191.603 40.1756 190.269C38.9756 188.803 37.3756 188.269 35.2423 188.803C33.3756 189.336 32.0423 189.069 32.0423 188.136C32.0423 187.336 33.109 187.069 34.4423 187.603C36.4423 188.403 36.4423 188.269 34.8423 186.269C33.6423 184.803 31.909 184.269 29.509 184.669C26.8423 185.203 26.5756 185.069 28.5756 184.269C31.109 183.203 30.9756 183.069 28.0423 180.936C26.309 179.736 24.4423 179.069 23.7756 179.469C23.109 179.869 22.8423 179.736 22.9756 179.069C23.2423 178.403 20.9756 174.936 18.0423 171.469C10.309 162.136 6.17564 152.936 8.70898 150.403C9.64231 149.603 18.1756 151.203 22.709 153.069ZM86.9756 157.603C86.309 158.269 84.309 158.669 82.5756 158.269C79.509 157.736 79.509 157.736 82.9756 157.469C85.909 157.336 86.309 156.803 85.7756 154.269C85.2423 151.603 85.3756 151.603 86.709 153.736C87.7756 155.469 87.909 156.669 86.9756 157.603ZM41.2423 157.603C43.909 160.803 44.0423 161.469 42.1756 161.203C40.9756 160.936 40.0423 160.269 40.309 159.869C40.5756 159.336 39.509 157.736 38.1756 156.136C36.709 154.536 36.1756 153.336 36.8423 153.469C37.509 153.469 39.509 155.336 41.2423 157.603ZM65.3756 154.669C65.3756 155.336 64.8423 156.003 64.0423 156.003C63.3756 156.003 62.709 155.336 62.709 154.669C62.709 153.869 63.3756 153.336 64.0423 153.336C64.8423 153.336 65.3756 153.869 65.3756 154.669ZM67.509 159.336C66.9756 162.536 65.3756 163.336 65.3756 160.269C65.3756 158.669 65.909 157.336 66.5756 157.336C67.2423 157.336 67.6423 158.269 67.509 159.336ZM8.04231 162.403C7.24231 162.669 6.70898 163.469 6.70898 164.136C6.70898 164.936 7.24231 165.203 7.90898 164.803C8.57564 164.403 10.4423 165.069 12.1756 166.403C14.1756 168.136 14.709 169.203 13.6423 169.869C12.709 170.403 12.0423 170.003 12.0423 168.803C12.0423 166.803 10.5756 166.136 7.10898 166.536C6.17564 166.669 5.24231 166.136 5.24231 165.336C5.10898 164.669 4.97564 163.203 4.84231 162.269C4.57564 160.003 7.10898 158.536 8.30898 160.403C8.84231 161.336 8.70898 162.136 8.04231 162.403ZM118.576 162.269C116.976 164.269 116.976 164.403 119.109 163.603C120.442 163.069 121.909 162.669 122.176 162.669C122.576 162.669 122.442 162.003 121.909 161.069C121.376 160.136 121.509 160.003 122.442 160.536C124.576 161.869 122.842 165.336 120.176 165.336C116.842 165.336 115.776 163.869 117.509 161.736C118.309 160.803 119.376 160.003 119.642 160.003C120.042 160.003 119.509 161.069 118.576 162.269ZM42.0423 164.136C43.509 166.403 41.909 166.936 40.0423 164.669C38.9756 163.469 38.9756 162.669 39.7756 162.669C40.5756 162.669 41.6423 163.336 42.0423 164.136ZM48.309 165.203C49.3756 163.736 49.509 163.736 48.9756 165.603C48.4423 166.803 49.109 168.136 50.309 168.536C51.7756 169.203 52.0423 169.869 50.8423 171.203C50.0423 172.136 49.7756 173.336 50.309 173.736C50.709 174.269 50.5756 174.669 49.7756 174.669C48.9756 174.669 47.909 173.736 47.509 172.536C47.109 171.469 47.2423 170.936 47.909 171.336C48.5756 171.736 49.509 171.469 49.909 170.936C50.309 170.269 49.109 169.069 47.3756 168.269C43.909 166.669 43.2423 165.203 45.109 163.469C45.6423 162.936 46.309 163.469 46.5756 164.803C46.8423 166.669 47.2423 166.669 48.309 165.203ZM114.176 168.936C112.842 170.269 111.642 168.269 112.842 166.536C113.642 165.069 113.909 165.069 114.442 166.536C114.709 167.469 114.576 168.536 114.176 168.936ZM65.6423 167.603C64.8423 167.869 64.4423 168.936 64.8423 169.603C65.3756 170.536 65.109 170.669 64.309 170.136C61.909 168.669 62.4423 166.669 65.109 166.803C66.4423 166.803 66.709 167.203 65.6423 167.603ZM120.042 167.336C120.042 168.669 112.976 174.803 112.309 174.003C111.776 173.469 112.442 172.536 113.776 171.869C114.976 171.069 116.042 169.603 116.042 168.669C116.042 167.603 116.976 166.669 118.042 166.669C119.109 166.669 120.042 166.936 120.042 167.336ZM14.1756 171.069C14.9756 170.803 16.4423 171.469 17.3756 172.669C18.4423 173.869 18.4423 174.669 17.6423 174.669C16.8423 174.669 15.909 174.136 15.509 173.469C15.109 172.803 13.3756 172.536 11.6423 172.936C10.0423 173.336 9.10898 173.203 9.64231 172.669C10.1756 172.003 9.90898 170.669 9.10898 169.469C7.64231 167.603 7.77564 167.603 10.0423 169.469C11.509 170.669 13.3756 171.469 14.1756 171.069ZM65.3756 172.536C65.3756 172.936 64.8423 173.603 64.0423 174.003C63.3756 174.403 62.709 174.136 62.709 173.469C62.709 172.669 63.3756 172.003 64.0423 172.003C64.8423 172.003 65.3756 172.269 65.3756 172.536ZM69.3756 179.203C69.3756 179.603 68.8423 180.269 68.0423 180.669C67.3756 181.069 66.709 180.803 66.709 180.136C66.709 179.336 67.3756 178.669 68.0423 178.669C68.8423 178.669 69.3756 178.936 69.3756 179.203ZM73.3756 181.336C73.3756 182.003 72.709 182.669 71.909 182.669C71.2423 182.669 70.9756 182.003 71.3756 181.336C71.7756 180.536 72.4423 180.003 72.8423 180.003C73.109 180.003 73.3756 180.536 73.3756 181.336ZM26.0423 182.669C25.6423 183.336 24.4423 184.003 23.6423 184.003C22.709 184.003 22.8423 183.469 24.0423 182.669C26.5756 181.069 27.109 181.069 26.0423 182.669ZM58.0423 182.669C57.6423 183.336 56.5756 184.003 55.909 184.003C55.109 184.003 54.9756 183.336 55.3756 182.669C55.7756 181.869 56.8423 181.336 57.509 181.336C58.309 181.336 58.4423 181.869 58.0423 182.669ZM99.3756 182.669C100.309 184.136 94.709 186.803 92.9756 185.736C92.0423 185.203 93.7756 183.736 98.309 181.469C98.4423 181.336 98.9756 182.003 99.3756 182.669ZM69.3756 192.403C69.3756 193.336 68.8423 193.203 68.0423 192.003C66.9756 190.403 66.709 190.403 66.709 191.869C66.709 192.936 66.309 193.469 65.909 192.936C64.709 191.736 66.709 189.203 68.1756 190.003C68.8423 190.536 69.3756 191.603 69.3756 192.403ZM62.0423 192.003C61.6423 192.669 60.4423 193.336 59.6423 193.336C58.709 193.336 58.8423 192.803 60.0423 192.003C62.5756 190.403 63.109 190.403 62.0423 192.003ZM84.709 193.336C86.1756 194.003 86.5756 194.536 85.6423 194.536C84.5756 194.669 84.309 195.336 84.8423 196.269C85.3756 197.203 85.3756 197.603 84.709 197.069C84.1756 196.536 82.8423 197.069 81.909 198.403C80.5756 200.269 79.909 200.403 78.4423 198.936C76.9756 197.469 77.109 197.336 78.8423 198.003C81.3756 198.936 83.3756 193.869 80.8423 192.803C80.0423 192.536 80.0423 192.269 80.709 192.136C81.509 192.136 83.2423 192.669 84.709 193.336ZM46.1756 197.603C46.1756 198.936 45.6423 200.003 45.109 200.003C44.5756 200.003 44.0423 199.336 44.0423 198.669C44.0423 197.869 43.109 197.336 42.0423 197.336C40.9756 197.336 40.0423 196.803 40.0423 196.136C40.0423 195.469 41.3756 195.069 43.109 195.203C44.9756 195.203 46.1756 196.136 46.1756 197.603ZM62.709 196.003C62.709 196.669 62.0423 197.336 61.2423 197.336C60.5756 197.336 60.309 196.669 60.709 196.003C61.109 195.203 61.7756 194.669 62.1756 194.669C62.4423 194.669 62.709 195.203 62.709 196.003ZM62.8423 202.803C62.1756 204.536 61.509 205.203 61.509 204.269C61.3756 203.336 60.8423 202.936 60.0423 203.336C59.3756 203.736 58.709 203.469 58.709 202.803C58.709 202.003 59.6423 201.336 60.709 201.336C61.7756 201.336 62.709 200.669 62.709 199.736C62.709 198.936 62.9756 198.536 63.3756 198.936C63.7756 199.336 63.509 201.069 62.8423 202.803ZM70.709 200.003C70.709 200.669 70.4423 201.336 70.1756 201.336C69.7756 201.336 69.109 200.669 68.709 200.003C68.309 199.203 68.5756 198.669 69.2423 198.669C70.0423 198.669 70.709 199.203 70.709 200.003ZM52.8423 202.536C52.309 203.203 52.8423 204.136 53.6423 204.403C54.709 204.803 54.4423 205.203 53.109 205.203C50.709 205.336 49.909 203.869 51.6423 202.269C52.8423 200.936 53.6423 201.203 52.8423 202.536ZM63.2423 211.336C62.709 212.403 61.7756 212.936 61.109 212.536C60.309 212.003 60.4423 211.203 61.509 210.536C64.0423 208.936 64.0423 209.069 63.2423 211.336ZM60.5756 234.936C59.6423 236.403 56.0423 234.536 56.0423 232.536C56.0423 230.936 56.5756 230.936 58.5756 232.269C60.0423 233.203 60.9756 234.269 60.5756 234.936ZM59.7756 238.403C60.0423 239.336 59.3756 240.003 58.1756 240.003C56.9756 240.003 56.0423 239.069 56.0423 237.869C56.0423 235.603 58.9756 236.003 59.7756 238.403Z" fill="black"/>
</svg>
