<svg width="176" height="187" viewBox="0 0 176 187" fill="none" xmlns="http://www.w3.org/2000/svg">
<path d="M135.651 2.146C130.051 4.81267 123.918 10.4127 128.718 8.67933C130.184 8.146 130.851 8.27934 130.318 9.21267C129.784 10.0127 128.584 10.2793 127.651 9.87933C125.518 9.07933 120.184 14.146 116.184 20.6793C113.784 24.546 113.651 25.4793 115.251 27.346C116.851 29.346 116.718 29.346 114.051 27.8793C112.318 27.0793 110.984 25.4793 110.984 24.2793C110.984 23.2127 110.051 22.0127 108.984 21.6127C107.918 21.0793 106.984 20.2793 106.984 19.4793C106.984 18.8127 107.651 18.6793 108.584 19.2127C110.718 20.546 105.251 13.0793 101.784 9.87933C100.184 8.41267 98.5842 7.61267 98.1842 8.01267C97.7842 8.546 95.6509 8.27933 93.5176 7.746C91.1176 7.07933 89.6509 7.07933 89.6509 7.87933C89.6509 8.67933 89.1176 8.81267 88.3176 8.41267C84.0509 5.746 89.3842 4.946 96.3176 7.07933C97.5176 7.47933 97.2509 6.946 95.7842 5.746C91.1176 2.146 83.9176 2.81267 73.2509 7.746C62.1842 12.8127 52.0509 22.8127 54.3176 26.4127C54.8509 27.2127 54.4509 27.6127 53.5176 27.4793C51.2509 26.946 49.2509 36.4127 50.1842 43.4793C50.5842 46.6793 52.1842 52.0127 53.5176 55.2127C55.5176 59.746 56.7176 60.946 58.5842 60.2793C60.4509 59.6127 60.5842 59.746 59.1176 60.8127C55.9176 63.0793 63.3842 72.146 79.3842 85.0793C87.3842 91.4793 90.8509 93.4793 88.8509 90.146C88.3176 89.2127 88.4509 89.0793 89.5176 89.6127C90.3176 90.146 90.7176 91.0793 90.3176 91.746C89.9176 92.4127 91.5176 94.0127 93.9176 95.2127C96.3176 96.4127 99.9176 98.6793 102.051 100.146C104.851 102.279 106.051 102.546 107.251 101.346C108.184 100.413 109.784 99.746 110.984 99.8793C112.051 99.8793 111.651 100.413 109.784 101.213C107.518 102.146 106.984 102.946 107.918 103.879C108.984 104.946 110.318 104.813 112.451 103.746C115.518 102.279 115.518 102.413 113.118 104.279C111.651 105.479 110.984 106.813 111.384 107.346C111.918 107.879 113.118 107.479 113.918 106.679C114.851 105.746 116.051 105.079 116.851 105.079C117.518 105.079 116.984 105.879 115.651 106.946C113.251 108.679 113.251 108.813 115.918 110.146C118.584 111.613 122.451 108.279 152.051 77.6127C155.651 73.8793 156.051 71.746 152.451 74.946C150.184 76.946 149.918 76.946 149.118 75.0793C148.718 73.8793 147.651 73.346 146.851 73.8793C145.784 74.4127 145.651 74.2793 146.184 73.346C146.851 72.146 147.918 72.146 149.651 73.0793C151.251 73.8793 152.451 74.0127 152.984 73.0793C153.384 72.4127 154.584 72.146 155.651 72.6793C156.718 73.0793 157.651 72.6793 157.651 71.8793C157.651 71.2127 158.984 69.346 160.584 67.746C162.184 66.2793 163.118 65.0793 162.584 65.0793C162.051 65.0793 163.784 61.6127 166.451 57.4793C169.118 53.346 171.384 48.546 171.518 46.946C171.518 45.346 172.184 44.2793 172.851 44.8127C173.518 45.2127 173.784 44.546 173.251 43.346C172.851 42.146 173.118 41.0793 173.918 40.8127C174.718 40.546 175.651 36.6793 175.918 32.2793C176.718 18.4127 169.518 8.81267 161.518 13.0793C159.384 14.2793 158.984 14.0127 158.984 11.746C158.984 10.2793 158.051 9.07934 156.984 9.07934C155.918 9.07934 154.984 8.41267 154.984 7.47933C154.984 6.67933 155.384 6.41267 155.918 6.81267C156.318 7.346 157.651 6.946 158.718 6.01267C159.918 5.21267 160.451 5.07933 159.918 5.87933C159.251 7.07933 160.851 8.27933 167.384 11.4793C167.918 11.746 168.318 11.2127 168.318 10.546C168.318 9.746 167.518 9.07934 166.451 9.07934C165.384 9.07934 164.318 8.146 164.051 6.946C163.518 4.27933 153.518 0.412668 146.318 0.0126677C143.384 -0.120666 138.584 0.812668 135.651 2.146ZM143.784 2.27933C143.251 2.946 143.784 3.746 144.584 4.146C145.518 4.41267 144.318 4.67933 142.051 4.81267C139.651 4.81267 137.651 4.27933 137.651 3.61267C137.651 2.81267 138.184 2.546 138.718 2.946C139.251 3.21267 140.584 3.07933 141.651 2.27933C144.184 0.812668 144.718 0.812668 143.784 2.27933ZM150.984 3.746C150.984 4.41267 150.451 5.07933 149.651 5.07933C148.984 5.07933 148.318 4.41267 148.318 3.746C148.318 2.946 148.984 2.41267 149.651 2.41267C150.451 2.41267 150.984 2.946 150.984 3.746ZM136.318 5.746C136.318 6.946 135.518 7.346 134.184 6.81267C132.451 6.146 132.451 5.87933 133.918 4.946C136.184 3.47933 136.318 3.47933 136.318 5.746ZM84.9842 7.61267C84.5842 8.41267 82.5842 9.07934 80.5842 9.07934L76.9842 8.946L80.9842 7.21267C85.2509 5.346 86.4509 5.47933 84.9842 7.61267ZM98.9842 11.0793C99.6509 10.6793 100.318 11.2127 100.318 12.2793C100.318 13.4793 99.7842 14.4127 98.9842 14.4127C98.3176 14.4127 97.2509 14.4127 96.7176 14.4127C96.0509 14.4127 95.6509 14.0127 95.6509 13.346C95.6509 12.8127 95.1176 11.4793 94.3176 10.4127C93.3842 8.67933 93.5176 8.67934 95.3842 10.146C96.5842 11.2127 98.1842 11.6127 98.9842 11.0793ZM158.051 14.0127C160.451 16.2793 163.651 17.8793 165.251 17.746C166.851 17.6127 167.918 18.0127 167.518 18.546C167.118 19.2127 167.518 19.746 168.318 19.746C169.118 19.746 169.384 20.2793 168.984 21.0793C167.784 23.0793 165.651 22.6793 165.651 20.4127C165.651 19.346 165.118 18.4127 164.318 18.4127C162.451 18.4127 162.584 19.346 165.251 23.2127C167.118 26.146 167.251 27.746 165.918 33.8793C165.118 37.746 163.518 43.0793 162.318 45.6127C161.118 48.146 160.451 50.946 160.984 51.746C161.384 52.546 161.251 52.946 160.584 52.8127C159.918 52.546 156.851 56.0127 153.918 60.4127C150.051 66.146 148.984 68.6793 150.051 69.4793C151.118 70.2793 150.851 70.4127 149.384 70.0127C148.184 69.6127 146.184 70.4127 144.984 71.746C142.984 73.8793 142.984 74.6793 144.318 76.4127C145.251 77.6127 145.384 78.4127 144.584 78.4127C143.784 78.4127 142.984 77.746 142.718 76.946C142.318 75.8793 141.384 76.146 139.918 77.6127C138.718 78.946 137.918 80.546 138.451 81.2127C138.851 81.8793 138.584 82.2793 137.918 82.146C137.251 81.8793 133.651 84.2793 129.918 87.4793C123.651 92.6793 123.118 93.4793 124.318 96.8127C125.518 100.146 125.518 100.146 123.784 97.8793C122.584 96.4127 121.118 95.8793 120.051 96.546C119.118 97.2127 115.651 97.746 112.318 97.8793C108.984 98.0127 105.518 98.2793 104.451 98.546C103.518 98.8127 102.318 98.146 102.051 97.0793C101.518 95.346 101.651 95.346 102.851 97.0793C103.784 98.4127 104.318 98.546 104.318 97.4793C104.318 96.546 105.251 96.146 106.584 96.6793C108.184 97.346 108.451 97.0793 107.651 95.6127C106.851 94.146 106.984 94.0127 108.451 95.346C109.384 96.2793 110.718 97.0793 111.384 97.0793C113.651 97.0793 109.518 93.2127 103.251 89.6127C99.7842 87.6127 92.9842 83.0793 88.1842 79.6127C83.3842 76.0127 77.9176 72.546 76.1842 71.8793C74.4509 71.2127 73.7842 70.546 74.5842 70.546C75.7842 70.4127 75.6509 69.6127 74.0509 67.8793C72.8509 66.4127 71.2509 65.6127 70.5842 66.0127C69.7842 66.4127 69.6509 66.2793 70.0509 65.4793C70.5842 64.6793 69.3842 62.6793 67.6509 61.0793C65.7842 59.346 64.3176 57.346 64.3176 56.546C64.3176 55.746 62.9842 53.6127 61.5176 51.746C60.0509 49.8793 59.2509 49.346 59.7842 50.4127C60.4509 52.0127 60.3176 52.0127 58.9842 50.8127C58.0509 50.0127 57.7842 48.546 58.4509 47.6127C58.9842 46.546 59.3842 43.6127 59.1176 40.946C58.4509 30.6793 67.3842 19.0793 79.5176 14.546C87.1176 11.746 91.3842 12.546 96.1842 17.6127C98.0509 19.6127 100.184 20.546 101.784 20.146C103.118 19.746 104.318 20.146 104.318 20.946C104.318 21.6127 103.384 22.0127 102.318 21.6127C99.7842 20.6793 99.7842 21.2127 102.184 26.6793C103.251 29.0793 104.851 33.6127 105.784 36.6793C107.118 41.6127 107.651 42.146 109.384 40.6793C111.118 39.4793 111.251 39.4793 110.451 40.6793C109.918 41.6127 110.051 42.4127 110.851 42.4127C111.518 42.4127 112.318 41.6127 112.718 40.6793C112.984 39.8793 113.651 39.346 114.051 39.746C115.251 40.8127 113.518 46.4127 112.051 46.4127C111.384 46.4127 111.251 45.746 111.651 45.0793C112.051 44.2793 111.518 43.746 110.318 43.746C107.118 43.746 108.584 46.946 111.918 47.4793C114.184 47.746 115.118 46.8127 116.451 42.8127C117.384 40.0127 119.784 34.4127 121.918 30.4127C126.051 22.4127 126.184 21.8793 124.451 23.0793C123.784 23.4793 122.718 23.0793 122.184 22.2793C121.518 21.2127 122.051 20.946 124.051 21.346C125.918 21.8793 127.784 21.0793 130.051 18.546C137.651 10.4127 140.451 8.946 148.051 9.61267C152.184 10.0127 155.118 11.2127 158.051 14.0127ZM77.6509 12.4127C77.6509 12.6793 76.3176 13.6127 74.7176 14.4127C71.7842 15.8793 71.7842 15.746 74.1842 13.8793C76.9842 11.6127 77.6509 11.346 77.6509 12.4127ZM133.651 13.0793C133.651 13.746 133.384 14.4127 133.118 14.4127C132.718 14.4127 132.051 13.746 131.651 13.0793C131.251 12.2793 131.518 11.746 132.184 11.746C132.984 11.746 133.651 12.2793 133.651 13.0793ZM66.9842 15.746C66.9842 16.4127 66.7176 17.0793 66.4509 17.0793C66.0509 17.0793 65.3842 16.4127 64.9842 15.746C64.5842 14.946 64.8509 14.4127 65.5176 14.4127C66.3176 14.4127 66.9842 14.946 66.9842 15.746ZM104.318 16.4127C104.318 17.4793 103.784 18.4127 102.984 18.4127C102.318 18.4127 101.651 17.4793 101.651 16.4127C101.651 15.346 102.318 14.4127 102.984 14.4127C103.784 14.4127 104.318 15.346 104.318 16.4127ZM170.318 15.746C170.718 16.546 170.184 16.6793 169.118 16.2793C166.718 15.346 166.318 14.4127 168.184 14.4127C168.984 14.4127 169.918 14.946 170.318 15.746ZM120.318 19.746C118.851 21.2127 117.651 23.0793 117.651 24.0127C117.651 24.8127 117.251 25.0793 116.851 24.6793C115.784 23.6127 119.918 17.0793 121.651 17.0793C122.451 17.0793 121.784 18.2793 120.318 19.746ZM170.584 25.0793C168.851 27.4793 168.584 27.6127 167.784 25.746C167.384 24.4127 167.518 23.8793 168.451 24.4127C169.251 24.946 170.184 24.0127 170.584 22.2793C171.118 20.546 171.651 19.8793 172.051 20.8127C172.318 21.6127 171.651 23.6127 170.584 25.0793ZM57.2509 24.4127C57.2509 25.4793 56.7176 26.0127 56.0509 25.6127C55.3842 25.2127 55.2509 24.2793 55.6509 23.6127C56.8509 21.8793 57.2509 22.146 57.2509 24.4127ZM63.3842 24.4127C62.9842 25.6127 62.3176 26.2793 62.0509 25.8793C61.6509 25.4793 61.7842 24.6793 62.3176 23.8793C63.5176 21.746 64.3176 22.146 63.3842 24.4127ZM108.984 23.746C109.384 24.4127 108.851 25.0793 107.784 25.0793C106.584 25.0793 105.651 25.8793 105.651 26.6793C105.651 27.8793 105.251 27.746 104.318 26.4127C103.518 25.2127 103.651 24.146 104.718 23.4793C106.851 22.146 108.051 22.146 108.984 23.746ZM174.984 26.4127C174.984 27.0793 173.918 27.746 172.718 27.746C170.718 27.746 170.584 27.4793 172.318 26.4127C174.851 24.8127 174.984 24.8127 174.984 26.4127ZM54.9842 31.0793C54.9842 32.146 54.4509 33.0793 53.6509 33.0793C52.9842 33.0793 52.7176 32.146 53.1176 31.0793C53.6509 30.0127 54.1842 29.0793 54.4509 29.0793C54.7176 29.0793 54.9842 30.0127 54.9842 31.0793ZM119.118 31.0793C119.784 30.546 119.918 31.0793 119.518 32.146C118.851 33.8793 118.318 33.8793 114.851 32.146C110.051 29.746 109.784 28.6793 114.451 30.4127C116.318 31.2127 118.451 31.4793 119.118 31.0793ZM110.184 37.346C109.251 38.8127 109.251 38.8127 106.984 34.4127C105.251 31.0793 105.251 31.0793 108.051 33.6127C109.651 34.946 110.584 36.6793 110.184 37.346ZM174.984 33.346C174.984 34.0127 173.518 34.4127 171.651 34.4127C169.784 34.4127 168.318 34.0127 168.318 33.346C168.318 32.8127 169.784 32.4127 171.651 32.4127C173.518 32.4127 174.984 32.8127 174.984 33.346ZM56.9842 35.6127C57.3842 36.2793 56.9842 37.346 56.1842 37.8793C55.2509 38.4127 54.9842 38.2793 55.5176 37.346C55.9176 36.6793 55.5176 35.6127 54.7176 35.346C53.5176 34.8127 53.3842 34.546 54.5842 34.546C55.3842 34.4127 56.4509 34.946 56.9842 35.6127ZM115.651 37.0793C116.051 37.746 115.784 38.4127 115.118 38.4127C114.318 38.4127 113.651 37.746 113.651 37.0793C113.651 36.2793 113.918 35.746 114.184 35.746C114.584 35.746 115.251 36.2793 115.651 37.0793ZM173.651 38.546C173.651 39.346 173.118 39.4793 172.318 39.0793C171.651 38.6793 170.984 37.6127 170.984 36.946C170.984 36.146 171.651 36.0127 172.318 36.4127C173.118 36.8127 173.651 37.8793 173.651 38.546ZM169.651 37.6127C169.651 37.8793 168.718 38.8127 167.651 39.746C165.918 41.2127 165.784 41.0793 166.451 39.2127C167.118 37.346 169.651 36.146 169.651 37.6127ZM57.2509 44.0127C56.8509 44.946 56.5842 44.2793 56.5842 42.4127C56.5842 40.546 56.8509 39.8793 57.2509 40.6793C57.5176 41.6127 57.5176 43.2127 57.2509 44.0127ZM166.184 45.346C165.518 46.4127 165.918 46.546 167.384 46.0127C168.718 45.6127 169.651 45.746 169.651 46.2793C169.651 47.2127 166.584 49.0793 165.118 49.0793C164.984 49.0793 164.851 47.8793 164.718 46.4127C164.584 44.946 165.118 43.746 165.784 43.746C166.584 43.746 166.718 44.4127 166.184 45.346ZM55.1176 46.946C55.7842 46.546 56.3176 46.946 56.3176 47.746C56.3176 49.746 53.2509 48.6793 52.8509 46.6793C52.7176 45.746 52.8509 45.6127 53.2509 46.4127C53.5176 47.0793 54.4509 47.4793 55.1176 46.946ZM56.3176 50.946C56.3176 51.346 55.7842 52.0127 54.9842 52.4127C54.3176 52.8127 53.6509 52.546 53.6509 51.8793C53.6509 51.0793 54.3176 50.4127 54.9842 50.4127C55.7842 50.4127 56.3176 50.6793 56.3176 50.946ZM166.984 52.946C166.318 54.4127 164.984 56.0127 164.318 56.4127C163.518 56.946 163.251 57.746 163.651 58.4127C164.051 58.946 163.384 59.746 162.318 60.2793C159.918 61.2127 159.651 59.6127 161.918 57.346C162.851 56.4127 162.984 55.746 162.184 55.746C161.518 55.746 160.184 56.4127 159.251 57.346C158.184 58.4127 157.651 58.4127 157.651 57.4793C157.651 55.746 161.384 54.146 162.984 55.0793C163.651 55.4793 164.451 55.2127 164.984 54.4127C165.384 53.746 164.984 53.0793 164.051 52.946C162.718 52.946 165.651 51.0793 168.051 50.546C168.184 50.4127 167.784 51.6127 166.984 52.946ZM58.5842 54.0127C58.0509 54.4127 58.7176 55.4793 59.9176 56.4127C61.7842 57.8793 61.6509 58.0127 59.2509 57.746C55.3842 57.4793 53.9176 55.8793 56.3176 54.4127C58.5842 52.946 59.7842 52.6793 58.5842 54.0127ZM158.318 61.0793C157.918 61.746 156.851 62.4127 156.184 62.4127C155.384 62.4127 155.251 61.746 155.651 61.0793C156.051 60.2793 157.118 59.746 157.784 59.746C158.584 59.746 158.718 60.2793 158.318 61.0793ZM156.318 68.2793C156.318 68.546 155.384 69.2127 154.184 69.6127C153.118 70.0127 152.584 69.8793 152.984 69.0793C153.784 67.746 156.318 67.2127 156.318 68.2793ZM72.3176 70.2793C72.3176 70.6793 71.7842 71.8793 71.2509 72.6793C70.4509 74.0127 69.6509 74.0127 67.5176 72.4127C65.1176 70.4127 65.1176 70.4127 67.5176 71.346C69.1176 71.8793 69.7842 71.746 69.2509 70.8127C68.8509 70.146 69.2509 69.4793 70.3176 69.4793C71.3842 69.4793 72.3176 69.8793 72.3176 70.2793ZM74.5842 76.0127C74.5842 77.746 74.4509 78.2793 74.0509 77.346C73.6509 76.546 72.7176 76.146 71.9176 76.6793C70.9842 77.2127 71.1176 76.546 72.1842 75.346C74.4509 72.546 74.4509 72.546 74.5842 76.0127ZM83.3842 82.0127C82.5842 84.146 80.8509 84.2793 79.6509 82.4127C79.2509 81.6127 79.3842 81.0793 80.1842 81.0793C80.9842 81.0793 81.1176 80.0127 80.7176 78.8127C79.9176 76.8127 80.0509 76.6793 81.9176 78.4127C82.9842 79.4793 83.6509 81.2127 83.3842 82.0127ZM145.651 81.0793C145.651 81.746 144.584 82.4127 143.384 82.4127C141.384 82.4127 141.251 82.146 142.984 81.0793C145.518 79.4793 145.651 79.4793 145.651 81.0793ZM91.9176 85.6127C93.6509 85.4793 95.5176 86.146 96.1842 86.946C97.1176 88.0127 96.7176 88.546 94.8509 88.546C93.5176 88.546 92.3176 88.0127 92.3176 87.346C92.3176 86.6793 91.2509 86.546 89.7842 87.0793C87.2509 87.8793 84.9842 84.946 86.7176 83.0793C87.1176 82.6793 87.9176 83.0793 88.3176 84.0127C88.7176 84.946 90.3176 85.746 91.9176 85.6127ZM140.184 88.2793C140.184 89.2127 139.918 89.0793 139.384 88.0127C138.451 85.746 136.318 86.0127 136.318 88.4127C136.318 89.4793 135.784 90.4127 134.984 90.4127C133.251 90.4127 133.251 89.6127 135.251 86.4127C136.451 84.546 137.384 84.2793 138.584 85.346C139.518 86.146 140.318 87.4793 140.184 88.2793ZM96.0509 92.0127C95.7842 92.946 96.5842 93.6127 97.7842 93.346C98.9842 93.2127 99.9176 93.8793 99.9176 94.946C99.9176 96.6793 99.2509 96.6793 95.9176 94.8127C92.8509 93.2127 92.3176 92.546 93.7842 91.6127C96.1842 90.146 96.3176 90.146 96.0509 92.0127ZM105.651 92.4127C105.651 93.8793 101.784 93.8793 101.251 92.546C100.718 91.2127 101.384 90.946 103.118 91.346C104.451 91.746 105.651 92.2793 105.651 92.4127ZM133.384 92.946C134.318 93.0793 134.851 93.6127 134.451 94.2793C133.651 95.4793 127.251 94.6793 126.318 93.2127C126.051 92.6793 127.118 92.4127 128.718 92.546C130.318 92.6793 132.451 92.946 133.384 92.946ZM122.984 101.079C122.984 101.746 122.718 102.413 122.451 102.413C122.051 102.413 121.384 101.746 120.984 101.079C120.584 100.279 120.851 99.746 121.518 99.746C122.318 99.746 122.984 100.279 122.984 101.079ZM121.118 107.613C120.584 108.413 119.118 108.946 117.918 108.946C115.918 108.813 116.051 108.679 118.051 108.146C119.651 107.746 120.184 106.813 119.651 105.346C118.984 103.613 119.251 103.479 120.451 104.679C121.251 105.479 121.518 106.813 121.118 107.613Z" fill="black"/>
<path d="M11.2509 120.413C0.984225 125.746 -3.01578 138.679 2.45089 149.213C5.38423 154.946 14.7176 167.746 16.0509 167.746C16.5842 167.746 18.9842 169.613 21.3842 171.879C23.9176 174.279 26.3176 175.479 27.3842 174.946C28.1842 174.413 28.5842 174.413 28.0509 175.079C27.1176 176.013 35.3842 182.413 37.5176 182.413C38.1842 182.413 39.3842 183.346 40.3176 184.413C42.1842 186.679 49.1176 187.079 50.3176 184.946C50.8509 184.146 50.3176 183.746 48.9842 184.013C47.6509 184.279 46.3176 183.613 46.0509 182.679C45.5176 181.479 46.1842 181.346 48.9842 182.413C51.7842 183.479 52.9842 183.213 55.2509 181.079C56.8509 179.613 58.7176 178.413 59.2509 178.413C59.9176 178.413 60.0509 176.946 59.7842 175.079C59.3842 173.213 59.7842 171.746 60.4509 171.746C61.2509 171.746 61.3842 171.079 60.8509 170.146C60.3176 169.346 60.4509 169.079 61.3842 169.613C62.1842 170.013 63.7842 169.479 64.8509 168.279C66.0509 167.213 66.9842 166.813 66.9842 167.613C66.9842 168.413 65.9176 169.613 64.4509 170.279C63.1176 171.079 61.6509 172.546 61.1176 173.746C59.7842 177.479 62.7176 175.746 66.9842 170.413C69.3842 167.346 70.7176 165.079 70.1842 165.213C69.5176 165.346 68.0509 165.346 66.9842 165.213C65.2509 165.079 65.2509 164.946 66.9842 163.613C68.5842 162.413 68.4509 162.279 66.0509 162.813C64.0509 163.213 63.3842 162.946 63.9176 161.613C64.5842 159.879 67.5176 160.413 70.4509 162.679C71.3842 163.346 72.7176 162.813 73.9176 161.346C76.4509 158.413 80.3176 149.879 80.3176 147.346C80.3176 146.146 80.9842 144.813 81.7842 144.413C83.1176 143.479 82.8509 138.279 80.8509 130.146C80.4509 128.013 77.9176 124.546 75.3842 122.413C71.5176 118.946 69.7842 118.279 64.5842 118.546C56.8509 118.946 52.5842 120.413 48.7176 124.013C45.1176 127.479 44.7176 129.346 48.0509 128.146C50.4509 127.213 50.3176 127.479 46.4509 130.413C44.7176 131.746 44.1842 131.746 44.8509 130.679C45.3842 129.879 45.2509 129.079 44.5842 129.079C44.0509 129.079 41.1176 127.079 38.3176 124.546C33.2509 120.013 24.8509 116.813 19.3842 117.346C17.7842 117.479 14.1842 118.813 11.2509 120.413ZM26.4509 120.813C25.1176 121.079 23.5176 120.813 22.7176 120.013C21.9176 119.213 22.7176 119.079 25.2509 119.479C28.0509 120.146 28.3176 120.413 26.4509 120.813ZM66.9842 121.079C66.9842 121.746 66.4509 122.413 65.7842 122.413C64.9842 122.413 64.0509 121.746 63.6509 121.079C63.2509 120.279 63.7842 119.746 64.8509 119.746C66.0509 119.746 66.9842 120.279 66.9842 121.079ZM34.9842 123.079C34.9842 123.346 33.7842 123.479 32.4509 123.346C30.9842 123.346 30.0509 122.679 30.4509 122.146C30.9842 121.346 34.9842 122.146 34.9842 123.079ZM18.1842 124.546C18.8509 126.413 18.7176 126.546 16.9842 125.079C14.7176 123.213 14.4509 122.413 16.1842 122.413C16.8509 122.413 17.7842 123.346 18.1842 124.546ZM68.3176 126.813C68.3176 128.013 63.5176 125.613 62.4509 123.879C61.9176 123.213 63.1176 123.346 64.9842 124.146C66.8509 125.079 68.3176 126.279 68.3176 126.813ZM7.38423 126.413C6.71756 128.946 4.31756 130.279 4.31756 128.013C4.31756 127.079 6.98423 123.746 7.78423 123.746C7.91756 123.746 7.78423 124.946 7.38423 126.413ZM27.6509 125.079C27.1176 125.879 28.4509 126.013 30.9842 125.613C33.2509 125.079 34.9842 125.346 34.9842 126.146C34.9842 127.079 28.4509 127.479 25.9176 126.546C25.2509 126.279 26.9842 123.746 27.7842 123.746C28.1842 123.746 28.0509 124.279 27.6509 125.079ZM72.3176 124.946C72.3176 125.746 71.7842 126.546 71.2509 126.946C70.5842 127.346 70.0509 126.813 70.0509 125.746C70.0509 124.679 70.5842 123.746 71.2509 123.746C71.7842 123.746 72.3176 124.279 72.3176 124.946ZM38.9842 127.746C39.7842 129.213 39.9176 130.279 39.3842 130.146C38.8509 130.013 36.9842 130.279 35.5176 130.813C32.7176 131.879 32.5842 131.879 34.8509 138.146C36.7176 143.213 37.7842 144.546 40.5842 144.813C43.5176 145.213 44.4509 144.279 46.9842 139.346C49.1176 135.079 51.5176 132.546 55.6509 130.546C66.1842 125.346 70.7176 127.479 72.3176 138.413C72.8509 142.413 73.3842 144.813 73.5176 143.746C73.6509 142.013 73.7842 142.013 74.9842 143.746C76.8509 146.679 76.5842 147.613 74.0509 146.946C72.3176 146.546 70.3176 148.679 66.3176 155.346C63.3842 160.413 61.2509 164.813 61.3842 165.346C61.5176 166.013 60.8509 166.279 60.0509 166.013C59.1176 165.879 58.4509 166.546 58.7176 167.479C58.8509 168.546 58.4509 168.946 57.7842 168.546C57.1176 168.146 55.9176 168.679 54.9842 169.879C54.0509 170.946 51.5176 173.079 49.3842 174.679C45.7842 177.213 45.3842 177.213 42.9842 175.079C41.6509 173.879 39.7842 173.213 38.8509 173.879C37.9176 174.413 37.5176 174.279 38.0509 173.479C39.2509 171.613 35.7842 170.279 32.7176 171.213C30.9842 171.746 30.8509 171.613 32.0509 170.813C33.3842 169.746 32.5842 168.546 28.7176 165.746C20.1842 159.479 14.8509 154.013 12.1842 148.813C9.38423 143.346 8.85089 133.746 11.1176 132.279C12.1842 131.746 12.0509 131.079 10.8509 130.279C9.51756 129.479 9.65089 129.213 11.6509 129.213C13.1176 129.079 16.5842 128.679 19.3842 128.279C22.1842 127.746 26.0509 128.146 28.1842 129.079C32.8509 130.946 37.7842 129.746 36.7176 126.946C35.6509 124.146 37.3842 124.679 38.9842 127.746ZM77.6509 131.879C77.6509 130.946 78.3176 130.679 79.1176 131.213C80.1842 131.746 80.0509 132.413 78.8509 133.213C76.5842 134.546 71.9176 132.013 73.1176 130.146C73.7842 129.213 74.7176 129.479 75.9176 131.079C76.8509 132.546 77.6509 132.813 77.6509 131.879ZM7.65089 131.746C8.18423 132.546 6.98423 133.079 4.98423 133.079C2.98423 133.079 1.78423 132.546 2.31756 131.746C2.71756 130.946 3.91756 130.413 4.98423 130.413C6.05089 130.413 7.25089 130.946 7.65089 131.746ZM37.3842 133.346C37.1176 134.279 37.7842 134.946 38.8509 135.079C39.9176 135.079 40.9842 135.746 41.2509 136.679C42.0509 138.813 37.6509 138.013 36.3176 135.746C35.6509 134.679 35.5176 133.346 35.7842 132.813C36.8509 131.213 37.6509 131.479 37.3842 133.346ZM6.45089 140.013C5.38423 140.679 4.71756 142.279 4.98423 143.746C5.65089 146.946 3.51756 148.546 2.45089 145.746C2.05089 144.679 2.45089 143.746 3.38423 143.746C4.45089 143.746 4.18423 143.213 2.98423 142.413C1.25089 141.213 1.25089 141.079 2.98423 141.079C4.18423 141.079 4.45089 140.679 3.65089 140.013C2.98423 139.479 2.18422 138.279 2.05089 137.479C1.78422 136.146 2.45089 136.146 5.11756 137.346C7.78423 138.546 8.05089 139.079 6.45089 140.013ZM77.2509 138.413C77.1176 139.879 76.3176 141.079 75.3842 141.079C73.9176 141.079 73.9176 140.546 75.2509 138.413C76.1842 136.946 77.1176 135.746 77.2509 135.746C77.3842 135.746 77.3842 136.946 77.2509 138.413ZM80.9842 138.413C81.3842 139.079 81.1176 139.746 80.4509 139.746C79.6509 139.746 78.9842 139.079 78.9842 138.413C78.9842 137.613 79.2509 137.079 79.5176 137.079C79.9176 137.079 80.5842 137.613 80.9842 138.413ZM8.85089 145.746C9.25089 146.813 8.98422 147.746 8.31756 147.746C7.51756 147.746 6.98423 146.813 6.98423 145.746C6.98423 144.679 7.25089 143.746 7.51756 143.746C7.78423 143.746 8.31756 144.679 8.85089 145.746ZM9.65089 150.413C7.25089 152.013 5.65089 152.146 5.65089 150.679C5.65089 150.146 6.98423 149.479 8.58423 149.479C10.9842 149.213 11.2509 149.479 9.65089 150.413ZM10.3176 154.279C9.91756 155.079 8.85089 155.746 8.18423 155.746C7.51756 155.746 7.65089 154.946 8.58423 153.879C10.4509 151.746 11.7842 152.146 10.3176 154.279ZM75.3842 155.879C74.5842 156.679 73.1176 156.946 72.1842 156.279C70.9842 155.613 71.1176 155.079 73.1176 154.413C76.1842 153.213 77.2509 154.013 75.3842 155.879ZM70.5842 159.213C70.1842 159.613 68.9842 159.746 68.0509 159.346C66.9842 158.946 67.3842 158.546 68.8509 158.546C70.3176 158.413 71.1176 158.813 70.5842 159.213ZM19.9176 160.546C19.5176 160.946 18.3176 161.079 17.3842 160.679C16.3176 160.279 16.7176 159.879 18.1842 159.879C19.6509 159.746 20.4509 160.146 19.9176 160.546ZM15.6509 163.746C16.0509 164.413 15.7842 165.079 15.1176 165.079C14.3176 165.079 13.6509 164.413 13.6509 163.746C13.6509 162.946 13.9176 162.413 14.1842 162.413C14.5842 162.413 15.2509 162.946 15.6509 163.746ZM24.3176 163.746C25.9176 164.813 25.9176 165.079 23.7842 165.879C21.9176 166.546 21.7842 167.079 23.2509 168.013C24.7176 169.079 24.5842 169.213 23.1176 168.813C22.0509 168.546 20.9842 166.946 20.7176 165.346C20.3176 162.146 21.2509 161.746 24.3176 163.746ZM28.9842 168.813C28.5842 169.213 27.5176 168.813 26.5842 167.879C25.3842 166.546 25.5176 166.413 27.3842 167.213C28.7176 167.613 29.3842 168.413 28.9842 168.813ZM28.9842 171.746C29.3842 172.413 28.8509 173.079 27.7842 173.079C26.5842 173.079 25.6509 172.413 25.6509 171.746C25.6509 170.946 26.1842 170.413 26.8509 170.413C27.6509 170.413 28.5842 170.946 28.9842 171.746ZM33.9176 175.346C32.8509 175.746 33.2509 176.813 35.2509 178.546C36.9842 179.879 37.9176 180.946 37.3842 181.079C36.8509 181.079 35.1176 180.013 33.6509 178.813C31.7842 177.079 31.3842 176.146 32.5842 174.813C33.3842 173.879 34.4509 173.346 34.8509 173.879C35.2509 174.413 34.8509 175.079 33.9176 175.346Z" fill="black"/>
</svg>
