<svg width="159" height="158" viewBox="0 0 159 158" fill="none" xmlns="http://www.w3.org/2000/svg">
<path d="M57.4334 1.52083C57.1667 1.65416 52.5 2.05415 47.0334 2.18748C35.4334 2.45416 32.5 3.12082 35.3 4.85416C36.6334 5.78749 36.6334 6.05415 35.0334 6.05415C33.8334 6.05415 32.2334 5.3875 31.4334 4.58749C28.3667 1.52083 8.7667 13.6542 10.2334 17.6542C10.6334 18.7208 10.5 19.2542 9.83337 18.8542C8.23337 17.7875 4.90004 23.2542 3.03337 30.0542C1.43337 35.9208 0.633369 89.3875 2.10004 90.8542C2.50004 91.3875 2.3667 92.7208 1.70004 93.9208C0.766702 95.7875 0.633369 105.921 1.5667 116.988C1.5667 118.321 2.7667 119.388 4.10004 119.521C5.43337 119.521 5.70004 119.921 4.7667 120.321C2.23337 121.254 2.63337 129.521 5.70004 135.254C11.4334 146.721 19.8334 153.388 26.6334 152.054C29.7 151.521 29.8334 151.521 27.7 152.588C25.3 153.654 25.1667 153.788 27.4334 154.721C28.6334 155.254 31.5667 155.388 33.7 155.121C35.8334 154.721 37.8334 154.988 37.9667 155.388C38.2334 155.921 46.6334 156.721 56.6334 156.988C66.7667 157.388 74.6334 157.254 74.3667 156.588C73.9667 156.054 74.2334 155.254 74.9 154.854C75.5667 154.454 76.3667 154.854 76.7667 155.921C77.3 157.388 81.9667 157.654 99.7 157.254C126.1 156.721 127.967 156.454 138.633 150.588C147.033 145.921 152.5 139.388 152.9 133.521C152.9 131.788 153.433 130.588 153.833 130.854C155.033 131.521 156.5 123.388 155.433 121.654C155.033 120.854 155.3 120.721 156.1 121.254C157.3 121.921 157.7 118.854 157.833 109.788C157.833 102.988 157.967 83.5208 158.1 66.7208C158.233 41.3875 157.833 34.3208 155.967 25.7875C153.7 16.3208 153.033 14.9875 147.567 10.5875C137.433 2.32083 129.3 0.854156 90.7667 0.987488C72.6334 0.987488 57.5667 1.25417 57.4334 1.52083ZM91.0334 3.3875C91.0334 4.05415 90.3667 4.72083 89.5667 4.72083C88.9 4.72083 88.6334 4.05415 89.0334 3.3875C89.4334 2.58749 90.1 2.05415 90.5 2.05415C90.7667 2.05415 91.0334 2.58749 91.0334 3.3875ZM58.3667 4.72083C58.7667 5.52083 58.2334 5.65416 57.1667 5.25417C54.7667 4.32083 54.3667 3.3875 56.2334 3.3875C57.0334 3.3875 57.9667 3.92082 58.3667 4.72083ZM30.3667 7.25417C29.9667 8.05415 28.9 8.72083 28.2334 8.72083C27.5667 8.72083 27.7 7.92082 28.6334 6.85416C30.5 4.72083 31.8334 5.12082 30.3667 7.25417ZM129.433 6.18748C129.167 6.98749 130.367 7.92082 132.1 8.18748C134.233 8.58749 134.9 8.18748 134.233 7.12082C133.567 5.78749 133.7 5.78749 135.033 6.98749C137.7 9.52083 135.833 10.4542 130.367 9.52083C126.367 8.72083 125.833 8.18748 127.033 6.58749C129.033 4.32083 129.833 4.18748 129.433 6.18748ZM69.7 9.78749C69.7 10.3208 68.3667 10.9875 66.7667 10.9875C64.3667 11.2542 64.1 10.9875 65.7 10.0542C68.1 8.45416 69.7 8.32083 69.7 9.78749ZM138.367 12.7208C138.767 13.5208 138.233 13.6542 137.167 13.2542C134.767 12.3208 134.367 11.3875 136.233 11.3875C137.033 11.3875 137.967 11.9208 138.367 12.7208ZM21.0334 14.0542C20.6334 14.7208 20.9 15.3875 21.8334 15.3875C22.7667 15.3875 23.1667 15.6542 22.7667 16.0542C22.3667 16.4542 21.0334 16.3208 19.8334 15.9208C17.9667 15.2542 17.8334 14.7208 19.3 13.9208C21.5667 12.4542 21.9667 12.4542 21.0334 14.0542ZM134.633 16.3208C136.9 18.0542 139.433 19.3875 140.233 19.3875C142.1 19.3875 144.5 23.7875 147.033 32.0542C148.767 37.5208 149.167 44.3208 148.767 69.3875C148.233 118.988 147.567 123.254 138.9 135.521C136.5 138.988 136.5 139.121 139.3 140.988C141.833 142.721 141.967 142.988 139.833 143.788C138.633 144.321 137.833 144.188 138.233 143.521C138.633 142.854 138.1 141.654 137.167 140.854C135.7 139.521 133.567 140.054 127.433 143.121L119.7 147.121L80.3667 146.721C40.7667 146.454 36.2334 146.188 29.3 143.521C27.1667 142.721 24.9 142.321 24.2334 142.854C23.5667 143.254 23.1667 143.121 23.3 142.454C23.8334 140.721 15.1667 132.854 14.6334 134.588C14.2334 135.388 14.1 134.588 14.1 132.721C14.1 130.854 13.4334 126.188 12.5 122.188C11.7 118.321 11.0334 111.788 11.0334 107.921C11.0334 103.921 10.5 100.721 9.70004 100.721C9.03337 100.721 8.3667 100.054 8.3667 99.2542C8.3667 98.5875 9.03337 98.3208 9.70004 98.7208C10.6334 99.2542 11.0334 91.6542 11.0334 75.3875L10.9 51.1208L6.90004 51.9208C4.3667 52.3208 3.1667 52.1875 3.70004 51.3875C4.10004 50.5875 5.9667 50.0542 7.83337 50.0542C10.2334 50.0542 11.0334 49.2542 11.1667 46.9875C11.1667 45.3875 11.3 40.3208 11.4334 35.7875C11.5667 31.3875 12.1 27.9208 12.6334 28.1875C13.1667 28.4542 13.8334 27.6542 14.2334 26.3208C15.7 21.9208 20.7667 18.3208 29.7 15.5208C37.8334 12.9875 41.1667 12.8542 84.3667 13.1208C129.7 13.3875 130.367 13.3875 134.633 16.3208ZM146.367 15.3875C145.967 16.0542 144.767 16.7208 143.967 16.7208C143.033 16.7208 143.167 16.1875 144.367 15.3875C146.9 13.7875 147.433 13.7875 146.367 15.3875ZM13.0334 24.7208C12.6334 25.3875 11.4334 26.0542 10.6334 26.0542C9.70004 26.0542 9.83337 25.5208 11.0334 24.7208C13.5667 23.1208 14.1 23.1208 13.0334 24.7208ZM9.5667 36.8542C8.63337 37.3875 7.1667 37.5208 6.10004 37.1208C4.7667 36.5875 4.63337 35.9208 5.83337 34.5875C7.03337 33.1208 7.83337 32.9875 9.30004 34.1875C10.7667 35.3875 10.7667 36.0542 9.5667 36.8542ZM155.967 34.7208C155.967 35.7875 155.433 36.3208 154.767 35.9208C154.1 35.5208 153.967 34.5875 154.367 33.9208C155.567 32.1875 155.967 32.4542 155.967 34.7208ZM155.033 40.7208C153.967 41.3875 152.5 42.0542 151.7 42.0542C151.033 42.0542 151.3 41.3875 152.367 40.7208C153.433 40.0542 155.033 39.3875 155.7 39.3875C156.5 39.3875 156.1 40.0542 155.033 40.7208ZM157.3 46.9875C157.3 49.1208 157.167 49.6542 156.767 48.3208C156.5 47.1208 155.567 46.3208 154.9 46.7208C154.233 47.1208 154.1 46.5875 154.5 45.5208C155.7 42.1875 157.167 42.9875 157.3 46.9875ZM157.7 52.7208C157.7 53.3875 156.767 53.6542 155.7 53.2542C154.633 52.7208 153.7 53.1208 153.7 54.1875C153.7 55.1208 153.3 55.5208 152.9 54.9875C151.7 53.7875 153.567 51.3875 155.833 51.3875C156.9 51.3875 157.7 51.9208 157.7 52.7208ZM8.7667 55.6542C7.9667 57.1208 3.03337 56.9875 3.03337 55.5208C3.03337 54.8542 4.50004 54.4542 6.23337 54.5875C7.9667 54.5875 9.1667 55.1208 8.7667 55.6542ZM9.70004 64.7208C9.70004 65.3875 9.03337 66.0542 8.23337 66.0542C7.5667 66.0542 7.30004 65.3875 7.70004 64.7208C8.10004 63.9208 8.7667 63.3875 9.1667 63.3875C9.43337 63.3875 9.70004 63.9208 9.70004 64.7208ZM155.967 69.5208C155.567 69.9208 154.367 70.0542 153.433 69.6542C152.367 69.2542 152.767 68.8542 154.233 68.8542C155.7 68.7208 156.5 69.1208 155.967 69.5208ZM8.3667 72.0542C8.3667 72.3208 7.1667 72.4542 5.83337 72.3208C4.3667 72.3208 3.43337 71.6542 3.83337 71.1208C4.3667 70.3208 8.3667 71.1208 8.3667 72.0542ZM8.7667 79.5208C7.70004 80.5875 6.63337 80.5875 4.7667 79.5208C2.63337 78.3208 2.90004 78.1875 6.3667 78.0542C9.1667 78.0542 9.83337 78.4542 8.7667 79.5208ZM7.83337 84.0542C6.50004 85.1208 4.63337 85.5208 3.9667 85.1208C3.1667 84.5875 3.70004 83.7875 5.1667 83.2542C9.30004 81.6542 10.5 82.0542 7.83337 84.0542ZM155.967 96.3208C155.567 97.6542 155.3 96.5875 155.3 94.0542C155.3 91.5208 155.567 90.4542 155.967 91.6542C156.233 92.9875 156.233 95.1208 155.967 96.3208ZM5.30004 96.0542C5.30004 97.1208 4.7667 97.6542 4.10004 97.2542C3.5667 96.8542 3.03337 96.0542 3.03337 95.2542C3.03337 94.5875 3.5667 94.0542 4.10004 94.0542C4.7667 94.0542 5.30004 94.9875 5.30004 96.0542ZM153.033 96.7208C152.633 97.3875 151.433 98.0542 150.633 98.0542C149.7 98.0542 149.833 97.5208 151.033 96.7208C153.567 95.1208 154.1 95.1208 153.033 96.7208ZM5.70004 102.188C5.70004 102.988 5.1667 103.121 4.3667 102.721C3.70004 102.321 3.03337 101.254 3.03337 100.588C3.03337 99.7875 3.70004 99.6542 4.3667 100.054C5.1667 100.454 5.70004 101.521 5.70004 102.188ZM5.03337 105.788C4.63337 106.188 3.5667 105.788 2.63337 104.854C1.43337 103.521 1.5667 103.388 3.43337 104.188C4.7667 104.588 5.43337 105.388 5.03337 105.788ZM155.833 109.388C155.433 110.454 154.367 111.388 153.433 111.254C152.1 111.254 152.1 110.988 153.433 110.454C154.233 110.188 155.033 108.588 155.167 106.988C155.167 105.388 155.567 104.854 155.967 105.788C156.367 106.721 156.233 108.321 155.833 109.388ZM151.7 121.921C150.9 122.588 148.367 120.588 148.367 119.254C148.367 118.588 149.167 118.721 150.233 119.654C151.3 120.588 151.833 121.654 151.7 121.921ZM149.033 131.121C148.633 131.521 147.567 131.121 146.633 130.188C145.433 128.854 145.567 128.721 147.433 129.521C148.767 129.921 149.433 130.721 149.033 131.121ZM7.03337 131.388C7.03337 132.054 6.7667 132.721 6.50004 132.721C6.10004 132.721 5.43337 132.054 5.03337 131.388C4.63337 130.588 4.90004 130.054 5.5667 130.054C6.3667 130.054 7.03337 130.588 7.03337 131.388ZM145.033 136.988C145.7 136.454 145.7 136.854 145.167 137.788C144.367 139.121 143.7 139.121 142.233 137.921C141.167 137.121 140.367 136.054 140.367 135.788C140.367 135.388 141.167 135.788 142.1 136.588C143.167 137.388 144.5 137.521 145.033 136.988ZM149.7 138.721C148.767 139.788 147.433 140.721 146.633 140.721C145.833 140.721 146.367 139.788 147.833 138.721C151.167 136.188 151.833 136.188 149.7 138.721ZM14.2334 140.988C13.8334 141.521 14.2334 142.054 15.0334 142.054C15.8334 142.054 16.1 142.721 15.7 143.388C15.0334 144.454 14.2334 144.321 12.9 143.254C10.5 141.254 10.5 139.788 13.0334 139.788C14.1 139.788 14.6334 140.321 14.2334 140.988ZM134.1 144.321C133.167 144.721 132.9 145.788 133.3 146.854C133.7 147.921 133.433 148.721 132.633 148.721C131.967 148.721 131.567 147.388 131.7 145.654C132.1 141.788 132.1 141.788 133.967 142.854C135.167 143.654 135.167 144.054 134.1 144.321ZM20.3667 147.388C20.3667 148.054 19.4334 148.321 18.3667 147.921C17.3 147.388 16.7667 146.588 17.1667 145.921C17.9667 144.454 20.3667 145.654 20.3667 147.388ZM128.367 146.721C128.367 147.921 127.567 148.321 126.233 147.788C124.5 147.121 124.5 146.854 125.967 145.921C128.233 144.454 128.367 144.454 128.367 146.721ZM137.433 147.654C137.033 149.521 133.7 152.588 131.833 152.721C130.9 152.721 136.367 146.188 137.433 146.054C137.567 146.054 137.567 146.854 137.433 147.654ZM53.0334 150.188C54.5 152.321 53.1667 152.721 51.3 150.588C50.3667 149.521 50.2334 148.721 50.9 148.721C51.5667 148.721 52.6334 149.388 53.0334 150.188ZM69.7 149.254C69.7 149.521 68.5 150.054 67.0334 150.454C65.5667 150.854 64.3667 150.588 64.3667 149.921C64.3667 149.254 65.5667 148.721 67.0334 148.721C68.5 148.721 69.7 148.988 69.7 149.254ZM33.7 152.854C33.7 153.521 33.1667 154.054 32.3667 154.054C31.7 154.054 31.0334 153.121 31.0334 151.921C31.0334 150.854 31.7 150.321 32.3667 150.721C33.1667 151.121 33.7 152.054 33.7 152.854ZM72.3667 155.521C72.3667 156.188 71.8334 156.721 71.3 156.721C70.6334 156.721 70.1 155.788 70.1 154.721C70.1 153.654 70.6334 153.121 71.3 153.521C71.8334 153.921 72.3667 154.721 72.3667 155.521ZM113.7 154.054C113.7 154.721 113.433 155.388 113.167 155.388C112.767 155.388 112.1 154.721 111.7 154.054C111.3 153.254 111.567 152.721 112.233 152.721C113.033 152.721 113.7 153.254 113.7 154.054ZM62.6334 154.854C62.2334 155.254 61.0334 155.388 60.1 154.988C59.0334 154.588 59.4334 154.188 60.9 154.188C62.3667 154.054 63.1667 154.454 62.6334 154.854ZM67.9667 154.854C67.5667 155.254 66.3667 155.388 65.4334 154.988C64.3667 154.588 64.7667 154.188 66.2334 154.188C67.7 154.054 68.5 154.454 67.9667 154.854Z" fill="black"/>
<path d="M118.633 29.7879C116.1 32.4546 115.567 38.7213 117.7 40.0546C118.5 40.4546 119.033 40.1879 119.033 39.3879C119.033 38.5879 119.567 38.1879 120.367 38.7213C121.033 39.1213 121.3 40.3213 120.767 41.3879C119.967 43.6546 121.567 43.9213 126.367 42.0546C129.967 40.7213 132.767 35.3879 131.567 32.1879C130.9 30.3213 125.433 27.3879 122.5 27.3879C121.567 27.3879 119.833 28.4546 118.633 29.7879ZM124.767 30.9879C123.833 31.2546 122.233 31.2546 121.433 30.9879C120.5 30.5879 121.167 30.3213 123.033 30.3213C124.9 30.3213 125.567 30.5879 124.767 30.9879ZM129.3 36.9879C128.9 38.0546 128.5 37.6546 128.5 36.1879C128.367 34.7213 128.767 33.9213 129.167 34.4546C129.567 34.8546 129.7 36.0546 129.3 36.9879Z" fill="black"/>
<path d="M64.3667 39.6542C58.2333 41.2542 53.3 46.4542 55.4333 48.7209C56.7667 50.0542 56.5 50.0542 54.2333 48.9875C51.8333 47.7875 50.9 48.0542 48.5 50.5875C47.0333 52.1875 45.7 54.1875 45.7 54.9875C45.7 55.7875 44.6333 57.7875 43.1667 59.5209C39.0333 64.9875 35.9667 76.3209 36.6333 84.4542C37.1667 92.8542 41.4333 102.988 44.1 102.321C45.1667 102.188 45.5667 102.588 45.0333 103.388C43.4333 106.054 50.1 113.121 57.5667 116.588C64.1 119.654 66.7667 120.054 78.3667 120.054C90.1 120.054 92.5 119.654 99.0333 116.454C107.7 112.188 112.767 107.788 111.567 105.788C111.033 104.854 111.3 104.721 112.1 105.254C112.9 105.788 114.5 104.454 115.567 102.188C117.167 99.1209 117.3 98.0542 115.967 97.6542C114.9 97.1209 115.033 96.8542 116.367 96.8542C120.767 96.5875 124.767 75.5209 120.5 75.2542C119.167 75.2542 118.9 74.9875 120.1 74.4542C124.1 72.8542 120.1 60.8542 112.633 52.5875C105.7 44.8542 100.1 41.5209 95.9667 42.7209C93.8333 43.3875 93.5667 43.2542 94.9 42.3209C99.8333 38.8542 74.7667 36.7209 64.3667 39.6542ZM83.4333 40.3209C82.5 40.5875 80.9 40.5875 80.1 40.3209C79.1667 39.9209 79.8333 39.6542 81.7 39.6542C83.5667 39.6542 84.2333 39.9209 83.4333 40.3209ZM67.5667 44.9875C67.1667 45.5209 66.1 46.0542 65.3 46.0542C64.3667 46.0542 64.5 45.5209 65.7 44.7209C67.1667 43.7875 67.1667 43.3875 65.9667 43.3875C65.0333 43.3875 64.6333 42.7209 65.1667 41.9209C65.7 40.8542 66.3667 40.9875 67.1667 42.1875C67.7 43.1209 67.8333 44.4542 67.5667 44.9875ZM63.0333 42.5875C63.0333 42.9875 62.5 43.6542 61.7 44.0542C61.0333 44.4542 60.3667 44.1875 60.3667 43.5209C60.3667 42.7209 61.0333 42.0542 61.7 42.0542C62.5 42.0542 63.0333 42.3209 63.0333 42.5875ZM101.7 45.3875C101.7 45.6542 100.367 46.7209 98.7667 47.5209C95.9667 48.9875 95.8333 48.9875 97.5667 46.9875C99.3 44.8542 101.7 43.9209 101.7 45.3875ZM106.233 48.5875C108.5 51.1209 108.5 51.1209 106.1 50.5875C104.633 50.1875 103.433 48.9875 103.433 47.9209C103.433 45.5209 103.433 45.5209 106.233 48.5875ZM63.0333 49.6542C61.4333 50.7209 59.8333 51.2542 59.4333 50.8542C58.9 50.4542 59.4333 50.0542 60.5 50.0542C62.1 50.0542 62.1 49.7875 60.5 48.8542C59.3 48.0542 59.8333 47.6542 62.2333 47.6542C65.8333 47.6542 65.8333 47.7875 63.0333 49.6542ZM89.7 50.5875C93.7 51.6542 97.4333 52.1875 97.9667 51.9209C98.3667 51.6542 99.3 52.0542 99.8333 52.8542C100.5 53.9209 100.233 54.0542 98.9 53.3875C97.3 52.3209 97.3 52.5875 98.9 54.5875C99.9667 55.7875 101.567 56.5875 102.633 56.1875C103.7 55.7875 104.1 55.9209 103.7 56.5875C103.3 57.2542 103.567 58.1875 104.367 58.7209C108.1 60.9875 111.433 70.8542 111.433 80.0542C111.433 91.5209 108.767 97.7875 101.167 103.921C93.0333 110.321 83.7 112.054 69.4333 109.654C65.3 108.988 55.7 101.921 51.8333 96.7209C49.3 93.3875 47.3 91.7875 45.8333 92.3209C44.1 92.8542 44.1 92.7209 45.5667 91.6542C46.9 90.7209 47.4333 87.5209 47.4333 80.8542C47.3 70.8542 48.9 65.6542 53.7 61.3875C55.1667 60.0542 56.3667 58.3209 56.3667 57.5209C56.3667 56.7209 58.9 54.3209 61.9667 52.3209C68.5 48.0542 77.8333 47.5209 89.7 50.5875ZM52.9 52.0542C52.3667 53.1209 51.8333 54.0542 51.5667 54.0542C51.3 54.0542 51.0333 53.1209 51.0333 52.0542C51.0333 50.9875 51.5667 50.0542 52.3667 50.0542C53.0333 50.0542 53.3 50.9875 52.9 52.0542ZM54.5 56.9875C55.1667 56.4542 54.5 57.3875 53.1667 59.1209C51.7 60.7209 50.2333 61.6542 49.8333 61.2542C49.4333 60.7209 49.8333 60.0542 50.7667 59.7875C52.1 59.2542 51.8333 58.5875 50.1 57.1209C47.8333 55.3875 47.8333 55.3875 50.5 56.5875C52.1 57.3875 53.8333 57.5209 54.5 56.9875ZM117.7 71.9209C117.7 72.1875 116.5 72.7209 115.033 73.1209C113.567 73.5209 112.367 73.2542 112.367 72.5875C112.367 71.9209 113.567 71.3875 115.033 71.3875C116.5 71.3875 117.7 71.6542 117.7 71.9209ZM38.6333 79.6542C38.2333 80.7209 37.8333 80.3209 37.8333 78.8542C37.7 77.3875 38.1 76.5875 38.5 77.1209C38.9 77.5209 39.0333 78.7209 38.6333 79.6542ZM43.0333 79.3875C43.0333 80.0542 42.3667 80.7209 41.5667 80.7209C40.9 80.7209 40.6333 80.0542 41.0333 79.3875C41.4333 78.5875 42.1 78.0542 42.5 78.0542C42.7667 78.0542 43.0333 78.5875 43.0333 79.3875ZM115.567 87.9209C114.233 88.9875 112.767 89.5209 112.367 89.2542C111.7 88.4542 115.167 86.0542 116.9 86.0542C117.7 86.0542 117.033 86.8542 115.567 87.9209ZM48.7667 99.5209C47.7 100.588 46.6333 100.588 44.7667 99.3875C42.7667 98.0542 42.7667 97.9209 44.6333 98.5875C45.9667 98.9875 47.3 98.7209 47.8333 97.9209C48.2333 97.1209 49.0333 96.8542 49.4333 97.3875C49.8333 97.7875 49.5667 98.7209 48.7667 99.5209ZM51.0333 104.188C51.0333 104.454 50.1 104.721 49.0333 104.721C47.9667 104.721 47.0333 104.188 47.0333 103.388C47.0333 102.721 47.9667 102.454 49.0333 102.854C50.1 103.388 51.0333 103.921 51.0333 104.188ZM108.367 104.854C108.367 105.654 107.833 105.921 107.167 105.388C106.5 104.988 105.567 105.254 105.033 106.054C104.5 106.854 103.567 107.121 102.9 106.588C102.233 106.188 101.967 105.388 102.233 104.854C103.167 103.388 108.367 103.388 108.367 104.854ZM59.0333 105.254C59.0333 105.521 57.9667 106.588 56.7667 107.521C54.6333 109.254 54.5 109.121 56.2333 106.988C57.9667 104.854 59.0333 104.188 59.0333 105.254ZM64.3667 109.388C65.3 110.588 65.7 111.788 65.1667 112.321C64.7667 112.721 64.3667 112.454 64.3667 111.654C64.3667 110.721 63.4333 110.054 62.3667 110.054C61.3 110.054 60.3667 109.388 60.3667 108.721C60.3667 106.721 62.5 107.121 64.3667 109.388ZM101.033 109.921C100.633 110.721 99.5667 110.988 98.7667 110.588C97.9667 110.054 98.1 109.388 99.1667 108.588C101.3 107.254 102.233 108.054 101.033 109.921ZM109.033 108.721C108.633 109.388 107.433 110.054 106.633 110.054C105.7 110.054 105.833 109.521 107.033 108.721C109.567 107.121 110.1 107.121 109.033 108.721ZM55.0333 111.654C56.2333 112.054 56.3667 112.588 55.4333 113.121C54.6333 113.654 52.9 112.721 51.5667 110.988C50.1 109.388 49.9667 108.721 51.0333 109.521C52.1 110.321 53.9667 111.254 55.0333 111.654ZM74.9 113.121C74.6333 113.254 73.1667 114.321 71.7 115.388C69.1667 117.254 69.1667 117.254 70.9 114.988C71.8333 113.788 73.3 112.721 74.1 112.721C74.9 112.721 75.1667 112.854 74.9 113.121ZM96.9 114.854C97.3 115.921 97.1667 116.454 96.3667 116.054C95.5667 115.654 95.0333 114.721 95.0333 113.921C95.0333 112.054 95.9667 112.454 96.9 114.854ZM91.9667 114.854C91.5667 115.254 90.3667 115.388 89.4333 114.988C88.3667 114.588 88.7667 114.188 90.2333 114.188C91.7 114.054 92.5 114.454 91.9667 114.854ZM80.3667 118.054C80.3667 118.721 79.7 119.388 78.9 119.388C78.2333 119.388 77.9667 118.721 78.3667 118.054C78.7667 117.254 79.4333 116.721 79.8333 116.721C80.1 116.721 80.3667 117.254 80.3667 118.054ZM72.7667 118.988C71.8333 119.254 70.2333 119.254 69.4333 118.988C68.5 118.588 69.1667 118.321 71.0333 118.321C72.9 118.321 73.5667 118.588 72.7667 118.988Z" fill="black"/>
</svg>
