<svg width="202" height="253" viewBox="0 0 202 253" fill="none" xmlns="http://www.w3.org/2000/svg">
<path d="M107.497 1.03713C106.964 1.43713 106.564 3.3038 106.564 5.03713C106.564 7.17047 107.364 8.1038 109.231 8.1038C110.697 8.1038 111.897 8.63714 111.897 9.17047C111.897 9.83714 110.564 10.2371 108.964 10.2371C106.297 10.1038 105.897 10.7705 105.897 15.4371C105.897 20.1038 106.297 20.7705 109.231 21.3038C112.297 21.7038 112.431 21.8371 109.897 22.9038C107.764 23.7038 107.631 23.9705 109.497 23.9705C112.831 24.1038 113.497 22.1038 113.364 12.5038C113.231 2.63714 110.697 -2.2962 107.497 1.03713ZM111.231 2.77047C111.631 3.43713 111.364 4.1038 110.697 4.1038C109.897 4.1038 109.231 3.43713 109.231 2.77047C109.231 1.97047 109.497 1.43713 109.764 1.43713C110.164 1.43713 110.831 1.97047 111.231 2.77047ZM110.564 12.6371C110.564 14.1038 108.031 14.6371 107.231 13.4371C106.831 12.7705 107.364 12.1038 108.431 12.1038C109.631 12.1038 110.564 12.3705 110.564 12.6371ZM111.364 17.1705C111.364 18.5038 110.564 19.7038 109.631 19.7038C108.697 19.7038 108.297 19.1705 108.697 18.5038C109.097 17.9705 108.564 17.4371 107.631 17.4371C106.431 17.4371 106.431 17.0371 107.897 16.1038C110.697 14.2371 111.364 14.5038 111.364 17.1705Z" fill="black"/>
<path d="M50.9642 8.10408C49.2309 8.77075 47.8976 10.1041 47.8976 11.0374C47.8976 13.7041 51.8976 18.9041 53.2309 18.1041C53.7642 17.7041 54.0309 18.6374 53.6309 20.1041C53.0976 21.9707 53.6309 22.7707 55.0976 22.7707C56.2976 22.7707 58.5643 24.1041 60.0309 25.5707C62.2976 27.8374 62.5643 28.6374 61.0976 29.5707C59.6309 30.5041 59.6309 30.7707 60.9643 30.7707C61.8976 30.7707 62.2976 31.4374 61.7643 32.2374C61.2309 33.1707 61.6309 33.5707 62.6976 33.1707C63.7643 32.7707 64.4309 31.1707 64.1643 29.3041C63.6309 26.2374 55.0976 6.63741 54.2976 6.90408C54.0309 6.90408 52.5642 7.43741 50.9642 8.10408ZM54.4309 13.7041C56.1643 14.2374 56.1643 14.3707 54.4309 15.0374C53.2309 15.5707 51.6309 14.7707 50.5642 13.0374C49.0976 10.5041 49.0976 10.3707 50.6976 11.5707C51.7642 12.3707 53.4976 13.3041 54.4309 13.7041ZM59.2309 21.4374C60.2976 23.1707 58.5643 23.1707 55.8976 21.4374C54.1643 20.3707 54.1643 20.1041 56.1643 20.1041C57.3643 20.1041 58.8309 20.6374 59.2309 21.4374Z" fill="black"/>
<path d="M162.164 24.2372C159.898 25.5706 160.164 28.1039 162.698 28.1039C163.498 28.1039 163.631 27.4372 163.231 26.7706C162.831 25.9706 163.364 25.4372 164.431 25.4372C166.564 25.4372 167.364 28.7706 165.631 29.8372C164.964 30.2372 163.364 29.9706 161.898 29.4372C159.764 28.6372 158.298 29.4372 154.964 33.1706C150.031 38.6372 149.498 41.4372 152.964 44.6372C155.364 46.6372 155.631 46.6372 157.631 44.3706C158.964 43.0372 159.898 41.3039 159.898 40.5039C159.898 39.7039 160.431 38.7706 160.964 38.5039C163.364 37.5706 168.031 29.1706 167.631 26.5039C167.098 23.0372 165.364 22.3706 162.164 24.2372ZM162.298 33.1706C160.831 33.4372 159.364 35.7039 158.564 38.9039C156.831 44.9039 155.764 45.7039 156.164 40.3706C156.298 38.3706 155.898 35.9706 155.364 35.0372C154.831 34.1039 154.831 33.4372 155.498 33.5706C158.031 33.9706 160.031 33.3039 159.364 32.2372C158.831 31.5706 159.898 31.4372 161.498 31.8372C164.031 32.5039 164.164 32.7706 162.298 33.1706ZM154.164 42.1039C154.164 43.1706 153.631 43.7039 152.964 43.3039C152.431 42.9039 151.898 42.1039 151.898 41.3039C151.898 40.6372 152.431 40.1039 152.964 40.1039C153.631 40.1039 154.164 41.0372 154.164 42.1039Z" fill="black"/>
<path d="M54.5642 24.7703C54.5642 25.837 58.5642 33.437 59.0975 33.437C60.2975 33.437 59.3642 25.9703 58.0309 25.1703C56.2975 23.9703 54.5642 23.837 54.5642 24.7703Z" fill="black"/>
<path d="M79.4975 47.304C64.9642 53.4373 50.8309 65.304 46.0309 75.4373C44.6975 78.3707 43.0975 81.704 42.5642 82.7707C42.0309 83.9707 41.0975 88.104 40.6975 92.104C40.1642 96.104 39.3642 100.504 39.0975 101.837C38.4309 103.837 38.8309 103.971 41.8975 102.771C44.5642 101.704 45.3642 101.837 44.9642 103.037C44.5642 103.971 43.2309 104.771 41.7642 104.771C38.2975 104.771 37.8975 109.304 40.4309 123.437C42.4309 135.037 44.4309 139.437 46.9642 137.837C47.7642 137.437 47.8975 137.704 47.3642 138.637C46.6975 139.571 48.4309 142.771 51.4975 146.371C54.2975 149.704 57.6309 153.704 58.8309 155.304C60.6975 157.571 61.3642 157.837 62.6975 156.371C63.6309 155.571 64.9642 154.771 65.7642 154.771C66.4309 154.771 66.0309 155.571 64.6975 156.504C62.5642 158.104 62.5642 158.504 65.6309 163.837C67.3642 166.904 69.0975 169.171 69.3642 168.904C70.0309 168.237 68.2975 190.904 67.0975 197.704C66.6975 200.504 66.8309 202.771 67.3642 202.771C68.0309 202.771 68.6975 204.371 68.6975 206.237C68.8309 208.104 69.8975 210.637 71.0975 211.971C72.8309 213.971 72.9642 214.504 71.3642 216.237C68.5642 219.037 68.4309 224.237 71.0975 229.171C72.8309 232.637 74.0309 233.571 76.1642 233.037C78.0309 232.504 78.5642 232.771 78.0309 234.237C77.4975 235.437 78.4309 236.637 80.4309 237.437C82.2975 238.104 84.0309 239.837 84.5642 241.437C84.9642 242.904 86.0309 243.704 86.8309 243.304C87.7642 242.771 87.8975 243.037 87.3642 243.971C86.0309 245.971 89.0975 249.704 91.3642 248.904C92.4309 248.504 93.0975 248.904 92.8309 249.704C92.6975 250.504 93.3642 251.437 94.2975 251.704C95.2309 252.104 95.8975 251.837 95.7642 251.171C95.2309 248.237 96.0309 247.837 97.7642 250.104C99.4975 252.504 99.7642 252.504 101.764 250.371C104.698 247.437 106.164 247.437 103.764 250.371C102.031 252.371 102.298 252.504 106.831 251.704C112.564 250.771 118.964 245.704 117.898 242.904C117.498 241.704 117.498 241.304 118.031 241.837C118.564 242.371 119.764 241.571 120.831 240.104C121.898 238.637 123.631 237.437 124.831 237.437C126.031 237.437 127.764 236.371 128.831 235.037C129.898 233.837 130.298 233.571 129.898 234.637C129.231 235.837 130.031 235.571 132.431 234.104C136.698 231.304 136.298 228.637 131.764 229.037C130.031 229.171 129.498 228.904 130.831 228.637C132.031 228.237 133.364 227.171 133.764 226.104C134.164 224.771 133.764 224.504 132.164 224.904C130.164 225.571 130.164 225.437 132.298 223.704C134.698 221.704 134.698 221.571 132.298 220.237C130.964 219.437 130.564 218.904 131.231 218.771C134.298 218.771 136.298 221.304 135.631 224.637C135.231 226.504 135.498 228.104 136.031 228.104C136.698 228.104 137.231 225.304 137.231 221.971C137.231 217.037 136.831 215.971 135.231 216.637C133.498 217.304 133.498 216.771 135.364 213.037C139.231 205.837 137.498 183.437 133.098 182.104C129.364 180.904 129.898 177.437 133.898 177.437C136.698 177.437 138.298 175.037 136.964 173.037C136.831 172.904 137.498 171.437 138.298 169.837C139.631 167.571 139.498 166.904 138.031 166.504C136.298 166.104 136.431 165.571 138.031 162.771C139.898 159.571 140.031 159.571 139.498 162.504C139.098 164.104 139.364 165.171 140.031 164.637C140.698 164.237 141.231 162.904 141.231 161.571C141.231 160.237 142.164 158.371 143.231 157.437C145.631 155.437 145.898 152.771 143.631 154.237C142.698 154.904 142.564 154.637 143.098 153.571C143.764 152.637 144.564 152.237 144.964 152.637C145.764 153.571 153.231 146.904 153.231 145.171C153.231 144.637 152.698 144.104 151.898 144.104C151.231 144.104 150.564 144.904 150.564 145.971C150.564 147.037 150.031 148.237 149.498 148.637C148.964 148.904 148.431 147.171 148.431 144.771C148.431 141.971 149.231 139.837 150.298 139.437C151.898 138.904 151.898 139.037 150.698 140.637C149.364 142.237 149.498 142.637 151.898 142.371C159.231 141.837 165.898 120.771 164.831 101.704C164.431 94.7707 163.764 88.904 163.498 88.504C163.098 88.2373 161.498 88.504 160.031 89.4373C157.631 90.6373 157.098 90.504 156.298 88.504C155.898 87.1707 155.364 85.8373 155.098 85.4373C154.298 83.8373 160.564 84.2373 161.631 85.8373C162.298 86.7707 162.298 85.9707 161.764 84.104C160.564 79.704 160.298 79.4373 157.898 81.4373C156.698 82.3707 155.498 82.7707 154.964 82.2373C154.564 81.8373 154.831 81.4373 155.631 81.4373C156.431 81.4373 156.831 80.504 156.431 79.4373C155.764 77.9707 156.164 77.704 157.898 78.2373C159.231 78.7707 160.031 78.6373 159.764 77.9707C159.498 77.304 158.298 74.504 157.231 71.704C155.231 66.2373 154.031 65.704 150.964 68.7707C149.898 69.8373 148.298 70.3707 147.498 69.8373C146.431 69.1707 146.698 68.6373 148.431 68.3707C150.431 67.9707 150.564 67.5707 149.098 66.6373C147.631 65.8373 147.631 65.1707 148.964 63.8373C150.164 62.6373 150.564 62.6373 150.564 63.8373C150.564 64.7707 151.364 65.4373 152.298 65.4373C154.831 65.304 141.498 53.5707 136.031 51.1707C123.631 45.5707 121.364 45.1707 104.564 44.6373C88.4309 44.104 86.6975 44.2373 79.4975 47.304ZM89.2309 46.7707C88.1642 47.4373 86.6975 48.104 85.8975 48.104C85.2309 48.104 85.4975 47.4373 86.5642 46.7707C87.6309 46.104 89.2309 45.4373 89.8975 45.4373C90.6975 45.4373 90.2975 46.104 89.2309 46.7707ZM101.231 46.7707C102.431 47.4373 103.498 47.4373 104.031 46.6373C104.431 45.8373 105.498 46.104 106.431 47.304C107.498 48.6373 107.631 49.4373 106.564 50.104C105.898 50.504 105.231 50.2373 105.231 49.304C105.231 48.2373 104.564 48.3707 102.964 49.5707C101.764 50.6373 101.098 50.7707 101.631 49.9707C102.164 49.0373 101.631 47.9707 100.431 47.5707C97.3642 46.3707 95.8975 46.6373 95.8975 48.2373C95.8975 48.904 96.4309 49.304 97.0975 48.7707C97.7642 48.3707 98.6975 48.6373 99.0975 49.1707C99.4975 49.8373 97.7642 50.2373 95.3642 50.104C92.2975 49.9707 91.0975 50.504 91.4975 51.4373C91.7642 52.3707 93.7642 52.904 96.2975 52.504C102.298 51.8373 121.498 54.504 127.098 56.7707C131.898 58.7707 137.898 58.104 134.298 55.9707C133.098 55.1707 132.964 54.504 134.031 53.4373C135.098 52.3707 135.764 52.6373 136.298 54.6373C136.698 56.3707 136.164 57.8373 134.964 58.6373C133.364 59.4373 133.898 60.3707 137.764 62.6373C140.431 64.3707 144.831 68.904 147.764 72.904C150.564 76.7707 153.364 79.5707 153.898 79.0373C154.564 78.504 154.564 78.904 154.031 79.8373C152.431 82.6373 156.031 95.8373 158.564 96.504C160.298 96.904 160.698 96.504 160.298 94.6373C159.898 93.1707 160.164 92.104 160.831 92.104C161.631 92.104 162.164 93.8373 162.298 96.104C162.431 99.8373 160.431 101.037 158.431 98.3707C158.031 97.8373 157.631 99.5707 157.498 102.371C157.364 106.637 157.764 107.571 159.898 107.704C161.764 107.837 162.164 107.304 161.631 105.704C161.098 104.104 161.231 103.837 162.164 104.771C163.898 106.371 162.831 115.037 161.098 114.104C160.564 113.704 160.298 112.637 160.698 111.571C161.098 110.637 160.431 109.837 159.364 109.837C158.298 109.837 157.498 110.237 157.498 110.637C157.631 111.037 157.231 112.371 156.831 113.437C155.631 116.237 153.098 126.904 152.831 130.104C152.564 131.971 153.364 132.771 155.364 132.637C158.031 132.637 158.031 132.771 156.164 136.637C153.498 142.237 152.831 142.771 153.898 138.637C154.431 136.371 154.031 134.637 152.831 133.704C151.231 132.371 150.431 132.637 148.698 135.304C147.498 137.171 146.564 139.171 146.564 139.837C146.564 140.504 145.631 141.837 144.564 142.771C142.564 144.371 134.564 155.704 134.564 156.771C134.564 157.037 135.498 156.904 136.831 156.504C138.298 155.971 138.698 156.104 138.031 157.171C137.498 158.104 136.298 158.771 135.231 158.771C133.631 158.771 132.698 161.037 129.898 172.104C129.631 173.171 129.098 178.504 128.564 183.971C127.898 191.971 128.164 193.704 129.631 193.037C130.698 192.637 131.498 193.171 131.498 194.237C131.498 195.304 130.831 195.971 130.031 195.704C129.231 195.437 127.231 195.704 125.631 196.237C123.764 196.904 122.564 196.904 122.564 196.104C122.564 195.304 123.764 194.771 125.364 194.771C126.831 194.771 127.764 194.237 127.364 193.571C126.964 192.904 124.164 192.637 121.231 192.904C114.831 193.437 114.698 193.304 114.031 180.371C113.764 175.037 113.231 170.371 112.698 169.837C111.231 168.237 106.564 168.104 106.564 169.571C106.564 170.237 107.231 170.504 107.898 170.104C108.698 169.704 109.231 170.237 109.231 171.304C109.231 172.504 110.031 173.437 110.964 173.437C112.031 173.437 111.898 173.837 110.564 174.771C109.098 175.704 108.298 175.304 107.498 173.704C106.964 172.504 106.831 176.371 107.098 182.371C107.764 192.771 107.631 193.437 105.098 193.437C103.631 193.437 102.831 193.971 103.231 194.771C103.631 195.437 103.498 196.104 102.698 196.104C100.698 196.104 100.164 192.504 99.2309 174.104C97.8975 147.304 96.5642 140.504 90.0309 130.771C85.8975 124.637 84.6975 116.637 87.4975 114.904C92.5642 112.104 96.2975 116.637 98.1642 127.437C98.5642 129.571 99.4975 132.504 100.164 133.971C101.231 135.971 101.764 136.104 102.698 134.637C104.298 131.971 104.164 130.504 102.298 131.571C101.364 132.104 101.231 131.971 101.764 130.904C103.364 128.504 105.498 130.637 104.431 133.704C103.898 135.437 104.164 136.104 104.964 135.571C105.764 135.171 106.698 132.771 107.231 130.371C109.364 119.971 110.964 116.371 114.164 114.904C115.898 114.104 118.031 113.837 118.831 114.237C121.364 115.837 118.964 127.437 114.564 134.237C112.298 137.837 109.898 142.904 109.364 145.437C107.364 152.904 106.164 166.771 107.498 166.904C108.031 166.904 109.898 167.171 111.631 167.304C115.498 167.704 115.764 163.437 111.898 162.371C109.631 161.837 109.231 160.771 109.498 156.904C109.631 154.371 110.164 152.504 110.698 152.904C111.231 153.171 112.031 152.637 112.298 151.837C112.831 150.637 113.098 150.504 113.098 151.704C113.231 152.504 112.698 153.704 111.898 154.104C109.764 155.437 110.298 161.437 112.564 161.437C114.698 161.437 114.698 161.437 115.231 155.437C115.631 149.437 117.098 145.437 121.364 138.504C123.364 135.037 124.564 131.837 123.898 131.437C123.231 131.037 122.431 131.304 121.898 132.104C120.831 133.837 118.564 132.504 118.564 130.371C118.564 129.437 119.098 129.571 119.898 130.771C120.831 132.237 121.231 132.237 121.231 131.037C121.231 130.104 122.298 129.437 123.498 129.704C125.364 129.971 126.031 128.904 126.564 123.704C127.231 118.504 126.964 117.437 125.498 118.104C123.898 118.637 123.898 118.504 125.098 116.904C128.431 112.904 121.764 104.237 116.831 106.237C113.631 107.437 112.831 110.771 115.898 110.771C117.631 110.771 118.298 110.104 117.764 108.771C117.231 107.437 117.498 107.037 118.831 107.437C119.898 107.837 120.831 109.037 120.831 110.104C120.831 111.171 120.564 111.837 120.164 111.571C119.898 111.171 118.164 111.437 116.431 112.104C114.298 113.037 113.231 112.904 113.231 111.971C113.231 111.037 112.031 110.771 110.298 111.171C107.364 111.971 107.364 111.971 110.564 109.437C112.431 107.971 113.231 106.771 112.298 106.771C111.364 106.771 109.364 108.504 107.631 110.771C104.831 114.637 101.231 116.104 101.231 113.437C101.231 110.237 95.2309 106.771 89.6309 106.771C80.5642 106.771 76.8309 112.771 78.8309 123.971C80.1642 131.037 80.6975 131.837 82.9642 129.437C84.2975 128.104 84.1642 127.971 82.6975 128.771C81.2309 129.571 80.9642 129.304 81.7642 127.437C82.2975 125.971 82.0309 124.504 80.9642 123.837C79.6309 123.037 79.6309 122.771 80.9642 122.771C81.7642 122.771 82.5642 121.837 82.5642 120.504C82.5642 115.971 84.4309 120.371 84.4309 125.171C84.5642 127.837 85.0975 130.771 85.6309 131.704C86.2975 132.637 85.6309 132.904 83.7642 132.504C81.2309 131.837 81.0975 131.971 82.4309 134.637C83.3642 136.237 84.5642 137.171 85.2309 136.771C85.8975 136.371 86.8309 136.771 87.3642 137.571C87.8975 138.637 87.7642 138.771 86.8309 138.237C84.6975 136.904 84.8309 138.637 87.0975 143.037C90.6975 149.837 91.0975 153.571 91.8975 180.771L92.2975 192.771L84.0309 193.171C76.4309 193.571 75.8975 193.304 75.8975 190.637C75.8975 187.837 75.8975 187.837 73.3642 190.904C71.3642 193.304 71.2309 194.504 72.4309 196.371C74.4309 199.704 76.2975 199.437 74.5642 196.104C72.9642 193.171 74.0309 192.771 77.2309 194.771C78.4309 195.571 78.6975 196.104 77.6309 196.104C76.6975 196.104 76.2975 197.037 76.6975 198.104C77.7642 200.637 73.7642 200.771 72.2975 198.237C71.7642 197.304 70.4309 196.237 69.3642 195.971C67.8975 195.437 67.8975 195.037 69.4975 193.304C70.5642 192.237 71.2309 190.637 70.8309 189.704C70.5642 188.904 70.8309 188.104 71.4975 188.104C76.0309 187.971 79.4975 175.704 75.7642 173.304C74.4309 172.504 74.2975 171.837 75.3642 171.037C76.2975 170.371 75.8975 167.971 74.0309 163.171C71.6309 157.304 70.8309 156.504 68.8309 157.704C66.6975 158.904 66.5642 158.771 68.0309 156.237C69.4975 153.971 69.3642 153.171 67.3642 150.904C66.0309 149.437 64.1642 148.504 63.3642 149.037C62.5642 149.437 62.2975 149.437 62.8309 148.771C63.3642 148.237 61.2309 144.637 58.0309 140.904C50.5642 132.104 48.2975 126.904 47.2309 115.437C46.1642 105.304 46.1642 105.571 47.2309 98.7707C49.4975 84.7707 52.9642 76.904 59.7642 70.2373C62.6975 67.304 64.6975 64.3707 64.2975 63.704C63.8975 62.904 64.1642 62.7707 64.9642 63.304C66.8309 64.3707 73.4975 60.2373 72.4309 58.6373C72.0309 57.9707 72.6975 57.8373 73.7642 58.2373C74.8309 58.6373 77.0975 58.104 78.8309 57.0373C80.5642 55.9707 83.8975 54.6373 86.2975 54.104C88.5642 53.5707 90.5642 52.6373 90.5642 52.104C90.5642 51.4373 89.4975 51.304 88.2975 51.704C86.0309 52.6373 86.0309 52.504 88.1642 50.2373C89.4975 49.0373 91.2309 48.3707 92.1642 48.904C93.2309 49.5707 93.3642 49.1707 92.8309 47.704C92.1642 45.9707 92.8309 45.4373 95.6309 45.4373C97.6309 45.4373 100.164 45.9707 101.231 46.7707ZM111.898 45.9707C111.898 46.3707 111.364 47.0373 110.564 47.4373C109.898 47.8373 109.231 47.5707 109.231 46.904C109.231 46.104 109.898 45.4373 110.564 45.4373C111.364 45.4373 111.898 45.704 111.898 45.9707ZM82.8309 48.3707C81.6309 49.5707 81.6309 50.3707 82.8309 51.9707C83.8975 53.4373 83.4975 53.304 81.7642 51.704C79.6309 49.704 79.4975 49.1707 81.2309 48.104C84.0309 46.3707 84.6975 46.504 82.8309 48.3707ZM124.564 47.9707C124.964 48.6373 124.831 49.5707 124.164 49.9707C123.498 50.3707 122.964 49.8373 122.964 48.7707C122.964 46.504 123.364 46.2373 124.564 47.9707ZM80.4309 54.6373C79.8975 55.0373 79.2309 54.6373 78.9642 53.704C78.5642 52.904 77.3642 52.104 76.2975 52.104C74.5642 52.104 74.5642 52.504 75.8975 54.104C76.8309 55.1707 77.2309 56.104 76.6975 56.104C74.5642 56.104 73.8975 55.704 74.2975 54.6373C74.4309 53.9707 73.8975 53.4373 72.9642 53.4373C72.1642 53.4373 72.5642 52.6373 74.0309 51.5707C76.2975 49.8373 76.8309 49.9707 78.9642 51.704C80.1642 52.904 80.8309 54.2373 80.4309 54.6373ZM130.564 50.2373C130.564 51.304 128.031 51.9707 127.364 51.0373C126.964 50.3707 127.498 49.8373 128.564 49.8373C129.631 49.8373 130.564 50.104 130.564 50.2373ZM140.564 55.8373C140.164 56.2373 139.098 55.8373 138.164 54.904C136.964 53.5707 137.098 53.4373 138.964 54.2373C140.298 54.6373 140.964 55.4373 140.564 55.8373ZM131.498 55.5707C131.098 55.9707 129.898 56.104 128.964 55.704C127.898 55.304 128.298 54.904 129.764 54.904C131.231 54.7707 132.031 55.1707 131.498 55.5707ZM67.0975 59.0373C66.4309 60.104 66.9642 60.2373 68.4309 59.704C69.8975 59.1707 70.4309 59.304 69.8975 60.2373C68.5642 62.104 66.1642 61.0373 65.7642 58.3707C65.6309 57.1707 66.0309 56.3707 66.6975 56.904C67.3642 57.304 67.4975 58.2373 67.0975 59.0373ZM63.8975 58.7707C63.8975 59.4373 63.2309 60.104 62.4309 60.104C61.7642 60.104 61.4975 59.4373 61.8975 58.7707C62.2975 57.9707 62.9642 57.4373 63.3642 57.4373C63.6309 57.4373 63.8975 57.9707 63.8975 58.7707ZM140.431 59.4373C139.898 60.504 139.364 61.4373 139.098 61.4373C138.831 61.4373 138.564 60.504 138.564 59.4373C138.564 58.3707 139.098 57.4373 139.898 57.4373C140.564 57.4373 140.831 58.3707 140.431 59.4373ZM146.298 61.1707C144.964 61.4373 143.898 62.6373 143.898 63.8373C143.898 65.8373 143.631 65.8373 142.564 64.104C141.898 63.0373 141.231 61.704 141.231 61.1707C141.231 59.9707 145.631 59.0373 147.231 59.9707C148.031 60.3707 147.498 60.904 146.298 61.1707ZM61.2309 62.7707C61.2309 63.4373 60.9642 64.104 60.6975 64.104C60.2975 64.104 59.6309 63.4373 59.2309 62.7707C58.8309 61.9707 59.0975 61.4373 59.7642 61.4373C60.5642 61.4373 61.2309 61.9707 61.2309 62.7707ZM58.9642 68.2373C58.5642 69.5707 57.7642 70.7707 57.2309 70.7707C56.5642 70.7707 56.4309 69.4373 56.9642 67.8373C57.4975 65.704 57.2309 65.304 55.8975 66.104C54.8309 66.7707 54.4309 66.6373 55.0975 65.704C56.5642 63.304 59.6309 65.304 58.9642 68.2373ZM153.231 71.4373C151.764 73.1707 151.898 73.304 153.764 72.6373C154.964 72.2373 155.898 72.504 155.898 73.4373C155.898 74.2373 155.231 74.504 154.298 73.9707C153.231 73.304 153.098 73.704 153.631 75.304C154.831 78.3707 152.298 76.7707 150.431 73.1707C149.631 71.5707 149.498 70.7707 150.298 71.304C150.964 71.704 152.031 71.1707 152.431 69.9707C152.964 68.7707 153.631 68.104 154.164 68.504C154.564 69.0373 154.164 70.2373 153.231 71.4373ZM51.8975 72.104C51.8975 72.7707 51.2309 73.4373 50.4309 73.4373C49.7642 73.4373 49.4975 72.7707 49.8975 72.104C50.2975 71.304 50.9642 70.7707 51.3642 70.7707C51.6309 70.7707 51.8975 71.304 51.8975 72.104ZM51.6309 76.6373C50.2975 77.5707 49.6309 78.6373 50.0309 79.0373C50.2975 79.4373 49.4975 80.104 48.1642 80.3707C46.1642 80.904 45.7642 80.504 46.1642 78.6373C46.8309 76.504 48.8309 75.304 52.5642 74.904C53.3642 74.904 52.8309 75.704 51.6309 76.6373ZM47.8975 84.104C46.8309 84.7707 46.4309 85.4373 47.0975 85.4373C48.5642 85.4373 45.2309 89.4373 43.7642 89.4373C43.0975 89.4373 42.5642 88.7707 42.5642 88.104C42.5642 87.304 43.4975 86.7707 44.5642 86.7707C45.7642 86.7707 46.1642 85.9707 45.7642 84.7707C45.2309 83.4373 45.7642 82.7707 47.3642 82.7707C49.4975 82.7707 49.6309 83.0373 47.8975 84.104ZM46.5642 93.9707C46.5642 96.3707 45.2309 97.304 42.9642 96.504C41.3642 95.8373 41.3642 95.5707 42.8309 94.6373C44.1642 93.704 44.2975 93.4373 42.8309 93.4373C41.8975 93.4373 41.3642 92.904 41.8975 92.104C42.9642 90.504 46.5642 91.9707 46.5642 93.9707ZM45.7642 99.9707C46.2975 100.637 45.3642 100.904 43.8975 100.504C40.8309 99.704 40.4309 98.7707 43.0975 98.7707C44.1642 98.7707 45.3642 99.304 45.7642 99.9707ZM162.164 102.237C161.764 102.637 160.564 102.771 159.631 102.371C158.564 101.971 158.964 101.571 160.431 101.571C161.898 101.437 162.698 101.837 162.164 102.237ZM42.2975 110.104C41.8975 110.504 41.0975 109.837 40.6975 108.504C39.8975 106.637 40.0309 106.504 41.3642 107.704C42.2975 108.637 42.6975 109.704 42.2975 110.104ZM91.0975 110.904C91.6309 111.437 90.6975 111.704 88.8309 111.704C86.1642 111.704 85.7642 111.437 86.9642 110.104C87.8975 109.171 88.8309 108.771 89.2309 109.171C89.6309 109.704 90.4309 110.504 91.0975 110.904ZM44.5642 111.971C44.1642 112.637 44.4309 113.571 45.2309 114.104C45.8975 114.504 46.5642 115.704 46.5642 116.504C46.5642 117.571 46.1642 117.437 45.3642 116.237C44.5642 115.171 43.2309 114.771 41.7642 115.304C39.4975 116.104 39.4975 116.104 41.8975 113.437C44.4309 110.637 46.0309 109.837 44.5642 111.971ZM97.8975 112.104C97.4975 112.771 96.1642 113.437 95.0975 113.437C94.0309 113.437 93.2309 112.771 93.2309 112.104C93.2309 111.304 94.4309 110.771 96.0309 110.771C97.4975 110.771 98.2975 111.304 97.8975 112.104ZM109.631 116.104C108.031 117.437 106.298 118.237 105.764 117.704C105.098 117.171 105.498 117.837 106.431 119.171C108.031 121.171 108.031 121.837 106.564 123.171C105.364 124.371 105.098 124.371 105.764 123.171C106.164 122.371 106.031 121.304 105.231 120.771C103.231 119.437 103.631 116.104 105.898 116.104C106.964 116.104 107.898 115.437 107.898 114.637C107.898 113.971 108.564 113.704 109.231 114.104C110.031 114.504 110.564 114.237 110.564 113.304C110.564 112.371 110.964 112.104 111.498 112.504C111.898 113.037 111.098 114.637 109.631 116.104ZM83.2309 115.837C82.8309 116.237 81.7642 115.837 80.8309 114.904C79.6309 113.571 79.7642 113.437 81.6309 114.237C82.9642 114.637 83.6309 115.437 83.2309 115.837ZM100.831 115.704C101.231 116.904 99.7642 117.037 96.1642 116.237C95.8975 116.104 96.1642 115.437 96.5642 114.637C97.6309 113.037 100.164 113.704 100.831 115.704ZM161.898 118.637C161.498 119.437 160.431 120.104 159.764 120.104C159.098 120.104 159.231 119.304 160.164 118.237C162.031 116.104 163.364 116.504 161.898 118.637ZM122.164 120.371C121.764 121.437 121.364 121.037 121.364 119.571C121.231 118.104 121.631 117.304 122.031 117.837C122.431 118.237 122.564 119.437 122.164 120.371ZM43.6309 121.571C44.8309 123.304 44.8309 123.704 43.2309 123.704C42.1642 123.704 41.2309 122.504 41.2309 121.037C41.2309 119.571 41.3642 118.637 41.6309 118.904C41.7642 119.171 42.6975 120.371 43.6309 121.571ZM157.764 120.904C158.164 121.971 158.031 122.504 157.231 122.104C156.431 121.704 155.898 120.771 155.898 119.971C155.898 118.104 156.831 118.504 157.764 120.904ZM123.364 123.837C121.098 125.971 120.964 125.971 122.698 123.171C123.631 121.571 124.698 120.504 125.098 120.904C125.498 121.171 124.698 122.504 123.364 123.837ZM162.564 121.971C162.564 122.371 162.031 123.037 161.231 123.437C160.564 123.837 159.898 123.571 159.898 122.904C159.898 122.104 160.564 121.437 161.231 121.437C162.031 121.437 162.564 121.704 162.564 121.971ZM158.564 125.171C158.564 125.837 157.631 126.371 156.564 126.371C155.498 126.371 154.964 125.837 155.364 125.171C155.764 124.637 156.564 124.104 157.364 124.104C158.031 124.104 158.564 124.637 158.564 125.171ZM46.5642 126.771C46.5642 127.437 46.0309 128.104 45.3642 128.104C44.5642 128.104 43.6309 127.437 43.2309 126.771C42.8309 125.971 43.3642 125.437 44.4309 125.437C45.6309 125.437 46.5642 125.971 46.5642 126.771ZM158.964 129.037C158.031 129.304 156.164 129.304 154.964 129.037C153.631 128.637 154.431 128.371 156.564 128.371C158.831 128.371 159.764 128.637 158.964 129.037ZM48.6975 131.437C48.2975 132.504 48.5642 133.437 49.3642 133.437C50.1642 133.437 50.4309 133.971 50.0309 134.637C48.8309 136.504 44.8309 135.437 44.1642 133.304C43.7642 131.704 43.8975 131.704 44.9642 133.304C46.0309 134.771 46.4309 134.504 47.2309 132.237C47.6309 130.771 48.4309 129.437 48.8309 129.437C49.2309 129.437 49.2309 130.371 48.6975 131.437ZM89.6309 132.771C90.1642 133.837 89.8975 135.037 89.2309 135.437C88.4309 135.971 87.8975 135.037 87.8975 133.571C87.8975 130.237 88.6975 129.971 89.6309 132.771ZM152.564 136.104C152.964 136.771 152.698 137.437 152.031 137.437C151.231 137.437 150.564 136.771 150.564 136.104C150.564 135.304 150.831 134.771 151.098 134.771C151.498 134.771 152.164 135.304 152.564 136.104ZM118.564 138.771C115.898 140.504 112.831 140.504 113.898 138.771C114.298 137.971 116.031 137.437 117.631 137.437C120.031 137.437 120.164 137.704 118.564 138.771ZM54.5642 142.771C54.5642 143.971 51.0975 143.704 49.7642 142.504C49.3642 141.971 49.3642 140.904 49.8975 140.104C50.8309 138.504 54.5642 140.637 54.5642 142.771ZM112.031 144.504C110.698 145.704 110.564 145.571 111.364 143.704C111.764 142.371 112.564 141.704 112.964 142.104C113.364 142.504 112.964 143.571 112.031 144.504ZM57.2309 146.237C56.1642 147.304 56.0309 148.104 56.6975 147.971C57.3642 147.837 58.8309 147.837 59.8975 148.104C61.3642 148.237 61.0975 148.637 59.2309 149.304C56.0309 150.637 52.2975 146.904 54.9642 145.171C57.7642 143.437 58.9642 143.971 57.2309 146.237ZM94.5642 145.437C94.5642 146.104 94.2975 146.771 94.0309 146.771C93.6309 146.771 92.9642 146.104 92.5642 145.437C92.1642 144.637 92.4309 144.104 93.0975 144.104C93.8975 144.104 94.5642 144.637 94.5642 145.437ZM147.898 145.437C147.898 146.104 146.964 146.771 145.764 146.771C144.698 146.771 144.164 146.104 144.564 145.437C144.964 144.637 145.898 144.104 146.698 144.104C147.364 144.104 147.898 144.637 147.898 145.437ZM112.564 148.104C112.964 148.771 112.698 149.437 112.031 149.437C111.231 149.437 110.564 148.771 110.564 148.104C110.564 147.304 110.831 146.771 111.098 146.771C111.498 146.771 112.164 147.304 112.564 148.104ZM95.8975 151.571C95.8975 152.637 95.0975 153.437 94.0309 153.437C91.6309 153.437 90.1642 149.837 92.2975 149.037C94.4309 148.237 95.8975 149.171 95.8975 151.571ZM143.498 151.437C140.031 154.771 139.098 154.637 141.098 151.171C141.764 149.704 143.364 148.504 144.431 148.504C146.031 148.504 145.764 149.304 143.498 151.437ZM63.4975 152.904C63.0975 153.304 61.8975 153.437 60.9642 153.037C59.8975 152.637 60.2975 152.237 61.7642 152.237C63.2309 152.104 64.0309 152.504 63.4975 152.904ZM69.8975 160.104C69.4975 160.771 69.6309 161.437 70.2975 161.437C71.0975 161.437 72.0309 162.371 72.4309 163.571C72.8309 164.637 72.6975 165.171 71.8975 164.771C71.0975 164.371 70.5642 164.637 70.5642 165.304C70.5642 167.571 68.2975 167.037 67.3642 164.637C66.8309 163.437 67.2309 161.571 68.0309 160.637C69.7642 158.504 71.0975 158.104 69.8975 160.104ZM96.4309 161.171C96.8309 161.837 96.2975 162.371 95.2309 162.371C94.1642 162.371 93.2309 161.837 93.2309 161.171C93.2309 160.637 93.7642 160.104 94.4309 160.104C95.2309 160.104 96.0309 160.637 96.4309 161.171ZM136.964 161.704C136.698 162.504 135.631 163.571 134.831 163.837C133.898 164.104 133.498 163.571 134.031 162.237C134.964 159.837 137.764 159.304 136.964 161.704ZM97.2309 164.637C97.2309 164.904 96.2975 165.571 95.0975 165.971C94.0309 166.371 93.4975 166.237 93.8975 165.437C94.6975 164.104 97.2309 163.571 97.2309 164.637ZM74.0309 171.837C74.0309 173.837 74.5642 176.504 75.0975 177.704C75.8975 179.571 75.6309 180.104 73.7642 180.104C71.8975 180.104 71.6309 179.837 72.9642 178.904C74.4309 177.971 74.4309 177.437 72.8309 175.837C71.6309 174.637 71.0975 172.504 71.4975 170.237C72.4309 165.971 73.8975 166.904 74.0309 171.837ZM97.4975 169.971C97.8975 169.571 98.1642 170.771 98.0309 172.504C97.8975 174.771 97.2309 175.571 95.6309 175.037C94.2975 174.771 93.2309 173.837 93.2309 173.171C93.2309 172.504 93.8975 172.371 94.5642 172.771C95.3642 173.171 95.8975 172.904 95.8975 172.237C95.8975 171.437 95.3642 170.771 94.5642 170.771C93.8975 170.771 93.2309 170.104 93.2309 169.304C93.2309 168.237 93.7642 168.104 94.9642 169.304C96.0309 170.104 97.0975 170.371 97.4975 169.971ZM135.898 173.437C135.898 174.104 135.231 174.771 134.431 174.771C133.764 174.771 133.498 174.104 133.898 173.437C134.298 172.637 134.964 172.104 135.364 172.104C135.631 172.104 135.898 172.637 135.898 173.437ZM97.0975 177.304C98.0309 177.971 98.6975 179.037 98.4309 179.704C98.1642 180.504 96.6975 179.971 95.3642 178.637C92.6975 176.104 93.7642 175.171 97.0975 177.304ZM95.4975 184.237C95.0975 185.704 95.6309 186.904 97.0975 187.171C98.5642 187.571 98.4309 187.837 96.4309 187.971C94.1642 188.104 93.6309 187.304 93.7642 184.237C93.8975 182.104 94.4309 180.637 94.9642 181.037C95.6309 181.437 95.8975 182.904 95.4975 184.237ZM112.564 181.437C112.964 182.237 112.431 182.371 111.364 181.971C108.964 181.037 108.564 180.104 110.431 180.104C111.231 180.104 112.164 180.637 112.564 181.437ZM74.5642 182.771C74.5642 183.437 74.0309 184.104 73.2309 184.104C72.5642 184.104 71.8975 183.437 71.8975 182.771C71.8975 181.971 72.5642 181.437 73.2309 181.437C74.0309 181.437 74.5642 181.971 74.5642 182.771ZM113.231 186.237C113.231 188.504 110.298 188.104 109.498 185.704C109.231 184.771 109.898 184.104 111.098 184.104C112.298 184.104 113.231 185.037 113.231 186.237ZM134.564 185.437C134.564 186.104 133.898 186.771 133.098 186.771C132.431 186.771 132.164 186.104 132.564 185.437C132.964 184.637 133.631 184.104 134.031 184.104C134.298 184.104 134.564 184.637 134.564 185.437ZM97.7642 191.571C98.9642 194.504 98.8309 194.771 96.5642 193.971C95.4975 193.437 94.5642 192.371 94.5642 191.304C94.5642 188.771 96.6975 188.904 97.7642 191.571ZM113.231 190.771C113.231 191.437 112.698 192.104 111.898 192.104C111.231 192.104 110.564 191.437 110.564 190.771C110.564 189.971 111.231 189.437 111.898 189.437C112.698 189.437 113.231 189.971 113.231 190.771ZM119.898 196.371C121.231 197.171 120.831 197.304 118.564 196.637C116.698 196.237 114.298 195.171 113.231 194.504C111.898 193.704 112.298 193.571 114.564 194.237C116.431 194.637 118.831 195.704 119.898 196.371ZM106.698 196.504C105.898 197.571 105.764 198.904 106.298 199.437C106.831 200.104 106.564 200.104 105.631 199.571C103.764 198.504 104.831 194.771 106.831 194.771C107.764 194.771 107.631 195.437 106.698 196.504ZM80.5642 197.437C80.1642 198.104 80.4309 198.771 81.2309 198.771C82.0309 198.771 82.4309 199.304 81.8975 199.971C81.4975 200.771 90.6975 201.171 105.898 201.037C119.498 200.904 130.564 201.037 130.564 201.437C130.564 201.837 129.898 204.371 129.098 207.037L127.764 212.104H110.031C95.3642 212.104 92.2975 212.504 92.1642 214.104C92.0309 215.171 91.7642 217.037 91.6309 218.104C91.3642 220.771 91.2309 220.637 88.5642 216.504C86.4309 213.304 86.4309 213.037 88.4309 213.837C89.7642 214.371 90.4309 214.237 89.8975 213.437C88.9642 211.971 82.1642 211.571 80.8309 212.904C79.2309 214.504 81.3642 216.237 83.0975 214.904C84.1642 213.971 85.2309 214.371 86.4309 216.504C87.8975 218.904 87.8975 219.171 86.4309 217.704C84.2975 215.704 82.0309 215.571 83.3642 217.704C84.0309 218.637 83.7642 218.771 82.4309 217.971C81.3642 217.437 79.2309 217.037 77.6309 217.304C74.2975 217.704 73.6309 215.437 76.0309 212.104C77.2309 210.504 77.3642 210.637 76.8309 213.037C76.4309 214.771 76.6975 216.104 77.2309 216.104C79.2309 216.104 79.4975 212.771 77.6309 209.971C74.4309 205.037 74.2975 201.437 77.3642 201.437C78.8309 201.437 79.6309 200.771 79.2309 200.104C78.4309 198.771 79.3642 196.104 80.6975 196.104C81.0975 196.104 80.9642 196.637 80.5642 197.437ZM89.2309 199.304C89.2309 199.571 88.0309 199.571 86.5642 199.171C85.0975 198.771 83.8975 197.971 83.8975 197.171C83.8975 196.504 85.0975 196.637 86.5642 197.437C88.0309 198.237 89.2309 199.037 89.2309 199.304ZM112.698 197.304C112.164 197.971 112.698 198.771 113.498 199.171C114.431 199.437 113.498 199.704 111.364 199.704C107.631 199.704 107.631 199.704 109.898 197.971C112.831 195.837 113.631 195.571 112.698 197.304ZM135.231 198.504C137.098 199.837 137.631 204.104 135.898 204.104C135.231 204.104 134.564 202.904 134.564 201.571C134.564 200.104 133.764 198.637 132.964 198.371C132.031 197.971 131.898 197.571 132.564 197.571C133.364 197.571 134.564 197.971 135.231 198.504ZM74.4309 206.504C75.3642 208.371 75.2309 208.904 73.0975 208.904C71.7642 208.904 70.5642 208.371 70.5642 207.837C70.5642 207.304 71.2309 206.771 72.0309 206.771C72.6975 206.771 72.9642 206.104 72.5642 205.437C72.1642 204.637 72.0309 204.104 72.4309 204.104C72.8309 204.104 73.7642 205.171 74.4309 206.504ZM134.564 206.771C135.631 208.771 135.364 209.971 133.231 212.104C131.364 213.971 130.564 214.237 130.564 212.904C130.564 211.837 131.631 210.637 132.831 210.237C134.164 209.704 134.564 208.904 133.898 208.371C132.431 207.437 131.498 204.104 132.564 204.104C132.831 204.104 133.764 205.304 134.564 206.771ZM118.964 215.304C119.764 216.371 120.298 216.237 120.831 215.037C121.764 212.771 123.764 213.037 123.364 215.437C122.964 218.637 121.764 218.904 117.764 217.304C112.164 215.037 107.631 214.904 109.498 217.037C110.431 218.237 110.431 218.771 109.364 218.771C108.564 218.771 107.498 217.837 107.098 216.771C106.031 214.237 103.364 214.237 101.231 216.771C99.4975 218.904 93.2309 219.037 93.6309 216.771C93.7642 216.104 94.8309 215.037 95.8975 214.637C99.2309 213.171 117.764 213.837 118.964 215.304ZM129.231 214.771C129.231 215.437 128.298 216.104 127.098 216.104C126.031 216.104 125.498 215.437 125.898 214.771C126.298 213.971 127.231 213.437 128.031 213.437C128.698 213.437 129.231 213.971 129.231 214.771ZM105.231 217.437C105.231 218.104 104.964 218.771 104.698 218.771C104.298 218.771 103.631 218.104 103.231 217.437C102.831 216.637 103.098 216.104 103.764 216.104C104.564 216.104 105.231 216.637 105.231 217.437ZM110.298 220.637C128.698 220.504 129.231 220.504 129.231 223.304C129.231 228.771 127.098 230.104 118.164 230.237C108.831 230.371 106.031 231.437 107.098 234.237C107.498 235.304 106.964 236.104 105.764 236.104C104.164 236.104 104.164 235.571 105.231 233.437C106.964 230.237 107.498 230.371 93.2309 229.971C79.8975 229.571 76.9642 229.171 77.8975 228.371C78.2975 227.971 77.8975 226.904 77.0975 225.971C75.3642 223.837 76.5642 221.437 79.3642 221.437C80.4309 221.437 81.0975 220.904 80.6975 220.371C80.2975 219.704 82.5642 219.571 85.6309 219.971C88.6975 220.371 99.7642 220.771 110.298 220.637ZM73.2309 220.637C73.2309 221.037 72.6975 221.704 71.8975 222.104C71.2309 222.504 70.5642 222.237 70.5642 221.571C70.5642 220.771 71.2309 220.104 71.8975 220.104C72.6975 220.104 73.2309 220.371 73.2309 220.637ZM83.2309 232.104C83.6309 232.771 83.4975 233.437 82.6975 233.437C82.0309 233.437 80.9642 232.771 80.5642 232.104C80.1642 231.304 80.2975 230.771 81.0975 230.771C81.7642 230.771 82.8309 231.304 83.2309 232.104ZM129.631 231.704C128.698 231.971 127.098 231.971 126.298 231.704C125.364 231.304 126.031 231.037 127.898 231.037C129.764 231.037 130.431 231.304 129.631 231.704ZM90.1642 232.904C89.7642 233.304 88.5642 233.437 87.6309 233.037C86.5642 232.637 86.9642 232.237 88.4309 232.237C89.8975 232.104 90.6975 232.504 90.1642 232.904ZM95.3642 233.304C94.8309 233.971 95.2309 234.904 95.8975 235.171C96.6975 235.571 96.5642 235.704 95.6309 235.571C93.6309 235.171 92.5642 232.104 94.5642 232.104C95.3642 232.104 95.7642 232.637 95.3642 233.304ZM111.898 234.104C113.364 235.837 113.231 235.971 111.364 235.304C110.164 234.904 109.231 233.971 109.231 233.304C109.231 231.571 110.031 231.837 111.898 234.104ZM91.4975 236.771C93.4975 238.237 97.0975 238.637 103.764 238.371C108.964 238.237 113.231 238.504 113.231 239.037C113.231 239.704 109.631 243.971 108.831 244.104C101.498 245.837 89.6309 247.304 90.0309 246.504C90.4309 245.971 90.0309 244.237 89.2309 242.771C88.0309 240.637 88.1642 240.104 89.8975 240.104C90.9642 240.104 91.8975 239.571 91.8975 238.771C91.8975 237.571 89.6309 236.771 82.5642 235.704C80.1642 235.304 80.4309 235.037 83.8975 234.904C86.5642 234.904 89.8975 235.704 91.4975 236.771ZM123.764 235.171C123.498 235.304 121.764 236.637 119.898 238.104L116.564 240.771L119.098 237.704C120.564 236.104 122.298 234.771 122.964 234.771C123.764 234.771 124.031 234.904 123.764 235.171ZM87.8975 237.971C87.8975 238.371 87.3642 239.037 86.5642 239.437C85.8975 239.837 85.2309 239.571 85.2309 238.904C85.2309 238.104 85.8975 237.437 86.5642 237.437C87.3642 237.437 87.8975 237.704 87.8975 237.971ZM111.898 247.437C111.898 247.704 110.698 248.637 109.231 249.437C107.231 250.504 106.564 250.504 106.564 249.037C106.564 248.104 107.764 247.304 109.231 247.171C110.698 247.037 111.898 247.171 111.898 247.437Z" fill="black"/>
<path d="M67.8975 162.771C67.8975 163.437 68.5641 164.104 69.3641 164.104C70.0308 164.104 70.2975 163.437 69.8975 162.771C69.4975 161.971 68.8308 161.437 68.4308 161.437C68.1641 161.437 67.8975 161.971 67.8975 162.771Z" fill="black"/>
<path d="M97.2308 216.104C95.4975 217.17 95.6308 217.437 97.6308 217.437C98.8308 217.437 99.8975 216.77 99.8975 216.104C99.8975 214.504 99.7642 214.504 97.2308 216.104Z" fill="black"/>
<path d="M91.4976 241.971C90.9642 243.171 91.7642 244.237 93.3642 244.771C97.0976 245.971 97.7642 244.904 94.6976 242.237C92.5642 240.237 92.1642 240.237 91.4976 241.971Z" fill="black"/>
<path d="M6.56424 55.3037C5.49757 56.7703 5.36424 57.9703 6.43091 59.7037C7.23091 61.1703 7.89757 61.437 7.89757 60.3703C7.89757 59.437 8.43091 58.9037 9.23091 59.437C9.89757 59.837 10.1642 60.9037 9.76424 61.837C9.09757 63.837 21.0976 73.437 24.2976 73.437C25.4976 73.437 26.8309 72.7703 27.3642 71.9703C27.8976 71.037 27.3642 70.7703 25.4976 71.3037C23.6309 71.9703 21.4976 71.037 18.1642 68.1037C15.6309 65.9703 12.6976 64.1037 11.7642 63.9703C10.6976 63.837 11.3642 63.3037 13.2309 62.7703C15.0976 62.1037 15.6309 61.7037 14.4309 61.5703C13.2309 61.437 11.8976 60.237 11.4976 58.637C10.9642 56.9037 10.1642 56.237 9.09757 56.9037C8.03091 57.437 7.76424 57.3037 8.43091 56.3703C9.09757 55.1703 10.0309 55.1703 11.8976 56.3703C13.2309 57.3037 14.1642 58.3703 13.7642 58.9037C13.3642 59.7037 16.1642 61.437 18.0309 61.437C19.7642 61.437 17.8976 59.037 14.1642 56.3703C8.96424 52.9037 8.69757 52.9037 6.56424 55.3037Z" fill="black"/>
<path d="M17.3643 62.6369C15.4976 63.8369 16.4309 66.7703 18.6976 66.7703C19.4976 66.7703 19.7643 66.2369 19.2309 65.5703C18.8309 64.9036 19.2309 63.8369 20.0309 63.3036C21.0976 62.7703 21.2309 62.9036 20.6976 63.8369C20.1643 64.7703 20.5643 65.4369 21.7643 65.4369C24.4309 65.4369 25.6309 67.7036 23.7643 68.9036C22.6976 69.4369 22.5643 69.3036 23.0976 68.3703C23.6309 67.4369 23.3643 66.7703 22.6976 66.7703C21.8976 66.7703 21.2309 67.3036 21.2309 67.9703C21.2309 70.1036 23.7643 71.0369 26.1643 69.7036C28.1643 68.5036 27.8976 67.9703 24.5643 64.9036C20.4309 61.0369 20.0309 60.9036 17.3643 62.6369Z" fill="black"/>
<path d="M198.564 73.4371C200.164 74.7705 200.031 74.9038 197.364 74.2371C194.164 73.5705 183.897 76.9038 183.897 78.6371C183.897 79.1705 182.564 79.5705 180.964 79.5705C178.831 79.4371 177.897 80.2371 177.897 81.9705C177.897 85.9705 185.364 86.2371 194.164 82.6371C200.431 80.1038 201.364 79.3038 200.964 76.3705C200.697 74.5038 199.631 72.7705 198.564 72.5038C196.831 71.9705 196.831 72.1038 198.564 73.4371ZM192.697 77.7038C193.364 78.6371 193.097 78.7705 191.897 78.1038C190.697 77.3038 190.564 77.8371 191.231 80.1038C191.897 82.1038 191.631 82.7705 190.831 82.2371C190.031 81.8371 189.097 81.9705 188.564 82.7705C188.031 83.5705 187.097 83.4371 186.031 82.3705C183.764 80.3705 184.564 78.6371 187.364 79.7038C188.431 80.1038 189.231 79.9705 189.097 79.3038C188.564 75.9705 190.964 74.7705 192.697 77.7038ZM199.897 77.5705C199.897 78.1038 198.697 78.7705 197.231 79.1705C195.631 79.5705 194.564 79.1705 194.564 78.2371C194.564 77.4371 195.764 76.6371 197.231 76.6371C198.697 76.6371 199.897 77.0371 199.897 77.5705ZM183.097 82.1038C183.497 83.1705 183.231 84.1038 182.697 84.1038C182.031 84.1038 181.231 83.1705 180.697 82.1038C180.297 81.0371 180.564 80.1038 181.097 80.1038C181.764 80.1038 182.564 81.0371 183.097 82.1038Z" fill="black"/>
<path d="M157.231 86.7707C157.231 87.4373 157.898 88.104 158.698 88.104C159.364 88.104 159.631 87.4373 159.231 86.7707C158.831 85.9707 158.164 85.4373 157.764 85.4373C157.498 85.4373 157.231 85.9707 157.231 86.7707Z" fill="black"/>
<path d="M5.49763 113.437C-0.369039 116.637 -0.502373 116.771 0.43096 119.837C1.23096 121.971 2.03096 122.237 6.29763 121.437C11.4976 120.504 17.8976 117.571 14.9643 117.437C12.2976 117.437 12.9643 115.037 16.031 113.304C18.6976 111.971 18.831 112.104 18.2976 115.437C17.7643 117.704 18.031 118.504 18.831 117.704C19.631 116.904 19.8976 115.304 19.631 113.971C18.9643 110.504 11.0976 110.104 5.49763 113.437ZM12.431 113.971C12.031 115.171 10.831 115.571 9.49763 115.037C7.49763 114.371 7.36429 114.504 9.23096 116.771C10.5643 118.371 10.5643 118.904 9.49763 118.237C8.56429 117.704 6.83096 117.971 5.76429 118.904C4.69763 119.704 3.49763 120.104 2.96429 119.571C2.56429 119.171 2.96429 118.771 4.03096 118.637C5.23096 118.637 4.83096 118.104 3.23096 117.304C0.697627 116.104 0.83096 116.104 3.63096 116.637C5.23096 116.904 6.56429 116.637 6.56429 115.971C6.56429 114.904 9.63096 113.171 12.831 112.237C12.9643 112.104 12.831 112.904 12.431 113.971Z" fill="black"/>
<path d="M178.298 126.104C176.564 127.837 179.098 131.971 182.698 133.304C184.831 133.971 186.564 134.371 186.564 134.104C186.564 133.837 188.831 134.371 191.631 135.304C198.564 137.571 201.498 136.771 200.964 132.504C200.698 130.504 199.631 128.771 198.564 128.637C197.498 128.371 194.298 127.704 191.631 126.904C187.631 125.971 186.564 126.104 186.564 127.571C186.564 128.637 186.031 129.437 185.231 129.437C184.564 129.437 184.031 128.637 184.298 127.837C184.564 126.104 179.764 124.771 178.298 126.104ZM182.564 127.971C182.564 128.771 182.031 129.571 181.498 129.971C180.831 130.371 180.298 129.837 180.298 128.771C180.298 127.704 180.831 126.771 181.498 126.771C182.031 126.771 182.564 127.304 182.564 127.971ZM191.098 129.304C191.498 129.971 190.964 131.171 189.898 132.104C188.564 133.304 187.898 133.304 187.898 132.237C187.898 131.437 188.698 130.771 189.631 130.771C190.698 130.771 190.564 130.237 189.231 129.437C188.031 128.637 187.898 128.104 188.831 128.104C189.631 128.104 190.698 128.637 191.098 129.304ZM196.831 130.237C196.431 130.637 195.231 130.771 194.298 130.371C193.231 129.971 193.631 129.571 195.098 129.571C196.564 129.437 197.364 129.837 196.831 130.237ZM186.164 131.571C185.764 131.971 184.564 132.104 183.631 131.704C182.564 131.304 182.964 130.904 184.431 130.904C185.898 130.771 186.698 131.171 186.164 131.571Z" fill="black"/>
<path d="M132.564 180.104C132.964 180.77 134.298 181.437 135.364 181.437C136.431 181.437 137.231 180.77 137.231 180.104C137.231 179.304 136.031 178.77 134.431 178.77C132.964 178.77 132.164 179.304 132.564 180.104Z" fill="black"/>
</svg>
