<svg width="213" height="225" viewBox="0 0 213 225" fill="none" xmlns="http://www.w3.org/2000/svg">
<path d="M32.3085 1.89712C20.9752 5.23045 17.5085 11.8971 17.2418 30.9638L16.9752 44.2971L10.0418 44.6971C6.17515 44.9638 3.50848 45.6304 3.90848 46.2971C4.30848 47.0971 3.77515 47.2304 2.70848 46.8304C1.10848 46.1638 0.57515 46.8304 0.57515 49.3638C0.57515 54.0304 3.77515 55.4971 10.3085 54.0304C13.2418 53.3638 15.7752 53.0971 15.9085 53.2304C16.7085 54.0304 17.1085 86.1638 16.3085 86.9638C15.9085 87.3638 12.7085 87.7638 9.24182 87.8971C4.44182 87.8971 3.37515 88.2971 5.10848 89.2304C6.44182 89.8971 8.97515 90.1638 10.9752 89.7638C13.6418 89.0971 14.0418 89.2304 12.5752 90.2971C9.77515 92.1638 2.30848 92.0304 1.64182 90.0304C1.24182 89.0971 0.708483 89.7638 0.308483 91.3638C-0.358183 93.8971 -0.0915166 94.1638 2.70848 93.7638C4.44182 93.3638 5.90848 93.7638 5.90848 94.5638C5.90848 95.2304 4.97515 95.6304 3.90848 95.0971C2.84182 94.6971 1.90848 94.9638 1.90848 95.6304C1.90848 96.4304 5.24182 96.9638 9.24182 96.9638C15.9085 96.9638 16.5752 97.2304 16.7085 99.8971C17.3752 108.964 17.7752 111.897 18.7085 112.697C19.2418 113.23 19.3752 112.297 18.9752 110.697C18.4418 108.964 18.8418 107.497 19.9085 107.097C21.1085 106.697 21.5085 107.364 21.1085 109.63C20.8418 111.497 21.3752 112.964 22.5752 113.497C25.6418 114.564 24.4418 118.697 20.5752 120.43C18.1752 121.364 17.3752 122.83 17.2418 125.764C17.2418 129.497 16.9752 129.63 9.90848 130.03C1.64182 130.43 -1.55818 132.964 0.708483 137.23C2.17515 140.03 8.17515 140.03 7.64182 137.23C7.37515 136.43 7.90848 135.63 8.57515 135.63C9.37515 135.63 9.90848 136.164 9.90848 136.964C9.90848 137.63 11.2418 138.297 12.9752 138.297C14.7085 138.297 16.8418 139.097 17.7752 139.897C19.1085 141.23 19.7752 141.23 20.1752 140.03C20.8418 138.297 24.5752 139.23 24.5752 141.097C24.5752 141.63 23.6418 141.897 22.5752 141.497C19.9085 140.43 20.0418 142.297 22.9752 144.43C25.1085 146.164 25.1085 146.297 22.9752 145.497C20.7085 144.697 19.5085 146.83 21.6418 148.03C22.1752 148.297 21.7752 148.297 20.9752 148.164C18.1752 147.497 18.9752 150.03 22.1752 152.164C23.7752 153.364 24.5752 154.697 24.0418 155.23C23.5085 155.764 21.7752 154.564 20.1752 152.564L17.2418 148.83L17.1085 159.897C16.9752 166.03 17.1085 169.897 17.5085 168.564C18.1752 166.03 20.7085 165.364 20.1752 167.897C19.6418 170.964 16.0418 172.564 9.24182 172.83C1.64182 173.097 0.17515 174.03 0.841817 178.43C1.24182 181.23 2.04182 181.63 7.10848 182.03C13.3752 182.564 17.5085 180.43 13.3752 178.83C11.9085 178.297 10.4418 178.697 9.64182 179.764C8.70848 181.23 8.17515 181.23 7.64182 179.897C7.37515 179.097 5.77515 178.297 4.30848 178.297C1.50848 178.297 1.64182 175.497 4.57515 174.564C5.50848 174.164 5.90848 174.564 5.37515 175.497C4.70848 176.43 5.64182 176.964 7.77515 176.964C9.64182 176.964 11.2418 176.297 11.2418 175.497C11.2418 174.697 12.1752 175.097 13.3752 176.164C14.4418 177.364 15.9085 178.03 16.4418 177.764C16.8418 177.497 17.2418 183.097 16.9752 190.43C16.7085 205.497 17.9085 211.23 22.8418 216.964C29.7752 225.364 26.1751 224.964 113.908 224.964C158.042 224.964 195.508 224.564 197.242 224.164C199.108 223.764 200.575 222.43 200.575 221.097C200.575 219.764 200.175 219.497 199.508 220.43C198.975 221.23 197.508 221.764 196.175 221.497C194.975 221.364 194.175 221.764 194.708 222.43C195.108 223.097 194.842 223.63 194.042 223.63C193.375 223.63 192.842 222.43 192.975 220.964C193.108 219.63 193.375 218.697 193.775 218.964C194.042 219.364 195.508 218.564 196.975 217.364C198.442 216.03 199.242 215.764 198.708 216.564C197.375 218.83 199.242 218.697 201.775 216.43C202.975 215.364 204.842 214.297 205.908 214.03C209.908 213.23 211.375 209.097 211.508 198.297C211.508 191.497 210.975 186.964 209.908 185.63C208.442 183.897 208.575 183.764 210.575 184.43C212.442 185.23 212.708 184.964 211.908 183.63C211.242 182.697 210.975 178.297 211.108 173.897C211.375 168.43 210.842 165.497 209.642 164.83C208.575 164.164 208.575 163.63 209.375 163.63C211.642 163.63 211.908 140.964 209.642 140.964C208.308 140.964 208.308 140.697 209.642 139.897C210.842 139.097 211.242 131.23 211.108 107.497C211.108 90.2971 211.108 62.4304 211.242 45.6304C211.375 10.4304 210.708 7.63045 201.242 2.96378C196.175 0.43045 192.975 0.297116 147.642 0.0304496C106.975 -0.102884 99.5085 0.163783 99.7752 1.63045C99.9085 2.69712 100.442 4.03045 100.975 4.43045C102.842 6.29712 101.908 7.76378 99.6418 6.56378C98.3085 5.89712 96.4418 5.63045 95.6418 5.89712C94.7085 6.29712 93.9085 5.89712 93.9085 5.23045C93.9085 4.56378 95.1085 3.63045 96.7085 3.23045C98.3085 2.83045 99.1085 1.89712 98.5752 1.09712C97.5085 -0.76955 69.3752 0.43045 68.8418 2.29712C68.5752 3.09712 67.7752 3.63045 66.9752 3.63045C66.1752 3.63045 65.9085 2.83045 66.3085 1.76378C66.9752 0.163783 64.5752 -0.102884 52.3085 0.0304496C44.3085 0.163783 35.2418 0.963783 32.3085 1.89712ZM62.4418 2.96378C61.9085 4.03045 61.3752 4.96378 61.1085 4.96378C60.8418 4.96378 60.5752 4.03045 60.5752 2.96378C60.5752 1.89712 61.1085 0.963783 61.9085 0.963783C62.5752 0.963783 62.8418 1.89712 62.4418 2.96378ZM80.5752 4.29712C80.5752 5.36378 80.0418 6.43045 79.3752 6.83045C78.7085 7.23045 78.3085 6.16378 78.4418 4.43045C78.5752 1.09712 80.5752 0.963783 80.5752 4.29712ZM89.5085 2.69712C89.5085 3.63045 87.9085 4.43045 85.6418 4.29712C80.8418 4.29712 80.8418 2.69712 85.6418 1.89712C87.6418 1.63045 89.2418 1.23045 89.3752 1.09712C89.3752 1.09712 89.5085 1.76378 89.5085 2.69712ZM110.575 2.29712C110.975 3.09712 110.442 3.23045 109.375 2.83045C106.975 1.89712 106.575 0.963783 108.442 0.963783C109.242 0.963783 110.175 1.49712 110.575 2.29712ZM136.975 2.03045C136.042 2.56378 135.508 4.16378 135.775 5.49712C136.042 7.49712 137.508 7.89712 144.308 8.03045C152.975 8.29712 153.908 7.76378 150.575 4.43045C147.908 1.76378 148.042 1.49712 151.775 1.63045C155.775 1.63045 157.642 3.36378 154.842 4.43045C153.642 4.83045 152.975 5.89712 153.375 6.69712C153.775 7.89712 159.775 8.29712 173.508 8.16378C195.508 8.16378 199.642 9.23045 201.908 16.2971C202.575 18.5638 202.975 33.4971 202.842 50.0304C202.708 66.4304 202.975 80.1638 203.508 80.5638C204.175 80.8304 204.575 79.8971 204.575 78.4304C204.575 75.4971 207.775 74.5638 209.242 76.9638C209.642 77.6304 209.108 78.2971 208.042 78.2971C206.175 78.2971 205.108 81.6304 205.775 85.3638C205.908 86.0304 205.375 86.1638 204.575 85.6304C203.775 85.2304 203.642 84.0304 204.042 83.2304C204.708 82.0304 204.575 82.0304 203.242 83.2304C202.308 84.1638 202.042 85.4971 202.708 86.6971C203.908 88.8304 204.308 88.9638 207.642 88.9638C208.708 88.9638 209.508 89.8971 209.508 90.9638C209.508 92.0304 208.975 92.9638 208.308 92.9638C207.775 92.9638 207.242 92.2971 207.242 91.6304C207.242 90.8304 206.308 90.2971 205.242 90.2971C202.975 90.2971 202.975 89.7638 202.708 111.897C202.442 128.697 202.442 128.697 205.375 128.164C207.108 127.897 208.842 128.297 209.375 129.097C209.908 130.164 209.775 130.297 208.842 129.764C208.042 129.23 206.175 129.497 204.708 130.297C201.642 131.897 201.242 139.497 204.042 140.564C205.508 141.097 205.508 141.63 203.908 143.23C200.842 146.297 201.508 147.764 205.375 146.297C209.642 144.697 209.508 144.564 209.508 146.83C209.508 147.764 208.575 148.564 207.375 148.564C202.975 148.564 202.442 149.097 202.442 153.63C202.442 157.497 202.975 158.297 205.375 158.297C206.975 158.297 208.708 157.497 209.108 156.564C209.642 155.23 209.375 158.03 208.708 162.297C208.575 162.697 207.908 162.03 207.242 160.964C206.442 159.63 205.908 159.497 205.908 160.564C205.908 161.497 205.242 162.297 204.442 162.297C203.775 162.297 203.508 161.63 203.908 160.964C204.308 160.164 204.308 159.63 203.642 159.63C203.108 159.63 202.575 170.297 202.575 183.364C202.575 216.697 202.308 216.964 175.108 217.097C160.842 217.23 157.908 217.497 158.442 219.097C158.842 220.164 158.575 220.964 157.908 220.964C157.108 220.964 156.575 220.164 156.575 219.097C156.575 217.497 152.308 217.23 131.642 217.23C114.708 217.23 105.908 217.764 104.708 218.697C103.108 219.897 102.975 219.897 103.775 218.564C105.242 216.03 100.442 216.564 98.3085 219.23C96.9752 221.097 96.5752 221.097 96.8418 219.63C97.2418 217.897 93.9085 217.63 74.5752 217.364C62.1751 217.23 49.1085 217.497 45.6418 218.164C42.1752 218.697 39.6418 218.83 39.9085 218.297C40.3085 217.764 38.5752 216.83 36.0418 216.43C28.4418 214.964 25.5085 208.964 25.6418 194.964C25.6418 190.164 25.3752 189.23 24.7085 191.63C23.9085 194.43 23.6418 194.564 22.8418 192.697C22.4418 191.364 22.8418 189.497 24.0418 188.297C25.2418 187.097 25.9085 184.964 25.5085 183.63C24.9752 181.63 25.5085 180.964 27.3752 180.964C28.7085 180.964 29.9085 180.297 29.9085 179.63C29.9085 178.83 28.9752 178.297 27.7752 178.297C26.7085 178.297 26.1752 177.63 26.5752 176.964C27.1085 176.03 28.0418 176.03 28.9752 176.697C30.5752 177.897 40.5752 179.897 40.5752 178.964C40.5752 178.697 40.0418 176.964 39.2418 175.097C38.1752 172.164 37.3752 171.764 33.5085 172.164C31.1085 172.564 28.4418 172.43 27.6418 171.897C26.7085 171.23 26.1752 165.364 26.3085 154.964L26.5752 138.964L33.6418 139.097C38.0418 139.23 40.5752 138.83 40.5752 137.764C40.5752 136.83 40.9752 136.964 41.7752 138.03C43.6418 141.097 46.4418 136.43 44.5752 133.097C42.9752 130.03 41.2418 129.497 39.9085 131.63C39.5085 132.297 37.5085 132.83 35.5085 132.83L31.9085 132.697L35.9085 131.63C39.3752 130.697 38.8418 130.564 32.9752 130.43C24.9752 130.297 25.7752 132.03 25.7752 114.297C25.6418 95.6304 25.1085 96.9638 31.9085 96.9638C35.7752 96.9638 37.9085 96.4304 38.0418 95.2304C38.0418 94.1638 38.3085 94.1638 38.7085 95.0971C39.5085 97.0971 45.9085 95.7638 46.8418 93.4971C48.3085 89.6304 44.5752 87.6304 36.0418 87.6304C29.5085 87.6304 27.3752 87.0971 25.5085 84.9638C24.3085 83.4971 23.7752 82.2971 24.3085 82.2971C24.9752 82.2971 25.5085 75.7638 25.6418 67.7638C25.7752 53.7638 25.6418 53.0971 22.8418 52.5638C19.3752 51.8971 34.3085 52.8304 39.5085 53.6304C42.1752 54.0304 43.6418 53.4971 44.7085 51.4971C47.3752 46.2971 45.3752 44.9638 35.2418 44.9638H25.9085L25.7752 39.8971C25.5085 28.1638 26.3085 20.0304 27.9085 16.1638C28.8418 13.7638 29.2418 11.3638 28.8418 10.8304C28.3085 10.2971 28.5752 10.2971 29.5085 10.8304C30.3085 11.2304 31.3752 11.0971 31.9085 10.2971C32.3085 9.63045 34.9752 8.96378 37.6418 8.83045C42.0418 8.69712 42.1752 8.56378 39.2418 7.63045L35.9085 6.56378L39.6418 6.43045C41.6418 6.29712 43.2418 6.83045 43.2418 7.49712C43.2418 8.16378 46.3085 8.56378 49.9085 8.43045C53.6418 8.43045 56.4418 7.76378 56.3085 6.96378C56.0418 6.16378 55.5085 5.76378 54.9752 5.89712C54.4418 6.16378 54.3085 5.36378 54.8418 4.16378C55.2418 2.96378 55.9085 2.69712 56.4418 3.36378C56.8418 4.16378 58.9752 5.23045 61.1085 5.76378C64.0418 6.43045 64.7085 6.29712 63.9085 4.96378C63.1085 3.76378 63.3752 3.49712 64.4418 4.29712C66.4418 5.49712 64.9752 7.23045 61.2418 7.89712C59.1085 8.29712 95.6418 8.16378 129.908 7.63045C133.375 7.63045 134.042 7.23045 132.575 6.29712C131.242 5.49712 131.108 4.96378 132.308 4.96378C133.108 4.96378 133.908 4.03045 133.908 2.96378C133.908 1.89712 134.975 0.963783 136.308 0.963783C137.775 0.963783 138.042 1.36378 136.975 2.03045ZM146.308 1.89712C145.375 2.29712 144.575 3.23045 144.575 4.29712C144.575 5.23045 143.108 5.89712 141.242 5.89712C139.375 5.89712 137.908 5.49712 137.908 5.09712C137.908 3.09712 140.975 1.36378 144.308 1.36378C146.308 1.36378 147.108 1.63045 146.308 1.89712ZM163.908 2.29712C163.508 2.96378 162.308 3.23045 161.242 2.69712C158.442 1.76378 158.708 0.963783 162.042 0.963783C163.508 0.963783 164.442 1.49712 163.908 2.29712ZM174.575 4.96378C178.042 4.96378 178.975 4.56378 178.442 2.96378C177.908 1.89712 178.308 0.963783 179.242 0.963783C180.042 0.963783 180.575 2.03045 180.308 3.23045C179.908 5.23045 178.308 5.63045 170.575 5.89712L161.242 6.16378L164.575 3.63045C167.375 1.49712 168.042 1.36378 168.975 3.09712C169.508 4.16378 172.042 4.96378 174.575 4.96378ZM187.908 2.29712C188.308 3.09712 187.775 3.23045 186.708 2.83045C185.242 2.29712 184.575 2.83045 184.575 4.16378C184.575 5.36378 183.908 6.29712 183.242 6.29712C182.308 6.29712 182.308 5.49712 183.242 3.63045C184.842 0.697116 186.575 0.163783 187.908 2.29712ZM49.9085 3.63045C49.9085 4.29712 48.9752 4.43045 47.6418 4.03045C46.1752 3.49712 45.7752 3.63045 46.4418 4.69712C47.7752 6.96378 46.0418 6.69712 43.7752 4.29712C41.9085 2.56378 42.1752 2.29712 45.7752 2.29712C48.0418 2.29712 49.9085 2.83045 49.9085 3.63045ZM74.5752 3.36378L71.9085 4.03045L74.5752 5.09712C77.1085 6.03045 77.1085 6.16378 74.3085 6.16378C71.2418 6.29712 70.3085 4.96378 72.1752 3.23045C72.5752 2.69712 73.9085 2.43045 75.1085 2.43045C76.5752 2.56378 76.3085 2.83045 74.5752 3.36378ZM126.975 3.89712C126.575 4.83045 124.975 5.63045 123.108 5.76378C120.175 5.89712 120.175 5.89712 122.975 5.36378C124.575 5.09712 125.642 4.16378 125.242 3.49712C124.708 2.83045 125.108 2.29712 125.908 2.29712C126.842 2.29712 127.242 3.09712 126.975 3.89712ZM198.975 4.43045C200.708 5.63045 201.775 7.36378 201.375 8.43045C200.975 9.36378 201.242 10.5638 201.908 10.9638C202.708 11.4971 203.242 12.5638 203.108 13.3638C203.108 14.4304 202.842 14.4304 202.308 13.2304C201.508 11.0971 193.775 6.96378 191.642 7.36378C190.708 7.63045 189.908 7.23045 189.908 6.43045C189.908 5.76378 190.975 5.36378 192.308 5.63045C196.042 6.16378 197.508 4.43045 193.908 3.49712C191.108 2.69712 191.108 2.56378 193.242 2.43045C194.708 2.29712 197.375 3.23045 198.975 4.43045ZM105.908 4.16378C105.908 4.56378 105.375 5.23045 104.575 5.63045C103.908 6.03045 103.242 5.76378 103.242 5.09712C103.242 4.29712 103.908 3.63045 104.575 3.63045C105.375 3.63045 105.908 3.89712 105.908 4.16378ZM117.908 5.63045C117.908 7.23045 117.242 7.36378 115.642 6.56378C114.308 5.89712 112.308 5.63045 111.242 5.89712C109.508 6.43045 109.508 6.29712 111.242 5.09712C114.175 2.96378 117.908 3.36378 117.908 5.63045ZM27.7752 9.09712C27.3752 9.76378 26.4418 10.0304 25.7752 9.49712C25.1085 9.09712 24.8418 8.16378 25.3752 7.49712C25.7752 6.83045 26.7085 6.56378 27.3752 7.09712C28.0418 7.49712 28.3085 8.43045 27.7752 9.09712ZM207.775 10.1638C208.308 10.8304 207.375 11.0971 205.908 10.6971C202.842 9.89712 202.442 8.96378 205.108 8.96378C206.175 8.96378 207.375 9.49712 207.775 10.1638ZM22.3085 17.0971C21.9085 18.6971 21.1085 19.3638 20.3085 18.5638C18.9752 17.2304 20.3085 12.6971 21.9085 13.6304C22.5752 14.0304 22.7085 15.4971 22.3085 17.0971ZM26.3085 14.9638C25.9085 16.1638 25.2418 16.8304 24.9752 16.4304C24.5752 16.0304 24.7085 15.2304 25.2418 14.4304C26.4418 12.2971 27.2418 12.6971 26.3085 14.9638ZM209.242 15.3638C209.642 16.4304 209.775 17.6304 209.508 17.8971C208.442 18.8304 204.975 16.8304 204.975 15.0971C204.975 12.6971 208.308 12.9638 209.242 15.3638ZM23.9085 22.2971C24.4418 23.0971 24.3085 23.6304 23.6418 23.4971C20.7085 22.9638 20.4418 23.8971 22.7085 26.5638C24.7085 29.0971 24.8418 29.2304 22.9752 27.7638C20.7085 26.0304 19.5085 27.4971 21.5085 29.4971C23.2418 31.2304 22.9752 34.4304 21.1085 35.2304C18.1752 36.2971 17.2418 34.6971 19.3752 32.1638C20.7085 30.4304 20.8418 29.7638 19.6418 29.3638C18.5752 28.9638 18.4418 27.7638 19.2418 25.6304C20.0418 23.4971 19.9085 22.2971 18.8418 21.7638C17.9085 21.4971 18.5752 21.0971 20.1752 21.0971C21.7752 20.9638 23.5085 21.6304 23.9085 22.2971ZM207.242 25.0971C207.242 25.7638 206.708 26.2971 205.908 26.2971C205.242 26.2971 204.575 25.3638 204.575 24.1638C204.575 23.0971 205.242 22.5638 205.908 22.9638C206.708 23.3638 207.242 24.2971 207.242 25.0971ZM209.908 32.5638C209.908 33.7638 209.642 34.4304 209.375 34.1638C209.108 33.8971 208.842 33.2304 208.975 32.6971C209.108 32.1638 208.042 30.8304 206.575 29.6304C203.908 27.4971 204.042 27.4971 206.975 28.9638C208.575 29.7638 209.908 31.3638 209.908 32.5638ZM206.308 36.4304C205.908 37.4971 206.175 38.2971 206.975 38.2971C207.775 38.2971 208.575 37.4971 208.975 36.5638C209.242 35.7638 209.508 36.5638 209.508 38.6971C209.508 41.3638 209.108 42.0304 207.908 40.9638C207.108 40.2971 205.908 39.8971 205.508 40.2971C204.975 40.6971 204.842 40.5638 205.108 40.1638C205.375 39.7638 205.108 37.6304 204.575 35.3638C203.508 32.0304 203.642 31.6304 205.242 32.9638C206.308 33.7638 206.708 35.3638 206.308 36.4304ZM21.9085 38.2971C21.9085 38.9638 21.2418 39.6304 20.4418 39.6304C19.7752 39.6304 19.5085 38.9638 19.9085 38.2971C20.3085 37.4971 20.9752 36.9638 21.3752 36.9638C21.6418 36.9638 21.9085 37.4971 21.9085 38.2971ZM24.3085 40.9638C24.1752 43.0971 23.6418 44.9638 23.1085 44.9638C22.5752 44.9638 21.1085 45.3638 20.0418 45.7638C18.4418 46.4304 18.0418 46.0304 18.7085 44.4304C19.1085 43.2304 20.3085 42.2971 21.3752 42.2971C22.4418 42.2971 23.2418 41.0971 23.2418 39.6304C23.2418 38.1638 23.5085 36.9638 23.9085 36.9638C24.3085 36.9638 24.4418 38.6971 24.3085 40.9638ZM208.308 43.8971C210.708 46.2971 210.308 49.3638 207.775 48.4304C206.175 47.8971 205.775 48.1638 206.308 49.6304C206.842 50.6971 206.708 51.7638 206.042 52.1638C205.508 52.5638 204.975 50.4304 204.842 47.4971C204.442 42.1638 205.508 41.0971 208.308 43.8971ZM14.8418 47.0971C14.4418 47.4971 13.2418 47.6304 12.3085 47.2304C11.2418 46.8304 11.6418 46.4304 13.1085 46.4304C14.5752 46.2971 15.3752 46.6971 14.8418 47.0971ZM28.5752 49.0971C28.5752 49.7638 27.6418 50.2971 26.5752 50.2971C25.3752 50.2971 24.9752 49.4971 25.3752 48.2971C26.1752 46.2971 28.5752 46.8304 28.5752 49.0971ZM35.2418 49.0971C35.2418 49.7638 34.7085 50.2971 34.1752 50.2971C33.5085 50.2971 32.9752 49.3638 32.9752 48.2971C32.9752 47.2304 33.5085 46.6971 34.1752 47.0971C34.7085 47.4971 35.2418 48.2971 35.2418 49.0971ZM43.6418 47.2304C42.7085 47.4971 42.4418 48.6971 42.8418 49.7638C43.6418 52.0304 42.0418 52.1638 38.9752 49.7638C35.6418 47.3638 35.9085 46.9638 40.9752 46.8304C43.2418 46.6971 44.5752 46.9638 43.6418 47.2304ZM4.57515 50.8304C4.57515 49.8971 6.70848 49.4971 9.90848 49.6304C16.5752 49.8971 18.7085 51.6304 12.4418 51.6304C9.90848 51.6304 6.57515 52.0304 4.97515 52.4304C2.57515 53.0971 1.90848 52.6971 1.90848 50.8304C1.90848 48.6971 2.17515 48.5638 3.24182 50.2971C3.90848 51.3638 4.57515 51.6304 4.57515 50.8304ZM22.8418 49.7638C22.4418 50.1638 21.2418 50.2971 20.3085 49.8971C19.2418 49.4971 19.6418 49.0971 21.1085 49.0971C22.5752 48.9638 23.3752 49.3638 22.8418 49.7638ZM209.508 56.8304C209.375 58.2971 208.708 59.0971 207.642 58.6971C206.308 58.1638 206.175 57.4971 207.375 56.1638C209.375 53.6304 209.775 53.7638 209.508 56.8304ZM23.2418 58.9638C21.9085 60.5638 21.9085 60.9638 23.2418 60.9638C24.3085 60.9638 24.7085 61.2304 24.3085 61.6304C23.9085 62.0304 22.5752 62.0304 21.3752 61.4971C19.3752 60.6971 19.3752 60.5638 21.5085 58.8304C24.7085 56.4304 25.2418 56.5638 23.2418 58.9638ZM208.842 62.0304C208.042 62.2971 207.242 63.3638 207.242 64.4304C207.242 65.4971 206.308 66.2971 205.242 66.2971C203.642 66.2971 203.508 65.7638 204.442 63.7638C205.242 62.4304 205.508 60.9638 205.108 60.5638C204.708 60.1638 205.642 60.1638 207.375 60.5638C209.108 61.0971 209.775 61.6304 208.842 62.0304ZM22.8418 64.4304C22.4418 64.8304 21.2418 64.9638 20.3085 64.5638C19.2418 64.1638 19.6418 63.7638 21.1085 63.7638C22.5752 63.6304 23.3752 64.0304 22.8418 64.4304ZM207.908 70.0304C207.508 70.4304 206.442 70.0304 205.508 69.0971C204.308 67.7638 204.442 67.6304 206.308 68.4304C207.642 68.8304 208.308 69.6304 207.908 70.0304ZM209.908 72.9638C209.908 73.6304 209.642 74.2971 209.375 74.2971C208.975 74.2971 208.308 73.6304 207.908 72.9638C207.508 72.1638 207.775 71.6304 208.442 71.6304C209.242 71.6304 209.908 72.1638 209.908 72.9638ZM22.4418 74.9638C22.8418 76.0304 22.5752 76.9638 21.9085 76.9638C21.1085 76.9638 20.5752 76.2971 20.5752 75.4971C20.5752 74.8304 19.9085 74.5638 18.9752 75.0971C18.0418 75.6304 17.9085 75.4971 18.4418 74.5638C19.7752 72.4304 21.5085 72.5638 22.4418 74.9638ZM23.9085 79.6304C24.3085 80.4304 23.7752 80.5638 22.7085 80.1638C20.3085 79.2304 19.9085 78.2971 21.7752 78.2971C22.5752 78.2971 23.5085 78.8304 23.9085 79.6304ZM21.9085 82.2971C21.9085 82.9638 21.6418 83.6304 21.3752 83.6304C20.9752 83.6304 20.3085 82.9638 19.9085 82.2971C19.5085 81.4971 19.7752 80.9638 20.4418 80.9638C21.2418 80.9638 21.9085 81.4971 21.9085 82.2971ZM209.908 84.9638C209.908 85.6304 209.375 86.2971 208.575 86.2971C207.908 86.2971 207.242 85.6304 207.242 84.9638C207.242 84.1638 207.908 83.6304 208.575 83.6304C209.375 83.6304 209.908 84.1638 209.908 84.9638ZM24.5752 85.6304C24.5752 86.5638 20.5752 87.3638 20.0418 86.5638C19.6418 86.0304 20.5752 85.3638 22.0418 85.3638C23.3752 85.2304 24.5752 85.3638 24.5752 85.6304ZM23.7752 90.1638C24.3085 90.8304 23.3752 91.0971 21.9085 90.6971C18.8418 89.8971 18.4418 88.9638 21.1085 88.9638C22.1752 88.9638 23.3752 89.4971 23.7752 90.1638ZM29.9085 90.9638C28.9752 92.0304 27.6418 92.9638 26.8418 92.9638C26.0418 92.9638 26.5752 92.0304 28.0418 90.9638C31.3752 88.4304 32.0418 88.4304 29.9085 90.9638ZM37.5085 89.7638C37.1085 90.1638 35.9085 90.2971 34.9752 89.8971C33.9085 89.4971 34.3085 89.0971 35.7752 89.0971C37.2418 88.9638 38.0418 89.3638 37.5085 89.7638ZM41.9085 90.9638C41.9085 92.0304 42.5752 92.9638 43.5085 92.9638C44.3085 92.9638 44.7085 93.2304 44.3085 93.6304C43.9085 94.0304 42.1752 93.7638 40.4418 93.0971C38.7085 92.4304 38.0418 91.7638 38.9752 91.7638C39.9085 91.6304 40.3085 90.9638 39.9085 90.2971C39.5085 89.4971 39.7752 88.9638 40.4418 88.9638C41.2418 88.9638 41.9085 89.8971 41.9085 90.9638ZM14.7085 95.3638C13.3752 95.6304 11.7752 95.3638 10.9752 94.5638C10.1752 93.7638 10.9752 93.6304 13.5085 94.0304C16.3085 94.6971 16.5752 94.9638 14.7085 95.3638ZM207.908 97.2304C208.708 97.7638 208.175 98.2971 206.975 98.2971C205.642 98.2971 204.575 97.3638 204.575 96.0304C204.575 94.8304 204.975 94.4304 205.642 95.0971C206.175 95.7638 207.242 96.6971 207.908 97.2304ZM24.5752 97.4971C24.5752 97.8971 24.0418 98.5638 23.2418 98.9638C22.5752 99.3638 21.9085 99.0971 21.9085 98.4304C21.9085 97.6304 22.5752 96.9638 23.2418 96.9638C24.0418 96.9638 24.5752 97.2304 24.5752 97.4971ZM20.5752 100.43C20.5752 101.764 21.3752 102.297 22.4418 101.897C23.7752 101.364 24.1752 101.764 23.7752 102.83C23.3752 103.764 22.3085 104.564 21.2418 104.564C20.1752 104.564 19.5085 104.297 19.9085 103.897C20.1752 103.497 19.9085 102.164 19.1085 100.83C18.3085 99.0971 18.3085 98.2971 19.2418 98.2971C19.9085 98.2971 20.5752 99.2304 20.5752 100.43ZM209.908 102.297C209.908 104.03 208.975 104.964 207.242 104.964C205.508 104.964 204.575 104.164 204.708 102.564C204.708 101.23 205.108 100.964 205.508 101.897C206.175 103.764 208.708 104.297 208.442 102.564C208.175 100.964 208.575 99.6304 209.242 99.6304C209.642 99.6304 209.908 100.83 209.908 102.297ZM207.775 112.43C210.442 113.497 209.242 115.63 206.175 115.497C204.575 115.497 204.442 115.23 205.775 114.697C207.242 114.03 207.242 113.764 205.775 112.83C203.642 111.497 204.708 111.23 207.775 112.43ZM209.375 121.364C209.642 122.964 209.375 123.63 209.108 122.697C208.708 121.764 207.508 121.497 206.442 121.897C205.375 122.297 204.575 121.897 204.575 121.097C204.575 120.297 205.508 119.63 206.708 119.63C207.908 119.63 208.308 118.964 207.775 117.897C207.242 117.097 207.375 116.697 207.908 117.364C208.575 117.897 209.242 119.764 209.375 121.364ZM21.9085 123.764C21.9085 124.43 22.4418 124.83 22.9752 124.43C24.3085 123.63 24.1752 129.764 22.8418 131.097C22.3085 131.764 22.1752 131.097 22.7085 129.63C23.5085 127.63 23.2418 127.364 21.5085 128.03C20.3085 128.43 19.2418 128.297 19.2418 127.63C19.2418 126.83 20.0418 126.297 20.9752 126.297C21.9085 126.297 21.5085 125.364 20.0418 124.297C17.7752 122.564 17.6418 122.297 19.6418 122.297C20.8418 122.297 21.9085 122.964 21.9085 123.764ZM5.50848 132.43C5.10848 132.83 3.90848 132.964 2.97515 132.564C1.90848 132.164 2.30848 131.764 3.77515 131.764C5.24182 131.63 6.04182 132.03 5.50848 132.43ZM9.24182 132.964C9.64182 133.63 9.37515 134.297 8.70848 134.297C7.90848 134.297 7.24182 133.63 7.24182 132.964C7.24182 132.164 7.50848 131.63 7.77515 131.63C8.17515 131.63 8.84182 132.164 9.24182 132.964ZM16.5752 132.564C16.5752 133.23 15.9085 134.564 15.1085 135.63C13.9085 137.364 13.7752 137.364 14.3085 135.364C14.7085 134.164 14.4418 132.83 13.5085 132.43C12.5752 132.164 12.9752 131.764 14.3085 131.764C15.5085 131.63 16.5752 132.03 16.5752 132.564ZM30.5752 132.964C30.1752 133.63 28.9752 133.897 27.9085 133.364C25.1085 132.43 25.3752 131.63 28.7085 131.63C30.1752 131.63 31.1085 132.164 30.5752 132.964ZM205.375 132.83C204.842 133.497 205.242 134.43 205.908 134.697C206.708 135.097 206.575 135.23 205.642 135.097C203.642 134.697 202.575 131.63 204.575 131.63C205.375 131.63 205.775 132.164 205.375 132.83ZM5.24182 137.23C6.04182 137.764 5.50848 138.297 4.30848 138.297C2.97515 138.297 1.90848 137.364 1.90848 136.03C1.90848 134.83 2.30848 134.43 2.97515 135.097C3.50848 135.764 4.57515 136.697 5.24182 137.23ZM35.1085 136.43C36.4418 137.63 26.4418 136.83 24.7085 135.764C23.3752 134.964 24.8418 134.697 28.7085 135.23C31.9085 135.63 34.8418 136.164 35.1085 136.43ZM44.1752 135.097C43.7752 135.497 42.5752 135.63 41.6418 135.23C40.5752 134.83 40.9752 134.43 42.4418 134.43C43.9085 134.297 44.7085 134.697 44.1752 135.097ZM207.908 138.297C207.508 138.964 206.308 139.63 205.508 139.63C204.575 139.63 204.708 139.097 205.908 138.297C208.442 136.697 208.975 136.697 207.908 138.297ZM209.908 152.43C209.908 154.03 209.375 154.03 207.242 152.964C205.775 152.164 204.575 151.364 204.575 151.23C204.575 150.964 205.775 150.83 207.242 150.697C208.842 150.564 209.908 151.23 209.908 152.43ZM24.5752 160.297C24.5752 161.364 24.0418 162.297 23.5085 162.297C22.8418 162.297 22.3085 161.364 22.3085 160.297C22.3085 159.23 22.8418 158.297 23.5085 158.297C24.0418 158.297 24.5752 159.23 24.5752 160.297ZM22.8418 163.63C24.0418 163.63 24.5752 164.43 24.1752 165.63C23.6418 166.697 23.9085 167.897 24.5752 168.297C25.2418 168.697 25.3752 170.03 24.9752 171.097C24.3085 173.097 24.0418 172.964 22.9752 170.964C22.3085 169.764 22.0418 167.897 22.4418 166.83C22.8418 165.63 22.3085 164.964 20.5752 164.964C18.7085 164.964 18.1752 164.297 18.8418 162.697C19.3752 161.23 19.9085 161.097 20.3085 162.03C20.5752 162.964 21.7752 163.63 22.8418 163.63ZM207.508 166.297C210.308 168.964 210.308 168.964 207.775 170.964C205.508 172.697 205.508 172.83 207.642 172.964C209.242 172.964 209.908 174.03 209.908 176.43C209.908 178.964 209.375 179.764 207.908 179.097C206.842 178.697 205.908 178.964 205.908 179.497C205.908 180.164 206.708 181.097 207.642 181.364C208.575 181.897 208.708 182.164 207.775 182.164C206.975 182.297 205.508 181.364 204.575 180.297C203.642 179.23 203.508 178.297 204.042 178.297C205.642 178.297 205.642 167.63 204.175 165.23C202.575 162.83 204.308 163.364 207.508 166.297ZM23.9085 178.297C24.9752 180.03 23.2418 180.03 20.5752 178.297C18.8418 177.23 18.8418 176.964 20.8418 176.964C22.0418 176.964 23.5085 177.497 23.9085 178.297ZM21.9085 182.297C21.9085 182.964 21.3752 183.63 20.5752 183.63C19.9085 183.63 19.2418 182.964 19.2418 182.297C19.2418 181.497 19.9085 180.964 20.5752 180.964C21.3752 180.964 21.9085 181.497 21.9085 182.297ZM23.2418 186.297C20.5752 188.03 18.8418 188.03 19.9085 186.297C20.3085 185.497 21.7752 184.964 22.9752 184.964C24.9752 184.964 24.9752 185.23 23.2418 186.297ZM206.975 186.564C206.708 187.497 207.375 188.164 208.308 187.897C209.242 187.764 209.908 188.964 209.775 190.564C209.775 192.297 209.375 192.83 208.975 191.897C208.708 191.097 207.508 190.297 206.575 190.297C205.108 190.297 204.842 188.43 205.775 185.23C206.175 184.03 207.242 185.23 206.975 186.564ZM21.5085 190.964C21.5085 192.03 20.9752 192.964 20.3085 192.964C19.7752 192.964 19.2418 192.03 19.2418 190.964C19.2418 189.897 19.7752 188.964 20.3085 188.964C20.9752 188.964 21.5085 189.897 21.5085 190.964ZM206.442 193.497C206.042 194.564 206.442 195.764 207.375 196.43C208.442 197.097 208.708 196.83 207.908 195.497C206.975 193.897 207.108 193.897 208.708 195.364C210.308 196.83 210.308 197.364 208.308 198.43C206.975 199.23 206.175 201.23 206.175 203.63C206.308 209.23 208.575 210.164 208.708 204.697C208.975 200.564 208.975 200.564 209.508 204.03C209.908 206.164 209.375 208.697 208.442 209.764C206.708 211.897 201.242 212.43 202.575 210.297C203.108 209.497 203.908 209.23 204.442 209.497C204.842 209.764 205.242 206.43 205.108 201.897C204.842 194.297 205.242 191.63 206.575 191.63C206.975 191.63 206.842 192.43 206.442 193.497ZM23.7752 195.497C24.7085 196.964 20.8418 198.564 18.9752 197.497C18.1752 196.964 18.3085 196.164 19.3752 195.497C21.7752 194.03 22.8418 194.03 23.7752 195.497ZM22.8418 201.63C22.8418 202.83 21.6418 203.63 20.0418 203.497C18.4418 203.497 18.0418 203.097 18.9752 202.697C19.7752 202.43 20.3085 201.497 19.7752 200.83C19.3752 200.164 19.9085 199.63 20.9752 199.63C21.9085 199.63 22.8418 200.564 22.8418 201.63ZM21.9085 208.43C21.9085 209.497 21.3752 210.03 20.5752 209.63C19.9085 209.23 19.2418 207.897 19.2418 206.83C19.2418 205.764 19.9085 205.23 20.5752 205.63C21.3752 206.03 21.9085 207.364 21.9085 208.43ZM25.5085 209.097C25.1085 210.564 25.3752 211.63 25.9085 211.63C27.2418 211.63 26.8418 215.23 25.2418 216.564C24.7085 217.23 24.5752 216.83 25.2418 215.764C26.0418 214.297 25.7752 214.03 24.1752 214.697C22.3085 215.364 22.1752 214.964 23.2418 212.297C23.9085 210.43 24.1752 208.03 23.6418 206.697C22.9752 205.23 23.2418 204.83 24.4418 205.497C25.3752 206.164 25.9085 207.764 25.5085 209.097ZM31.7752 220.297C31.2418 221.364 30.4418 221.897 29.7752 221.497C28.3085 220.697 29.5085 218.297 31.2418 218.297C31.9085 218.297 32.1752 219.23 31.7752 220.297ZM41.1085 223.497C40.8418 223.764 39.7752 223.364 38.8418 222.564C37.7752 221.63 36.5752 221.364 36.0418 221.897C35.5085 222.43 35.5085 221.897 35.9085 220.697C36.7085 218.697 36.9752 218.697 39.1085 220.697C40.4418 221.897 41.2418 223.23 41.1085 223.497ZM62.3085 219.497C64.5752 220.297 64.5752 220.564 62.7085 222.164C60.9752 223.63 60.5752 223.63 60.5752 221.897C60.5752 220.697 59.5085 219.497 58.3085 219.23C56.7085 218.83 56.5752 218.564 57.9085 218.564C58.9752 218.564 60.9752 218.964 62.3085 219.497ZM79.2418 220.964C79.2418 222.164 79.6418 222.43 80.3085 221.497C80.8418 220.697 82.4418 219.63 83.7752 219.23C85.7752 218.43 86.0418 218.564 84.8418 220.03C83.9085 221.097 83.5085 222.164 83.9085 222.564C84.3085 222.964 82.7085 223.23 80.3085 223.097C77.9085 222.964 75.7752 222.43 75.6418 221.764C75.5085 221.097 74.7085 220.164 73.7752 219.63C72.8418 218.964 73.6418 218.697 75.6418 218.697C77.9085 218.83 79.2418 219.764 79.2418 220.964ZM113.908 219.63C114.308 219.764 115.108 219.897 115.642 219.764C116.308 219.63 116.442 220.164 116.042 220.83C115.508 221.497 116.575 222.43 118.175 222.697C120.042 223.097 119.642 223.23 116.975 223.23C114.042 223.097 112.575 222.43 112.575 221.097C112.575 219.63 112.042 219.764 110.442 221.764C109.375 223.097 108.708 223.497 109.242 222.564C109.775 221.63 109.108 220.964 107.642 220.964C105.775 220.964 105.642 220.697 107.108 219.764C108.708 218.697 111.508 218.697 113.908 219.63ZM126.842 220.564C127.508 220.164 128.175 220.697 128.175 221.764C128.175 222.964 127.375 223.497 126.175 222.964C125.242 222.564 122.708 221.897 120.842 221.364L117.242 220.43L120.575 219.63C122.442 219.097 124.308 219.364 124.708 220.03C125.242 220.697 126.175 220.964 126.842 220.564ZM132.975 220.83C132.708 221.63 133.508 222.297 134.708 222.297C136.042 222.297 136.575 221.497 136.042 220.297C134.975 217.364 136.975 217.897 138.975 221.097C140.575 223.63 140.442 223.764 136.308 223.364C133.908 223.097 132.175 222.43 132.308 221.764C132.575 221.097 132.042 220.03 130.975 219.364C129.642 218.297 129.642 218.164 131.242 218.697C132.308 218.964 133.108 220.03 132.975 220.83ZM141.242 219.63C141.642 220.297 141.375 220.964 140.708 220.964C139.908 220.964 139.242 220.297 139.242 219.63C139.242 218.83 139.508 218.297 139.775 218.297C140.175 218.297 140.842 218.83 141.242 219.63ZM153.908 220.564C155.508 219.23 155.508 219.364 154.042 221.23C152.175 223.764 147.775 224.697 149.242 222.297C149.642 221.497 149.508 220.964 148.708 220.964C148.042 220.964 146.975 221.497 146.575 222.297C146.175 222.964 144.708 223.63 143.508 223.497C141.908 223.497 142.042 223.097 144.308 222.297C145.908 221.63 147.242 220.297 147.242 219.497C147.242 218.43 148.175 218.697 149.642 220.03C151.642 221.764 152.442 221.897 153.908 220.564ZM183.242 220.43C183.242 221.63 184.042 222.297 184.975 221.897C185.775 221.63 187.775 221.764 189.242 222.43C191.508 223.23 191.375 223.497 188.175 223.497C186.042 223.63 182.842 222.43 180.975 220.964C177.642 218.43 177.642 218.297 180.442 218.297C182.175 218.297 183.242 219.097 183.242 220.43ZM46.5752 220.964C46.1752 221.63 46.7085 222.297 47.7752 222.297C48.8418 222.297 50.1752 221.63 50.5752 220.964C51.7752 219.097 55.2418 219.364 55.2418 221.364C55.2418 223.63 45.6418 223.497 44.9752 221.23C44.5752 220.43 44.9752 219.63 45.9085 219.63C46.7085 219.63 46.9752 220.164 46.5752 220.964ZM94.0418 221.497C94.7085 221.097 95.2418 221.497 95.2418 222.164C95.2418 222.964 94.3085 223.63 93.2418 223.63C92.1752 223.63 91.2418 222.564 91.3752 221.23C91.3752 219.897 91.7752 219.63 92.1752 220.697C92.4418 221.497 93.3752 222.03 94.0418 221.497ZM101.908 221.364C101.908 222.43 100.975 223.23 99.9085 223.23C98.4418 223.23 98.3085 222.697 99.3752 221.364C100.175 220.43 101.108 219.63 101.375 219.63C101.642 219.63 101.908 220.43 101.908 221.364ZM161.775 222.43C158.842 224.164 157.642 223.897 159.508 221.764C160.442 220.697 161.775 220.164 162.442 220.564C162.975 220.964 162.708 221.764 161.775 222.43ZM169.108 221.63C168.575 222.697 168.042 223.63 167.775 223.63C167.508 223.63 167.242 222.697 167.242 221.63C167.242 220.564 167.775 219.63 168.575 219.63C169.242 219.63 169.508 220.564 169.108 221.63ZM59.2418 222.297C59.2418 222.964 58.5752 223.63 57.7752 223.63C57.1085 223.63 56.8418 222.964 57.2418 222.297C57.6418 221.497 58.3085 220.964 58.7085 220.964C58.9752 220.964 59.2418 221.497 59.2418 222.297ZM173.508 223.097C173.108 223.497 171.908 223.63 170.975 223.23C169.908 222.83 170.308 222.43 171.775 222.43C173.242 222.297 174.042 222.697 173.508 223.097ZM180.175 223.097C179.775 223.497 178.575 223.63 177.642 223.23C176.575 222.83 176.975 222.43 178.442 222.43C179.908 222.297 180.708 222.697 180.175 223.097Z" fill="black"/>
<path d="M74.3085 52.5634C73.3752 52.9634 72.5752 54.5634 72.5752 56.2967C72.5752 60.4301 74.9752 61.8967 81.2419 61.4967C84.1752 61.3634 93.6419 61.0967 102.309 60.9634C110.842 60.8301 118.309 60.1634 118.709 59.4967C119.109 58.8301 120.442 58.2967 121.642 58.4301C123.509 58.4301 123.375 58.6967 121.242 59.6301C119.642 60.2967 127.909 60.6967 141.242 60.8301C156.309 60.8301 163.242 60.5634 161.909 59.6301C160.709 58.8301 160.575 58.2967 161.509 58.2967C162.309 58.2967 163.375 58.8301 163.775 59.3634C164.042 59.8967 166.709 60.5634 169.642 60.6967C176.042 61.0967 178.842 58.5634 176.575 54.4301C175.242 51.7634 174.175 51.6301 125.509 51.8967C98.3085 51.8967 75.1085 52.2967 74.3085 52.5634ZM93.9085 54.5634C93.9085 55.0967 93.2419 55.8967 92.5752 56.2967C91.7752 56.8301 91.5085 57.7634 91.9085 58.4301C92.4419 59.0967 91.1085 59.6301 88.9752 59.6301C85.9085 59.4967 85.6419 59.3634 87.5085 58.1634C88.7085 57.4967 89.5085 56.0301 89.1085 54.9634C88.5752 53.7634 89.2419 53.2301 91.1085 53.3634C92.7085 53.4967 93.9085 54.0301 93.9085 54.5634ZM104.575 54.2967C104.575 54.9634 103.909 55.6301 103.109 55.6301C102.442 55.6301 102.175 54.9634 102.575 54.2967C102.975 53.4967 103.642 52.9634 104.042 52.9634C104.309 52.9634 104.575 53.4967 104.575 54.2967ZM118.842 54.6967C119.375 55.3634 118.042 55.4967 115.909 55.0967C112.042 54.4301 112.042 54.4301 114.575 56.5634C116.442 58.0301 116.575 58.4301 115.109 57.8967C113.909 57.4967 112.042 57.8967 111.109 58.6967C109.642 60.0301 109.642 59.8967 110.975 58.1634C112.309 56.2967 112.309 55.7634 110.575 55.0967C109.509 54.6967 108.575 54.9634 108.575 55.6301C108.575 56.4301 107.909 56.9634 107.109 56.9634C106.042 56.9634 106.042 56.4301 107.109 55.2301C108.575 53.3634 117.109 52.9634 118.842 54.6967ZM127.375 54.1634C126.309 54.8301 125.909 56.2967 126.442 57.6301C127.109 59.6301 126.975 59.7634 125.242 58.2967C123.642 56.9634 123.509 56.1634 124.709 54.8301C125.509 53.7634 126.975 52.9634 127.775 52.9634C128.575 52.9634 128.442 53.4967 127.375 54.1634ZM133.909 54.2967C133.909 54.9634 132.975 55.2301 131.909 54.8301C130.842 54.2967 129.909 53.7634 129.909 53.4967C129.909 53.2301 130.842 52.9634 131.909 52.9634C132.975 52.9634 133.909 53.4967 133.909 54.2967ZM140.842 55.6301C140.575 56.5634 141.242 57.8967 142.175 58.4301C143.242 59.2301 141.775 59.6301 138.175 59.6301H132.575L134.709 56.2967C136.975 52.8301 141.642 52.2967 140.842 55.6301ZM149.909 54.2967C149.909 54.9634 150.975 55.6301 152.175 55.6301C153.375 55.6301 154.042 56.0301 153.509 56.4301C152.442 57.4967 147.242 55.7634 147.242 54.1634C147.242 53.4967 147.909 52.9634 148.575 52.9634C149.375 52.9634 149.909 53.4967 149.909 54.2967ZM167.242 53.4967C167.242 54.5634 160.842 55.0967 158.442 54.1634C156.709 53.4967 157.509 53.0967 161.642 53.0967C164.709 52.9634 167.242 53.2301 167.242 53.4967ZM79.9085 55.6301C79.5085 56.2967 78.3085 56.9634 77.5085 56.9634C76.5752 56.9634 76.7085 56.4301 77.9085 55.6301C80.4419 54.0301 80.9752 54.0301 79.9085 55.6301ZM87.2419 55.4967C87.2419 56.2967 86.0419 56.6967 84.5752 56.5634C83.1085 56.4301 81.9085 55.8967 81.9085 55.3634C81.9085 54.8301 83.1085 54.2967 84.5752 54.2967C86.0419 54.2967 87.2419 54.8301 87.2419 55.4967ZM100.575 55.6301C100.575 56.2967 100.309 56.9634 100.042 56.9634C99.6419 56.9634 98.9752 56.2967 98.5752 55.6301C98.1752 54.8301 98.4419 54.2967 99.1085 54.2967C99.9085 54.2967 100.575 54.8301 100.575 55.6301ZM157.109 57.6301C157.509 58.6967 157.242 59.6301 156.575 59.6301C155.775 59.6301 155.242 58.6967 155.242 57.6301C155.242 56.5634 155.509 55.6301 155.775 55.6301C156.042 55.6301 156.575 56.5634 157.109 57.6301ZM168.575 56.9634C169.642 57.6301 170.042 58.2967 169.242 58.2967C168.575 58.2967 166.975 57.6301 165.909 56.9634C164.842 56.2967 164.575 55.6301 165.242 55.6301C166.042 55.6301 167.509 56.2967 168.575 56.9634ZM97.1085 58.0301C97.5085 58.6967 96.9752 59.2301 95.9085 59.2301C94.8419 59.2301 93.9085 58.6967 93.9085 58.0301C93.9085 57.4967 94.4419 56.9634 95.1085 56.9634C95.9085 56.9634 96.7085 57.4967 97.1085 58.0301ZM175.242 58.2967C175.242 58.9634 174.709 59.6301 173.909 59.6301C173.242 59.6301 172.575 58.9634 172.575 58.2967C172.575 57.4967 173.242 56.9634 173.909 56.9634C174.709 56.9634 175.242 57.4967 175.242 58.2967Z" fill="black"/>
<path d="M136.575 56.2969C136.575 57.3635 137.242 58.2969 137.909 58.2969C138.709 58.2969 139.242 57.3635 139.242 56.2969C139.242 55.2302 138.709 54.2969 137.909 54.2969C137.242 54.2969 136.575 55.2302 136.575 56.2969Z" fill="black"/>
<path d="M79.6418 84.5634C80.8418 84.83 81.9085 85.63 81.9085 86.2967C81.9085 87.8967 79.1085 88.6967 76.1751 87.8967C74.1751 87.3634 74.0418 86.9634 75.5085 86.03C76.8418 84.9634 76.8418 84.83 75.2418 85.3634C73.5085 85.7634 73.1085 86.9634 73.7751 91.63C73.9085 92.43 79.5085 92.9634 88.3085 92.83C101.508 92.6967 102.708 92.5634 102.842 90.1634C102.975 88.83 102.308 87.63 101.508 87.63C100.575 87.63 100.708 87.0967 101.908 86.2967C104.708 84.43 105.908 84.6967 105.108 86.83C104.708 87.8967 104.975 89.0967 105.775 89.63C106.575 90.03 107.242 89.3634 107.375 88.03C107.375 86.6967 107.775 86.2967 108.175 87.23C108.442 88.1634 109.375 88.9634 110.175 88.9634C110.975 88.9634 111.242 88.1634 110.842 87.23C110.442 86.1634 111.908 85.4967 115.375 85.23C118.308 85.0967 120.575 85.4967 120.575 86.1634C120.575 86.83 119.375 87.0967 117.908 86.6967C114.975 85.8967 110.842 88.5634 112.042 90.43C112.442 91.0967 111.775 91.23 110.708 90.83C109.642 90.43 107.642 90.6967 106.308 91.4967C104.575 92.5634 107.375 92.83 117.508 92.9634C125.108 92.9634 131.508 92.43 131.908 91.63C132.308 90.83 133.775 90.2967 134.975 90.43C136.842 90.43 136.708 90.6967 134.575 91.63C132.975 92.43 139.642 92.83 152.308 92.83L172.708 92.6967L174.308 89.3634C176.308 84.83 174.042 83.63 162.575 83.63C156.308 83.63 153.908 84.03 155.242 84.9634C156.308 85.63 156.842 86.5634 156.308 86.9634C155.908 87.3634 154.575 86.83 153.508 85.63C151.775 83.8967 146.575 83.63 117.642 83.7634C99.1085 83.8967 85.6418 84.2967 87.6418 84.5634C90.5751 84.9634 91.2418 85.63 90.5751 87.63C89.9085 89.63 90.3085 89.8967 92.7085 89.3634C94.7085 88.83 95.3751 88.9634 94.7085 90.1634C93.3751 92.1634 83.3751 91.4967 84.1751 89.3634C84.5751 88.5634 85.6418 88.1634 86.5751 88.43C87.5085 88.83 88.7085 88.43 89.3751 87.4967C90.0418 86.2967 89.6418 86.1634 88.1751 86.6967C86.9751 87.0967 85.1085 86.6967 84.0418 85.63C82.9751 84.5634 80.9751 83.7634 79.6418 83.7634C77.3751 83.8967 77.3751 84.03 79.6418 84.5634ZM99.6418 88.5634C100.308 92.5634 98.9751 92.5634 97.1085 88.5634C96.0418 86.1634 96.0418 85.3634 97.3751 85.3634C98.3085 85.3634 99.2418 86.83 99.6418 88.5634ZM126.842 87.23C126.842 89.4967 122.975 88.9634 122.308 86.6967C121.908 85.7634 122.842 85.23 124.308 85.3634C125.642 85.3634 126.842 86.2967 126.842 87.23ZM130.842 86.9634C130.842 88.03 130.308 88.5634 129.642 88.1634C128.975 87.7634 128.842 86.83 129.242 86.1634C130.442 84.43 130.842 84.6967 130.842 86.9634ZM144.175 86.03C142.975 86.2967 142.175 87.0967 142.575 87.7634C142.975 88.43 142.308 88.5634 141.108 88.03C139.375 87.3634 138.975 87.63 139.642 89.3634C140.708 92.1634 140.042 92.1634 135.775 89.3634C131.642 86.6967 133.375 85.3634 140.975 85.3634C144.042 85.3634 145.508 85.63 144.175 86.03ZM150.842 85.7634C150.442 86.1634 149.242 86.2967 148.308 85.8967C147.242 85.4967 147.642 85.0967 149.108 85.0967C150.575 84.9634 151.375 85.3634 150.842 85.7634ZM172.575 86.5634C172.575 87.0967 172.175 87.4967 171.642 87.4967C169.108 87.0967 167.375 87.7634 166.842 89.23C166.575 90.1634 166.442 89.8967 166.575 88.6967C166.842 86.9634 165.775 86.2967 162.042 85.8967C159.375 85.63 160.708 85.3634 164.975 85.4967C169.108 85.4967 172.575 86.03 172.575 86.5634ZM160.308 89.63C158.575 90.43 156.708 90.6967 156.042 90.1634C155.375 89.4967 154.042 89.63 152.975 90.43C152.042 91.3634 151.242 91.3634 151.242 90.6967C151.242 88.5634 152.175 88.2967 157.908 88.1634C162.975 88.03 163.242 88.03 160.308 89.63ZM77.2418 90.2967C77.6418 90.9634 77.3751 91.63 76.7085 91.63C75.9085 91.63 75.2418 90.9634 75.2418 90.2967C75.2418 89.4967 75.5085 88.9634 75.7751 88.9634C76.1751 88.9634 76.8418 89.4967 77.2418 90.2967ZM81.2418 90.2967C81.6418 90.9634 81.3751 91.63 80.7085 91.63C79.9085 91.63 79.2418 90.9634 79.2418 90.2967C79.2418 89.4967 79.5085 88.9634 79.7751 88.9634C80.1751 88.9634 80.8418 89.4967 81.2418 90.2967ZM119.908 90.2967C120.308 90.9634 119.775 91.63 118.575 91.63C117.375 91.63 116.842 90.9634 117.242 90.2967C117.642 89.4967 118.308 88.9634 118.575 88.9634C118.842 88.9634 119.508 89.4967 119.908 90.2967ZM125.908 91.0967C125.908 91.3634 124.975 91.63 123.908 91.63C122.842 91.63 121.908 91.0967 121.908 90.2967C121.908 89.63 122.842 89.3634 123.908 89.7634C124.975 90.2967 125.908 90.83 125.908 91.0967ZM149.908 90.5634C149.908 91.0967 148.708 91.63 147.242 91.63C145.775 91.63 144.575 91.0967 144.575 90.43C144.575 89.63 145.775 89.23 147.242 89.3634C148.708 89.4967 149.908 90.03 149.908 90.5634Z" fill="black"/>
<path d="M135.909 87.63C136.309 88.2967 136.975 88.9634 137.375 88.9634C137.642 88.9634 137.909 88.2967 137.909 87.63C137.909 86.83 137.242 86.2967 136.442 86.2967C135.775 86.2967 135.509 86.83 135.909 87.63Z" fill="black"/>
<path d="M40.5751 172.563C40.5751 172.963 41.6417 174.163 42.9751 175.097C45.1084 176.697 45.1084 176.963 42.5751 178.83C40.7084 180.163 38.4417 180.563 35.3751 180.03C31.9084 179.497 31.1084 179.63 31.9084 180.963C32.5751 182.03 34.7084 182.297 38.1751 181.897C44.8418 180.963 47.6417 178.83 45.9084 175.63C44.7084 173.363 40.5751 170.963 40.5751 172.563Z" fill="black"/>
<path d="M140.042 3.36348C139.642 4.03014 140.175 4.56348 141.242 4.56348C142.308 4.56348 143.242 4.03014 143.242 3.36348C143.242 2.83014 142.708 2.29681 142.042 2.29681C141.242 2.29681 140.442 2.83014 140.042 3.36348Z" fill="black"/>
<path d="M197.375 6.16355C196.975 6.83022 197.508 7.63022 198.575 8.03022C199.775 8.56355 200.175 8.16355 199.642 6.83022C198.842 4.69688 198.308 4.56355 197.375 6.16355Z" fill="black"/>
<path d="M205.908 44.9635C205.908 45.6302 206.575 46.2969 207.375 46.2969C208.042 46.2969 208.308 45.6302 207.908 44.9635C207.508 44.1635 206.842 43.6302 206.442 43.6302C206.175 43.6302 205.908 44.1635 205.908 44.9635Z" fill="black"/>
<path d="M205.908 175.497C205.908 176.297 206.575 177.23 207.242 177.63C208.042 178.03 208.575 177.497 208.575 176.43C208.575 175.23 208.042 174.297 207.242 174.297C206.575 174.297 205.908 174.83 205.908 175.497Z" fill="black"/>
<path d="M16.5752 116.164C16.5752 117.23 17.2419 118.564 17.9085 118.964C18.7085 119.364 19.2419 119.097 19.2419 118.297C19.2419 117.497 19.7752 117.097 20.4419 117.497C21.1085 117.897 21.9085 117.364 22.4419 116.297C22.9752 114.83 22.1752 114.297 19.9085 114.297C17.9085 114.297 16.5752 115.097 16.5752 116.164Z" fill="black"/>
<path d="M16.9751 144.964C17.1084 146.43 17.5084 147.63 18.0417 147.63C19.3751 147.63 20.5751 144.03 19.6417 143.097C18.0417 141.497 16.7084 142.43 16.9751 144.964Z" fill="black"/>
<path d="M204.308 216.564C202.975 216.83 201.908 218.164 201.908 219.23C201.908 221.097 202.308 221.097 204.575 218.964C206.842 216.964 208.042 215.23 206.975 215.764C206.708 215.897 205.508 216.164 204.308 216.564Z" fill="black"/>
</svg>
