<svg width="210" height="209" viewBox="0 0 210 209" fill="none" xmlns="http://www.w3.org/2000/svg">
<path d="M88.5333 1.1365C78.6667 3.00317 76.4 3.66984 70 5.9365C63.6 8.20317 57.6 11.0032 50.1333 15.0032C46.6667 16.7365 46 17.6698 47.0667 19.0032C48.2667 20.3365 47.8667 20.6032 45.4667 20.2032C41.8667 19.5365 28.2667 29.9365 23.0667 37.4032C21.3333 39.8032 19.4667 42.2032 18.8 42.6032C18.2667 43.0032 17.6 44.2032 17.3333 45.2698C17.2 46.3365 15.6 49.5365 13.7333 52.4698C9.33333 59.2698 6.8 66.0698 3.86667 78.3365C1.86667 86.6032 1.73333 88.3365 3.33333 89.4032C4.8 90.4698 4.66667 90.6032 2.93333 89.9365C0.8 89.2698 0.533333 90.2032 0.4 96.4698C0.266667 100.47 0.133333 105.537 0 107.803C0 109.937 0.133333 111.803 0.533333 111.803C0.933333 111.803 1.2 115.27 1.33333 119.537C1.46667 130.737 2.53333 133.803 6.4 133.937C10.2667 134.203 9.73333 131.003 5.73333 129.803C4.4 129.27 3.2 128.47 3.2 127.803C3.2 125.803 9.73333 129.67 10.2667 132.07C10.6667 133.403 10.1333 135.003 9.06667 135.937C7.6 137.137 7.2 137.003 7.2 135.67C7.2 134.337 6.8 134.337 5.6 135.537C4.4 136.737 5.46667 139.803 9.86667 148.737C16.2667 161.67 18 163.937 21.7333 164.203C23.2 164.203 24 164.87 23.7333 165.403C23.3333 165.937 25.0667 166.47 27.4667 166.337C29.8667 166.337 31.0667 165.937 30.1333 165.537C29.2 165.137 27.6 163.137 26.4 160.87C25.3333 158.737 24 157.27 23.6 157.67C23.2 158.07 23.6 159.537 24.6667 160.737C26.4 162.87 26.2667 163.003 24.1333 161.27C22.8 160.203 22.1333 158.47 22.5333 157.003C23.0667 155.537 22.1333 153.403 20.4 151.67C18.4 149.67 17.2 149.27 16.8 150.203C16.5333 151.137 15.3333 151.803 14.1333 151.803C12.1333 151.67 12.1333 151.537 14.2667 150.337C15.6 149.537 16.1333 148.337 15.6 147.403C15.0667 146.47 15.6 146.603 16.9333 147.67C19.7333 149.937 19.8667 148.737 17.2 144.603C13.7333 139.403 9.86667 123.803 9.06667 111.803C8.53333 105.537 7.73333 100.203 7.06667 100.07C6.4 99.8032 5.86667 99.0032 5.86667 98.3365C5.86667 97.8032 6.8 97.5365 7.86667 97.9365C9.46667 98.6032 9.86667 97.5365 10 93.0032C10.1333 89.8032 10.2667 86.4698 10.4 85.8032C11.6 79.1365 13.2 73.1365 14.6667 69.5365C16.2667 65.9365 16.1333 65.2698 14.4 64.6032C13.2 64.2032 11.7333 64.0698 11.0667 64.6032C10.4 65.0032 9.86667 64.3365 9.86667 63.1365C9.86667 60.8698 10.1333 60.8698 16.1333 63.4032C16.9333 63.6698 18.1333 62.6032 18.6667 60.8698C19.2 59.1365 20.9333 55.6698 22.5333 53.1365C24.1333 50.6032 25.2 47.6698 24.8 46.6032C24.4 45.4032 24.8 45.1365 25.7333 45.6698C28.1333 47.1365 32.5333 41.0032 31.7333 37.1365C31.3333 34.8698 31.4667 34.4698 32.1333 36.0698C33.0667 38.0698 33.8667 37.8032 39.2 33.8032C47.2 27.6698 47.2 27.6698 52.5333 23.6698C55.0667 21.8032 58.5333 19.8032 60.2667 19.2698C61.8667 18.7365 63.2 17.6698 63.2 17.0032C63.2 16.3365 64.4 15.8032 66 15.8032C67.4667 15.8032 71.4667 14.6032 74.9333 13.1365C80.2667 10.8698 85.7333 9.66984 93.7333 9.26984C95.2 9.1365 95.0667 8.60317 93.2 7.26984C91.7333 6.20317 89.7333 5.80317 88.6667 6.20317C86.9333 6.86984 86.9333 6.7365 88.5333 5.00317C90.8 2.46984 94.2667 2.20317 93.3333 4.7365C92.9333 5.80317 93.6 6.46984 95.2 6.46984C96.6667 6.46984 97.8667 7.00317 97.8667 7.80317C97.8667 8.46984 98.5333 9.1365 99.3333 9.1365C100 9.1365 100.267 8.3365 99.7333 7.40317C98.9333 6.06984 99.2 6.06984 100.667 7.40317C101.6 8.3365 103.333 9.1365 104.533 9.1365C106.267 9.1365 106.533 12.7365 106.267 37.8032C106 57.5365 106.4 66.3365 107.333 65.8032C108.133 65.2698 108.267 63.2698 107.867 61.1365C107.333 58.6032 107.6 57.2698 109.067 56.7365C112 55.5365 112.8 57.2698 110.133 59.4032C108 61.2698 108 61.2698 110.267 60.6032C111.467 60.2032 112.533 60.4698 112.533 61.1365C112.533 61.9365 112 62.4698 111.2 62.4698C110.533 62.4698 109.6 63.9365 109.067 65.8032C108.667 67.6698 107.733 68.7365 107.067 68.3365C106.4 67.9365 105.867 68.8698 105.867 70.3365C105.867 74.6032 106 75.1365 107.2 74.8698C107.733 74.7365 108.533 76.0698 108.933 77.8032C109.6 81.5365 107.733 82.4698 106.8 78.7365C106.267 76.8698 106.133 76.8698 105.867 79.1365C105.6 82.6032 105.467 89.6698 105.733 96.8698C105.867 101.403 106.8 103.537 109.867 106.737C113.733 110.47 117.6 111.27 116.8 107.937C116.667 106.87 117.333 107.003 119.2 108.07L121.867 109.803L119.2 111.003C116.8 112.07 117.467 112.87 125.2 118.337C136.667 126.337 143.467 131.27 152.933 138.203C157.067 141.403 161.333 143.537 162.133 143.003C162.933 142.47 163.2 142.603 162.667 143.537C162.133 144.337 166.133 147.803 172.533 151.937C178.4 155.803 183.2 159.27 183.2 159.803C183.2 160.337 179.867 164.337 175.867 168.737C171.867 173.137 169.067 177.27 169.6 177.803C170.133 178.47 169.733 178.47 168.8 177.937C167.867 177.403 165.333 178.337 162.8 180.337C156.533 185.537 156.133 185.67 152.133 187.537C149.867 188.47 148.8 189.803 149.333 190.737C149.867 191.537 149.733 191.803 148.8 191.27C148 190.87 145.067 191.67 142.267 193.003C132 198.336 109.067 201.27 93.2 199.27C82.8 197.936 66.5333 192.87 57.4667 188.337C55.2 187.137 53.2 186.737 52.6667 187.403C52.2667 188.07 50.6667 189.137 49.2 189.537C46.8 190.337 46.9333 190.203 49.6 188.07C52 186.203 52.2667 185.403 50.9333 184.07C49.0667 182.203 46.6667 181.937 47.8667 183.803C48.2667 184.603 47.7333 184.737 46.5333 184.203C44.9333 183.67 44.8 183.137 45.8667 182.47C47.0667 181.803 46.4 180.603 43.7333 179.003C41.6 177.537 38.1333 174.47 36 172.07C32.8 168.337 31.3333 167.67 28.4 168.337C25.8667 168.737 23.8667 168.337 22.5333 166.87C19.6 164.07 18.8 165.27 21.3333 168.87C22.4 170.47 24 171.537 24.6667 171.003C25.3333 170.603 25.7333 171.003 25.6 172.07C25.3333 173.27 26.6667 173.803 30.1333 173.803C32.8 173.803 34.6667 174.337 34.2667 174.87C33.8667 175.537 32.1333 175.803 30.4 175.403C26.4 174.737 26.4 174.737 30.9333 179.537C36.9333 186.203 54.8 197.003 58.1333 196.203C60.4 195.803 60.6667 195.936 59.3333 196.87C58 197.803 59.2 198.736 64 200.47C67.6 201.67 71.7333 203.27 73.2 203.936C74.6667 204.603 77.7333 205.403 79.8667 205.803C82.1333 206.203 86.2667 207.003 89.2 207.536C95.0667 208.603 116.533 208.47 121.867 207.403C123.733 207.003 126 206.603 126.933 206.603C128 206.47 128.267 205.803 127.733 204.736C127.067 203.536 127.2 203.536 128.4 204.603C130.133 206.203 136.133 205.536 137.333 203.67C137.733 203.003 136 202.736 133.6 203.136C129.867 203.67 129.733 203.536 132.533 202.603C134.4 202.07 137.733 201.67 139.867 201.936C142.133 202.336 143.067 202.07 142.133 201.67C140.933 201.136 141.6 200.07 144.533 198.203C146.933 196.87 148.533 195.27 148 194.87C147.6 194.47 146.133 194.87 144.933 195.936C142.667 197.536 142.667 197.536 144.667 195.27C146.267 193.67 147.867 193.136 149.867 193.803C152.667 194.736 152.667 194.87 148.533 197.403C142 201.403 144.533 201.536 152.667 197.67C166.533 191.003 179.867 179.937 187.467 168.87L192.667 161.137L189.6 159.803C186.667 158.47 186.667 158.47 190.133 159.137C192.933 159.67 194.133 159.003 196.267 155.537C198.4 152.337 198.667 150.87 197.467 150.203C196.4 149.537 196.533 149.137 198.133 149.137C200.133 149.137 203.2 142.337 205.2 133.67C205.467 132.337 206.667 127.27 207.733 122.47C208.933 117.137 209.467 109.137 209.067 101.403C208.667 88.7365 208 85.8032 205.733 87.1365C205.067 87.6698 204.533 87.4032 204.533 86.6032C204.533 85.9365 205.2 85.1365 206.133 84.8698C207.333 84.4698 207.067 82.8698 205.467 78.7365C204.267 75.6698 203.2 72.7365 203.2 72.0698C203.067 67.0032 191.733 44.6032 189.867 45.8032C189.2 46.2032 188.4 45.9365 187.867 45.1365C187.467 44.4698 187.733 43.8032 188.533 43.8032C189.333 43.8032 189.6 43.1365 189.2 42.4698C188.667 41.5365 187.333 41.6698 185.467 42.6032C182.667 43.9365 182.667 43.9365 185.067 41.9365C187.6 39.8032 187.6 39.6698 183.067 34.8698C177.2 28.4698 176.667 28.0698 174 28.4698C172.8 28.6032 172.667 28.4698 173.6 28.2032C174.4 27.8032 175.2 27.0032 175.2 26.2032C175.2 25.5365 174.267 25.2698 173.067 25.6698C172 26.0698 171.467 25.9365 171.867 25.2698C172.267 24.6032 172 23.6698 171.2 23.1365C170.533 22.7365 169.867 22.8698 169.867 23.5365C169.867 24.8698 160.933 24.6032 159.467 23.1365C158.933 22.7365 159.2 22.3365 159.867 22.4698C164 23.4032 165.2 21.4032 162.8 17.5365C161.2 14.8698 143.067 6.7365 131.067 3.40317C119.067 -0.0634967 100.4 -0.99683 88.5333 1.1365ZM109.867 3.40317C109.867 4.3365 109.333 5.1365 108.667 5.1365C108 5.1365 107.2 4.3365 106.8 3.40317C106.4 2.3365 106.933 1.5365 108 1.5365C109.067 1.5365 109.867 2.3365 109.867 3.40317ZM84.1333 4.60317C83.7333 5.00317 82.5333 5.1365 81.6 4.7365C80.5333 4.3365 80.9333 3.9365 82.4 3.9365C83.8667 3.80317 84.6667 4.20317 84.1333 4.60317ZM99.6 4.7365C98.6667 5.00317 97.0667 5.00317 96.2667 4.7365C95.3333 4.3365 96 4.06984 97.8667 4.06984C99.7333 4.06984 100.4 4.3365 99.6 4.7365ZM130.133 5.00317C130.533 3.9365 131.067 4.06984 132.267 5.40317C133.467 7.00317 133.333 7.26984 131.2 7.1365C129.733 7.00317 127.733 6.06984 126.8 5.1365C125.467 3.5365 125.6 3.5365 127.467 4.86984C129.067 6.20317 129.733 6.20317 130.133 5.00317ZM74.8 8.06984C74.4 9.1365 74 8.7365 74 7.26984C73.8667 5.80317 74.2667 5.00317 74.6667 5.5365C75.0667 5.9365 75.2 7.1365 74.8 8.06984ZM116.133 5.9365C115.733 6.3365 114.533 6.46984 113.6 6.06984C112.533 5.66984 112.933 5.26984 114.4 5.26984C115.867 5.1365 116.667 5.5365 116.133 5.9365ZM121.2 6.46984C121.6 7.1365 121.333 7.80317 120.667 7.80317C119.867 7.80317 119.2 7.1365 119.2 6.46984C119.2 5.66984 119.467 5.1365 119.733 5.1365C120.133 5.1365 120.8 5.66984 121.2 6.46984ZM125.867 7.9365C125.867 8.60317 125.333 9.1365 124.533 9.1365C123.867 9.1365 123.2 8.20317 123.2 7.00317C123.2 5.9365 123.867 5.40317 124.533 5.80317C125.333 6.20317 125.867 7.1365 125.867 7.9365ZM84.5333 8.3365C83.6 9.26984 82.8 9.26984 81.8667 8.3365C81.0667 7.5365 81.4667 7.00317 83.2 7.00317C84.9333 7.00317 85.3333 7.5365 84.5333 8.3365ZM105.467 7.26984C105.067 7.66984 103.867 7.80317 102.933 7.40317C101.867 7.00317 102.267 6.60317 103.733 6.60317C105.2 6.46984 106 6.86984 105.467 7.26984ZM139.2 9.00317C139.2 10.4698 138.667 11.9365 138.133 12.3365C136.533 13.2698 133.067 10.7365 134.267 9.5365C134.933 9.00317 136 9.40317 136.667 10.4698C137.733 11.9365 137.867 11.8032 137.2 9.40317C136.667 7.66984 136.933 6.46984 137.733 6.46984C138.533 6.46984 139.2 7.66984 139.2 9.00317ZM125.6 10.6032C127.333 11.2698 128.533 11.2698 128.533 10.4698C128.533 9.66984 129.467 9.1365 130.533 9.1365C131.733 9.1365 132.133 9.9365 131.6 11.1365C131.2 12.3365 131.333 13.1365 132 13.0032C133.467 12.6032 136.267 13.8032 146.8 18.7365C151.467 20.8698 155.867 22.2032 156.667 21.6698C157.6 21.1365 157.867 21.2698 157.467 22.0698C157.067 22.7365 159.6 25.6698 163.333 28.4698C170.133 33.9365 171.333 36.3365 167.867 37.6698C166.8 38.0698 165.867 39.0032 165.867 39.8032C165.867 40.6032 166.533 40.8698 167.467 40.3365C168.4 39.8032 168.533 39.9365 168 40.8698C167.467 41.8032 167.733 42.4698 168.533 42.4698C169.333 42.4698 169.6 43.0032 169.2 43.8032C168 45.6698 165.867 45.4032 166.133 43.4032C166.667 41.1365 162.933 41.4032 162.133 43.6698C161.733 44.7365 162.133 45.1365 162.933 44.6032C163.733 44.2032 164.667 44.3365 165.2 45.0032C166 46.4698 160.533 52.2032 159.333 51.1365C159.067 50.7365 159.867 49.5365 161.333 48.6032C163.733 46.7365 163.733 46.6032 161.467 45.6698C160.133 45.2698 158.933 45.0032 158.8 45.2698C158.667 45.5365 156.8 47.8032 154.533 50.3365C151.867 53.4032 151.333 54.6032 152.933 54.0698C156 53.0032 155.867 53.5365 152.267 56.6032C150.667 57.9365 149.867 58.3365 150.4 57.4032C152.133 54.4698 148.933 55.6698 146.8 58.7365C145.733 60.4698 142 64.7365 138.667 68.3365C133.467 73.8032 132.667 75.1365 134.133 77.0032C135.467 78.7365 135.467 78.8698 133.867 77.4032C131.333 75.2698 130.267 75.4032 129.333 77.9365C128.133 81.2698 129.733 82.6032 132.933 81.0032C135.867 79.6698 135.867 79.6698 133.2 82.0698C131.733 83.4032 130.4 85.4032 130.133 86.4698C129.867 87.5365 132.133 85.8032 135.067 82.6032C138 79.4032 140.133 76.2032 139.733 75.5365C139.333 74.8698 139.6 74.6032 140.4 74.7365C141.467 75.0032 155.2 61.8032 155.2 60.4698C155.2 60.3365 153.733 60.4698 151.867 60.8698C149.733 61.2698 148.667 62.2032 148.8 63.5365C149.067 64.7365 148.133 65.6698 146.133 65.8032L143.2 66.0698L146 62.8698C147.6 61.2698 150.8 59.5365 153.2 59.0032C157.467 58.2032 160.4 55.6698 169.333 45.4032C172 42.3365 174.533 39.8032 175.067 39.8032C175.467 39.8032 177.2 41.8032 178.933 44.3365C181.2 47.5365 182.8 48.6032 184.667 48.2032C186 47.8032 187.2 48.2032 187.2 49.0032C187.2 49.6698 186.267 50.0698 185.2 49.6698C182.8 48.7365 182.8 49.1365 184.533 53.6698C185.467 56.3365 185.333 57.1365 183.867 57.1365C182.933 57.1365 181.867 58.4698 181.6 60.0698C181.333 61.6698 180.267 63.2698 179.2 63.5365C177.467 64.2032 177.467 63.9365 179.2 61.6698C181.067 59.2698 181.067 59.2698 177.867 61.2698C176 62.4698 174.4 64.3365 174.4 65.2698C174.267 66.3365 174.133 67.5365 174 68.0698C173.6 70.4698 174 71.1365 175.6 71.2698C177.867 71.4032 182 67.6698 181.067 66.3365C180.667 65.6698 181.333 65.1365 182.533 65.1365C183.6 65.1365 184.933 64.2032 185.333 63.1365C186.8 59.4032 189.333 61.1365 192.267 67.8032C193.867 71.5365 195.2 75.0032 195.2 75.6698C195.2 76.2032 190.933 80.4698 185.733 85.1365C180.4 89.9365 176.667 94.2032 177.067 95.2698C177.467 96.3365 177.067 96.7365 175.733 96.2032C174.8 95.8032 173.867 96.2032 173.867 97.0032C173.867 97.6698 171.467 100.603 168.533 103.27C165.6 105.937 163.6 108.737 164 109.27C164.4 109.937 163.733 110.47 162.667 110.47C161.2 110.47 153.467 118.737 150.267 123.67C150.133 123.937 148.133 122.737 145.733 121.137C141.333 117.937 133.2 116.203 132 118.337C131.6 119.003 132.133 119.803 133.2 120.337C134.267 120.737 135.2 121.67 135.2 122.337C135.2 123.137 131.867 121.27 127.867 118.203C120.4 112.603 118 110.07 123.733 113.937C127.867 116.603 131.2 117.137 134.267 115.537C135.867 114.737 136.533 114.87 136.533 116.07C136.533 117.003 137.6 115.803 138.667 113.403C139.867 111.137 141.333 109.137 142 109.137C142.667 109.137 142.8 108.203 142.4 107.137C141.867 105.937 142.4 105.137 143.467 105.137C146.4 105.137 157.2 93.5365 154.933 92.7365C153.867 92.3365 154.267 91.9365 155.867 91.9365C159.333 91.8032 168.267 82.6032 168.133 79.2698C168.133 76.8698 168 76.8698 166.267 79.1365C165.333 80.4698 164.267 81.2698 163.867 80.8698C163.467 80.4698 164 79.2698 165.067 78.0698C166.133 77.0032 166.667 75.6698 166.133 75.2698C165.733 74.7365 166.4 74.7365 167.6 75.2698C168.933 75.8032 169.733 77.0032 169.333 77.9365C168.267 80.6032 169.333 80.2032 173.2 76.4698C177.2 72.3365 177.467 71.2698 173.733 73.1365C170.133 75.1365 169.6 74.4698 171.733 70.2032C173.333 67.1365 173.333 66.7365 171.733 67.4032C170.667 67.8032 169.867 68.6032 169.867 69.2698C169.867 69.8032 167.467 72.6032 164.533 75.2698C161.6 77.9365 159.6 80.7365 160.133 81.5365C160.533 82.3365 160.4 82.4698 159.6 82.0698C158.933 81.6698 154.8 84.7365 150.667 89.0032C143.733 95.9365 143.067 97.1365 144.4 99.6698C146 102.47 145.6 103.003 141.6 102.603C138 102.203 133.2 105.137 135.2 106.47C136.267 107.137 135.467 107.803 132.667 108.47C129.6 109.137 127.2 108.603 123.733 106.603C119.467 104.07 118.8 103.937 115.2 105.803C111.733 107.537 111.333 107.537 112 105.803C112.4 104.737 113.2 103.937 113.6 104.07C116.4 104.337 117.867 103.67 117.2 102.337C116.667 101.537 115.467 101.27 114.4 101.67C113.333 102.07 112.933 101.67 113.467 100.337C113.867 99.2698 115.2 98.7365 116.4 99.1365C119.2 99.9365 129.333 90.0698 127.867 87.8032C127.333 87.0032 127.6 85.5365 128.533 84.4698C131.6 80.8698 127.067 80.8698 123.733 84.4698C121.067 87.4032 120.667 88.4698 122.133 89.4032C123.333 90.2032 122.933 90.3365 121.067 89.8032C119.067 89.2698 117.867 89.8032 117.333 91.1365C115.6 95.9365 113.733 91.0032 113.733 81.4032C113.733 75.8032 113.733 69.9365 113.733 68.4698C113.733 67.0032 114 57.9365 114.4 48.4698C114.8 38.8698 115.067 25.9365 115.067 19.4032L115.2 7.80317L118.933 8.60317C120.933 9.1365 123.867 10.0698 125.6 10.6032ZM70.5333 10.4698C72.9333 11.5365 72.9333 11.8032 70.2667 12.3365C69.6 12.4698 68.4 13.0032 67.3333 13.6698C65.8667 14.6032 65.6 14.3365 66.2667 12.7365C66.6667 11.5365 66.4 10.3365 65.4667 9.9365C64.5333 9.5365 64.6667 9.40317 65.8667 9.26984C66.9333 9.26984 69.0667 9.80317 70.5333 10.4698ZM143.2 9.66984C143.2 10.0698 142.667 10.7365 141.867 11.1365C141.2 11.5365 140.533 11.2698 140.533 10.6032C140.533 9.80317 141.2 9.1365 141.867 9.1365C142.667 9.1365 143.2 9.40317 143.2 9.66984ZM61.6 12.3365C60.6667 13.4032 59.6 13.9365 59.3333 13.8032C58.6667 13.0032 60.6667 10.4698 62 10.4698C62.6667 10.4698 62.5333 11.2698 61.6 12.3365ZM113.867 11.8032C113.867 12.4698 112.933 13.1365 111.867 13.1365C110.8 13.1365 109.867 14.2032 109.867 15.4032C109.867 17.4032 109.6 17.5365 108.533 15.8032C107.6 14.3365 108.133 13.4032 110.267 12.2032C113.867 10.2032 113.867 10.2032 113.867 11.8032ZM149.333 13.6698C149.6 15.5365 149.467 15.5365 148.933 13.6698C148.533 12.4698 147.467 11.9365 146.4 12.3365C145.2 12.7365 144.8 12.4698 145.2 11.6698C146.533 9.66984 149.2 11.0032 149.333 13.6698ZM57.4667 13.9365C57.0667 14.3365 55.8667 14.4698 54.9333 14.0698C53.8667 13.6698 54.2667 13.2698 55.7333 13.2698C57.2 13.1365 58 13.5365 57.4667 13.9365ZM147.2 15.8032C147.2 16.4698 146.667 17.1365 145.867 17.1365C145.2 17.1365 144.533 16.4698 144.533 15.8032C144.533 15.0032 145.2 14.4698 145.867 14.4698C146.667 14.4698 147.2 15.0032 147.2 15.8032ZM60.9333 16.7365C60 17.0032 58.4 17.0032 57.6 16.7365C56.6667 16.3365 57.3333 16.0698 59.2 16.0698C61.0667 16.0698 61.7333 16.3365 60.9333 16.7365ZM113.467 18.7365C113.067 19.8032 112.667 19.4032 112.667 17.9365C112.533 16.4698 112.933 15.6698 113.333 16.2032C113.733 16.6032 113.867 17.8032 113.467 18.7365ZM55.7333 18.3365C56.1333 19.0032 55.3333 19.8032 53.8667 20.2032C52.4 20.6032 51.4667 20.3365 51.8667 19.8032C52.2667 19.1365 51.7333 18.3365 50.9333 18.0698C50 17.6698 50.5333 17.2698 52.1333 17.2698C53.7333 17.1365 55.3333 17.6698 55.7333 18.3365ZM49.8667 23.9365C49.8667 24.3365 48.4 25.4032 46.5333 26.2032C43.7333 27.5365 43.2 27.4032 43.2 25.8032C43.2 23.2698 41.3333 23.2698 39.2 25.8032C38.2667 26.8698 36.9333 27.8032 36.1333 27.8032C35.3333 27.8032 35.8667 26.7365 37.3333 25.2698C39.7333 23.0032 49.8667 21.9365 49.8667 23.9365ZM111.867 25.5365C114 26.2032 113.867 26.2032 111.333 26.0698C109.467 25.9365 107.867 24.8698 107.6 23.8032C107.2 22.4698 107.333 22.3365 108.133 23.2698C108.667 24.2032 110.4 25.1365 111.867 25.5365ZM36.1333 29.9365C35.7333 30.3365 34.5333 30.4698 33.6 30.0698C32.5333 29.6698 32.9333 29.2698 34.4 29.2698C35.8667 29.1365 36.6667 29.5365 36.1333 29.9365ZM112.533 31.2698C112.533 32.3365 111.733 32.7365 110.533 32.3365C109.467 31.8032 108.533 31.1365 108.533 30.6032C108.533 30.0698 109.467 29.5365 110.533 29.5365C111.6 29.5365 112.533 30.3365 112.533 31.2698ZM37.8667 33.1365C36.8 33.8032 35.6 34.0698 35.3333 33.6698C34.9333 33.2698 35.4667 32.4698 36.5333 31.8032C37.6 31.1365 38.8 30.8698 39.0667 31.2698C39.4667 31.6698 38.9333 32.4698 37.8667 33.1365ZM173.867 31.0032C173.867 31.2698 172.933 31.8032 171.867 32.3365C170.8 32.7365 169.867 32.4698 169.867 31.8032C169.867 31.0032 170.8 30.4698 171.867 30.4698C172.933 30.4698 173.867 30.7365 173.867 31.0032ZM179.733 33.2698C180.133 33.6698 179.2 33.9365 177.867 34.0698C176.4 34.2032 175.2 33.8032 175.2 33.1365C175.2 32.0698 178.533 32.0698 179.733 33.2698ZM109.867 34.4698C109.867 35.1365 109.333 35.8032 108.533 35.8032C107.867 35.8032 107.2 35.1365 107.2 34.4698C107.2 33.6698 107.867 33.1365 108.533 33.1365C109.333 33.1365 109.867 33.6698 109.867 34.4698ZM29.6 36.8698C30.4 39.2698 27.6 38.7365 26.6667 36.3365C26.1333 35.0032 26.5333 34.4698 27.4667 34.7365C28.2667 35.0032 29.3333 36.0698 29.6 36.8698ZM173.333 35.6698C172.8 36.3365 173.2 37.1365 174.133 37.4032C175.2 37.8032 175.067 38.2032 173.733 38.7365C172.4 39.2698 171.733 38.6032 171.6 37.0032C171.467 35.6698 172 34.4698 172.667 34.4698C173.467 34.4698 173.733 35.0032 173.333 35.6698ZM179.2 37.1365C179.2 37.8032 178.533 38.4698 177.733 38.4698C177.067 38.4698 176.8 37.8032 177.2 37.1365C177.6 36.3365 178.267 35.8032 178.667 35.8032C178.933 35.8032 179.2 36.3365 179.2 37.1365ZM183.867 38.4698C184.267 39.2698 183.733 39.4032 182.667 39.0032C180.267 38.0698 179.867 37.1365 181.733 37.1365C182.533 37.1365 183.467 37.6698 183.867 38.4698ZM27.2 41.8032C28.5333 43.4032 28.5333 43.8032 26.6667 43.8032C25.4667 43.8032 24.5333 42.8698 24.5333 41.8032C24.5333 40.7365 24.8 39.8032 25.0667 39.8032C25.3333 39.8032 26.2667 40.7365 27.2 41.8032ZM18.2667 51.0032C18.6667 52.0698 18 53.1365 16.5333 53.5365C14.4 54.0698 14.2667 53.8032 15.6 51.6698C17.4667 48.6032 17.3333 48.6032 18.2667 51.0032ZM22.4 51.1365C21.8667 52.2032 21.3333 53.1365 21.0667 53.1365C20.8 53.1365 20.5333 52.2032 20.5333 51.1365C20.5333 50.0698 21.0667 49.1365 21.8667 49.1365C22.5333 49.1365 22.8 50.0698 22.4 51.1365ZM191.2 49.6698C191.2 50.0698 190.667 50.7365 189.867 51.1365C189.2 51.5365 188.533 51.2698 188.533 50.6032C188.533 49.8032 189.2 49.1365 189.867 49.1365C190.667 49.1365 191.2 49.4032 191.2 49.6698ZM112.133 52.4698C112.133 53.5365 111.6 54.0698 110.933 53.6698C110.4 53.2698 109.867 52.4698 109.867 51.6698C109.867 51.0032 110.4 50.4698 110.933 50.4698C111.6 50.4698 112.133 51.4032 112.133 52.4698ZM159.867 54.3365C159.067 55.0032 156.533 53.0032 156.533 51.6698C156.533 51.0032 157.333 51.1365 158.4 52.0698C159.467 53.0032 160 54.0698 159.867 54.3365ZM195.067 56.3365C194.667 56.7365 193.6 55.6698 192.667 54.0698C190.933 51.2698 191.067 51.2698 193.333 53.4032C194.667 54.7365 195.467 56.0698 195.067 56.3365ZM190.4 57.8032C189.467 59.9365 187.2 60.6032 187.2 58.6032C187.2 57.5365 188.133 56.8698 190.8 55.9365C190.933 55.8032 190.8 56.7365 190.4 57.8032ZM14.9333 60.4698C14.5333 60.8698 13.7333 60.2032 13.3333 58.8698C12.5333 57.0032 12.6667 56.8698 14 58.0698C14.9333 59.0032 15.3333 60.0698 14.9333 60.4698ZM197.6 60.7365C197.867 61.6698 197.067 62.4698 195.867 62.4698C194.667 62.4698 194 61.9365 194.533 61.2698C194.933 60.6032 194.133 59.6698 192.933 59.2698C191.467 58.8698 191.733 58.7365 193.733 58.8698C195.6 59.0032 197.2 59.9365 197.6 60.7365ZM193.467 66.7365C193.067 67.8032 192.667 67.4032 192.667 65.9365C192.533 64.4698 192.933 63.6698 193.333 64.2032C193.733 64.6032 193.867 65.8032 193.467 66.7365ZM198.4 65.0032C198.8 65.6698 198.4 66.4698 197.467 66.8698C196.4 67.2698 195.6 66.7365 195.6 65.6698C195.6 63.5365 197.333 63.1365 198.4 65.0032ZM12.4 67.6698C13.6 68.4698 13.8667 69.5365 12.9333 71.1365C12 72.7365 11.2 73.0032 10.6667 71.9365C10.1333 71.1365 10.5333 70.4698 11.4667 70.4698C12.8 70.4698 12.6667 70.0698 11.2 69.2698C10.1333 68.4698 8.8 68.3365 8 68.7365C7.33333 69.1365 7.2 68.8698 7.73333 68.0698C8.93333 66.2032 9.86667 66.0698 12.4 67.6698ZM178.533 67.8032C178.933 68.4698 178.667 69.1365 178 69.1365C177.2 69.1365 176.533 68.4698 176.533 67.8032C176.533 67.0032 176.8 66.4698 177.067 66.4698C177.467 66.4698 178.133 67.0032 178.533 67.8032ZM144.933 70.0698C144.133 71.9365 139.333 73.8032 138.133 72.6032C137.733 72.0698 138.667 71.4032 140.4 70.8698C142.667 70.3365 142.933 69.8032 141.6 69.0032C140.4 68.2032 140.8 67.9365 142.8 68.0698C144.4 68.2032 145.333 69.0032 144.933 70.0698ZM112.533 72.7365C112.533 73.5365 111.867 74.7365 110.933 75.2698C110 75.8032 109.867 75.6698 110.4 74.7365C110.933 73.8032 110.533 73.1365 109.333 73.1365C108.133 73.1365 107.2 72.6032 107.2 72.0698C107.2 71.5365 108.4 71.0032 109.867 71.0032C111.333 71.0032 112.533 71.8032 112.533 72.7365ZM9.2 73.1365C9.6 73.8032 9.06667 74.4698 7.86667 74.4698C6.66667 74.4698 6.13333 73.8032 6.53333 73.1365C6.93333 72.3365 7.6 71.8032 7.86667 71.8032C8.13333 71.8032 8.8 72.3365 9.2 73.1365ZM137.867 75.9365C137.867 76.7365 137.333 76.8698 136.533 76.4698C135.867 76.0698 135.2 75.0032 135.2 74.3365C135.2 73.5365 135.867 73.4032 136.533 73.8032C137.333 74.2032 137.867 75.2698 137.867 75.9365ZM203.067 78.4698C204.533 81.6698 204.533 81.6698 202.667 79.2698C201.467 77.8032 200.533 76.0698 200.533 75.2698C200.533 73.6698 201.2 74.3365 203.067 78.4698ZM199.2 78.4698C199.2 79.1365 198.533 79.8032 197.733 79.8032C197.067 79.8032 196.8 79.1365 197.2 78.4698C197.6 77.6698 198.267 77.1365 198.667 77.1365C198.933 77.1365 199.2 77.6698 199.2 78.4698ZM8.93333 80.7365C8 81.0032 6.4 81.0032 5.6 80.7365C4.66667 80.3365 5.33333 80.0698 7.2 80.0698C9.06667 80.0698 9.73333 80.3365 8.93333 80.7365ZM193.2 82.4698C192 84.3365 194.267 84.0698 196.4 82.0698C197.733 81.0032 198 81.0032 197.333 82.0698C196.933 82.8698 197.067 83.9365 197.867 84.4698C198.533 84.8698 199.2 88.2032 199.2 91.8032C199.2 96.6032 199.733 98.3365 201.467 99.1365C202.8 99.5365 204 99.2698 204.267 98.6032C204.8 97.0032 207.2 97.9365 207.2 99.8032C207.2 100.337 205.733 100.737 203.867 100.603C201.467 100.337 199.733 101.403 197.2 105.003C195.2 107.67 190.8 112.203 187.2 115.137C183.6 118.07 180.933 121.27 181.333 122.203C181.6 123.137 181.333 123.67 180.667 123.27C179.733 122.603 176.667 125.537 170.8 132.737C167.6 136.737 168.933 136.737 172.533 132.737C175.067 130.07 175.333 130.07 174.4 132.47C173.467 134.87 173.6 134.87 175.6 133.27C176.8 132.337 177.467 131.003 177.067 130.337C176.667 129.67 176.667 129.137 177.067 129.137C177.333 129.137 178.667 128.737 180 128.203C182 127.403 181.867 127.803 179.467 130.47C177.867 132.203 176.533 134.203 176.533 134.87C176.533 135.537 175.733 135.803 174.933 135.403C174 135.137 172.267 135.27 171.067 135.937C169.6 136.603 167.333 135.937 164 133.67C161.333 131.803 158.667 130.603 158.133 131.003C157.6 131.27 156.933 130.47 156.933 129.003C156.8 127.137 161.333 121.403 170.133 112.337C182 99.9365 183.2 98.0698 181.6 96.0698C180.133 94.0698 180.133 93.9365 182 95.4032C183.733 96.7365 185.067 96.0698 190.667 90.8698C194.267 87.5365 196.267 85.4032 194.933 86.3365C193.2 87.6698 192.667 87.5365 192.133 85.5365C191.733 83.5365 191.467 83.6698 190.267 86.3365C189.2 89.0032 188.8 89.1365 188.133 87.4032C187.6 85.9365 188.4 84.4698 190.267 83.1365C193.6 80.7365 194.4 80.6032 193.2 82.4698ZM201.333 82.3365C200.8 83.0032 201.2 83.8032 202.133 84.0698C203.067 84.4698 203.2 85.4032 202.533 86.3365C201.733 87.8032 201.2 87.6698 200.267 85.9365C199.2 83.9365 199.733 81.1365 201.333 81.1365C201.733 81.1365 201.733 81.6698 201.333 82.3365ZM8.26667 86.2032C8.53333 87.8032 8.13333 89.1365 7.33333 89.1365C6.53333 89.1365 6.26667 88.2032 6.8 87.0032C7.2 85.8032 6.8 84.3365 5.73333 83.5365C4.13333 82.4698 4.26667 82.3365 5.86667 82.8698C6.93333 83.1365 8 84.6032 8.26667 86.2032ZM164.533 83.6698C164.533 84.3365 163.6 85.2698 162.4 85.6698C160.533 86.3365 160.4 86.2032 161.867 84.4698C163.733 82.2032 164.533 81.9365 164.533 83.6698ZM111.867 85.1365C112.267 85.8032 112 86.4698 111.333 86.4698C110.533 86.4698 109.867 85.8032 109.867 85.1365C109.867 84.3365 110.133 83.8032 110.4 83.8032C110.8 83.8032 111.467 84.3365 111.867 85.1365ZM160.267 88.6032C160.533 88.7365 159.6 89.2698 158.267 89.6698C157.067 90.2032 156.4 90.2032 156.933 89.6698C157.467 89.1365 157.067 87.8032 156.133 86.6032C154.667 84.7365 154.8 84.6032 157.2 86.4698C158.667 87.5365 160 88.4698 160.267 88.6032ZM111.2 88.3365C111.2 88.6032 110.267 89.2698 109.067 89.6698C108 90.0698 107.467 89.9365 107.867 89.1365C108.667 87.8032 111.2 87.2698 111.2 88.3365ZM203.733 90.6032C204.267 89.8032 205.333 89.1365 206.267 89.1365C207.067 89.1365 206.533 89.9365 205.2 91.0032C202.4 93.0032 200.533 92.6032 200.533 90.0698C200.533 89.0032 200.933 89.0032 201.733 90.3365C202.533 91.5365 203.2 91.6698 203.733 90.6032ZM185.867 92.4698C185.867 92.7365 184.667 92.8698 183.333 92.7365C181.867 92.7365 180.933 92.0698 181.333 91.5365C181.867 90.7365 185.867 91.5365 185.867 92.4698ZM120.8 94.2032C119.867 94.4698 119.467 95.2698 119.867 95.8032C120.267 96.4698 119.867 97.4032 119.067 97.9365C118 98.6032 117.867 98.3365 118.533 97.1365C119.333 95.8032 119.067 95.5365 117.467 96.2032C116.133 96.6032 115.2 96.7365 115.2 96.2032C115.2 94.7365 119.867 92.0698 121.067 92.8698C121.867 93.2698 121.733 93.8032 120.8 94.2032ZM2.8 96.0698C2.4 97.1365 2 96.7365 2 95.2698C1.86667 93.8032 2.26667 93.0032 2.66667 93.5365C3.06667 93.9365 3.2 95.1365 2.8 96.0698ZM151.067 95.0032C152.267 96.4698 152.267 97.1365 151.067 97.9365C150 98.4698 149.867 98.3365 150.4 97.4032C150.933 96.4698 150.533 95.8032 149.333 95.8032C148.133 95.8032 147.2 95.1365 147.2 94.4698C147.2 92.6032 149.333 92.8698 151.067 95.0032ZM109.6 96.0698C109.333 97.0032 110 97.6698 110.933 97.4032C111.733 97.2698 112.533 97.6698 112.533 98.4698C112.533 101.137 107.733 99.8032 107.6 97.1365C107.467 95.6698 107.867 94.4698 108.667 94.4698C109.333 94.4698 109.733 95.2698 109.6 96.0698ZM148.533 98.4698C148.533 99.1365 148 99.8032 147.2 99.8032C146.533 99.8032 145.867 99.1365 145.867 98.4698C145.867 97.6698 146.533 97.1365 147.2 97.1365C148 97.1365 148.533 97.6698 148.533 98.4698ZM179.6 99.5365C178.933 100.07 177.733 101.537 176.933 103.003C175.733 105.27 175.467 105.27 174.933 102.337C174.533 99.6698 174.933 99.1365 177.6 98.8698C179.467 98.8698 180.4 99.1365 179.6 99.5365ZM173.333 104.737C172 106.07 170.8 104.07 172 102.337C172.8 100.87 173.067 100.87 173.6 102.337C173.867 103.27 173.733 104.337 173.333 104.737ZM201.867 103.803C201.867 104.47 201.2 105.137 200.4 105.137C199.733 105.137 199.467 104.47 199.867 103.803C200.267 103.003 200.933 102.47 201.333 102.47C201.6 102.47 201.867 103.003 201.867 103.803ZM140 106.737C139.6 109.803 137.733 111.803 135.6 111.803C133.2 111.803 134.533 109.803 136.933 109.803C137.867 109.803 138.4 108.737 138.133 107.403C137.867 106.203 138.267 105.137 139.067 105.137C139.733 105.137 140.133 105.937 140 106.737ZM171.733 107.67C172.267 108.337 171.6 108.737 170.533 108.603C167.733 108.203 166.4 106.47 168.933 106.47C170.133 106.47 171.333 107.003 171.733 107.67ZM6.66667 111.67C6.8 112.47 6.66667 112.603 6.4 111.937C6 111.137 4.8 111.003 3.73333 111.403C2.66667 111.803 1.86667 111.537 1.86667 110.737C1.86667 108.87 6.26667 109.67 6.66667 111.67ZM199.867 116.07C198.4 127.403 195.2 138.603 191.733 144.603C187.733 151.403 187.733 151.937 191.733 150.07C193.467 149.137 194.667 148.07 194.4 147.537C193.6 146.337 198.533 143.67 199.733 144.737C200.133 145.137 199.333 146.47 197.733 147.537C196.267 148.603 195.333 150.203 195.733 151.27C196.533 153.403 194.4 155.137 193.2 153.137C192.8 152.337 190.8 152.07 188.933 152.337C187.067 152.737 185.867 152.603 186.267 152.203C186.8 151.803 184.667 149.67 181.733 147.537C177.733 144.603 175.867 144.07 174 145.003C172.267 145.937 171.6 145.803 171.6 144.47C171.6 143.403 172.533 143.003 173.733 143.537C175.467 144.07 175.333 143.67 173.333 141.403C171.067 138.87 171.333 137.937 174 138.203C174.533 138.337 177.333 135.403 180.4 131.803C183.467 128.07 185.333 125.137 184.667 125.137C183.867 125.137 183.2 125.803 183.2 126.603C183.2 127.27 182.533 127.537 181.733 127.003C180.667 126.47 181.333 125.537 183.333 124.337C185.067 123.403 187.067 123.003 187.733 123.403C188.933 124.203 199.2 113.67 199.2 111.67C199.2 111.137 198 111.003 196.4 111.403C194.533 111.937 194.133 112.47 195.2 113.137C196.267 113.803 196.267 114.47 195.467 115.003C194.8 115.403 193.733 114.87 193.333 113.803C192.8 112.47 193.6 111.27 195.6 110.47C200.533 108.47 200.8 108.87 199.867 116.07ZM164.8 113.537C164.133 114.47 163.333 116.07 162.933 117.137C162.533 118.47 162.133 117.937 161.6 115.67C161.2 113.137 161.6 112.337 163.6 112.203C165.333 112.07 165.733 112.47 164.8 113.537ZM4.53333 113.67C4.53333 114.07 4 114.737 3.2 115.137C2.53333 115.537 1.86667 115.27 1.86667 114.603C1.86667 113.803 2.53333 113.137 3.2 113.137C4 113.137 4.53333 113.403 4.53333 113.67ZM160 117.803C159.6 119.003 158.533 119.537 157.867 119.137C156.8 118.47 156.933 117.67 158 116.337C159.867 113.937 161.2 114.87 160 117.803ZM188.667 116.203C187.867 117.27 187.6 118.47 188.133 118.87C188.533 119.403 188.267 119.803 187.467 119.803C185.467 119.803 185.467 118.07 187.467 116.07C189.6 113.937 190.533 114.07 188.667 116.203ZM205.333 121.137C205.333 123.403 204.667 125.137 203.733 125.137C202 125.137 200 121.27 201.2 120.07C201.6 119.67 201.867 120.07 201.867 120.87C201.867 121.803 202.533 122.47 203.333 122.47C204.133 122.47 204.533 121.67 204.133 120.603C203.467 119.137 204.133 117.137 205.2 117.137C205.333 117.137 205.333 118.87 205.333 121.137ZM5.06667 120.07C4.66667 120.603 3.86667 121.137 3.06667 121.137C2.4 121.137 1.86667 120.603 1.86667 120.07C1.86667 119.403 2.8 118.87 3.86667 118.87C4.93333 118.87 5.46667 119.403 5.06667 120.07ZM138.533 121.137C138.933 121.803 138.667 122.47 138 122.47C137.2 122.47 136.533 121.803 136.533 121.137C136.533 120.337 136.8 119.803 137.067 119.803C137.467 119.803 138.133 120.337 138.533 121.137ZM144.533 122.47C146.267 123.937 147.067 125.137 146.267 125.137C145.6 125.137 143.867 123.937 142.533 122.47C141.2 121.003 140.4 119.803 140.8 119.803C141.2 119.803 142.8 121.003 144.533 122.47ZM159.2 121.67C159.2 123.137 156.667 123.67 155.867 122.47C155.467 121.803 156 121.137 157.067 121.137C158.267 121.137 159.2 121.403 159.2 121.67ZM7.6 124.737C6.66667 125.003 5.06667 125.003 4.26667 124.737C3.33333 124.337 4 124.07 5.86667 124.07C7.73333 124.07 8.4 124.337 7.6 124.737ZM147.467 127.403C146.667 127.67 146.133 128.603 146.667 129.27C147.067 129.937 146.667 130.47 146 130.47C144.4 130.47 144.133 128.737 145.467 127.403C145.867 126.87 146.933 126.47 147.733 126.603C148.533 126.603 148.4 127.003 147.467 127.403ZM201.2 127.803C200.8 128.47 201.333 129.137 202.4 129.137C203.6 129.137 204.533 129.67 204.533 130.47C204.533 131.137 204 131.803 203.333 131.803C201.6 131.803 199.067 128.337 200.133 127.403C201.467 126.07 202.133 126.337 201.2 127.803ZM201.2 132.87C202.933 134.07 203.6 137.537 201.867 136.47C201.2 136.07 200.533 136.337 200.533 137.003C200.533 137.803 199.467 138.47 198.267 138.337C196.8 138.337 196.533 137.937 197.6 137.537C198.4 137.27 198.8 136.203 198.4 135.537C197.867 134.603 198.133 134.47 198.933 135.003C199.867 135.537 200.533 135.403 200.533 134.603C200.533 133.937 199.733 133.003 198.933 132.737C198 132.337 197.867 131.937 198.533 131.937C199.333 131.937 200.533 132.337 201.2 132.87ZM164.933 139.403C164 139.67 162.133 139.67 160.933 139.403C159.6 139.003 160.4 138.737 162.533 138.737C164.8 138.737 165.733 139.003 164.933 139.403ZM197.867 141.67C197.867 142.07 197.333 142.737 196.533 143.137C195.867 143.537 195.2 143.27 195.2 142.603C195.2 141.803 195.867 141.137 196.533 141.137C197.333 141.137 197.867 141.403 197.867 141.67ZM11.2 143.803C11.2 144.47 10.9333 145.137 10.6667 145.137C10.2667 145.137 9.6 144.47 9.2 143.803C8.8 143.003 9.06667 142.47 9.73333 142.47C10.5333 142.47 11.2 143.003 11.2 143.803ZM170 147.403C171.733 149.403 171.6 149.403 168.933 147.937C165.733 146.337 165.067 145.137 167.067 145.137C167.733 145.137 169.067 146.07 170 147.403ZM176.533 149.803C177.867 151.403 177.867 151.803 176.133 151.803C175.067 151.803 173.867 150.87 173.333 149.803C172.933 148.737 173.067 147.803 173.733 147.803C174.4 147.803 175.6 148.737 176.533 149.803ZM183.867 150.47C184.267 151.137 184.133 151.803 183.333 151.803C182.667 151.803 181.6 151.137 181.2 150.47C180.8 149.67 180.933 149.137 181.733 149.137C182.4 149.137 183.467 149.67 183.867 150.47ZM189.867 162.47C189.867 163.137 188.8 163.803 187.6 163.803C185.6 163.803 185.467 163.537 187.2 162.47C189.733 160.87 189.867 160.87 189.867 162.47ZM185.867 169.403C185.867 170.87 184.267 170.737 181.867 169.137C180.267 168.203 180.533 167.937 182.933 168.203C184.533 168.203 185.867 168.87 185.867 169.403ZM181.6 174.47C179.467 177.803 176 179.003 173.067 177.403C171.067 176.337 171.067 176.07 173.067 175.403C174.4 174.87 175.067 175.003 174.533 175.803C173.067 178.07 177.467 177.27 179.333 174.87C180.933 172.87 180.933 172.737 178.8 173.537C177.333 174.07 176.667 173.937 177.2 173.137C177.6 172.337 179.2 171.803 180.667 171.803C182.933 171.803 183.067 172.203 181.6 174.47ZM37.0667 182.337C36.8 182.737 35.4667 181.937 34.1333 180.603C32 178.337 32 178.203 34.8 179.937C36.4 180.87 37.4667 181.937 37.0667 182.337ZM41.8667 179.803C43.6 180.87 43.6 181.137 41.6 181.137C40.4 181.137 38.9333 180.47 38.5333 179.803C37.4667 178.07 39.2 178.07 41.8667 179.803ZM171.2 181.27C171.2 181.803 169.733 182.07 168 181.937C166.267 181.937 165.067 181.403 165.333 180.87C166.133 179.67 171.2 180.07 171.2 181.27ZM175.2 181.137C175.2 181.803 174.667 182.47 173.867 182.47C173.2 182.47 172.533 181.803 172.533 181.137C172.533 180.337 173.2 179.803 173.867 179.803C174.667 179.803 175.2 180.337 175.2 181.137ZM169.867 185.137C168.8 185.803 166.933 186.337 165.867 186.337C164.533 186.337 164.8 185.937 166.533 185.137C170.133 183.537 172.267 183.537 169.867 185.137ZM161.867 185.67C161.867 185.937 160.933 186.47 159.867 187.003C158.8 187.403 157.867 187.137 157.867 186.47C157.867 185.67 158.8 185.137 159.867 185.137C160.933 185.137 161.867 185.403 161.867 185.67ZM163.2 188.337C163.2 188.603 162.133 189.67 160.933 190.603C158.8 192.336 158.667 192.203 160.4 190.07C162.133 187.937 163.2 187.27 163.2 188.337ZM156.533 191.137C159.2 194.336 157.2 194.87 153.733 191.936C151.2 189.803 151.067 189.27 152.667 189.137C153.867 189.137 155.6 190.07 156.533 191.137ZM63.4667 193.803C63.4667 194.47 62.8 195.27 62 195.536C61.2 195.803 60.5333 195.003 60.5333 193.803C60.5333 192.603 61.2 191.803 62 192.07C62.8 192.336 63.4667 193.136 63.4667 193.803ZM57.8667 193.936C57.8667 195.003 55.3333 195.67 54.6667 194.736C54.2667 194.07 54.8 193.536 55.8667 193.536C56.9333 193.536 57.8667 193.803 57.8667 193.936ZM70.1333 197.803C69.7333 199.936 70 200.07 71.7333 198.603C73.8667 196.87 76.5333 197.67 76.5333 200.07C76.5333 201.003 75.8667 200.87 74.6667 199.936C73.3333 198.87 72.5333 198.736 71.8667 199.803C70.6667 201.803 68.5333 201.403 68.5333 199.136C68.5333 198.07 67.6 197.136 66.4 197.136C65.3333 197.136 64.8 197.67 65.2 198.47C66.2667 200.07 64.5333 200.203 62 198.603C60.6667 197.803 61.2 197.136 64 196.07C68.9333 194.336 70.6667 194.87 70.1333 197.803ZM83.7333 199.403C84.2667 199.936 85.7333 200.47 86.9333 200.47C88.2667 200.47 89.0667 201.403 89.0667 202.736C88.9333 204.07 89.7333 205.136 90.9333 205.136C92 205.136 92.6667 205.536 92.1333 205.936C90.5333 207.67 86 205.003 86.6667 202.736C87.3333 200.736 87.2 200.736 85.4667 202.736C84.4 204.07 83.0667 205.136 82.5333 205.136C82 205.136 82.2667 204.203 83.2 203.136C84.2667 201.936 84.4 201.136 83.4667 201.136C82.6667 201.136 81.6 201.67 81.2 202.47C80.8 203.136 79.6 203.803 78.8 203.803C77.8667 203.803 78 203.27 79.2 202.47C80.9333 201.27 80.9333 201.003 79.2 199.803C77.6 198.736 77.7333 198.47 80 198.47C81.4667 198.47 83.2 198.87 83.7333 199.403ZM128.267 201.803C127.867 202.203 127.067 201.536 126.667 200.203C125.867 198.336 126 198.203 127.333 199.403C128.267 200.336 128.667 201.403 128.267 201.803ZM95.8667 202.47C92.2667 204.07 90.1333 204.07 92.5333 202.47C93.6 201.803 95.4667 201.27 96.5333 201.27C97.8667 201.27 97.6 201.67 95.8667 202.47ZM107.067 202.07C108.267 201.003 108.667 201.003 108.133 201.936C107.6 202.87 108.267 203.803 109.867 204.203C111.2 204.603 112.667 204.203 113.067 203.27C113.333 202.47 113.733 202.87 113.733 204.07C113.867 206.203 111.867 206.47 107.6 205.27C106.533 205.003 105.2 205.936 105.6 206.736C105.733 207.403 104.4 207.803 102.667 207.803C99.2 207.803 97.0667 204.47 99.4667 203.003C100.267 202.47 100.533 202.603 100 203.536C98.8 205.536 101.733 207.136 103.6 205.27C104.667 204.203 104.667 203.803 103.467 203.803C102.533 203.803 101.867 203.136 101.867 202.203C101.867 201.003 102.267 201.003 103.467 202.203C104.667 203.403 105.467 203.403 107.067 202.07Z" fill="black"/>
<path d="M139.867 99.8029C139.467 100.47 140 101.136 141.2 101.136C142.4 101.136 142.933 100.47 142.533 99.8029C142.133 99.0029 141.467 98.4696 141.2 98.4696C140.933 98.4696 140.267 99.0029 139.867 99.8029Z" fill="black"/>
<path d="M165.2 21.1364C165.6 21.8031 166.667 22.4697 167.333 22.4697C168.133 22.4697 168.267 21.8031 167.867 21.1364C167.467 20.3364 166.4 19.8031 165.733 19.8031C164.933 19.8031 164.8 20.3364 165.2 21.1364Z" fill="black"/>
</svg>
