<svg width="80" height="125" viewBox="0 0 80 125" fill="none" xmlns="http://www.w3.org/2000/svg">
<path d="M28.6667 3.68299C22 11.5497 18.8 22.7497 22.1333 27.0163C24.4 30.083 24.5333 32.2163 22.1333 30.2163C20.6667 28.883 20.5333 29.683 21.4667 35.0163C22.1333 38.483 23.7333 43.5497 25.0667 46.2163L27.4667 51.0163L21.8667 50.3497C9.6 49.0163 0 54.083 0 62.083C0 66.7497 6 75.1497 7.2 72.083C7.6 70.883 8.66667 70.3497 9.33333 70.7497C10.4 71.4163 10.2667 72.3497 9.06667 73.8163C7.6 75.5497 7.73333 75.8163 9.6 75.0163C11.0667 74.483 11.8667 74.7497 11.6 75.683C11.0667 78.483 21.4667 81.0163 30 80.2163C40 79.283 45.3333 78.083 45.3333 76.7497C45.3333 76.083 43.7333 75.8163 41.7333 76.083C37.0667 76.6163 31.8667 75.4163 32.6667 74.083C32.9333 73.5497 29.6 72.7497 25.2 72.3497C20.8 71.9497 16.4 71.0163 15.3333 70.083C14.2667 69.283 12.6667 69.0163 11.7333 69.5497C10.8 70.083 10.4 70.083 10.9333 69.5497C12 68.3497 9.06667 64.7497 7.73333 65.5497C6.26667 66.483 8.4 60.083 9.86667 59.1497C14.4 56.083 31.2 59.4163 38.9333 64.883C43.7333 68.3497 43.6 69.683 38.4 71.9497L34 73.8163L38.9333 73.1497C41.8667 72.7497 44.8 73.0163 45.8667 73.9497C47.2 75.1497 48.4 74.883 50.8 72.7497C53.3333 70.7497 53.6 69.9497 52.2667 69.0163C50.8 67.9497 50.8 67.683 52.5333 67.0163C56.5333 65.4163 56.4 69.283 52.1333 73.0163C48.1333 76.6163 48 77.0163 50 79.683C51.0667 81.4163 52 83.8163 52 85.1497C52 86.483 52.4 87.283 53.0667 87.0163C53.6 86.6163 54.1333 88.483 54.2667 91.1497C54.4 93.683 54.9333 96.2163 55.6 96.6163C56.1333 97.0163 56.8 100.75 56.9333 104.75C57.3333 119.416 57.8667 123.683 59.7333 124.35C60.6667 124.75 62.1333 124.483 62.8 123.816C64.5333 122.083 65.4667 112.75 63.8667 112.75C63.2 112.75 62.6667 113.283 62.6667 114.083C62.6667 116.216 60 115.683 59.0667 113.283C58.6667 112.216 59.0667 110.483 60 109.683C61.3333 108.483 61.4667 108.483 60.8 109.683C60.1333 110.75 60.6667 111.416 62.1333 111.416C64.1333 111.416 64.2667 110.35 63.6 101.95C62.6667 91.4163 62.4 90.7497 59.2 91.9497C57.0667 92.7497 57.2 93.0163 59.4667 94.7497C61.6 96.2163 61.7333 96.883 60.2667 98.3497C58.8 99.8163 58.6667 99.683 59.3333 97.9497C59.8667 96.6163 59.3333 95.4163 58.1333 95.0163C54.5333 93.5497 55.6 90.083 59.6 90.083C63.0667 90.083 63.0667 90.083 60.5333 87.1497C59.2 85.5497 58.8 84.7497 59.7333 85.283C61.7333 86.483 58.5333 77.8163 55.7333 74.483C54.6667 73.1497 54.9333 72.083 56.6667 70.083C58 68.6163 58.5333 67.4163 57.8667 67.4163C56.2667 67.4163 55.7333 62.3497 57.3333 61.4163C57.8667 61.0163 58.8 61.683 59.2 62.883C59.7333 64.2163 59.4667 64.6163 58.2667 63.9497C57.0667 63.283 57.0667 63.4163 58.2667 64.7497C59.6 66.2163 60.4 65.9497 62.5333 63.283C64 61.5497 65.2 59.4163 65.2 58.7497C65.2 57.9497 64.4 58.483 63.4667 59.8163C62.2667 61.4163 61.3333 61.683 60.6667 60.883C60.2667 60.083 60.2667 59.4163 60.9333 59.4163C61.4667 59.4163 61.0667 58.7497 60 57.9497C58.5333 57.0163 59.0667 56.7497 62.1333 57.1497C65.6 57.683 66.8 57.0163 69.8667 53.1497C74.5333 47.4163 79.0667 37.1497 78.1333 34.6163C77.7333 33.5497 78.1333 32.7497 79.0667 32.7497C80 32.6163 78.9333 31.1497 76.6667 29.283L72.6667 25.9497L76.4 27.4163C80 28.6163 80.1333 28.6163 79.2 25.8163C78.8 24.083 77.7333 21.9497 77.0667 21.0163C75.3333 19.0163 68.1333 18.883 63.0667 20.883C60.1333 21.9497 59.7333 22.483 61.3333 23.683C62.9333 24.7497 62.9333 24.883 61.0667 24.2163C58.1333 23.283 54.4 24.6163 55.4667 26.2163C55.8667 26.883 55.2 27.4163 54 27.4163C52.9333 27.4163 51.3333 28.7497 50.8 30.3497C49.3333 33.9497 48.5333 32.3497 47.3333 24.2163C46.5333 18.483 45.4667 16.3497 45.2 19.8163C44.9333 23.683 44.6667 24.483 43.7333 25.4163C42.8 26.3497 40.9333 19.283 40.6667 13.683C40.6667 11.683 41.0667 10.083 41.6 10.083C42.6667 10.083 43.2 12.083 42.8 15.0163C42.6667 15.9497 43.2 16.7497 44 16.7497C46.4 16.7497 45.4667 11.9497 41.8667 6.61632C37.7333 0.349652 38.5333 1.28299 35.2 0.216318C32.9333 -0.450348 31.4667 0.349652 28.6667 3.68299ZM38 3.41632C39.0667 5.14965 37.3333 5.14965 34.6667 3.41632C32.9333 2.34965 32.9333 2.08299 34.9333 2.08299C36.1333 2.08299 37.6 2.61632 38 3.41632ZM34.2667 6.61632C33.8667 7.68299 34.4 8.88299 35.6 9.28299C37.0667 9.81632 37.4667 9.54965 36.8 8.08299C36 5.81632 36.2667 5.68299 39.2 6.88299C41.2 7.68299 41.2 7.81632 39.2 9.41632C37.0667 10.883 37.0667 11.4163 39.2 17.5497C41.2 23.683 42.9333 36.7497 42.9333 45.1497C42.8 47.1497 43.3333 48.483 44 48.083C45.8667 46.883 49.3333 48.883 49.3333 51.1497C49.3333 52.883 48.9333 52.7497 47.3333 50.6163C46 49.0163 45.4667 48.7497 45.7333 50.083C46 51.1497 46 51.683 45.7333 51.0163C44.5333 49.1497 42.6667 50.083 42.6667 52.7497C42.6667 56.6163 40.5333 56.083 36.9333 51.0163C30.9333 43.0163 28.8 37.8163 28 28.7497C27.8667 27.5497 27.3333 28.083 26.5333 29.8163C25.8667 31.5497 25.6 33.4163 26 34.083C26.4 34.6163 25.7333 35.4163 24.6667 35.9497C22.4 36.7497 21.8667 33.4163 24.1333 32.083C24.9333 31.5497 25.2 30.3497 24.8 29.283C24.4 28.2163 24.9333 27.0163 26 26.6163C27.0667 26.083 28 24.083 28 21.9497C28 18.483 29.0667 14.7497 32.4 7.68299C33.8667 4.48299 35.4667 3.54965 34.2667 6.61632ZM28.9333 8.74965C28.8 10.2163 28 11.4163 27.0667 11.4163C24.9333 11.4163 24.9333 10.483 27.0667 8.08299C29.2 5.54965 29.2 5.68299 28.9333 8.74965ZM27.0667 14.483C28 13.9497 28.1333 14.483 27.6 15.9497C27.0667 17.283 26.6667 18.6163 26.6667 18.883C26.6667 19.1497 26 19.4163 25.2 19.4163C24.5333 19.4163 24.2667 18.7497 24.6667 18.083C25.0667 17.283 24.9333 16.7497 24.1333 16.7497C23.3333 16.7497 23.2 15.683 23.6 14.483C24.1333 13.0163 24.6667 12.7497 25.0667 13.8163C25.3333 14.7497 26.2667 15.0163 27.0667 14.483ZM25.4667 22.6163C26.1333 22.2163 26.6667 22.6163 26.6667 23.4163C26.6667 25.4163 23.6 24.3497 23.2 22.3497C23.0667 21.4163 23.2 21.283 23.6 22.083C23.8667 22.7497 24.8 23.1497 25.4667 22.6163ZM73.8667 21.5497C76.5333 22.6163 76.6667 24.3497 74 24.3497C72.9333 24.3497 72.4 23.8163 72.8 23.283C73.0667 22.7497 72.5333 21.9497 71.7333 21.683C70.8 21.283 70.4 20.883 70.9333 20.883C71.3333 20.7497 72.6667 21.1497 73.8667 21.5497ZM46.4 29.4163C46 31.283 46.2667 32.7497 47.2 32.7497C48 32.7497 47.8667 33.283 46.8 33.9497C45.7333 34.6163 45.3333 36.083 45.7333 37.4163C46.2667 38.6163 46.1333 39.1497 45.4667 38.7497C44.6667 38.3497 44.4 35.5497 44.6667 32.3497C45.0667 25.9497 45.0667 26.083 46.1333 26.083C46.6667 26.083 46.6667 27.5497 46.4 29.4163ZM60 27.4163C60 28.083 59.3333 28.7497 58.5333 28.7497C57.8667 28.7497 57.6 28.083 58 27.4163C58.4 26.6163 59.0667 26.083 59.4667 26.083C59.7333 26.083 60 26.6163 60 27.4163ZM72 31.283C72 33.5497 71.3333 35.683 70.6667 36.083C69.0667 37.0163 70.1333 39.4163 72.1333 39.4163C72.9333 39.4163 73.0667 38.883 72.6667 38.083C72.2667 37.283 72.8 37.1497 73.8667 37.5497C77.3333 38.883 76.2667 41.1497 72.6667 40.483C69.0667 39.683 66.6667 41.8163 66.2667 45.9497C66.2667 47.4163 65.7333 48.3497 65.3333 48.083C64.8 47.8163 61.6 50.883 58 54.883C52.9333 60.7497 52 62.6163 53.4667 63.5497C54.5333 64.2163 54.9333 64.7497 54.4 64.7497C54 64.7497 52.4 65.1497 51.0667 65.5497C49.0667 66.2163 49.0667 66.083 50.6667 64.883C52.4 63.683 52.4 63.4163 50.5333 63.4163C49.0667 63.4163 48.5333 62.2163 48.8 58.7497C49.0667 56.2163 49.8667 53.0163 50.5333 51.5497C52.1333 48.6163 48.6667 44.6163 45.3333 45.8163C42.6667 46.6163 44 45.5497 47.8667 43.4163C50.6667 41.9497 50.9333 42.083 50.2667 43.9497C49.8667 45.0163 50 46.3497 50.6667 46.7497C51.4667 47.283 52 46.483 52.1333 45.1497C52.2667 41.283 59.2 30.883 62.8 29.1497C64.5333 28.2163 67.3333 27.4163 69.0667 27.4163C71.4667 27.4163 72 28.2163 72 31.283ZM56.4 32.083C56 33.283 55.3333 33.9497 55.0667 33.5497C54.6667 33.1497 54.8 32.3497 55.3333 31.5497C56.5333 29.4163 57.3333 29.8163 56.4 32.083ZM75.6 31.9497C75.2 32.883 75.6 34.483 76.4 35.283C77.4667 36.3497 77.4667 36.7497 76.4 36.7497C75.4667 36.7497 74.4 36.083 74 35.4163C73.0667 33.8163 74 30.083 75.4667 30.083C75.8667 30.083 76 30.883 75.6 31.9497ZM53.8667 36.883C53.0667 38.3497 50.6667 37.1497 50.6667 35.4163C50.6667 34.7497 51.6 34.483 52.6667 34.883C53.7333 35.4163 54.2667 36.2163 53.8667 36.883ZM28.4 38.483C28.8 39.5497 28 40.2163 26.5333 40.2163C23.6 40.2163 23.2 38.6163 25.7333 37.683C26.5333 37.283 27.4667 36.883 27.4667 36.883C27.6 36.7497 28 37.5497 28.4 38.483ZM46.6667 41.283C46.6667 41.683 46.1333 42.3497 45.3333 42.7497C44.6667 43.1497 44 42.883 44 42.2163C44 41.4163 44.6667 40.7497 45.3333 40.7497C46.1333 40.7497 46.6667 41.0163 46.6667 41.283ZM32.5333 48.6163C32 49.0163 31.3333 48.7497 31.0667 47.8163C30.8 46.883 29.4667 46.6163 28.2667 47.0163C26.4 47.5497 26.2667 47.4163 28 46.3497C30 44.883 34.2667 47.0163 32.5333 48.6163ZM72 47.9497C72 48.3497 71.4667 49.0163 70.6667 49.4163C70 49.8163 69.3333 49.5497 69.3333 48.883C69.3333 48.083 70 47.4163 70.6667 47.4163C71.4667 47.4163 72 47.683 72 47.9497ZM67.0667 52.7497C66.6667 54.3497 65.3333 55.4163 63.4667 55.283C61.6 55.283 61.3333 55.0163 62.6667 54.483C63.7333 54.083 65.2 52.883 65.7333 51.9497C67.3333 49.283 67.8667 49.683 67.0667 52.7497ZM22.6667 51.9497C22.6667 53.4163 20.1333 53.9497 19.3333 52.7497C18.9333 52.083 19.4667 51.4163 20.5333 51.4163C21.7333 51.4163 22.6667 51.683 22.6667 51.9497ZM12 54.7497C11.0667 55.9497 10 56.483 9.73333 56.2163C8.8 55.283 10.6667 52.7497 12.2667 52.7497C13.0667 52.7497 13.0667 53.5497 12 54.7497ZM7.6 57.0163C7.2 58.083 6.8 57.683 6.8 56.2163C6.66667 54.7497 7.06667 53.9497 7.46667 54.483C7.86667 54.883 8 56.083 7.6 57.0163ZM26.6667 55.4163C26.6667 56.083 26.1333 56.7497 25.3333 56.7497C24.6667 56.7497 24 56.083 24 55.4163C24 54.6163 24.6667 54.083 25.3333 54.083C26.1333 54.083 26.6667 54.6163 26.6667 55.4163ZM47.6 54.883C47.2 55.283 46 55.4163 45.0667 55.0163C44 54.6163 44.4 54.2163 45.8667 54.2163C47.3333 54.083 48.1333 54.483 47.6 54.883ZM43.4667 58.7497C43.0667 59.8163 43.6 61.5497 44.6667 62.6163C46.2667 64.2163 46.2667 64.6163 44 65.1497C42.2667 65.5497 41.7333 65.283 42.2667 63.9497C42.8 62.6163 42.2667 62.3497 40.5333 63.0163C38.1333 63.9497 38.1333 63.8163 40.4 61.5497C41.6 60.2163 42.4 58.6163 42 57.9497C41.4667 57.283 41.8667 56.7497 42.6667 56.7497C43.6 56.7497 44 57.683 43.4667 58.7497ZM49.0667 70.083C50.9333 70.083 51.0667 70.3497 49.3333 71.4163C47.0667 72.883 44 70.7497 44 67.5497C44.1333 65.683 44.2667 65.683 45.4667 67.683C46.1333 69.0163 47.8667 70.083 49.0667 70.083ZM17.3333 74.083C16.2667 74.7497 14.8 75.4163 14 75.4163C13.3333 75.4163 13.6 74.7497 14.6667 74.083C15.7333 73.4163 17.3333 72.7497 18 72.7497C18.8 72.7497 18.4 73.4163 17.3333 74.083ZM29.3333 76.7497C28.5333 78.2163 27.6 79.4163 27.2 79.4163C26.8 79.4163 26.9333 78.7497 27.4667 77.9497C28 76.883 27.3333 76.7497 25.2 77.283C22.8 77.8163 23.0667 77.5497 26 76.083C31.2 73.683 31.0667 73.683 29.3333 76.7497ZM55.3333 78.2163C54.8 78.883 55.0667 79.4163 55.7333 79.4163C56.5333 79.4163 57.3333 80.2163 57.7333 81.283C58.2667 82.6163 57.7333 83.1497 56.1333 83.0163C54.5333 82.883 53.8667 82.2163 54.4 80.883C54.8 79.8163 54.5333 79.283 53.7333 79.8163C52.9333 80.3497 52 79.8163 51.6 78.7497C51.0667 77.4163 51.4667 77.1497 52.9333 77.683C54.5333 78.3497 54.8 78.083 54 76.7497C53.3333 75.5497 53.4667 75.283 54.5333 75.9497C55.3333 76.483 55.7333 77.5497 55.3333 78.2163ZM62.6667 118.083C62.6667 118.75 62.1333 119.416 61.3333 119.416C60.6667 119.416 60 118.75 60 118.083C60 117.283 60.6667 116.75 61.3333 116.75C62.1333 116.75 62.6667 117.283 62.6667 118.083ZM62.6667 121.283C62.6667 121.683 62.1333 122.35 61.3333 122.75C60.6667 123.15 60 122.883 60 122.216C60 121.416 60.6667 120.75 61.3333 120.75C62.1333 120.75 62.6667 121.016 62.6667 121.283Z" fill="black"/>
</svg>
