<svg width="164" height="149" viewBox="0 0 164 149" fill="none" xmlns="http://www.w3.org/2000/svg">
<path d="M51.5 1.12117C51.2333 1.2545 45.9 1.52116 39.5 1.52116C31.6333 1.52116 28.3 2.0545 28.8333 2.98784C29.5 3.92117 29.1 4.0545 28.1667 3.38783C25.9 2.0545 14.5667 5.38783 15.6333 7.12117C16.0333 7.92117 15.7667 8.0545 14.8333 7.52116C12.7 6.18784 4.43333 14.3212 2.7 19.3878C2.03333 21.5212 1.1 27.2545 0.7 32.0545C-0.233333 43.6545 -0.233333 117.521 0.7 121.921C1.1 123.788 1.63333 126.855 2.03333 128.721C2.43333 130.588 3.36667 131.788 4.03333 131.388C4.7 130.988 4.96667 131.388 4.56667 132.455C3.76667 134.588 13.6333 144.055 16.5667 144.055C17.6333 144.055 19.5 144.455 20.8333 144.988C22.1667 145.521 22.8333 145.255 22.3 144.588C21.9 143.921 22.7 143.255 24.0333 143.255C25.9 143.255 26.1667 143.655 25.1 144.988C24.0333 146.321 24.7 146.721 28.1667 146.855C30.7 146.988 37.5 147.255 43.3667 147.388C51.9 147.788 54.3 147.388 55.7667 145.655C57.1 143.788 57.3667 143.788 57.3667 145.521C57.3667 148.988 77.5 148.188 81.3667 144.721L84.4333 142.055L82.8333 144.988C81.3667 147.921 82.9667 149.521 84.7 146.721C85.1 145.921 86.3 145.388 87.1 145.388C88.1667 145.388 88.0333 145.921 86.8333 146.588C85.6333 147.388 94.0333 147.655 108.033 147.388C138.567 146.721 146.7 145.255 146.7 140.721C146.7 139.655 148.033 138.055 149.767 137.255L152.7 135.655L150.033 138.721L147.367 141.921L151.5 138.988C157.367 134.855 160.3 130.188 158.3 128.055C157.1 126.721 157.1 126.588 158.3 127.255C159.767 128.055 160.567 126.321 163.1 114.855C163.5 113.121 163.233 110.455 162.433 108.988C161.767 107.521 161.633 106.721 162.3 107.121C162.833 107.521 163.633 96.0545 163.767 81.7878C164.033 61.3878 163.767 55.3878 162.433 54.5878C161.1 53.6545 161.1 53.3878 162.433 53.3878C163.767 53.3878 163.767 52.7212 162.567 50.5878C161.367 48.3212 161.5 47.9212 162.7 48.7212C164.033 49.5212 164.3 46.8545 163.633 35.9212C162.3 10.4545 154.7 3.2545 127.1 0.987839C123.233 0.721161 120.433 0.854507 120.7 1.52116C121.1 2.0545 120.3 2.18784 119.1 1.92117C116.567 1.2545 52.0333 0.454498 51.5 1.12117ZM36.0333 4.0545C36.0333 4.72116 35.1 4.98784 34.0333 4.58783C32.9667 4.0545 32.0333 3.52116 32.0333 3.2545C32.0333 2.98784 32.9667 2.72116 34.0333 2.72116C35.1 2.72116 36.0333 3.2545 36.0333 4.0545ZM46.0333 4.0545C46.4333 4.72116 46.1667 5.38783 45.5 5.38783C44.7 5.38783 44.0333 4.72116 44.0333 4.0545C44.0333 3.2545 44.3 2.72116 44.5667 2.72116C44.9667 2.72116 45.6333 3.2545 46.0333 4.0545ZM51.6333 3.52116C51.2333 3.92117 50.0333 4.0545 49.1 3.6545C48.0333 3.2545 48.4333 2.85451 49.9 2.85451C51.3667 2.72116 52.1667 3.12117 51.6333 3.52116ZM62.0333 4.0545C61.6333 4.72116 60.7 5.38783 59.9 5.38783C59.2333 5.38783 58.7 4.72116 58.7 4.0545C58.7 3.2545 59.6333 2.72116 60.8333 2.72116C61.9 2.72116 62.4333 3.2545 62.0333 4.0545ZM69.3667 4.0545C69.3667 4.72116 69.1 5.38783 68.8333 5.38783C68.4333 5.38783 67.7667 4.72116 67.3667 4.0545C66.9667 3.2545 67.2333 2.72116 67.9 2.72116C68.7 2.72116 69.3667 3.2545 69.3667 4.0545ZM113.1 3.6545C111.767 3.92117 109.633 3.92117 108.433 3.6545C107.1 3.2545 108.167 2.98784 110.7 2.98784C113.233 2.98784 114.3 3.2545 113.1 3.6545ZM136.567 3.78784C136.967 4.4545 136.433 4.98784 135.367 4.98784C134.3 4.98784 133.767 4.4545 134.167 3.78784C134.567 3.2545 135.1 2.72116 135.367 2.72116C135.633 2.72116 136.167 3.2545 136.567 3.78784ZM24.7 5.38783C24.3 6.0545 23.2333 6.72116 22.5667 6.72116C21.7667 6.72116 21.6333 6.0545 22.0333 5.38783C22.4333 4.58783 23.5 4.0545 24.1667 4.0545C24.9667 4.0545 25.1 4.58783 24.7 5.38783ZM96.0333 4.58783C96.0333 4.85451 95.1 5.52116 93.9 5.92117C92.8333 6.32117 92.3 6.18784 92.7 5.38783C93.5 4.0545 96.0333 3.52116 96.0333 4.58783ZM145.233 6.85451C144.3 7.38783 142.833 7.38783 141.9 6.72116C141.1 5.92117 139.9 5.92117 139.367 6.4545C138.7 6.98784 138.7 6.72116 139.1 5.92117C139.633 5.12117 141.5 4.72116 143.5 5.12117C145.9 5.52116 146.433 6.0545 145.233 6.85451ZM30.5667 6.32117C30.0333 9.2545 31.1 10.4545 34.3 11.3878C36.9667 12.0545 38.4333 11.6545 39.6333 9.92117C40.5667 8.58783 41.3667 8.32117 41.3667 9.12117C41.3667 10.1878 44.7 10.7212 52.4333 10.7212C66.8333 10.7212 73.7667 9.52116 72.8333 7.2545C72.4333 6.18784 72.8333 5.78784 74.0333 6.32117C75.1 6.72116 75.7667 7.52116 75.3667 8.0545C74.5667 9.2545 87.3667 10.5878 100.967 10.7212C109.233 10.7212 110.833 10.3212 112.433 7.92117C113.633 6.32117 114.833 5.78784 115.233 6.58783C115.767 7.2545 115.1 8.4545 113.9 9.12117C112.433 9.92117 116.3 10.5878 126.3 10.9878C139.367 11.5212 141.5 11.9212 145.1 14.8545C147.367 16.5878 149.233 18.5878 149.233 19.2545C149.367 19.9212 150.433 21.6545 151.767 23.1212C153.767 25.2545 154.033 29.1212 154.433 51.2545C154.7 65.7878 155.367 76.8545 156.033 77.1212C156.833 77.3878 157.367 78.1878 157.367 78.8545C157.367 79.6545 156.833 79.7878 156.033 79.3878C155.233 78.8545 154.7 81.9212 154.7 87.6545C154.567 92.5878 154.3 98.8545 153.9 101.521C153.5 104.321 153.767 106.855 154.567 107.388C155.367 107.788 156.033 108.988 156.033 109.788C156.033 110.721 155.5 110.588 154.7 109.388C153.767 107.788 153.367 108.321 153.233 111.388C153.1 119.921 150.3 127.121 146.167 130.588C144.967 131.521 144.3 132.855 144.7 133.255C144.967 133.788 144.567 134.321 143.633 134.455C142.7 134.588 139.1 135.255 135.367 136.055C131.767 136.855 119.5 137.521 108.433 137.655C97.2333 137.788 88.0333 138.188 88.0333 138.721C88.0333 139.388 87.1 140.055 86.1667 140.455C84.8333 140.988 84.4333 140.588 84.9667 139.255C85.3667 138.055 84.7 137.388 82.7 137.388C81.2333 137.388 80.3 137.921 80.7 138.721C81.1 139.388 80.9667 140.055 80.1667 140.055C79.5 140.055 78.4333 139.388 78.0333 138.721C77.5 137.921 69.2333 137.521 56.9667 137.655C31.9 137.788 23.3667 136.721 17.7667 132.588C12.8333 128.855 9.36667 119.255 9.36667 109.121C9.36667 104.855 8.83333 102.721 7.76667 102.721C6.43333 102.721 6.43333 102.455 7.63333 101.655C8.7 100.988 9.23333 92.8545 9.36667 74.0545C9.76667 27.9212 10.3 23.3878 16.9667 16.7212C20.1667 13.5212 22.8333 12.0545 25.6333 12.0545C28.7 12.0545 29.5 11.5212 28.8333 9.92117C28.4333 8.72116 28.3 7.2545 28.8333 6.58783C29.6333 5.12117 30.7 4.98784 30.5667 6.32117ZM98.7 6.72116C98.7 7.38783 98.0333 8.0545 97.2333 8.0545C96.5667 8.0545 96.3 7.38783 96.7 6.72116C97.1 5.92117 97.7667 5.38783 98.1667 5.38783C98.4333 5.38783 98.7 5.92117 98.7 6.72116ZM120.7 8.0545C120.3 8.72116 119.367 9.38783 118.567 9.38783C117.9 9.38783 117.367 8.72116 117.367 8.0545C117.367 7.2545 118.3 6.72116 119.5 6.72116C120.567 6.72116 121.1 7.2545 120.7 8.0545ZM131.633 8.85451C131.233 9.2545 130.033 9.38783 129.1 8.98784C128.033 8.58783 128.433 8.18784 129.9 8.18784C131.367 8.0545 132.167 8.4545 131.633 8.85451ZM146.433 11.7878C145.5 12.9878 145.367 13.5212 146.167 12.9878C147.1 12.4545 148.433 12.9878 149.367 14.0545C150.167 14.9878 151.9 15.5212 153.1 15.1212C154.967 14.5878 155.1 14.7212 153.367 15.9212C152.033 16.8545 150.833 16.7212 149.233 15.2545C148.167 14.1878 146.833 13.7878 146.3 14.1878C145.9 14.5878 144.967 13.7878 144.167 12.3212C143.1 10.3212 143.1 9.38783 144.433 8.98784C147.1 8.0545 148.3 9.52116 146.433 11.7878ZM17.6333 10.5878C19.1 9.78784 20.5667 9.52116 20.9667 9.78784C21.9 10.7212 13.2333 14.4545 10.3 14.3212C8.16667 14.3212 8.16667 14.1878 10.3 11.7878C11.7667 10.1878 12.9667 9.78784 13.7667 10.5878C14.7 11.5212 16.0333 11.3878 17.6333 10.5878ZM26.3 10.1878C25.9 10.5878 24.7 10.7212 23.7667 10.3212C22.7 9.92117 23.1 9.52116 24.5667 9.52116C26.0333 9.38783 26.8333 9.78784 26.3 10.1878ZM9.36667 20.0545C6.96667 21.6545 5.36667 21.7878 5.36667 20.3212C5.36667 19.7878 6.7 19.1212 8.3 19.1212C10.7 18.8545 10.9667 19.1212 9.36667 20.0545ZM160.967 32.3212C160.567 33.3878 160.167 32.9878 160.167 31.5212C160.033 30.0545 160.433 29.2545 160.833 29.7878C161.233 30.1878 161.367 31.3878 160.967 32.3212ZM4.7 33.3878C5.1 34.0545 4.83333 34.7212 4.16667 34.7212C3.36667 34.7212 2.7 34.0545 2.7 33.3878C2.7 32.5878 2.96667 32.0545 3.23333 32.0545C3.63333 32.0545 4.3 32.5878 4.7 33.3878ZM159.367 36.0545C158.967 36.7212 157.767 37.3878 156.967 37.3878C156.033 37.3878 156.167 36.8545 157.367 36.0545C159.9 34.4545 160.433 34.4545 159.367 36.0545ZM161.9 41.6545C161.5 42.1878 160.433 42.7212 159.633 42.5878C158.433 42.5878 158.433 42.3212 159.633 41.9212C160.567 41.5212 160.833 40.1878 160.433 38.9878C159.9 37.1212 160.033 37.1212 161.1 38.7212C161.9 39.7878 162.167 41.1212 161.9 41.6545ZM4.7 42.4545C4.3 42.8545 3.23333 42.4545 2.3 41.5212C1.1 40.1878 1.23333 40.0545 3.1 40.8545C4.43333 41.2545 5.1 42.0545 4.7 42.4545ZM2.3 46.9878C1.9 48.0545 1.5 47.6545 1.5 46.1878C1.36667 44.7212 1.76667 43.9212 2.16667 44.4545C2.56667 44.8545 2.7 46.0545 2.3 46.9878ZM7.36667 46.7212C6.96667 47.3878 5.76667 48.0545 4.96667 48.0545C4.03333 48.0545 4.16667 47.5212 5.36667 46.7212C7.9 45.1212 8.43333 45.1212 7.36667 46.7212ZM161.9 62.0545C161.367 63.1212 160.433 63.6545 159.767 63.2545C158.967 62.7212 159.1 61.9212 160.167 61.2545C162.7 59.6545 162.7 59.7878 161.9 62.0545ZM8.03333 64.8545C8.03333 65.9212 7.5 66.7212 6.83333 66.7212C6.03333 66.7212 5.63333 65.5212 5.76667 64.1878C5.9 61.2545 8.03333 61.7878 8.03333 64.8545ZM7.36667 70.7212C6.96667 71.3878 5.76667 72.0545 4.96667 72.0545C4.03333 72.0545 4.16667 71.5212 5.36667 70.7212C7.9 69.1212 8.43333 69.1212 7.36667 70.7212ZM6.56667 86.1878C5.5 87.5212 5.5 88.0545 6.56667 88.0545C7.36667 88.0545 8.03333 88.7212 8.03333 89.6545C8.03333 90.8545 7.63333 90.8545 6.43333 89.6545C5.23333 88.4545 4.43333 88.7212 3.1 90.4545C1.76667 92.1878 1.36667 92.3212 1.63333 90.7212C1.9 89.6545 2.7 88.3212 3.36667 87.6545C4.16667 87.1212 3.9 86.1878 2.7 85.2545C0.966667 84.0545 1.1 83.9212 3.1 84.5878C4.3 84.9878 5.36667 84.7212 5.36667 83.9212C5.36667 83.1212 6.03333 82.9878 6.7 83.3878C7.76667 84.0545 7.63333 84.8545 6.56667 86.1878ZM162.7 89.5212C162.7 90.3212 162.167 90.4545 161.367 90.0545C160.7 89.6545 160.033 88.5878 160.033 87.9212C160.033 87.1212 160.7 86.9878 161.367 87.3878C162.167 87.7878 162.7 88.8545 162.7 89.5212ZM5.36667 94.7212C5.36667 95.3878 4.83333 96.0545 4.16667 96.0545C3.36667 96.0545 2.43333 95.3878 2.03333 94.7212C1.63333 93.9212 2.16667 93.3878 3.23333 93.3878C4.43333 93.3878 5.36667 93.9212 5.36667 94.7212ZM159.767 99.6545C158.967 100.588 157.633 101.388 156.833 101.255C156.033 101.255 156.167 100.855 157.233 100.455C158.7 99.7878 158.7 99.5212 157.233 98.5878C155.9 97.7878 156.3 97.5212 158.3 97.7878C160.567 97.9212 160.833 98.3212 159.767 99.6545ZM6.43333 104.455C7.76667 103.921 8.16667 104.188 7.5 105.121C6.03333 107.521 1.36667 106.988 1.36667 104.455C1.36667 102.721 1.76667 102.588 2.83333 103.655C3.63333 104.455 5.23333 104.855 6.43333 104.455ZM161.5 110.721C162.433 110.721 162.7 111.121 162.3 111.521C160.967 112.855 157.367 109.388 157.5 106.855C157.5 105.388 157.9 105.655 158.7 107.655C159.367 109.388 160.7 110.721 161.5 110.721ZM4.7 113.388C4.3 114.055 3.36667 114.721 2.56667 114.721C1.9 114.721 1.36667 114.055 1.36667 113.388C1.36667 112.588 2.3 112.055 3.5 112.055C4.56667 112.055 5.1 112.588 4.7 113.388ZM4.03333 119.788C4.03333 121.788 3.76667 121.788 2.7 120.055C0.966667 117.388 0.966667 115.655 2.7 116.721C3.5 117.121 4.03333 118.588 4.03333 119.788ZM8.03333 122.721C8.03333 123.388 7.36667 124.055 6.56667 124.055C5.9 124.055 5.63333 123.388 6.03333 122.721C6.43333 121.921 7.1 121.388 7.5 121.388C7.76667 121.388 8.03333 121.921 8.03333 122.721ZM15.2333 139.255C13.9 140.321 12.4333 140.855 12.0333 140.588C11.3667 139.788 14.8333 137.388 16.5667 137.388C17.3667 137.388 16.7 138.188 15.2333 139.255ZM32.0333 139.388C32.0333 140.321 28.0333 141.121 27.5 140.321C27.1 139.788 28.0333 139.121 29.5 139.121C30.8333 138.988 32.0333 139.121 32.0333 139.388ZM58.7 140.188C58.7 140.855 59.3667 141.121 60.0333 140.721C60.8333 140.321 61.3667 140.588 61.3667 141.255C61.3667 143.388 59.2333 142.988 57.3667 140.721C56.1667 139.388 56.1667 138.721 57.2333 138.721C58.0333 138.721 58.7 139.388 58.7 140.188ZM108.033 140.855C108.033 141.121 106.833 141.388 105.233 141.388C103.767 141.388 102.833 140.855 103.367 140.055C104.033 138.988 108.033 139.655 108.033 140.855ZM132.033 140.321C132.033 141.788 130.433 141.655 128.033 140.055C126.433 139.121 126.7 138.855 129.1 139.121C130.7 139.121 132.033 139.788 132.033 140.321ZM40.9667 140.855C40.5667 141.255 39.3667 141.388 38.4333 140.988C37.3667 140.588 37.7667 140.188 39.2333 140.188C40.7 140.055 41.5 140.455 40.9667 140.855ZM143.633 142.188C143.233 142.588 142.033 142.721 141.1 142.321C140.033 141.921 140.433 141.521 141.9 141.521C143.367 141.388 144.167 141.788 143.633 142.188ZM134.3 144.855C133.9 145.255 132.7 145.388 131.767 144.988C130.7 144.588 131.1 144.188 132.567 144.188C134.033 144.055 134.833 144.455 134.3 144.855Z" fill="black"/>
<path d="M37.6333 38.9875C36.7 39.9209 36.0333 41.6542 36.0333 42.9875C36.0333 45.6542 42.7 52.1875 44.3 51.2542C44.9667 50.8542 45.2333 51.1209 45.1 51.7875C44.5667 53.3875 65.3667 72.8542 66.9667 72.3209C67.6333 72.1875 67.9 72.5875 67.5 73.1209C67.1 73.7875 68.3 76.0542 70.0333 77.9209C73.6333 81.7875 74.5667 84.0542 71.5 81.3875C70.0333 80.1875 68.9667 80.1875 67.1 81.3875C65.3667 82.4542 65.3667 82.7209 66.8333 82.3209C68.0333 81.9209 68.9667 82.4542 68.9667 83.2542C68.9667 84.1875 67.6333 84.8542 66.0333 84.7209C64.0333 84.4542 59.5 87.7875 50.8333 95.9209C40.0333 106.188 38.5667 108.054 38.9667 111.521C39.2333 114.454 40.0333 115.254 41.9 114.988C43.3667 114.721 43.9 115.121 43.3667 115.921C42.1667 117.921 43.5 117.788 48.9667 115.254C51.9 113.788 53.2333 112.321 52.8333 111.121C52.4333 110.054 52.5667 109.521 53.2333 109.921C54.8333 110.988 61.6333 104.321 60.7 102.721C60.1667 101.921 60.5667 101.521 61.6333 101.654C62.5667 101.921 63.2333 101.254 62.9667 100.321C62.8333 99.2542 63.1 98.8542 63.7667 99.2542C65.2333 100.054 73.6333 91.6542 72.7 90.3209C72.3 89.7875 72.4333 89.6542 72.9667 90.0542C73.3667 90.4542 74.8333 89.7875 76.1667 88.5875C78.4333 86.4542 79.1 86.8542 85.9 92.9875C89.7667 96.5875 96.1667 102.988 100.033 107.121C103.9 111.254 107.5 114.321 108.167 113.921C108.833 113.521 109.367 113.921 109.367 114.721C109.367 115.788 110.167 115.788 112.167 114.721C113.633 113.788 114.567 112.854 114.167 112.454C113.767 112.054 114.167 110.454 114.967 108.988C116.3 106.454 115.367 105.121 106.033 96.4542C97.9 88.8542 95.1 87.1209 93.7667 88.3209C92.3 89.3875 92.1667 89.2542 92.8333 87.5209C93.3667 86.1875 92.4333 84.0542 90.1667 81.7875C88.3 79.9209 86.7 77.9209 86.7 77.3875C86.7 76.8542 90.4333 73.5209 95.1 69.9209C107.1 60.5875 114.7 53.1209 113.767 51.6542C113.367 50.9875 112.433 51.3875 111.767 52.5875C111.1 53.7875 109.9 54.7209 109.1 54.7209C107.9 54.7209 107.9 54.3209 109.1 53.1209C112.167 50.0542 110.7 48.8542 107.633 51.7875C105.233 54.0542 104.433 54.3209 104.433 52.7209C104.433 51.6542 105.233 50.7209 106.167 50.7209C107.1 50.7209 108.033 50.0542 108.3 49.2542C108.567 48.3209 109.9 48.3209 112.567 49.5209C116.033 51.1209 116.567 50.9875 118.7 48.3209C121.367 45.1209 120.967 41.1209 117.767 38.4542C116.167 37.1209 115.367 37.2542 113.767 39.3875C112.033 41.6542 111.767 41.6542 112.433 39.6542C113.633 36.5875 112.567 36.8542 108.7 40.5875C106.567 42.8542 106.033 44.0542 107.1 44.4542C108.3 44.9875 108.3 45.2542 107.1 45.2542C102.967 45.5209 89.1 57.3875 89.6333 60.1875C89.9 60.9875 89.1 62.0542 88.0333 62.3209C86.3 62.8542 86.3 62.7209 88.0333 61.5209C89.1 60.7209 89.3667 60.0542 88.7 60.0542C86.3 60.0542 84.1667 62.9875 84.9667 65.2542C85.5 66.9875 85.3667 67.1209 84.3 65.3875C83.1 63.7875 82.4333 63.9209 79.7667 66.0542C78.0333 67.5209 76.4333 68.8542 76.1667 68.9875C75.9 69.1209 76.4333 70.4542 77.5 71.6542C79.2333 73.7875 79.1 73.9209 76.9667 72.1875C75.7667 71.2542 74.8333 69.6542 74.9667 68.7209C75.5 66.5875 66.5667 57.3875 64.9667 58.3209C64.1667 58.7209 64.0333 58.4542 64.5667 57.6542C65.7667 55.7875 45.3667 37.3875 42.0333 37.3875C40.4333 37.3875 38.5667 38.0542 37.6333 38.9875ZM42.0333 40.0542C41.6333 40.7209 40.4333 41.3875 39.6333 41.3875C38.7 41.3875 38.8333 40.8542 40.0333 40.0542C42.5667 38.4542 43.1 38.4542 42.0333 40.0542ZM118.033 41.2542C118.433 41.9209 118.3 42.8542 117.633 43.2542C116.967 43.6542 116.433 43.1209 116.433 42.0542C116.433 39.7875 116.833 39.5209 118.033 41.2542ZM40.0333 44.7209C40.9667 45.9209 41.1 46.7209 40.3 46.7209C39.6333 46.7209 38.7 45.7875 38.1667 44.7209C37.7667 43.6542 37.6333 42.7209 37.9 42.7209C38.1667 42.7209 39.1 43.6542 40.0333 44.7209ZM49.1 46.0542C48.7 46.4542 47.9 45.7875 47.5 44.4542C46.7 42.5875 46.8333 42.4542 48.1667 43.6542C49.1 44.5875 49.5 45.6542 49.1 46.0542ZM112.7 46.7209C113.1 47.5209 112.567 47.6542 111.5 47.2542C109.1 46.3209 108.7 45.3875 110.567 45.3875C111.367 45.3875 112.3 45.9209 112.7 46.7209ZM118.7 45.9209C118.7 46.3209 118.167 46.9875 117.367 47.3875C116.7 47.7875 116.033 47.5209 116.033 46.8542C116.033 46.0542 116.7 45.3875 117.367 45.3875C118.167 45.3875 118.7 45.6542 118.7 45.9209ZM59.6333 52.8542C59.2333 53.2542 58.0333 53.3875 57.1 52.9875C56.0333 52.5875 56.4333 52.1875 57.9 52.1875C59.3667 52.0542 60.1667 52.4542 59.6333 52.8542ZM62.1667 65.7875C62.5667 68.8542 61.7667 68.5875 59.9 65.2542C58.8333 62.9875 58.8333 62.5875 60.1667 62.9875C61.1 63.2542 61.9 64.5875 62.1667 65.7875ZM98.7 64.5875C98.1667 65.1209 96.5667 65.1209 95.2333 64.3209C93.1 63.1209 93.3667 62.9875 96.3 63.1209C98.3 63.2542 99.3667 63.9209 98.7 64.5875ZM90.4333 65.9209C89.5 66.9875 88.1667 67.5209 87.5 67.1209C86.9667 66.7209 87.2333 65.9209 88.1667 65.2542C91.1 63.5209 92.3 63.7875 90.4333 65.9209ZM82.0333 70.7209C82.4333 71.3875 82.1667 72.0542 81.5 72.0542C80.7 72.0542 80.0333 71.3875 80.0333 70.7209C80.0333 69.9209 80.3 69.3875 80.5667 69.3875C80.9667 69.3875 81.6333 69.9209 82.0333 70.7209ZM90.7 72.0542C88.1667 73.6542 86.7 73.6542 86.7 72.1875C86.7 70.8542 90.8333 69.5209 92.0333 70.3209C92.3 70.5875 91.7667 71.3875 90.7 72.0542ZM85.3667 76.1875C85.3667 76.9875 84.8333 77.1209 84.0333 76.7209C83.3667 76.3209 82.7 75.2542 82.7 74.5875C82.7 73.7875 83.3667 73.6542 84.0333 74.0542C84.8333 74.4542 85.3667 75.5209 85.3667 76.1875ZM84.4333 82.1875C83.6333 82.5875 83.1 84.4542 83.5 86.4542C83.9 88.9875 83.7667 89.5209 82.8333 88.1875C81.9 86.7209 81.7667 84.3209 82.5667 81.6542C82.7 81.5209 83.5 81.3875 84.4333 81.5209C85.6333 81.5209 85.6333 81.7875 84.4333 82.1875ZM63.7667 90.0542C63.3667 90.4542 62.5667 89.7875 62.1667 88.4542C61.3667 86.5875 61.5 86.4542 62.8333 87.6542C63.7667 88.5875 64.1667 89.6542 63.7667 90.0542ZM95.3667 97.1209C94.5667 98.0542 88.1667 94.1875 88.8333 93.2542C89.2333 92.5875 90.9667 93.1209 92.7 94.3209C94.4333 95.6542 95.6333 96.8542 95.3667 97.1209ZM106.033 98.7209C106.433 99.5209 105.9 99.6542 104.833 99.2542C102.433 98.3209 102.033 97.3875 103.9 97.3875C104.7 97.3875 105.633 97.9209 106.033 98.7209ZM100.967 102.988C100.567 104.054 100.167 103.654 100.167 102.188C100.033 100.721 100.433 99.9209 100.833 100.454C101.233 100.854 101.367 102.054 100.967 102.988ZM51.3667 105.254C50.5667 105.921 48.0333 103.921 48.0333 102.588C48.0333 101.921 48.8333 102.054 49.9 102.988C50.9667 103.921 51.5 104.988 51.3667 105.254ZM56.9667 106.054C54.9667 108.188 54.4333 107.788 55.5 104.854C55.9 103.654 56.8333 103.121 57.5 103.521C58.1667 103.921 57.9 104.988 56.9667 106.054Z" fill="black"/>
</svg>
