<svg width="223" height="221" viewBox="0 0 223 221" fill="none" xmlns="http://www.w3.org/2000/svg">
<path d="M94.9939 0.787196C83.9272 2.25386 82.9939 2.3872 73.9272 5.05386C64.4606 7.72053 63.6606 8.52053 65.7939 12.5205C66.8606 14.5205 66.8606 15.0539 65.7939 14.5205C64.9939 13.9872 63.9272 14.5205 63.5272 15.5872C63.1272 16.7872 62.0606 17.7205 61.3939 17.7205C60.5939 17.7205 60.8606 16.7872 61.7939 15.5872C63.3939 13.5872 63.2606 13.4539 60.3272 14.3872C57.3939 15.3205 57.2606 15.1872 58.8606 13.1872C60.1939 11.5872 61.1272 11.3205 62.4606 12.5205C63.7939 13.5872 64.3272 13.5872 64.3272 12.6539C64.3272 9.85386 62.0606 9.85386 56.5939 12.5205C50.7272 15.4539 49.1272 17.1872 53.6606 15.7205C55.6606 15.0539 56.0606 15.3205 55.5272 16.9205C54.5939 19.3205 53.7939 19.4539 51.1272 17.8539C48.8606 16.3872 41.1272 21.1872 42.3272 23.1872C42.8606 23.8539 42.0606 24.3872 40.5939 24.3872C39.2606 24.3872 37.1272 25.4539 35.7939 26.7872C33.7939 29.1872 33.7939 29.3205 37.2606 30.9205L40.7272 32.5205L37.9272 35.3205C35.1272 38.1205 34.9939 38.1205 32.3272 35.7205C30.8606 34.3872 29.3939 33.5872 29.2606 33.8539C24.0606 40.3872 21.6606 44.3872 22.8606 44.3872C23.6606 44.3872 24.3272 45.0539 24.3272 45.8539C24.3272 46.6539 23.3939 46.9205 22.1939 46.5205C20.7272 45.9872 19.7939 46.6539 19.3939 48.3872C18.9939 49.8539 18.1939 51.0539 17.5272 51.0539C16.8606 51.0539 16.3272 51.7205 16.3272 52.5205C16.3272 53.3205 15.1272 55.7205 13.6606 57.7205C11.1272 61.1872 11.1272 61.7205 13.1272 62.7872C14.5939 63.5872 14.8606 64.2539 13.7939 64.9205C12.9939 65.4539 12.3272 65.1872 12.3272 64.5205C12.3272 63.7205 11.6606 63.0539 10.8606 63.0539C10.0606 63.0539 9.79389 63.9872 10.1939 65.1872C10.5939 66.2539 10.4606 66.9205 9.79389 66.5205C9.12722 66.1205 8.32722 67.4539 7.92722 69.4539C7.52722 71.4539 6.72722 74.1205 6.32722 75.4539C5.52722 77.1872 5.92722 77.5872 7.66056 76.9205C9.66056 76.1205 9.79389 76.3872 8.59389 78.6539C7.52722 80.5205 7.52722 81.7205 8.59389 82.7872C9.79389 83.9872 9.79389 84.3872 8.72722 84.3872C7.79389 84.3872 6.72722 83.0539 6.19389 81.3205C5.39389 78.7872 4.99389 79.3205 3.52722 85.0539C2.59389 88.6539 1.39389 95.5872 0.993891 100.387C-0.072776 112.121 -0.072776 112.121 0.0605574 120.254C0.327224 127.054 0.460557 127.321 3.66056 126.521C5.52722 125.987 6.99389 126.254 6.99389 127.054C6.99389 127.721 6.59389 128.254 6.06056 128.254C5.39389 128.121 3.79389 128.121 2.32722 128.254C0.0605573 128.387 -0.0727759 128.654 1.66056 129.721C2.72722 130.387 2.99389 131.054 2.19389 131.054C0.0605573 131.054 2.19389 141.454 5.79389 149.454C7.26056 152.921 8.72722 156.254 8.86056 157.054C9.52722 160.521 16.9939 173.721 19.7939 176.921C21.6606 178.787 22.7272 180.387 22.3272 180.387C20.3272 180.387 36.3272 195.854 43.6606 200.921C58.0606 211.187 66.5939 214.254 90.3272 218.521C103.527 220.787 111.927 220.921 112.727 218.654C113.261 217.321 113.527 217.321 113.527 218.654C113.661 219.587 114.194 220.387 114.994 220.387C115.794 220.387 115.794 219.187 115.127 217.321C114.061 214.654 114.327 214.254 117.527 214.121C120.327 213.987 120.594 214.121 118.461 214.921C116.594 215.587 116.327 216.254 117.394 216.921C118.327 217.454 119.527 217.587 120.194 217.187C120.727 216.787 122.327 217.187 123.661 218.254C125.927 219.854 127.394 219.854 141.927 217.054C144.727 216.521 146.594 215.587 146.327 215.054C145.927 214.387 146.861 214.254 148.327 214.654C150.461 215.187 150.994 214.654 151.127 212.254C151.261 210.521 151.261 208.521 151.127 207.987C150.994 207.321 151.527 207.187 152.194 207.587C152.861 207.987 153.127 209.587 152.727 211.054C152.327 212.654 152.727 213.721 153.527 213.721C154.461 213.721 154.727 213.054 154.194 212.121C153.661 211.321 153.794 211.054 154.727 211.587C156.861 212.787 166.994 208.387 166.994 206.254C166.994 205.187 166.194 204.387 165.394 204.387C164.461 204.387 164.861 203.587 166.327 202.787C167.794 201.987 169.661 200.387 170.461 199.321C171.661 197.721 171.794 198.254 171.394 201.854C170.861 205.721 171.127 206.121 172.594 204.387C173.527 203.321 176.194 201.454 178.327 200.387C184.861 197.054 205.394 175.587 208.327 168.654C210.727 163.321 210.861 162.387 208.994 161.454C207.927 160.787 206.994 159.587 206.994 158.921C206.994 158.121 207.927 158.521 209.127 159.587C211.127 161.721 213.661 161.321 213.661 159.054C213.661 158.387 214.327 156.254 215.261 154.121C216.061 152.121 216.861 150.121 216.994 149.721C216.994 149.321 217.527 147.321 218.061 145.187C218.861 142.521 218.594 140.921 217.394 140.254C216.061 139.321 216.194 139.054 217.794 139.054C220.461 139.054 221.261 133.987 221.127 119.454C220.994 114.121 221.394 109.721 221.927 109.721C222.461 109.721 222.727 108.921 222.327 107.987C222.061 107.187 221.527 101.854 220.994 96.3872C220.194 86.1205 216.994 71.7205 214.994 68.2539C213.927 66.7872 213.261 66.6539 211.127 67.9872C209.127 69.3205 208.461 69.1872 207.794 67.7205C206.861 65.3205 208.727 64.1205 211.661 65.1872C213.527 65.9872 213.794 65.5872 212.994 62.9205C211.527 57.9872 201.127 41.5872 194.994 34.6539C186.194 24.7872 169.661 12.7872 169.661 16.3872C169.661 17.1872 167.661 17.4539 165.394 17.1872C162.994 16.7872 160.461 16.5205 159.794 16.5205C159.261 16.3872 158.994 15.4539 159.527 14.3872C159.927 13.3205 159.527 12.3872 158.727 12.3872C157.927 12.3872 157.661 11.9872 158.194 11.4539C158.727 10.7872 160.061 11.5872 161.127 12.9205C162.194 14.3872 162.994 15.0539 162.994 14.5205C162.994 13.8539 163.794 14.1205 164.861 14.9205C166.194 15.9872 166.994 16.1205 167.661 15.0539C168.594 13.5872 158.727 8.52053 154.727 8.3872C153.527 8.3872 152.194 7.85386 151.794 7.32053C150.994 5.9872 135.927 2.25386 134.994 3.05386C134.594 3.45386 134.461 4.25386 134.727 4.7872C134.861 5.45386 134.461 5.5872 133.661 5.05386C132.861 4.65386 132.594 3.72053 132.994 3.05386C134.461 0.653862 107.794 -1.07947 94.9939 0.787196ZM103.661 4.12053C103.261 4.52053 102.194 4.12053 101.261 3.1872C100.061 1.85386 100.194 1.72053 102.061 2.52053C103.394 2.92053 104.061 3.72053 103.661 4.12053ZM118.994 3.1872C120.727 4.3872 120.594 4.52053 118.727 3.85386C117.394 3.45386 115.527 3.9872 114.461 5.05386C113.394 6.12053 111.394 7.05386 110.061 6.92053C108.061 6.92053 108.061 6.65386 110.461 5.72053C112.061 5.05386 113.794 3.9872 114.327 3.1872C115.394 1.32053 116.461 1.32053 118.994 3.1872ZM96.3272 5.05386C96.3272 6.65386 93.7939 6.65386 93.2605 5.05386C92.7272 3.85386 93.1272 3.45386 94.4605 3.9872C95.3939 4.3872 96.3272 4.92053 96.3272 5.05386ZM110.594 3.85386C110.194 4.25386 108.994 4.3872 108.061 3.9872C106.994 3.5872 107.394 3.1872 108.861 3.1872C110.327 3.05386 111.127 3.45386 110.594 3.85386ZM132.061 6.12053C133.394 7.5872 133.661 8.3872 132.594 8.3872C131.661 8.3872 130.994 7.85386 130.994 7.05386C130.994 6.3872 129.261 5.9872 126.994 6.12053C121.127 6.52053 122.061 9.1872 128.061 9.32053C135.927 9.45386 156.061 16.2539 165.394 21.8539C171.127 25.3205 173.661 26.2539 173.661 24.9205C173.661 23.8539 172.727 23.0539 171.661 23.0539C169.394 23.0539 169.127 21.8539 170.861 19.1872C171.794 17.7205 172.194 17.7205 173.127 19.3205C173.794 20.3872 175.527 21.9872 176.994 22.9205C178.994 24.1205 179.127 24.3872 177.394 23.8539C173.661 22.7872 174.461 26.7872 178.727 30.3872C180.727 32.2539 183.127 33.3205 184.061 33.0539C184.994 32.6539 185.527 32.9205 185.127 33.4539C184.327 34.7872 192.327 44.7872 193.394 43.8539C193.661 43.4539 193.261 42.1205 192.194 40.9205C190.461 38.7872 190.594 38.7872 192.994 39.9872C194.461 40.7872 196.461 41.1872 197.394 40.9205C198.327 40.7872 198.461 40.9205 197.661 41.3205C196.994 41.5872 196.327 42.7872 196.327 43.8539C196.327 44.9205 195.661 45.7205 194.994 45.7205C194.194 45.7205 194.861 47.4539 196.461 49.7205C198.861 52.9205 199.794 53.3205 201.927 52.2539C203.927 51.1872 204.994 51.3205 206.327 53.3205C208.061 55.7205 206.861 57.7205 203.661 57.7205C202.994 57.7205 203.127 57.1872 204.194 56.5205C205.394 55.7205 205.527 55.0539 204.461 54.5205C201.127 52.3872 200.327 55.3205 202.727 60.1205C211.127 76.5205 212.994 86.2539 212.994 115.054C212.994 139.187 212.861 139.854 209.261 148.387C207.127 153.187 205.261 158.521 204.994 160.254C204.727 162.121 203.661 163.987 202.461 164.654C201.394 165.187 199.261 167.987 197.527 170.787C191.661 180.787 177.127 193.054 162.594 200.254C145.261 209.054 131.927 212.387 113.661 212.387C104.061 212.387 100.327 212.787 101.661 213.721C103.127 214.654 103.261 215.054 101.927 215.054C100.994 215.054 99.2605 214.121 98.1939 213.054C96.9939 211.987 94.9939 211.054 93.5272 211.054C88.9939 211.054 68.7272 205.721 63.3939 203.054C60.7272 201.721 57.5272 201.054 56.4606 201.454C55.3939 201.854 54.8606 201.587 55.3939 200.787C55.9272 199.987 54.1939 198.121 51.5272 196.521C45.7939 193.054 45.7939 193.054 46.0606 196.387C46.1939 197.987 46.9939 198.787 47.9272 198.521C48.8606 198.121 49.2606 198.654 48.8606 199.587C48.4606 200.654 46.9939 201.187 45.5272 200.787C42.9939 200.121 41.9272 197.721 44.0606 197.721C44.7272 197.721 45.1272 196.654 44.9939 195.321C44.7272 191.987 33.5272 180.121 31.3939 180.921C30.4606 181.321 29.3939 180.921 28.8606 180.121C28.3272 179.187 28.4606 179.054 29.3939 179.587C31.6606 180.921 31.3939 178.387 28.9939 176.387C27.9272 175.587 25.5272 172.254 23.6606 169.054C21.3939 165.054 19.6606 163.454 18.3272 163.854C17.2606 164.387 16.3272 165.321 16.3272 166.254C16.3272 167.054 15.7939 166.921 15.1272 165.721C13.5272 163.321 14.4606 161.587 16.9939 162.654C18.1939 163.054 18.9939 162.521 18.9939 161.187C18.9939 159.987 18.4606 159.054 17.6606 159.054C16.9939 159.054 16.7272 158.254 16.9939 157.321C17.3939 156.521 16.4606 154.254 14.9939 152.387C13.5272 150.521 12.3272 149.854 12.3272 150.654C12.3272 152.787 8.86056 152.921 7.52722 150.921C6.99389 149.987 7.39389 149.587 8.46056 149.987C12.7272 151.454 14.4606 144.387 10.9939 139.721C10.0606 138.521 8.46056 130.387 8.32722 125.987C8.32722 125.187 7.39389 124.387 6.32722 124.387C5.26056 124.387 4.32722 123.454 4.32722 122.387C4.32722 121.321 4.99389 120.387 5.79389 120.387C6.46056 120.387 6.72722 120.921 6.32722 121.721C5.92722 122.387 6.06056 123.054 6.86056 123.054C7.66056 123.054 8.19389 118.787 8.19389 112.654C8.19389 98.7872 12.4606 78.2539 17.3939 68.3872C18.8606 65.4539 19.5272 63.0539 18.9939 63.0539C18.3272 63.0539 17.6606 63.8539 17.2606 64.6539C16.9939 65.5872 16.7272 63.7205 16.8606 60.5205C16.9939 54.9205 16.9939 54.9205 18.4606 58.5205C19.9272 62.1205 19.9272 62.1205 21.5272 59.3205C22.3272 57.7205 22.5939 56.3872 22.0606 56.3872C21.5272 56.3872 22.1939 55.5872 23.6606 54.6539C25.1272 53.4539 25.6606 52.1205 24.9939 51.0539C24.3272 49.9872 24.4606 49.5872 25.3939 50.2539C26.1939 50.7872 27.6606 49.5872 28.8606 47.4539C29.7939 45.4539 32.9939 41.5872 35.7939 38.9205C43.2606 31.8539 47.6606 26.7872 47.2606 25.4539C47.1272 24.9205 48.1939 24.3872 49.5272 24.3872C50.9939 24.3872 55.6606 22.3872 59.9272 19.8539C68.4606 15.1872 84.0606 9.72053 89.2605 9.72053C90.9939 9.72053 92.1939 9.32053 91.9272 8.65386C91.5272 8.12053 98.1939 7.85386 106.727 8.12053C115.394 8.3872 121.927 8.12053 121.394 7.5872C119.661 5.9872 122.727 3.5872 126.327 3.72053C128.194 3.85386 130.727 4.92053 132.061 6.12053ZM85.9272 5.32053C85.1272 5.5872 84.5939 6.52053 84.9939 7.05386C85.3939 7.72053 84.9939 8.65386 84.1939 9.1872C83.1272 9.72053 82.9939 9.5872 83.5272 8.65386C84.8605 6.3872 82.3272 6.65386 80.3272 9.05386C79.3939 10.1205 78.1939 10.6539 77.3939 10.2539C76.7272 9.85386 75.2606 10.2539 74.0606 11.3205C72.5939 12.3872 72.1939 12.3872 72.7272 11.4539C73.3939 10.3872 72.8606 9.9872 71.1272 10.1205C69.1272 10.2539 68.8606 10.6539 69.9272 11.9872C70.7272 13.0539 70.8606 13.7205 69.9272 13.7205C69.2606 13.7205 67.9272 12.9205 67.1272 11.8539C64.8606 9.1872 67.1272 8.12053 74.0606 8.52053C78.3272 8.7872 79.6606 8.52053 79.5272 7.05386C79.3939 5.72053 80.8606 4.92053 83.5272 4.7872C85.7939 4.7872 86.8605 4.92053 85.9272 5.32053ZM104.727 6.65386C103.794 6.92053 102.194 6.92053 101.394 6.65386C100.461 6.25386 101.127 5.9872 102.994 5.9872C104.861 5.9872 105.527 6.25386 104.727 6.65386ZM143.661 8.12053C143.261 8.52053 142.194 8.12053 141.261 7.1872C140.061 5.85386 140.194 5.72053 142.061 6.52053C143.394 6.92053 144.061 7.72053 143.661 8.12053ZM153.794 11.8539C154.061 11.5872 155.127 12.1205 156.061 13.1872C157.394 14.6539 157.394 15.0539 155.927 15.0539C154.994 15.0539 153.661 14.6539 153.127 13.9872C152.594 13.4539 151.394 13.0539 150.594 13.0539C149.661 12.9205 149.127 12.2539 149.394 11.3205C149.527 10.3872 149.127 9.72053 148.327 9.72053C147.661 9.72053 146.994 9.05386 146.994 8.12053C146.994 7.32053 148.327 7.85386 150.061 9.45386C151.794 11.0539 153.394 12.1205 153.794 11.8539ZM142.327 9.72053C144.061 10.5205 144.327 10.9205 142.994 10.9205C141.927 10.9205 140.061 10.3872 138.994 9.72053C136.594 8.12053 138.727 8.12053 142.327 9.72053ZM169.661 19.5872C169.661 19.9872 169.127 20.6539 168.327 21.0539C167.661 21.4539 166.994 21.1872 166.994 20.5205C166.994 19.7205 167.661 19.0539 168.327 19.0539C169.127 19.0539 169.661 19.3205 169.661 19.5872ZM54.1939 21.9872C53.6606 22.6539 51.6606 23.0539 49.5272 22.7872C45.7939 22.2539 43.3939 24.5205 44.9939 27.1872C45.5272 27.8539 44.8606 27.9872 43.7939 27.5872C42.5939 27.1872 41.6606 27.3205 41.6606 27.9872C41.6606 28.6539 40.7272 29.3205 39.6606 29.3205C38.5939 29.3205 37.6606 28.3872 37.6606 27.3205C37.6606 26.1205 38.0606 25.7205 38.4606 26.1205C39.6606 27.3205 44.5939 24.5205 43.6606 23.0539C42.8606 21.7205 44.4606 21.1872 50.4606 20.7872C53.2606 20.6539 54.7272 21.0539 54.1939 21.9872ZM186.994 28.7872C188.327 31.4539 188.327 31.4539 186.594 29.3205C185.527 28.1205 183.661 27.0539 182.194 27.0539C179.927 27.0539 179.927 27.0539 182.327 28.7872C183.661 29.8539 184.194 30.9205 183.527 31.3205C182.861 31.5872 180.994 30.6539 179.527 29.1872L176.594 26.3872L181.127 26.1205C184.594 25.8539 185.927 26.3872 186.994 28.7872ZM192.594 37.1872C190.861 38.3872 189.127 38.9205 188.594 38.3872C187.527 37.3205 190.861 35.0539 193.661 35.0539C194.861 35.0539 194.461 35.8539 192.594 37.1872ZM27.5272 40.6539C26.8606 41.7205 27.2606 41.8539 28.7272 41.3205C31.6606 40.2539 31.5272 41.1872 28.3272 45.3205C26.8606 47.1872 25.6606 48.1205 25.6606 47.4539C25.6606 46.7872 26.4606 45.4539 27.3939 44.5205C28.7272 43.0539 28.5939 42.7872 26.7272 43.4539C23.9272 44.3872 23.6606 42.9205 25.9272 40.6539C27.9272 38.6539 28.7272 38.6539 27.5272 40.6539ZM201.527 47.8539C200.194 49.4539 200.327 49.5872 202.327 48.9205C204.061 48.2539 204.461 48.3872 203.794 49.4539C202.727 51.1872 199.127 51.5872 198.861 49.9872C197.794 43.9872 198.061 43.1872 200.594 44.5205C202.727 45.5872 202.861 46.2539 201.527 47.8539ZM20.3272 52.3872C20.3272 53.0539 19.6606 53.7205 18.8606 53.7205C18.1939 53.7205 17.9272 53.0539 18.3272 52.3872C18.7272 51.5872 19.3939 51.0539 19.7939 51.0539C20.0606 51.0539 20.3272 51.5872 20.3272 52.3872ZM23.6606 52.3872C24.0606 53.0539 23.7939 53.7205 23.1272 53.7205C22.3272 53.7205 21.6606 53.0539 21.6606 52.3872C21.6606 51.5872 21.9272 51.0539 22.1939 51.0539C22.5939 51.0539 23.2606 51.5872 23.6606 52.3872ZM209.527 60.2539C210.594 60.9205 210.727 61.7205 209.927 62.2539C208.061 63.3205 204.194 61.7205 205.127 60.2539C206.061 58.7872 207.127 58.7872 209.527 60.2539ZM15.5272 69.0539C14.9939 70.1205 14.1939 71.0539 13.5272 71.0539C12.8606 71.0539 12.3272 70.1205 12.3272 69.0539C12.3272 67.9872 13.2606 67.0539 14.3272 67.0539C15.5272 67.0539 15.9272 67.8539 15.5272 69.0539ZM212.861 71.1872C210.461 72.1205 210.461 72.2539 212.861 72.2539C214.861 72.3872 214.994 72.7872 213.661 74.3872C212.194 76.1205 212.327 76.2539 213.927 75.7205C215.127 75.1872 215.927 75.7205 215.927 76.7872C215.927 78.6539 213.261 79.0539 211.661 77.4539C208.861 74.7872 211.127 67.4539 214.061 69.3205C214.861 69.8539 214.461 70.5205 212.861 71.1872ZM10.3272 72.2539C9.92722 72.9205 10.7272 73.8539 11.9272 74.1205C13.7939 74.6539 13.6606 74.7872 11.3939 74.9205C8.32722 75.0539 7.39389 73.7205 9.26056 71.9872C10.4606 70.6539 11.2606 70.9205 10.3272 72.2539ZM12.3272 79.3205C12.3272 81.4539 11.9272 81.8539 10.8606 80.7872C10.0606 79.9872 9.79389 78.6539 10.1939 77.8539C11.6606 75.5872 12.3272 76.1205 12.3272 79.3205ZM214.594 81.1872C214.194 81.7205 214.327 83.1872 215.127 84.5205C215.927 85.9872 215.927 87.0539 215.127 87.0539C213.927 87.0539 212.327 83.9872 212.327 81.5872C212.327 80.9205 212.994 80.3872 213.927 80.3872C214.727 80.3872 214.994 80.7872 214.594 81.1872ZM8.32722 87.7205C8.99389 87.3205 9.26056 87.9872 9.12722 89.1872C8.72722 91.3205 5.92722 93.7205 3.66056 93.7205C2.99389 93.5872 3.39389 93.0539 4.72722 92.2539C5.92722 91.5872 6.99389 90.2539 6.99389 89.5872C6.99389 88.7872 6.46056 88.6539 5.66056 89.0539C4.86056 89.5872 4.72722 88.9205 5.26056 87.5872C5.79389 86.1205 6.32722 85.8539 6.72722 86.7872C6.99389 87.7205 7.66056 88.1205 8.32722 87.7205ZM218.194 90.5205C218.861 92.3872 218.727 92.5205 217.127 91.1872C215.527 89.8539 215.127 90.1205 214.594 92.6539C214.061 95.3205 214.061 95.3205 213.794 91.9872C213.661 87.9872 216.861 86.9205 218.194 90.5205ZM8.32722 94.9205C8.32722 95.5872 7.12722 96.3872 5.66056 96.7872C4.19389 97.1872 2.99389 96.9205 2.99389 96.3872C2.99389 95.7205 4.06056 94.9205 5.39389 94.6539C6.59389 94.2539 7.79389 93.9872 8.06056 93.8539C8.19389 93.8539 8.32722 94.2539 8.32722 94.9205ZM6.99389 100.921C6.99389 103.054 6.06056 104.254 4.06056 104.787C1.26056 105.454 1.26056 105.454 3.39389 103.854C4.59389 102.921 5.66056 101.054 5.66056 99.8539C5.66056 98.6539 5.92722 97.7205 6.32722 97.7205C6.72722 97.7205 6.99389 99.1872 6.99389 100.921ZM219.527 100.121C219.794 100.654 218.861 101.321 217.261 101.321C214.994 101.587 214.727 101.321 216.327 100.387C218.727 98.7872 218.727 98.7872 219.527 100.121ZM220.327 106.521C220.327 108.521 219.794 109.587 218.861 109.054C218.061 108.521 217.794 107.321 218.194 106.387C218.594 105.321 217.794 104.254 216.594 103.987C214.994 103.587 215.127 103.321 217.394 103.187C219.661 103.054 220.327 103.721 220.327 106.521ZM218.061 110.121C219.661 112.654 219.927 113.587 218.727 113.454C217.794 113.187 217.127 113.854 217.394 114.654C217.527 115.587 217.127 116.387 216.594 116.387C216.061 116.387 215.527 113.987 215.394 110.921C215.394 107.987 215.394 105.721 215.527 105.987C215.661 106.254 216.861 107.987 218.061 110.121ZM6.19389 115.054C6.59389 117.587 6.59389 118.921 6.19389 117.987C5.79389 117.187 4.46056 116.387 3.39389 116.387C1.79389 116.387 1.66056 115.987 2.86056 114.521C3.92722 113.187 4.06056 112.387 2.99389 111.721C2.19389 111.321 2.06056 110.254 2.46056 109.454C3.79389 107.454 5.39389 109.854 6.19389 115.054ZM220.327 119.854C220.327 120.921 219.794 121.454 218.994 121.054C218.327 120.654 217.661 119.721 217.661 118.921C217.661 118.254 218.327 117.721 218.994 117.721C219.794 117.721 220.327 118.654 220.327 119.854ZM218.994 126.254C218.994 126.521 218.061 127.054 216.994 127.587C215.927 127.987 214.994 127.721 214.994 127.054C214.994 126.254 215.927 125.721 216.994 125.721C218.061 125.721 218.994 125.987 218.994 126.254ZM8.32722 134.654C8.32722 137.987 6.32722 136.254 6.06056 132.787C5.92722 130.254 6.19389 129.854 7.12722 131.187C7.79389 132.254 8.32722 133.854 8.32722 134.654ZM218.994 131.054C218.994 131.721 218.061 131.987 216.994 131.587C215.927 131.054 214.994 130.521 214.994 130.254C214.994 129.987 215.927 129.721 216.994 129.721C218.061 129.721 218.994 130.254 218.994 131.054ZM218.994 134.921C218.994 135.587 217.794 136.387 216.327 136.787C214.861 137.187 213.661 136.921 213.661 136.387C213.661 135.721 214.727 134.921 216.061 134.654C217.261 134.254 218.461 133.987 218.727 133.854C218.861 133.854 218.994 134.254 218.994 134.921ZM9.39389 140.121C9.66056 141.054 8.59389 141.721 6.72722 141.587C5.12722 141.587 4.46056 141.187 5.39389 140.787C6.19389 140.521 6.59389 139.587 6.19389 138.787C5.66056 137.987 6.06056 137.587 6.99389 137.987C8.06056 138.254 9.12722 139.321 9.39389 140.121ZM10.3272 144.387C9.92722 145.054 10.1939 145.721 11.1272 145.721C12.0606 145.721 12.4606 146.121 11.9272 146.521C11.5272 146.921 9.92722 146.921 8.19389 146.387C5.92722 145.587 5.66056 145.187 7.12722 144.254C9.66056 142.654 11.3939 142.787 10.3272 144.387ZM215.661 145.587C215.527 146.787 214.461 147.854 213.261 148.121C211.794 148.387 211.394 147.854 211.927 145.987C212.594 142.921 216.194 142.654 215.661 145.587ZM214.061 151.987C213.127 152.254 212.861 153.454 213.127 154.387C213.661 155.587 212.994 156.121 211.127 155.987C209.261 155.854 208.861 155.321 209.661 154.254C210.461 153.454 210.727 152.521 210.327 152.254C210.061 151.854 211.127 151.587 212.727 151.454C214.327 151.454 214.994 151.587 214.061 151.987ZM14.3272 153.721C14.7272 154.521 13.7939 155.054 12.0606 155.054C9.66056 155.054 9.39389 154.787 10.9939 153.721C13.5272 152.121 13.3939 152.121 14.3272 153.721ZM14.9939 157.721C14.9939 158.387 14.3272 159.054 13.5272 159.054C12.8606 159.054 12.5939 159.721 13.1272 160.654C13.6606 161.587 13.5272 161.721 12.5939 161.187C10.3272 159.854 10.5939 156.387 12.9939 156.387C14.0606 156.387 14.9939 156.921 14.9939 157.721ZM22.3272 170.787C21.2606 171.854 18.9939 169.454 18.9939 167.321C18.9939 165.587 19.2606 165.587 20.8606 167.854C21.9272 169.187 22.5939 170.654 22.3272 170.787ZM206.327 168.387C206.727 169.187 206.194 169.321 205.127 168.921C202.727 167.987 202.327 167.054 204.194 167.054C204.994 167.054 205.927 167.587 206.327 168.387ZM21.3939 172.387C22.7272 172.387 24.4606 173.054 25.3939 173.987C27.3939 175.987 27.5272 181.721 25.5272 181.721C24.5939 181.721 24.3272 180.387 24.9939 178.121C25.7939 174.921 25.6606 174.787 23.3939 176.521C21.2606 178.254 21.1272 178.121 22.8606 175.987C24.4606 173.987 24.3272 173.721 21.1272 173.721C19.2606 173.721 17.6606 173.454 17.6606 173.187C17.6606 172.921 17.2606 171.454 16.8606 170.121C16.1939 167.854 16.1939 167.854 17.6606 169.987C18.4606 171.321 20.1939 172.387 21.3939 172.387ZM204.327 172.521C204.327 173.054 203.261 173.187 202.061 172.787C199.927 171.987 199.927 172.121 201.527 174.254C203.261 176.387 203.261 176.521 200.861 176.121C198.994 175.854 198.461 176.387 198.727 178.387C198.994 180.387 198.861 180.654 197.927 179.187C196.327 176.921 200.194 169.721 202.594 170.654C203.527 171.054 204.327 171.854 204.327 172.521ZM194.594 182.654C192.861 184.387 192.061 184.521 190.727 183.321C189.527 182.121 189.661 181.721 191.394 181.721C192.594 181.721 193.661 180.654 193.661 179.454C193.661 177.721 194.061 177.587 195.261 178.787C196.594 179.987 196.327 180.921 194.594 182.654ZM31.6606 184.387C29.3939 185.321 29.3939 185.587 31.3939 185.587C32.5939 185.721 33.6606 186.387 33.6606 187.187C33.6606 187.854 34.3272 188.121 34.9939 187.721C37.1272 186.387 40.3272 189.587 40.1939 192.921C40.0606 195.454 39.9272 195.321 38.9939 192.387C38.0606 189.454 36.9939 191.054 37.6606 194.387C37.7939 195.054 36.3272 194.254 34.4606 192.521C32.5939 190.787 31.3939 188.787 31.7939 188.254C32.1939 187.587 31.5272 187.054 30.4606 187.054C28.1939 187.054 27.6606 185.454 29.2606 183.987C29.6606 183.454 30.9939 183.054 32.1939 183.187C33.7939 183.187 33.6606 183.587 31.6606 184.387ZM191.661 185.854C192.194 186.654 192.194 187.587 191.661 188.121C191.127 188.654 190.327 188.254 190.061 187.321C189.527 185.987 188.994 185.987 187.527 187.187C185.927 188.521 185.794 188.387 186.461 186.521C187.394 184.121 190.327 183.721 191.661 185.854ZM186.994 191.054C185.927 191.721 185.661 192.387 186.327 192.521C187.127 192.521 186.461 193.054 184.994 193.587C183.527 194.254 181.794 194.387 181.261 194.121C179.794 193.321 184.461 189.854 186.994 189.721C188.727 189.721 188.727 189.854 186.994 191.054ZM175.927 195.987C175.394 196.387 175.661 197.587 176.594 198.654C177.661 200.121 177.527 200.254 175.794 199.587C174.594 199.187 173.661 198.387 173.661 197.854C173.661 196.654 175.127 195.054 176.061 195.054C176.461 195.054 176.327 195.454 175.927 195.987ZM161.394 204.387C160.461 205.854 159.127 207.054 158.461 207.054C157.794 207.054 158.327 205.854 159.661 204.387C160.994 202.921 162.327 201.721 162.594 201.721C162.861 201.721 162.327 202.921 161.394 204.387ZM61.2606 203.854C60.8606 204.254 59.6606 204.387 58.7272 203.987C57.6606 203.587 58.0606 203.187 59.5272 203.187C60.9939 203.054 61.7939 203.454 61.2606 203.854ZM56.9939 205.721C57.3939 206.387 57.1272 207.054 56.4606 207.054C55.6606 207.054 54.9939 206.387 54.9939 205.721C54.9939 204.921 55.2606 204.387 55.5272 204.387C55.9272 204.387 56.5939 204.921 56.9939 205.721ZM70.1939 210.654C68.1939 212.787 66.4606 212.921 67.6606 211.054C68.1939 210.254 67.1272 208.521 65.3939 207.054C62.3272 204.521 62.3272 204.521 67.1272 206.787C70.8606 208.654 71.5272 209.454 70.1939 210.654ZM165.661 206.254C165.661 207.721 163.127 208.254 162.327 207.054C161.927 206.387 162.461 205.721 163.527 205.721C164.727 205.721 165.661 205.987 165.661 206.254ZM78.9939 211.054C78.9939 211.721 78.4606 212.387 77.7939 212.387C77.1272 212.387 75.5272 212.787 74.1939 213.321C72.0606 214.121 71.9272 213.987 73.6606 211.987C75.9272 209.587 78.9939 209.054 78.9939 211.054ZM82.1939 213.054C81.6606 214.121 81.1272 215.054 80.8606 215.054C80.5939 215.054 80.3272 214.121 80.3272 213.054C80.3272 211.987 80.8606 211.054 81.6606 211.054C82.3272 211.054 82.5939 211.987 82.1939 213.054ZM87.6605 213.721C87.2605 214.254 87.9272 215.054 88.9939 215.587C90.0605 215.987 91.2605 215.721 91.6605 215.054C92.0605 214.521 91.5272 213.587 90.7272 213.321C89.6605 212.921 90.0605 212.521 91.5272 212.521C93.1272 212.387 93.6605 213.054 93.1272 214.387C92.7272 215.454 92.9939 216.387 93.6605 216.387C94.4605 216.387 94.9939 215.721 94.9939 214.921C94.9939 214.254 95.6605 213.987 96.3272 214.387C98.7272 215.854 96.1939 217.854 92.5939 217.187C90.5939 216.921 88.0605 216.521 86.7272 216.521C85.2605 216.387 84.7272 215.587 85.2605 213.721C85.6605 212.254 86.4605 211.454 87.1272 211.854C87.7939 212.254 88.0605 213.054 87.6605 213.721ZM136.061 214.654C135.794 215.987 134.194 217.321 132.461 217.454C130.461 217.721 129.661 217.454 130.194 216.521C130.861 215.587 129.661 214.921 127.394 214.921C123.927 214.654 124.061 214.654 128.327 213.721C135.794 212.121 136.594 212.254 136.061 214.654ZM107.394 216.387C106.727 219.054 105.394 219.721 103.927 218.121C103.261 217.587 106.327 214.121 107.927 213.721C107.927 213.721 107.794 214.921 107.394 216.387ZM141.661 215.054C138.994 216.787 137.261 216.787 138.327 215.054C138.727 214.254 140.194 213.721 141.394 213.721C143.394 213.721 143.394 213.987 141.661 215.054ZM101.661 217.721C101.661 218.387 100.594 219.054 99.3939 219.054C97.3939 219.054 97.2605 218.787 98.9939 217.721C101.527 216.121 101.661 216.121 101.661 217.721Z" fill="black"/>
<path d="M98.9939 32.5205C91.7939 33.5872 71.6606 40.1205 74.3272 40.5205C75.1272 40.6538 76.1939 40.6538 76.7272 40.5205C77.2606 40.3872 78.7272 41.1872 79.6606 42.2538C81.3939 43.9872 81.1272 44.3872 77.6606 45.9872C75.3939 46.9205 73.6606 48.1205 73.6606 48.6538C73.6606 49.3205 72.7272 49.7205 71.6606 49.7205C67.1272 49.7205 70.5939 46.1205 76.0606 44.9205C81.1272 43.9872 78.8606 42.7872 73.1272 43.4538C67.6606 43.9872 65.6606 44.9205 61.7939 49.1872C59.1272 52.1205 54.9939 58.2538 52.7272 63.0538C50.3272 67.8538 45.9272 74.3872 42.8606 77.5872C33.3939 87.4538 34.3272 97.9872 45.5272 106.921C51.2606 111.587 53.2606 111.987 53.2606 109.054C53.2606 107.721 52.4606 107.187 51.2606 107.721C49.5272 108.387 49.5272 108.121 51.1272 106.254C52.1939 104.921 53.1272 104.654 53.3939 105.587C53.6606 106.387 54.4606 106.654 55.1272 106.254C55.9272 105.854 57.1272 106.121 58.0606 106.787C59.6606 108.254 60.3272 108.387 63.6606 108.387C64.8606 108.387 65.2606 109.187 64.7272 110.521C64.3272 111.721 63.5272 112.121 63.1272 111.454C61.3939 109.187 56.4606 107.054 55.6606 108.387C55.2606 109.187 55.6606 109.721 56.5939 109.721C57.9272 109.721 57.9272 110.121 56.4606 110.921C53.5272 112.787 62.8606 114.121 71.7939 113.187C80.1939 112.254 84.3272 110.521 84.3272 107.721C84.3272 106.121 82.0606 105.721 72.0606 105.987C59.3939 106.254 54.7272 105.054 47.3939 99.5872C44.4606 97.4538 44.4606 97.5872 45.6606 101.454C46.4606 104.654 46.3272 105.454 44.9939 104.787C43.9272 104.387 43.3939 102.654 43.6606 100.521C44.1939 95.9872 42.9939 89.7205 41.6606 89.7205C40.9939 89.7205 40.8606 91.0538 41.1272 92.6538C41.6606 95.4538 41.6606 95.4538 40.5939 93.0538L39.3939 90.3872L38.7272 93.0538C38.0606 95.5872 37.9272 95.5872 37.7939 92.7872C37.6606 90.7872 38.7272 89.5872 41.6606 88.5205C45.6606 87.1872 46.7272 85.1872 44.3272 83.7205C43.6606 83.3205 42.9939 82.1205 42.9939 81.3205C42.9939 80.3872 43.6606 80.7872 44.4606 82.1205C45.7939 84.5205 46.1939 84.3872 50.4606 80.2538C52.8606 77.8538 54.5939 75.4538 54.1939 74.7872C53.7939 74.2538 54.0606 73.7205 54.8606 73.7205C55.5272 73.7205 58.0606 69.9872 60.3272 65.3205C63.7939 58.2538 65.7939 55.9872 72.7272 51.4538C77.2606 48.5205 83.5272 45.1872 86.7272 44.2538C91.5272 42.9205 92.4606 42.1205 91.7939 39.8538C91.2606 37.5872 91.3939 37.4538 92.5939 39.1872C93.7939 40.7872 95.5272 41.0538 102.727 40.1205C110.861 39.1872 115.527 39.7205 122.061 42.3872C123.927 43.1872 124.194 42.9205 123.527 40.9205C122.994 39.4538 122.994 38.7872 123.527 39.3205C124.061 39.7205 124.594 40.9205 124.861 41.9872C125.394 45.8538 134.994 53.0538 134.994 49.7205C134.994 49.0538 135.927 48.7872 136.994 49.1872C138.061 49.7205 138.727 50.5205 138.327 51.0538C137.927 51.7205 138.461 52.5205 139.261 52.7872C140.327 53.1872 140.061 53.5872 138.727 53.5872C137.394 53.7205 136.327 53.1872 136.327 52.6538C136.327 52.1205 134.994 51.5872 133.527 51.4538C129.527 51.0538 131.394 52.5205 138.327 55.1872C142.461 56.7872 144.327 56.9205 144.327 55.9872C144.327 54.7872 144.594 54.7872 145.394 55.8538C145.927 56.6538 148.194 57.8538 150.594 58.2538C153.527 58.9205 154.594 59.8538 154.061 61.1872C153.261 63.3205 156.994 63.8538 158.327 61.7205C158.861 60.9205 158.194 60.7872 156.861 61.3205C155.261 61.9872 154.861 61.7205 155.661 60.5205C156.194 59.4538 155.927 58.3872 154.994 57.7205C153.927 57.0538 154.461 56.5205 156.594 56.1205C159.394 55.5872 159.794 55.9872 159.661 59.5872C159.661 62.7872 158.994 63.7205 156.461 64.3872C154.194 64.9205 152.861 66.3872 152.061 69.4538C151.394 71.7205 149.794 74.2538 148.194 75.0538C146.727 75.8538 145.927 77.0538 146.327 77.7205C146.727 78.3872 146.327 79.3205 145.527 79.8538C144.461 80.5205 144.327 80.2538 144.994 79.0538C145.794 77.8538 145.261 77.7205 142.861 78.3872C135.527 80.7872 130.994 81.3205 118.727 80.9205C108.061 80.6538 105.661 81.0538 104.994 82.7872C103.527 86.5205 107.394 88.2538 118.594 88.7872C124.594 89.0538 129.394 88.9205 129.127 88.5205C128.861 88.1205 130.994 87.7205 133.927 87.5872C136.994 87.5872 139.794 86.7872 140.461 85.5872C141.527 84.2538 141.527 84.6538 140.861 87.0538C139.261 92.9205 135.261 97.1872 130.061 98.7872C121.661 101.321 113.394 101.587 109.261 99.5872C107.261 98.5205 104.994 97.9872 104.327 98.3872C103.661 98.7872 103.261 98.3872 103.661 97.4538C104.061 96.5205 102.461 94.6538 100.061 93.1872C88.7272 86.5205 83.7939 84.2538 82.0606 84.9205C80.9939 85.3205 80.4606 85.1872 80.8606 84.5205C81.6606 83.1872 77.3939 81.7205 72.7272 81.7205C70.4606 81.7205 69.6606 82.5205 69.6606 84.7872C69.6606 87.4538 71.1272 88.5205 79.3939 91.5872C84.5939 93.7205 90.0606 96.2538 91.2606 97.3205C92.5939 98.5205 94.4606 99.0538 95.6606 98.5205C96.8606 98.1205 97.5272 98.2538 97.1272 98.7872C96.1939 100.387 100.061 104.787 101.661 103.721C102.461 103.321 102.861 103.587 102.727 104.387C102.061 107.054 111.927 109.987 114.994 108.121C116.727 106.921 117.127 105.987 116.194 104.921C115.261 103.721 115.661 103.054 117.527 102.387C121.261 101.321 123.527 102.787 121.794 104.921C120.994 105.854 120.861 107.187 121.394 107.721C121.927 108.387 121.527 108.387 120.727 107.854C119.794 107.321 117.927 107.587 116.727 108.387C114.861 109.454 115.661 109.721 120.327 109.187C123.661 108.787 127.127 108.521 128.061 108.521C129.127 108.387 129.394 107.721 128.861 106.654C128.194 105.587 128.461 105.587 130.061 106.921C132.461 108.787 132.194 108.921 134.194 102.521C134.727 101.187 134.194 100.787 132.594 101.187C130.727 101.854 130.861 101.587 132.861 99.8538C134.327 98.6538 136.727 97.7205 138.194 97.8538C140.194 97.8538 140.461 98.1205 138.994 98.6538C136.727 99.5872 134.994 101.721 134.994 103.721C134.994 104.521 138.327 104.921 143.261 104.654C149.661 104.387 154.727 105.187 164.194 108.121C171.127 110.254 178.061 111.721 179.527 111.187C182.194 110.521 182.194 110.387 179.394 109.987C177.661 109.721 176.327 108.921 176.327 108.254C176.327 107.454 177.527 107.321 178.994 107.721C180.461 108.121 181.661 107.987 181.661 107.321C181.661 105.187 164.194 98.7872 158.194 98.5205C155.127 98.5205 152.861 97.9872 153.261 97.3205C154.194 95.7205 148.994 96.2538 147.127 97.9872C145.661 99.3205 145.394 99.3205 146.194 97.9872C146.861 96.9205 146.194 96.3872 144.461 96.3872C142.861 96.3872 141.661 95.7205 141.661 94.9205C141.661 94.2538 140.994 93.9872 140.061 94.5205C139.127 95.0538 138.994 94.9205 139.527 93.9872C140.061 93.0538 141.394 92.3872 142.461 92.3872C143.527 92.3872 144.061 92.9205 143.661 93.7205C143.261 94.3872 143.394 95.0538 144.194 95.0538C144.861 95.0538 146.461 92.3872 147.794 89.0538C149.127 85.4538 150.861 83.0538 152.194 82.9205C153.661 82.9205 153.261 82.5205 151.394 81.7205C147.394 80.1205 147.527 79.3205 151.394 79.9872C154.994 80.6538 156.461 79.0538 159.261 71.0538C162.061 63.0538 162.994 57.3205 161.794 55.3205C160.461 53.1872 152.594 50.1205 145.394 49.0538C140.861 48.3872 138.461 47.1872 137.127 44.9205C133.261 39.1872 127.661 35.0538 121.127 33.0538C113.927 30.9205 110.194 30.7872 98.9939 32.5205ZM102.594 36.1205C102.594 37.4538 101.394 38.5205 100.194 38.5205C97.9272 38.5205 97.9272 38.3872 100.061 36.1205C102.861 33.3205 102.861 33.3205 102.594 36.1205ZM121.261 34.5205C120.861 34.9205 119.661 35.0538 118.727 34.6538C117.661 34.2538 118.061 33.8538 119.527 33.8538C120.994 33.7205 121.794 34.1205 121.261 34.5205ZM117.261 38.5205C116.061 39.7205 113.527 37.7205 114.461 36.1205C114.994 35.3205 115.794 35.3205 116.727 36.2538C117.527 37.0538 117.794 37.9872 117.261 38.5205ZM96.3272 37.7205C96.3272 38.3872 96.0606 39.0538 95.7939 39.0538C95.3939 39.0538 94.7272 38.3872 94.3272 37.7205C93.9272 36.9205 94.1939 36.3872 94.8606 36.3872C95.6606 36.3872 96.3272 36.9205 96.3272 37.7205ZM85.6606 39.0538C85.6606 39.7205 84.3272 40.3872 82.7272 40.3872C80.1939 40.3872 80.0606 40.1205 81.6606 39.0538C84.1939 37.3205 85.6606 37.3205 85.6606 39.0538ZM89.6606 40.3872C89.6606 41.0538 88.9939 41.7205 88.1939 41.7205C87.5272 41.7205 87.2606 41.0538 87.6606 40.3872C88.0606 39.5872 88.7272 39.0538 89.1272 39.0538C89.3939 39.0538 89.6606 39.5872 89.6606 40.3872ZM132.061 43.7205C131.927 45.5872 131.261 47.0538 130.727 47.0538C129.394 47.0538 129.394 45.3205 130.461 42.5205C131.661 39.4538 132.327 39.9872 132.061 43.7205ZM64.9939 49.7205C65.3939 50.3872 65.1272 51.0538 64.4606 51.0538C63.6606 51.0538 62.9939 50.3872 62.9939 49.7205C62.9939 48.9205 63.2606 48.3872 63.5272 48.3872C63.9272 48.3872 64.5939 48.9205 64.9939 49.7205ZM152.994 52.3872C153.527 53.1872 154.461 53.4538 155.127 53.0538C155.794 52.5205 156.327 52.5205 156.327 52.9205C156.327 53.3205 154.994 54.2538 153.527 55.1872C151.527 56.2538 150.994 56.2538 151.527 55.1872C152.061 54.3872 151.794 53.7205 151.127 53.7205C150.327 53.7205 149.661 53.0538 149.661 52.3872C149.661 50.6538 151.927 50.6538 152.994 52.3872ZM63.6606 55.1872C63.1272 55.8538 61.5272 56.2538 59.9272 56.2538C57.6606 56.1205 57.5272 55.9872 59.3939 55.4538C60.5939 55.1872 61.6606 54.2538 61.6606 53.5872C61.6606 52.7872 62.3272 52.6538 62.9939 53.0538C63.7939 53.5872 64.0606 54.5205 63.6606 55.1872ZM59.5272 61.5872C60.0606 62.2538 59.3939 62.6538 58.3272 62.5205C55.5272 62.1205 54.1939 60.3872 56.7272 60.3872C57.9272 60.3872 59.1272 60.9205 59.5272 61.5872ZM57.6606 67.7205C56.7272 68.7872 55.3939 69.3205 54.5939 68.7872C53.7939 68.2538 53.5272 68.7872 54.0606 70.1205C54.4606 71.4538 54.3272 72.3872 53.6606 72.3872C52.8606 72.3872 52.3272 71.1872 52.3272 69.7205C52.3272 67.9872 53.2606 67.0538 54.9939 67.0538C56.4606 67.0538 57.6606 66.3872 57.6606 65.4538C57.6606 64.6538 58.0606 64.3872 58.4606 64.7872C58.9939 65.3205 58.5939 66.5205 57.6606 67.7205ZM158.994 68.5205C158.994 69.1872 158.594 69.5872 158.061 69.5872C155.394 69.1872 154.461 69.8538 156.194 70.9205C157.661 71.8538 157.394 72.5205 154.861 73.8538C151.927 75.3205 151.794 75.3205 153.527 73.3205C154.461 71.9872 154.861 71.0538 154.327 71.0538C153.794 71.0538 154.061 70.2538 154.861 69.3205C155.661 68.2538 155.927 67.0538 155.394 66.5205C154.861 65.9872 155.394 65.9872 156.727 66.5205C157.927 66.9205 158.994 67.8538 158.994 68.5205ZM50.5939 73.0538C50.5939 74.1205 50.0606 74.6538 49.3939 74.2538C48.8606 73.8538 48.3272 73.8538 48.3272 74.2538C48.3272 74.5205 47.9272 75.9872 47.3939 77.3205C46.5939 79.4538 46.7272 79.5872 48.9939 77.7205C51.2606 75.8538 51.2606 75.8538 49.6606 78.5205C48.3272 80.6538 47.5272 81.0538 46.1939 79.8538C44.9939 78.6538 45.2606 77.5872 47.2606 74.6538C50.1939 70.5205 50.5939 70.3872 50.5939 73.0538ZM155.394 77.0538C154.994 78.2538 154.327 78.9205 154.061 78.5205C153.661 78.1205 153.794 77.3205 154.327 76.5205C155.527 74.3872 156.327 74.7872 155.394 77.0538ZM111.661 84.1205C111.261 84.5205 110.194 84.1205 109.261 83.1872C108.061 81.8538 108.194 81.7205 110.061 82.5205C111.394 82.9205 112.061 83.7205 111.661 84.1205ZM42.3272 84.3872C42.7272 85.1872 42.1939 85.3205 41.1272 84.9205C38.7272 83.9872 38.3272 83.0538 40.1939 83.0538C40.9939 83.0538 41.9272 83.5872 42.3272 84.3872ZM77.6606 85.7205C78.8606 87.9872 78.7272 88.3872 75.7939 88.3872C73.9272 88.3872 72.1939 87.8538 71.7939 87.1872C71.2606 86.5205 72.1939 86.2538 73.6606 86.6538C75.2606 87.0538 76.3272 86.6538 76.3272 85.8538C76.3272 84.9205 75.7939 84.6538 74.9939 85.0538C74.3272 85.4538 73.6606 85.1872 73.6606 84.5205C73.6606 82.1205 76.1939 82.9205 77.6606 85.7205ZM116.994 84.5205C118.461 86.6538 117.127 87.0538 115.261 84.9205C114.327 83.8538 114.194 83.0538 114.861 83.0538C115.527 83.0538 116.594 83.7205 116.994 84.5205ZM123.394 83.9872C122.461 84.2538 120.861 84.2538 120.061 83.9872C119.127 83.5872 119.794 83.3205 121.661 83.3205C123.527 83.3205 124.194 83.5872 123.394 83.9872ZM135.927 84.2538C137.127 83.1872 137.661 83.1872 137.661 84.1205C137.661 84.9205 136.861 85.7205 136.061 86.1205C133.394 86.9205 129.527 85.5872 130.461 84.1205C130.994 83.3205 131.794 83.3205 132.727 84.2538C133.661 85.1872 134.594 85.1872 135.927 84.2538ZM108.994 85.7205C109.394 86.3872 109.261 87.0538 108.461 87.0538C107.794 87.0538 106.727 86.3872 106.327 85.7205C105.927 84.9205 106.061 84.3872 106.861 84.3872C107.527 84.3872 108.594 84.9205 108.994 85.7205ZM145.661 84.9205C145.661 85.3205 145.127 85.9872 144.327 86.3872C143.661 86.7872 142.994 86.5205 142.994 85.8538C142.994 85.0538 143.661 84.3872 144.327 84.3872C145.127 84.3872 145.661 84.6538 145.661 84.9205ZM84.8606 90.2538C84.4606 91.4538 83.5272 91.9872 82.8606 91.5872C82.1939 91.1872 82.4606 90.1205 83.3939 89.0538C85.3939 86.9205 85.9272 87.3205 84.8606 90.2538ZM90.9939 92.3872C90.9939 93.0538 89.7939 93.4538 88.3272 93.3205C85.3939 93.1872 84.7272 91.5872 87.3939 90.6538C89.2606 89.9872 90.9939 90.7872 90.9939 92.3872ZM101.127 95.9872C100.861 96.3872 99.2606 95.9872 97.7939 95.0538C95.1272 93.7205 94.4606 94.1205 94.8606 96.7872C94.9939 97.4538 94.4606 97.5872 93.6606 97.0538C92.5939 96.3872 92.5939 95.5872 93.6606 94.3872C94.8606 92.9205 95.9272 92.9205 98.4606 93.9872C100.194 94.7872 101.394 95.7205 101.127 95.9872ZM41.7939 99.3205C43.2606 102.121 43.2606 102.254 41.2606 100.521C39.9272 99.5872 38.9939 98.2538 38.9939 97.5872C38.9939 95.5872 40.1939 96.2538 41.7939 99.3205ZM108.861 101.587C109.394 102.254 108.461 102.521 106.994 102.121C103.927 101.321 103.527 100.387 106.194 100.387C107.261 100.387 108.461 100.921 108.861 101.587ZM164.861 104.654C164.461 105.187 163.261 104.787 162.194 103.721C160.994 102.654 159.527 102.121 158.727 102.521C157.794 103.054 157.661 102.787 158.194 101.987C158.861 100.921 159.927 100.921 162.327 101.987C164.061 102.787 165.261 103.987 164.861 104.654ZM50.3272 104.121C49.9272 104.521 48.8606 104.121 47.9272 103.187C46.7272 101.854 46.8606 101.721 48.7272 102.521C50.0606 102.921 50.7272 103.721 50.3272 104.121ZM156.327 103.054C156.327 103.721 155.794 104.387 154.994 104.387C154.327 104.387 153.661 103.721 153.661 103.054C153.661 102.254 154.327 101.721 154.994 101.721C155.794 101.721 156.327 102.254 156.327 103.054ZM172.861 107.454C174.594 107.321 174.861 107.721 173.794 108.787C172.061 110.521 166.994 106.387 166.994 103.187C166.994 101.854 167.661 102.254 168.727 104.387C169.794 106.254 171.527 107.587 172.861 107.454ZM109.661 105.721C109.661 106.387 108.994 107.054 108.194 107.054C107.527 107.054 107.261 106.387 107.661 105.721C108.061 104.921 108.727 104.387 109.127 104.387C109.394 104.387 109.661 104.921 109.661 105.721ZM175.927 105.187C175.527 105.587 174.327 105.721 173.394 105.321C172.327 104.921 172.727 104.521 174.194 104.521C175.661 104.387 176.461 104.787 175.927 105.187ZM82.9939 108.521C82.9939 109.321 82.3272 109.454 81.5272 108.921C80.7272 108.521 79.5272 108.787 78.9939 109.854C78.0606 111.187 77.3939 111.187 75.9272 109.987C74.3272 108.654 73.7939 108.787 73.1272 110.387C72.7272 111.454 71.3939 112.387 70.0606 112.254C68.1939 112.254 68.0606 111.987 69.6606 111.454C70.7272 111.054 72.0606 109.987 72.5939 109.187C73.6606 107.321 82.9939 106.787 82.9939 108.521Z" fill="black"/>
<path d="M102.994 46.387C102.194 47.4537 101.927 49.0537 102.461 49.8537C102.994 50.787 102.861 51.0537 102.061 50.6537C100.061 49.3203 99.2606 53.587 100.594 58.5203C101.794 63.3203 105.127 65.187 107.794 62.9203C109.394 61.7203 109.527 61.7203 108.994 63.3203C108.327 64.9203 108.994 65.187 111.527 64.787C113.394 64.387 114.994 63.587 114.994 62.9203C114.994 62.2537 115.794 62.1203 116.861 62.5203C119.527 63.587 122.994 57.987 122.994 52.787C122.994 49.8537 122.061 47.8537 120.061 46.5203C116.194 43.8537 105.261 43.7203 102.994 46.387ZM106.461 50.387C106.461 52.2537 106.061 53.7203 105.394 53.7203C104.861 53.7203 104.327 51.8537 104.327 49.4537C104.327 44.6537 106.194 45.4537 106.461 50.387ZM121.661 51.3203C121.661 51.8537 120.994 52.387 120.194 52.387C119.527 52.387 119.261 51.7203 119.661 51.0537C120.461 49.7203 118.727 49.187 115.127 49.587C113.661 49.8537 113.661 49.587 115.127 47.987C116.727 46.2537 117.261 46.2537 119.394 47.987C120.594 49.187 121.661 50.6537 121.661 51.3203ZM112.194 51.0537C113.527 51.7203 115.127 53.3203 115.527 54.6537C116.061 55.987 116.061 56.5203 115.527 55.987C114.994 55.4537 113.527 55.987 112.327 57.0537C110.327 58.9203 109.794 58.9203 108.194 56.9203C106.727 55.0537 106.727 54.5203 108.727 53.0537C110.594 51.7203 110.727 51.187 109.394 50.6537C108.461 50.2537 108.194 49.8537 108.727 49.8537C109.394 49.7203 110.861 50.2537 112.194 51.0537ZM120.727 56.5203C120.194 58.5203 119.661 58.787 118.861 57.587C118.061 56.1203 119.394 53.8537 121.261 53.7203C121.261 53.7203 121.127 54.9203 120.727 56.5203ZM105.661 60.787C105.661 63.8537 105.394 63.7203 103.127 59.4537C101.794 56.9203 101.927 56.5203 103.661 57.187C104.727 57.7203 105.661 59.187 105.661 60.787ZM117.661 60.787C117.661 61.587 117.261 61.7203 116.861 61.3203C116.327 60.9203 114.861 61.0537 113.394 61.8537C110.994 63.0537 110.994 62.9203 112.194 60.5203C113.661 57.8537 117.661 57.987 117.661 60.787Z" fill="black"/>
<path d="M118.327 104.387C118.861 105.187 119.794 105.454 120.461 105.054C122.327 103.854 121.927 103.054 119.527 103.054C118.461 103.054 117.927 103.721 118.327 104.387Z" fill="black"/>
<path d="M89.9272 128.787C89.1272 129.721 88.5938 132.254 88.7272 134.387C88.9938 137.721 89.6605 138.387 92.3272 138.121C95.5272 137.854 95.5272 137.854 92.0605 139.187C87.3938 141.054 87.1272 145.454 91.3938 151.721C95.2605 157.321 96.3272 156.521 96.4605 148.521C96.4605 145.187 96.8605 143.187 97.2605 143.987C97.6605 145.321 98.5938 145.321 100.594 144.254C102.727 143.054 103.127 143.187 102.327 144.521C101.527 145.721 101.927 145.987 103.394 145.321C104.727 144.787 105.661 145.054 105.661 145.854C105.661 146.787 104.327 147.054 102.327 146.521C100.461 145.987 98.9938 146.121 98.9938 146.654C98.9938 148.787 108.994 164.921 110.727 165.454C111.661 165.721 112.327 164.654 112.461 162.787C112.594 160.521 112.861 160.387 113.261 161.987C113.527 163.321 114.461 164.387 115.261 164.387C115.927 164.387 116.327 163.454 115.794 162.387C115.394 161.187 115.794 160.387 116.994 160.387C118.061 160.387 119.127 159.454 119.261 158.387C119.261 157.321 119.394 155.587 119.527 154.654C119.661 153.854 120.461 152.254 121.394 151.321C123.794 148.787 123.394 145.721 120.727 145.854C119.261 145.854 118.994 146.254 120.061 146.654C120.861 146.921 121.661 147.987 121.661 148.787C121.661 149.587 120.727 149.321 119.527 148.121C117.927 146.521 117.661 145.454 118.861 143.587C119.661 142.121 120.327 141.854 120.327 142.654C120.327 143.587 121.127 144.387 122.194 144.387C124.861 144.387 125.527 145.854 126.327 153.321C128.594 175.854 129.127 177.721 133.127 177.721C136.061 177.721 135.394 171.854 132.327 169.987C130.727 169.054 129.927 167.587 130.461 166.787C130.994 165.854 130.861 165.721 129.927 166.254C127.394 167.854 128.061 162.921 130.727 160.921C132.594 159.454 132.594 159.187 130.994 159.054C129.794 159.054 128.861 157.854 128.727 156.387C128.594 154.387 129.261 153.721 131.394 153.854C134.194 153.854 134.194 153.987 131.661 154.921C129.127 155.987 129.127 155.987 132.061 157.587C134.861 159.054 134.994 158.921 134.861 152.121C134.727 140.921 132.861 132.121 130.194 130.121C128.194 128.654 127.527 128.787 125.394 132.121C124.061 134.121 122.994 135.054 122.994 134.254C122.994 133.587 123.794 132.121 124.727 131.187C126.061 129.721 125.927 129.454 124.594 130.254C123.661 130.787 120.861 135.854 118.194 141.454C112.994 152.787 108.194 157.721 104.994 155.054C103.927 154.121 102.994 152.787 102.994 151.987C102.994 151.187 103.794 151.721 104.861 153.054C106.461 155.187 106.994 155.321 108.727 153.854C110.594 152.387 110.327 151.187 106.061 143.321C103.394 138.387 100.461 133.454 99.5272 132.387C97.5272 130.121 92.3272 129.187 92.3272 131.187C92.3272 131.854 91.6605 132.387 90.8605 132.387C89.7938 132.387 89.9272 131.721 90.9938 130.387C91.9272 129.187 93.5272 128.521 94.5938 128.921C95.5272 129.321 96.3272 129.054 96.3272 128.387C96.3272 126.387 91.5272 126.787 89.9272 128.787ZM99.5272 137.054C98.9938 138.121 98.0605 139.054 97.3938 139.054C96.5938 139.054 96.7272 138.254 97.6605 137.054C98.5938 135.987 99.5272 135.054 99.7938 135.054C100.061 135.054 99.9272 135.987 99.5272 137.054ZM125.927 138.654C125.127 139.054 124.594 139.854 125.127 140.521C125.527 141.187 125.127 141.721 124.461 141.721C123.661 141.721 122.994 141.187 122.994 140.654C122.994 139.054 126.061 136.387 126.861 137.321C127.261 137.721 126.861 138.387 125.927 138.654ZM131.927 138.121C131.927 139.187 131.127 139.987 130.194 139.987C129.261 139.987 128.861 139.187 129.261 138.121C129.661 137.187 130.327 136.387 130.861 136.387C131.394 136.387 131.927 137.187 131.927 138.121ZM94.9938 141.721C94.9938 142.387 93.6605 143.054 92.0605 142.921C89.1272 142.921 89.1272 142.787 91.6605 141.721C93.1272 141.054 94.4605 140.521 94.7272 140.521C94.8605 140.387 94.9938 140.921 94.9938 141.721ZM131.394 145.587C130.727 148.254 126.994 150.654 126.994 148.387C126.994 147.587 127.661 147.054 128.461 147.054C129.261 147.054 129.661 146.254 129.261 145.187C128.461 143.054 129.527 141.454 130.994 142.387C131.661 142.787 131.794 144.254 131.394 145.587ZM93.3938 146.121C94.3272 147.187 94.4605 148.521 93.5272 149.721C92.4605 151.321 92.3272 151.187 92.5938 149.054C92.8605 147.454 92.3272 146.521 91.3938 146.654C90.4605 146.921 89.6605 146.387 89.6605 145.721C89.6605 143.854 91.7938 144.121 93.3938 146.121ZM108.327 151.054C108.327 151.721 107.794 152.387 106.994 152.387C106.327 152.387 105.661 151.721 105.661 151.054C105.661 150.254 106.327 149.721 106.994 149.721C107.794 149.721 108.327 150.254 108.327 151.054ZM132.327 150.254C132.327 150.654 131.794 151.321 130.994 151.721C130.327 152.121 129.661 151.854 129.661 151.187C129.661 150.387 130.327 149.721 130.994 149.721C131.794 149.721 132.327 149.987 132.327 150.254ZM110.994 163.721C110.994 164.387 110.327 164.121 109.661 163.054C108.994 161.987 108.327 160.387 108.327 159.721C108.327 158.921 108.994 159.321 109.661 160.387C110.327 161.454 110.994 162.921 110.994 163.721ZM133.661 175.054C133.661 175.721 133.127 176.387 132.461 176.387C131.661 176.387 130.727 175.721 130.327 175.054C129.927 174.254 130.461 173.721 131.527 173.721C132.727 173.721 133.661 174.254 133.661 175.054Z" fill="black"/>
<path d="M37.6606 132.52C36.4606 134.787 36.4606 150.654 37.6606 153.72C37.9273 154.387 38.4606 156.254 38.7273 158.12C38.8606 158.654 40.0606 158.52 41.394 157.854C43.2606 156.787 43.9273 157.054 43.9273 158.52C43.9273 159.454 43.394 160.387 42.7273 160.387C42.0606 160.387 41.9273 161.054 42.3273 161.72C42.8606 162.52 43.6606 162.787 44.3273 162.387C44.8606 161.987 45.6606 162.654 46.0606 163.587C46.594 164.92 46.0606 165.454 44.3273 165.32C42.994 165.187 42.0606 164.787 42.3273 164.387C42.4606 163.987 41.9273 162.92 40.8606 161.987C39.2606 160.52 38.994 160.654 38.994 162.52C38.994 168.387 50.0606 178.92 54.4606 177.187C55.394 176.787 56.3273 177.187 56.3273 177.987C56.3273 180.52 65.9273 177.987 69.794 174.254C72.194 171.987 73.6606 168.787 74.3273 164.787C75.6606 155.72 75.2606 133.454 73.6606 131.854C72.0606 130.254 68.194 132.12 67.2606 135.054C66.8606 136.12 67.2606 136.387 68.3273 135.72C69.5273 134.92 69.794 135.187 68.994 136.254C68.4606 137.187 67.9273 144.52 67.794 152.387L67.6606 166.92L63.2606 168.92C59.5273 170.787 58.3273 170.787 54.4606 169.187C49.6606 167.187 45.9273 160.92 45.394 153.987C44.994 148.92 43.394 148.387 42.194 153.054C41.1273 157.587 39.6606 157.32 39.6606 152.52C39.6606 150.387 39.9273 148.654 40.3273 148.654C44.994 148.92 45.394 148.254 45.394 140.387C45.394 133.987 44.8606 132.12 42.994 131.054C39.6606 129.187 39.2606 129.32 37.6606 132.52ZM44.3273 133.72C44.3273 134.387 43.6606 135.054 42.8606 135.054C42.194 135.054 41.9273 134.387 42.3273 133.72C42.7273 132.92 43.394 132.387 43.794 132.387C44.0606 132.387 44.3273 132.92 44.3273 133.72ZM73.1273 136.387C73.2606 139.054 72.8606 139.987 71.794 139.454C70.8606 138.92 70.994 139.32 71.9273 140.654C73.6606 142.654 72.994 144.387 70.594 144.387C69.794 144.387 69.6606 143.987 70.0606 143.454C70.594 143.054 70.3273 141.854 69.6606 141.054C68.7273 139.854 68.8606 138.92 70.3273 137.72C71.9273 136.387 72.0606 135.587 70.8606 134.254C69.6606 132.787 69.794 132.387 71.1273 132.387C72.3273 132.387 73.1273 133.987 73.1273 136.387ZM42.3273 137.454C41.9273 137.854 40.8606 137.454 39.9273 136.52C38.7273 135.187 38.8606 135.054 40.7273 135.854C42.0606 136.254 42.7273 137.054 42.3273 137.454ZM40.3273 146.387C40.3273 147.054 39.6606 146.787 38.994 145.72C38.3273 144.654 37.6606 143.054 37.6606 142.387C37.6606 141.587 38.3273 141.987 38.994 143.054C39.6606 144.12 40.3273 145.587 40.3273 146.387ZM44.3273 144.92C44.3273 145.32 43.794 145.987 42.994 146.387C42.3273 146.787 41.6606 146.52 41.6606 145.854C41.6606 145.054 42.3273 144.387 42.994 144.387C43.794 144.387 44.3273 144.654 44.3273 144.92ZM73.2606 146.52C72.8606 146.92 71.6606 147.054 70.7273 146.654C69.6606 146.254 70.0606 145.854 71.5273 145.854C72.994 145.72 73.794 146.12 73.2606 146.52ZM73.9273 149.32C73.1273 149.72 72.7273 150.654 73.1273 151.32C73.6606 152.254 73.394 152.387 72.594 151.854C71.6606 151.32 70.994 151.587 70.994 152.254C70.994 153.054 71.6606 153.72 72.3273 153.72C73.1273 153.72 73.6606 154.92 73.6606 156.387C73.6606 157.854 72.7273 159.054 71.6606 159.054C70.594 159.054 69.6606 158.387 69.6606 157.72C69.6606 156.92 70.3273 156.387 71.2606 156.387C72.4606 156.387 72.4606 155.987 71.2606 154.787C68.594 152.12 69.394 148.92 72.7273 148.787C74.3273 148.787 74.8606 148.92 73.9273 149.32ZM73.6606 161.587C73.6606 162.387 72.994 163.32 72.194 163.72C71.394 164.254 71.1273 165.587 71.6606 166.654C72.194 168.387 72.0606 168.52 70.3273 167.054C67.9273 165.054 67.6606 162.254 70.0606 161.32C72.594 160.254 73.6606 160.254 73.6606 161.587ZM48.3273 168.52C48.3273 169.987 43.394 170.12 42.594 168.654C42.194 168.12 43.394 167.587 45.1273 167.587C46.8606 167.454 48.3273 167.854 48.3273 168.52ZM69.5273 171.187C67.394 172.52 66.4606 171.72 67.6606 169.854C68.0606 169.054 69.1273 168.787 69.9273 169.187C70.7273 169.72 70.594 170.387 69.5273 171.187ZM51.394 170.654C47.9273 171.987 49.794 173.587 54.0606 173.054L58.3273 172.387L54.0606 173.854C50.594 175.187 49.394 175.054 47.794 173.32C45.5273 171.187 46.7273 169.987 50.994 169.987C52.3273 169.987 52.4606 170.12 51.394 170.654ZM64.7273 171.987C63.794 172.387 62.994 173.187 62.994 173.987C62.994 174.787 64.0606 174.92 65.394 174.387C66.994 173.854 67.2606 173.987 66.194 175.054C65.394 175.854 63.794 176.12 62.4606 175.587C60.3273 174.787 60.3273 174.52 62.4606 172.254C63.794 170.787 65.1273 170.12 65.5273 170.52C65.9273 171.054 65.5273 171.72 64.7273 171.987Z" fill="black"/>
<path d="M148.594 130.921C147.261 131.721 146.994 137.321 147.394 154.787C147.794 167.187 148.327 178.121 148.861 178.787C149.794 180.387 162.727 180.387 166.994 178.787C168.861 178.121 170.327 177.721 170.327 177.987C170.327 178.254 172.194 177.054 174.327 175.321C179.794 170.921 186.461 159.454 182.727 160.654C181.794 161.054 180.994 161.854 180.994 162.521C180.861 165.721 177.927 168.654 174.994 168.121C172.061 167.721 171.927 167.587 174.327 165.721C175.794 164.521 176.461 164.387 175.794 165.321C174.461 167.721 176.061 167.454 178.461 165.054C180.327 163.187 179.927 162.521 177.394 162.921C176.727 162.921 176.327 162.521 176.327 161.854C176.327 161.187 178.061 160.387 180.194 159.987C184.861 159.054 185.794 156.121 183.661 147.987C181.661 140.254 177.927 136.121 169.927 132.654C163.661 129.987 151.661 129.054 148.594 130.921ZM154.994 134.387C153.794 135.854 153.794 136.387 154.861 136.387C155.794 136.387 156.194 136.921 155.794 137.587C155.394 138.121 156.461 138.387 158.194 138.121C161.394 137.454 167.927 139.987 172.994 143.854C174.994 145.321 175.661 147.587 175.927 153.054C176.061 159.587 175.794 160.654 171.261 165.721C167.661 169.721 164.994 171.454 161.394 171.987C156.461 172.787 156.327 172.654 156.061 168.254C155.927 165.721 155.794 162.787 155.527 161.721C155.394 160.654 155.261 157.721 155.127 155.321C154.994 152.121 154.461 151.054 152.461 151.054C150.994 151.054 149.527 151.854 149.261 152.654C148.727 153.987 148.461 153.987 148.461 152.654C148.327 151.721 149.794 150.387 151.661 149.721C154.194 148.787 154.994 147.454 154.994 144.521C154.994 139.187 153.661 136.254 151.794 137.321C150.994 137.721 150.727 137.721 151.261 137.054C151.794 136.521 151.261 135.187 149.927 134.121C147.794 132.387 147.927 132.254 150.594 133.054C152.194 133.454 153.794 133.187 154.327 132.387C154.861 131.587 155.527 131.187 155.927 131.587C156.327 131.987 155.927 133.187 154.994 134.387ZM162.061 133.587C162.461 135.454 162.061 135.854 160.194 135.454C157.261 134.654 156.861 132.921 159.394 131.987C160.194 131.587 161.127 131.187 161.127 131.187C161.261 131.054 161.661 132.121 162.061 133.587ZM174.727 136.254C176.194 137.187 176.061 137.454 174.327 138.121C173.127 138.654 172.461 138.521 172.994 137.854C173.394 137.187 172.861 136.254 172.061 135.987C171.127 135.587 170.994 135.187 171.661 135.187C172.461 135.187 173.794 135.587 174.727 136.254ZM150.061 141.054C149.661 142.254 148.994 142.921 148.727 142.521C148.327 142.121 148.461 141.321 148.994 140.521C150.194 138.387 150.994 138.787 150.061 141.054ZM179.127 141.321C180.461 142.787 180.461 143.187 179.394 142.521C178.327 141.987 177.661 142.254 177.527 143.321C177.527 144.654 177.261 144.654 176.727 143.321C176.461 142.521 175.527 141.987 174.994 142.387C174.327 142.787 173.394 142.387 172.861 141.587C172.327 140.654 172.461 140.387 173.394 140.921C174.194 141.321 175.127 141.187 175.661 140.387C176.727 138.654 176.994 138.654 179.127 141.321ZM152.327 144.387C151.261 145.054 149.794 145.721 148.994 145.721C148.327 145.721 148.594 145.054 149.661 144.387C150.727 143.721 152.327 143.054 152.994 143.054C153.794 143.054 153.394 143.721 152.327 144.387ZM180.994 147.187C180.327 149.187 180.461 149.721 181.527 149.187C183.127 148.121 183.527 149.987 182.061 151.587C181.394 152.121 180.994 153.854 180.994 155.454C180.994 159.854 178.061 159.587 177.927 155.054C177.927 152.787 178.461 151.321 179.127 151.721C179.794 152.254 180.327 151.987 180.327 151.187C180.327 150.521 179.794 149.454 178.994 149.054C178.194 148.521 178.327 147.587 179.394 146.387C181.661 143.721 181.927 143.987 180.994 147.187ZM153.661 147.054C153.661 147.721 152.994 148.387 152.194 148.387C151.527 148.387 151.261 147.721 151.661 147.054C152.061 146.254 152.727 145.721 153.127 145.721C153.394 145.721 153.661 146.254 153.661 147.054ZM152.994 157.454C152.594 157.854 151.527 157.454 150.594 156.521C149.394 155.187 149.527 155.054 151.394 155.854C152.727 156.254 153.394 157.054 152.994 157.454ZM153.394 163.321C153.127 163.987 152.327 164.521 151.661 164.521C150.994 164.521 150.194 163.987 149.927 163.321C149.794 162.654 150.461 162.121 151.661 162.121C152.861 162.121 153.527 162.654 153.394 163.321ZM151.527 168.654C150.861 169.587 151.261 169.854 152.727 169.321C154.194 168.787 154.594 169.054 154.061 170.521C153.661 171.587 152.594 172.254 151.794 171.987C149.794 171.321 149.127 167.054 150.994 167.054C151.794 167.054 152.061 167.721 151.527 168.654ZM171.261 172.521C169.794 173.854 168.727 174.121 168.061 173.321C166.727 171.187 167.927 169.854 170.994 170.121C173.394 170.254 173.394 170.387 171.261 172.521ZM164.861 175.854C165.261 176.921 165.127 177.454 164.327 177.054C163.527 176.654 162.994 175.721 162.994 174.921C162.994 173.054 163.927 173.454 164.861 175.854Z" fill="black"/>
<path d="M88.4606 155.854C88.4606 158.787 88.8606 160.254 89.2606 159.454C89.6606 158.254 90.5939 158.121 92.3272 159.054C94.0606 159.987 95.1272 159.987 95.6606 159.054C96.0606 158.387 95.5272 157.721 94.4606 157.721C93.2606 157.721 92.3272 156.921 92.3272 155.854C92.3272 154.921 91.3939 153.321 90.3273 152.387C88.5939 150.921 88.3273 151.454 88.4606 155.854Z" fill="black"/>
<path d="M90.9939 161.72C90.9939 162.387 91.6606 163.054 92.3272 163.054C93.1272 163.054 93.6606 162.387 93.6606 161.72C93.6606 160.92 93.1272 160.387 92.3272 160.387C91.6606 160.387 90.9939 160.92 90.9939 161.72Z" fill="black"/>
<path d="M133.66 161.987C133.66 163.587 132.994 164.121 131.394 163.454C129.394 162.787 129.527 163.054 131.66 164.787C133.26 166.121 133.66 166.921 132.594 167.054C130.727 167.054 131.66 169.721 133.527 169.721C135.127 169.721 136.06 163.587 134.86 161.454C133.927 160.121 133.66 160.254 133.66 161.987Z" fill="black"/>
<path d="M88.7273 167.454C88.5939 172.387 89.1273 173.987 90.9939 175.054C92.9939 176.12 93.7939 175.854 94.9939 173.72C95.7939 172.12 95.9273 171.054 95.1273 171.054C94.4606 171.054 93.6606 171.854 93.2606 172.654C92.9939 173.587 92.3273 173.987 91.7939 173.587C91.2606 173.054 91.6606 171.854 92.7273 170.92C95.2606 168.387 96.4606 164.654 94.9939 163.72C94.4606 163.32 92.9939 163.987 91.9273 165.054C90.0606 166.787 89.7939 166.787 89.2606 164.12C88.9939 162.387 88.7273 163.854 88.7273 167.454Z" fill="black"/>
<path d="M33.6605 190.254C34.5939 191.187 35.5272 191.054 36.4605 190.12C37.6605 188.92 37.3939 188.52 35.2605 188.787C33.3939 188.92 32.8605 189.454 33.6605 190.254Z" fill="black"/>
<path d="M30.9939 32.2539C30.9939 34.3872 36.4606 35.4539 38.1939 33.7206C39.2606 32.3872 39.2606 32.2539 38.0606 32.9206C37.1272 33.4539 36.3272 33.1872 36.3272 32.5206C36.3272 31.7206 35.1272 31.0539 33.6606 31.0539C32.1939 31.0539 30.9939 31.5872 30.9939 32.2539Z" fill="black"/>
<path d="M118.994 219.054C117.394 220.121 117.661 220.387 120.061 220.387C121.794 220.387 122.727 219.854 122.327 219.054C121.394 217.454 121.527 217.454 118.994 219.054Z" fill="black"/>
</svg>
