<svg width="692" height="821" viewBox="0 0 692 821" fill="none" xmlns="http://www.w3.org/2000/svg">
<rect x="48" y="20" width="623" height="791" rx="66" fill="#ECE0CC"/>
<path d="M111.333 1.46646C92.5333 4.13313 74.2667 11.5998 60.8 22.2665C45.7333 33.9998 32 54.5331 27.3333 71.9998C25.8667 77.4665 25.3333 87.5998 25.3333 111.6V144H19.8667C12.6667 144 6 148.133 2.53333 154.8C0.4 159.2 0.133333 160.933 1.2 165.066C3.73333 174.133 11.3333 180 20.8 180H25.3333V251.2V322.266L19.3333 322.933C10.6667 324 4.66667 328.933 2.8 337.066C0.933333 344.4 1.86667 348 7.33333 354.4C10.5333 358.266 11.6 358.666 18.1333 358.666H25.3333V430.8V502.8L17.4667 502.533C10.6667 502.266 9.06667 502.666 4.8 506.133L0 510V520.8C0 531.333 0.133333 531.866 4.26667 535.866C8.4 539.866 9.86667 540.266 20 540.533L24.6667 540.666L25.3333 562.666C25.7333 574.8 25.8667 602.533 25.6 624.4L25.2 664H18.2667C11.0667 664 6.93333 665.866 2.4 671.333C0.8 673.2 0.133333 676.4 0 682.4C0 690.133 0.4 691.333 4 694.666C6.93333 697.333 9.73333 698.533 15.4667 699.066C19.6 699.466 23.3333 700.133 23.7333 700.533C24.1333 700.933 24.6667 706.533 24.9333 713.066C25.6 728.533 27.6 741.2 31.4667 752.4C41.7333 782.667 65.3333 805.867 96.6667 816.933L107.333 820.667H360.667H614L621.867 817.733C651.333 806.533 675.467 782.533 685.333 754.133C692.4 734.4 692 752.8 692 402.266C692 41.8665 692.667 71.1998 683.067 51.9998C679.333 44.5331 674.933 38.9331 666 29.9998C648.933 12.7998 634.8 5.99979 608.133 1.99979C596.533 0.266461 562.8 -0.000205562 357.067 0.133128C226.267 0.266461 115.733 0.799794 111.333 1.46646ZM153.333 34.7998C153.333 35.4665 152.8 35.7331 152 35.3331C150.533 34.3998 150.533 3.86646 150.533 455.866V789.733L136.267 788.933C119.733 788 108.667 785.467 94.6667 779.067C82.9333 773.733 78.8 770.267 71.8667 759.467C64.4 748.133 60.1333 733.333 59.0667 716L58.2667 701.733L64.2667 700.8C67.4667 700.266 75.7333 699.6 82.5333 699.333C96.8 698.666 100.533 696.933 103.6 689.6C107.733 680 105.333 671.733 96.9333 666.666C93.3333 664.4 90.1333 664 75.7333 664H58.6667L58.8 602.933V541.866L77.3333 540.4C97.4667 538.933 98.2667 538.666 103.6 530.133C109.2 521.333 108 512.8 100.267 507.6C95.8667 504.666 93.6 504.266 77.3333 503.466C67.4667 503.066 59.2 502.666 59.0667 502.666C58.8 502.666 58.8 470.666 59.0667 431.6L59.3333 360.666L79.7333 360L100.267 359.333L104.133 354.933C108.8 349.6 109.333 342.4 105.333 334.666C100.8 325.733 99.6 325.466 67.3333 323.466L59.3333 322.933V251.866V180.8L76 180.266C85.2 180.133 94.2667 179.2 96.4 178.4C104.667 175.2 108.667 163.6 104.667 154.533C100.667 145.733 96.2667 144 77.8667 144C69.0667 144 61.2 143.466 60.2667 142.8C58.8 141.866 58.5333 135.866 58.9333 111.866L59.3333 81.9998L63.8667 72.6665C72.6667 54.5331 91.8667 40.1331 113.333 35.4665C123.867 33.1998 153.333 32.6665 153.333 34.7998ZM604.267 35.4665C629.867 40.7998 646.4 51.8665 654.533 69.3331L658 76.6665L658.4 398C658.8 751.333 659.2 729.6 650.667 746.8C645.733 756.8 637.733 767.067 630.267 773.2C624.4 778 610.933 784.8 605.333 785.867C603.467 786.267 598.8 787.067 594.933 787.867C590.133 788.8 520.8 789.333 382 789.333H176.267V411.333L176.4 33.3331L385.6 33.4665C564.667 33.4665 596.267 33.8665 604.267 35.4665Z" fill="black"/>
<path d="M241.733 238.533C234.133 239.467 228.933 243.333 227.067 249.2C224.8 256.267 226.4 259.867 233.6 264.667C238 267.6 240.267 268.133 245.867 267.867C249.6 267.733 269.733 267.467 290.667 267.6C321.733 267.6 330.933 268 341.333 270C359.6 273.467 386.533 274 396.667 271.067C409.333 267.467 443.733 268 474.4 272.533C501.467 276.4 513.467 276.667 539.733 274.133C559.333 272.267 562.8 270.533 565.2 261.733C566.8 256.133 565.733 252.267 561.6 247.6C558.533 244.4 557.2 244 549.467 244C544.667 244 537.067 244.667 532.667 245.333C518.933 247.733 500.533 246.933 476 243.2C447.467 238.8 418.933 238.4 398 242C382.8 244.667 361.067 244.133 344 240.533C336.533 238.933 323.467 238.4 291.333 238C267.867 237.733 245.6 238 241.733 238.533Z" fill="black"/>
<path d="M258 322.8C253.6 323.467 246.133 324.533 241.467 325.2C232.933 326.533 231.333 327.6 227.333 334.8C224.533 339.867 226.933 347.067 232.667 351.467C236.933 354.667 238 354.933 245.733 354.133C250.267 353.733 256.4 352.667 259.333 352C262.267 351.333 276.133 350.933 290 351.2C309.467 351.6 318.533 352.267 329.333 354.533C351.733 359.2 366.933 359.6 388 356C411.333 352.133 430.533 351.867 454 355.067C467.067 356.8 481.467 357.733 502 357.867C531.2 358 531.333 358 538.933 354.4C550 349.2 553.2 342.133 548 333.733C543.6 326.533 541.733 326.133 522.133 328.667C510.4 330.267 501.2 330.667 494 330.133C480.533 329.067 452 325.467 449.467 324.533C448.4 324.133 436.667 323.867 423.467 323.867C404.133 323.867 396.4 324.4 384.667 326.8C367.333 330.133 348.667 329.6 328 325.2C313.6 322.133 271.733 320.667 258 322.8Z" fill="black"/>
<path d="M389.333 408.8C358.8 415.2 346.533 415.733 312 411.866C287.333 409.2 237.2 412.4 230.667 417.2C223.6 422.4 225.333 438 233.467 441.333C236.267 442.533 241.067 442.8 249.733 442C270.133 440.4 305.6 440.133 313.333 441.466C326.533 443.733 356.8 444 369.2 441.866C392.667 437.866 398.4 437.2 411.867 436.933C424.667 436.533 440.8 437.733 449.2 439.466C451.067 439.733 460.533 440.4 470.133 440.933C486.533 441.6 488 441.466 492.267 438.933C503.6 431.866 502.133 416.8 489.6 413.333C486.933 412.666 480.133 412 474.533 412C468.933 412 458.533 411.066 451.2 410C439.6 408.266 395.867 407.333 389.333 408.8Z" fill="black"/>
<path d="M250 496.933C236.267 498.8 232.4 500.533 227.467 507.067C223.467 512.4 225.6 519.333 232.933 524.533L238.533 528.4L255.2 526.133C273.733 523.733 303.467 523.2 318.667 525.2C324.133 526 331.867 526.667 335.867 526.667C342.133 526.667 343.467 526.133 347.467 522.133C350.933 518.667 352 516.533 352 512.8C352 506.267 348.933 500.667 344.4 498.933C333.333 494.8 274 493.467 250 496.933Z" fill="black"/>
<path d="M565.6 514.4C561.733 515.867 556.267 518.8 553.6 520.933C543.067 529.467 525.6 558.4 527.2 564.8C528.8 570.8 525.067 567.733 520 558.8C514.133 548.533 502.8 536.8 494.667 532.667C482.4 526.533 454.133 522.8 438.267 525.333C413.733 529.333 403.867 533.067 388 544.8C361.6 564.267 347.467 586 338 621.6L334.267 635.867L328.133 638.4C324.8 639.867 318.667 642.133 314.667 643.333C301.333 647.733 296.933 655.467 302.667 664.667C306 670.133 306.533 670.267 324.533 673.867C332.667 675.6 339.467 677.6 339.733 678.4C340 679.2 337.067 686 333.2 693.467C324.267 710.933 323.333 717.6 328.933 723.6C334.133 729.2 342.133 731.2 354.667 730.133C375.867 728.267 381.333 724.4 390.267 705.2C394.933 695.2 396.933 692.133 398.533 692.533C399.733 692.933 408.667 693.867 418.4 694.667C441.2 696.667 476.133 694.533 496.933 690C499.467 689.467 500.533 690.4 503.333 695.867C505.067 699.467 508.133 706.533 510 711.6C516.267 728.133 523.867 732.533 546.267 732.667C560.933 732.667 563.867 731.467 569.867 723.6C572.267 720.4 572.267 719.333 570.933 713.333C569.2 705.867 558.133 682.933 551.733 673.733L547.733 667.733L550.8 663.6C564.933 644.667 571.6 631.867 579.333 608.8C587.467 584.933 585.733 587.067 604.533 577.467C622.533 568.4 627.067 564.4 629.333 555.867C632.8 542.933 621.6 525.6 604.4 517.067C593.067 511.6 576.8 510.4 565.6 514.4Z" fill="black"/>
</svg>
